<?xml version="1.0" encoding="UTF-8" standalone="no"?>
<svg
   version="1.1"
   viewBox="-19 0 740.7785 1081.362"
   id="svg1"
   sodipodi:docname="0.svg"
   width="740.7785"
   height="1081.3621"
   inkscape:version="1.3 (0e150ed6c4, 2023-07-21)"
   xmlns:inkscape="http://www.inkscape.org/namespaces/inkscape"
   xmlns:sodipodi="http://sodipodi.sourceforge.net/DTD/sodipodi-0.dtd"
   xmlns="http://www.w3.org/2000/svg"
   xmlns:svg="http://www.w3.org/2000/svg">
  <defs
     id="defs1">
    <pattern
       id="EMFhbasepattern"
       patternUnits="userSpaceOnUse"
       width="6"
       height="6"
       x="0"
       y="0" />
    <pattern
       id="EMFhbasepattern-2"
       patternUnits="userSpaceOnUse"
       width="6"
       height="6"
       x="0"
       y="0" />
    <pattern
       id="EMFhbasepattern-3"
       patternUnits="userSpaceOnUse"
       width="6"
       height="6"
       x="0"
       y="0" />
    <pattern
       id="EMFhbasepattern-0"
       patternUnits="userSpaceOnUse"
       width="6"
       height="6"
       x="0"
       y="0" />
    <pattern
       id="EMFhbasepattern-35"
       patternUnits="userSpaceOnUse"
       width="6"
       height="6"
       x="0"
       y="0" />
    <pattern
       id="EMFhbasepattern-9"
       patternUnits="userSpaceOnUse"
       width="6"
       height="6"
       x="0"
       y="0" />
  </defs>
  <sodipodi:namedview
     id="namedview1"
     pagecolor="#ffffff"
     bordercolor="#000000"
     borderopacity="0.25"
     inkscape:showpageshadow="2"
     inkscape:pageopacity="0.0"
     inkscape:pagecheckerboard="0"
     inkscape:deskcolor="#d1d1d1"
     showgrid="false"
     showguides="true"
     inkscape:zoom="0.54942197"
     inkscape:cx="663.42451"
     inkscape:cy="394.0505"
     inkscape:window-width="1920"
     inkscape:window-height="991"
     inkscape:window-x="-9"
     inkscape:window-y="-9"
     inkscape:window-maximized="1"
     inkscape:current-layer="svg1">
    <sodipodi:guide
       position="12.273985,380.6255"
       orientation="0,-1"
       id="guide1"
       inkscape:locked="false" />
    <sodipodi:guide
       position="389.03358,1081.362"
       orientation="0,-1"
       id="guide2"
       inkscape:locked="false" />
    <sodipodi:guide
       position="175.96615,640.92662"
       orientation="0,-1"
       id="guide3"
       inkscape:locked="false" />
    <sodipodi:guide
       position="845.20682,-1.3392134e-05"
       orientation="0,-1"
       id="guide4"
       inkscape:locked="false" />
    <sodipodi:guide
       position="405.05238,486.48647"
       orientation="0,-1"
       id="guide5"
       inkscape:locked="false" />
  </sodipodi:namedview>
  <path
     style="color:#000000;fill:#000000;stroke-linecap:round;stroke-linejoin:round;-inkscape-stroke:none;paint-order:markers fill stroke"
     d="M 450.65234,3.2246094 C 414.24101,4.8867677 380.01004,23.082628 348.91406,49.558594 286.72211,102.51053 235.13306,189.71951 202.2207,263.76758 a 13.0965,13.0965 0 0 0 -0.0391,1.52148 c -42.80131,45.25057 -115.968779,139.8353 -112.675781,255.82617 2.285702,80.51028 30.812431,149.55973 85.296871,176.46094 27.24223,13.45061 60.39029,15.13905 96.25782,2.63477 35.86752,-12.50429 74.82038,-38.73299 116.89453,-81.33399 C 471.15106,534.63923 546.97887,431.50706 586.13672,330.3418 625.29457,229.17654 627.29493,127.41152 558.52539,53.896484 524.34206,17.354332 487.06368,1.562451 450.65234,3.2246094 Z m 1.19336,26.1660156 c 28.35373,-1.294333 57.12878,9.877165 87.55078,42.398437 60.44111,64.611888 59.5064,153.006318 22.3125,249.097658 -37.19389,96.09134 -111.13469,197.31258 -192.38867,279.58398 -40.15081,40.65358 -76.26375,64.33132 -106.88281,75.00586 -30.61906,10.67455 -55.37791,8.81455 -76.03906,-1.38672 C 145.07613,653.68732 117.80671,595.01707 115.6875,520.37109 111.51525,373.41001 249.02344,256.42383 249.02344,256.42383 a 13.09781,13.09781 0 0 0 0.62304,-0.55664 c 0,0 32.32087,-30.76388 66.30469,-63.43164 16.99191,-16.33388 34.39863,-33.14225 48.41797,-46.84766 14.01934,-13.70541 24.05998,-23.59001 28.53906,-28.7207 a 13.0965,13.0965 0 0 0 -1.25195,-18.478518 13.0965,13.0965 0 0 0 -18.47852,1.251953 c -2.12828,2.437895 -13.19483,13.604295 -27.11914,27.216795 -13.9243,13.6125 -31.29717,30.38961 -48.25976,46.69531 -20.83148,20.02476 -28.15647,26.96732 -40.65625,38.89454 C 287.11173,158.227 325.00657,104.31508 365.89453,69.501953 394.24578,45.362926 423.49198,30.684958 451.8457,29.390625 Z"
     id="path1" />
</svg>
