<?xml version="1.0" encoding="UTF-8" standalone="no"?>
<svg
   version="1.1"
   viewBox="-19 0 535.39254 1078.5071"
   id="svg1"
   sodipodi:docname="1d2.svg"
   width="535.39252"
   height="1078.5071"
   inkscape:version="1.3 (0e150ed6c4, 2023-07-21)"
   xml:space="preserve"
   xmlns:inkscape="http://www.inkscape.org/namespaces/inkscape"
   xmlns:sodipodi="http://sodipodi.sourceforge.net/DTD/sodipodi-0.dtd"
   xmlns="http://www.w3.org/2000/svg"
   xmlns:svg="http://www.w3.org/2000/svg"><defs
     id="defs1"><pattern
       id="EMFhbasepattern"
       patternUnits="userSpaceOnUse"
       width="6"
       height="6"
       x="0"
       y="0" /><pattern
       id="EMFhbasepattern-2"
       patternUnits="userSpaceOnUse"
       width="6"
       height="6"
       x="0"
       y="0" /><pattern
       id="EMFhbasepattern-3"
       patternUnits="userSpaceOnUse"
       width="6"
       height="6"
       x="0"
       y="0" /><pattern
       id="EMFhbasepattern-0"
       patternUnits="userSpaceOnUse"
       width="6"
       height="6"
       x="0"
       y="0" /><pattern
       id="EMFhbasepattern-4"
       patternUnits="userSpaceOnUse"
       width="6"
       height="6"
       x="0"
       y="0" /><pattern
       id="EMFhbasepattern-9"
       patternUnits="userSpaceOnUse"
       width="6"
       height="6"
       x="0"
       y="0" /><pattern
       id="EMFhbasepattern-28"
       patternUnits="userSpaceOnUse"
       width="6"
       height="6"
       x="0"
       y="0" /><pattern
       id="EMFhbasepattern-2-1"
       patternUnits="userSpaceOnUse"
       width="6"
       height="6"
       x="0"
       y="0" /><pattern
       id="EMFhbasepattern-3-4"
       patternUnits="userSpaceOnUse"
       width="6"
       height="6"
       x="0"
       y="0" /><pattern
       id="EMFhbasepattern-0-3"
       patternUnits="userSpaceOnUse"
       width="6"
       height="6"
       x="0"
       y="0" /><pattern
       id="EMFhbasepattern-4-9"
       patternUnits="userSpaceOnUse"
       width="6"
       height="6"
       x="0"
       y="0" /><pattern
       id="EMFhbasepattern-9-0"
       patternUnits="userSpaceOnUse"
       width="6"
       height="6"
       x="0"
       y="0" /><pattern
       id="EMFhbasepattern-1"
       patternUnits="userSpaceOnUse"
       width="6"
       height="6"
       x="0"
       y="0" /><pattern
       id="EMFhbasepattern-2-5"
       patternUnits="userSpaceOnUse"
       width="6"
       height="6"
       x="0"
       y="0" /><pattern
       id="EMFhbasepattern-3-6"
       patternUnits="userSpaceOnUse"
       width="6"
       height="6"
       x="0"
       y="0" /><pattern
       id="EMFhbasepattern-0-6"
       patternUnits="userSpaceOnUse"
       width="6"
       height="6"
       x="0"
       y="0" /><pattern
       id="EMFhbasepattern-4-6"
       patternUnits="userSpaceOnUse"
       width="6"
       height="6"
       x="0"
       y="0" /><pattern
       id="EMFhbasepattern-9-9"
       patternUnits="userSpaceOnUse"
       width="6"
       height="6"
       x="0"
       y="0" /><pattern
       id="EMFhbasepattern-45"
       patternUnits="userSpaceOnUse"
       width="6"
       height="6"
       x="0"
       y="0" /><pattern
       id="EMFhbasepattern-2-55"
       patternUnits="userSpaceOnUse"
       width="6"
       height="6"
       x="0"
       y="0" /><pattern
       id="EMFhbasepattern-3-63"
       patternUnits="userSpaceOnUse"
       width="6"
       height="6"
       x="0"
       y="0" /><pattern
       id="EMFhbasepattern-0-4"
       patternUnits="userSpaceOnUse"
       width="6"
       height="6"
       x="0"
       y="0" /><pattern
       id="EMFhbasepattern-4-7"
       patternUnits="userSpaceOnUse"
       width="6"
       height="6"
       x="0"
       y="0" /><pattern
       id="EMFhbasepattern-9-97"
       patternUnits="userSpaceOnUse"
       width="6"
       height="6"
       x="0"
       y="0" /><pattern
       id="EMFhbasepattern-8"
       patternUnits="userSpaceOnUse"
       width="6"
       height="6"
       x="0"
       y="0" /><pattern
       id="EMFhbasepattern-2-0"
       patternUnits="userSpaceOnUse"
       width="6"
       height="6"
       x="0"
       y="0" /><pattern
       id="EMFhbasepattern-3-9"
       patternUnits="userSpaceOnUse"
       width="6"
       height="6"
       x="0"
       y="0" /><pattern
       id="EMFhbasepattern-0-9"
       patternUnits="userSpaceOnUse"
       width="6"
       height="6"
       x="0"
       y="0" /><pattern
       id="EMFhbasepattern-4-8"
       patternUnits="userSpaceOnUse"
       width="6"
       height="6"
       x="0"
       y="0" /><pattern
       id="EMFhbasepattern-9-96"
       patternUnits="userSpaceOnUse"
       width="6"
       height="6"
       x="0"
       y="0" /><pattern
       id="EMFhbasepattern-5"
       patternUnits="userSpaceOnUse"
       width="6"
       height="6"
       x="0"
       y="0" /><pattern
       id="EMFhbasepattern-2-3"
       patternUnits="userSpaceOnUse"
       width="6"
       height="6"
       x="0"
       y="0" /><pattern
       id="EMFhbasepattern-3-5"
       patternUnits="userSpaceOnUse"
       width="6"
       height="6"
       x="0"
       y="0" /><pattern
       id="EMFhbasepattern-0-2"
       patternUnits="userSpaceOnUse"
       width="6"
       height="6"
       x="0"
       y="0" /><pattern
       id="EMFhbasepattern-4-1"
       patternUnits="userSpaceOnUse"
       width="6"
       height="6"
       x="0"
       y="0" /><pattern
       id="EMFhbasepattern-9-5"
       patternUnits="userSpaceOnUse"
       width="6"
       height="6"
       x="0"
       y="0" /><pattern
       id="EMFhbasepattern-6"
       patternUnits="userSpaceOnUse"
       width="6"
       height="6"
       x="0"
       y="0" /><pattern
       id="EMFhbasepattern-2-6"
       patternUnits="userSpaceOnUse"
       width="6"
       height="6"
       x="0"
       y="0" /><pattern
       id="EMFhbasepattern-3-49"
       patternUnits="userSpaceOnUse"
       width="6"
       height="6"
       x="0"
       y="0" /><pattern
       id="EMFhbasepattern-0-98"
       patternUnits="userSpaceOnUse"
       width="6"
       height="6"
       x="0"
       y="0" /><pattern
       id="EMFhbasepattern-4-63"
       patternUnits="userSpaceOnUse"
       width="6"
       height="6"
       x="0"
       y="0" /><pattern
       id="EMFhbasepattern-9-8"
       patternUnits="userSpaceOnUse"
       width="6"
       height="6"
       x="0"
       y="0" /><pattern
       id="EMFhbasepattern-95"
       patternUnits="userSpaceOnUse"
       width="6"
       height="6"
       x="0"
       y="0" /><pattern
       id="EMFhbasepattern-2-7"
       patternUnits="userSpaceOnUse"
       width="6"
       height="6"
       x="0"
       y="0" /><pattern
       id="EMFhbasepattern-3-8"
       patternUnits="userSpaceOnUse"
       width="6"
       height="6"
       x="0"
       y="0" /><pattern
       id="EMFhbasepattern-0-22"
       patternUnits="userSpaceOnUse"
       width="6"
       height="6"
       x="0"
       y="0" /><pattern
       id="EMFhbasepattern-4-78"
       patternUnits="userSpaceOnUse"
       width="6"
       height="6"
       x="0"
       y="0" /><pattern
       id="EMFhbasepattern-9-09"
       patternUnits="userSpaceOnUse"
       width="6"
       height="6"
       x="0"
       y="0" /></defs><sodipodi:namedview
     id="namedview1"
     pagecolor="#ffffff"
     bordercolor="#000000"
     borderopacity="0.25"
     inkscape:showpageshadow="2"
     inkscape:pageopacity="0.0"
     inkscape:pagecheckerboard="0"
     inkscape:deskcolor="#d1d1d1"
     showgrid="false"
     showguides="true"
     inkscape:zoom="0.3885"
     inkscape:cx="-312.74131"
     inkscape:cy="572.71557"
     inkscape:window-width="1920"
     inkscape:window-height="991"
     inkscape:window-x="-9"
     inkscape:window-y="-9"
     inkscape:window-maximized="1"
     inkscape:current-layer="svg1"><sodipodi:guide
       position="145.45319,381.02139"
       orientation="0,-1"
       id="guide1"
       inkscape:locked="false" /><sodipodi:guide
       position="522.21279,1081.7579"
       orientation="0,-1"
       id="guide2"
       inkscape:locked="false" /><sodipodi:guide
       position="309.14535,641.32251"
       orientation="0,-1"
       id="guide3"
       inkscape:locked="false" /><sodipodi:guide
       position="978.38602,0.39587094"
       orientation="0,-1"
       id="guide4"
       inkscape:locked="false" /><sodipodi:guide
       position="538.23159,486.88236"
       orientation="0,-1"
       id="guide5"
       inkscape:locked="false" /></sodipodi:namedview><path
     style="fill:none;stroke:#000000;stroke-width:26.3;stroke-linecap:round;stroke-linejoin:round;stroke-dasharray:none;stroke-opacity:1"
     d="m 97.798335,415.73549 c 0,0 74.623895,-103.7454 125.586545,-161.98843 C 274.34753,195.50403 367.17236,77.197885 367.17236,77.197885"
     id="path9"
     sodipodi:nodetypes="csc" /><path
     style="color:#000000;fill:#000000;stroke-linecap:round;stroke-linejoin:round;-inkscape-stroke:none;paint-order:markers fill stroke"
     d="m 175.63448,69.823648 a 13.09781,13.09781 0 0 0 -12.85937,7.97657 c -8.21184,19.62422 -16.90342,30.398092 -26.91602,37.630862 -10.0126,7.23276 -22.18237,11.23654 -38.228515,14.72656 a 13.0965,13.0965 0 0 0 -10.013677,15.58008 13.0965,13.0965 0 0 0 15.580082,10.01562 c 8.36777,-1.81998 16.44528,-3.93651 24.20118,-6.76562 -5.11669,9.10618 -9.90977,17.69805 -13.54883,24.85743 -4.72037,9.28669 -9.14368,22.72632 -12.90821,34.35155 -1.882265,5.81262 -3.518945,11.06131 -4.650395,14.60742 -0.56572,1.77306 -1.02529,3.17034 -1.22461,3.73242 -0.0997,0.28105 -0.291397,0.59221 0.20703,-0.42968 0.12461,-0.25548 0.2764,-0.597 0.77539,-1.35547 0.38357,-0.58302 0.36017,-1.64562 2.7168,-3.1875 -0.58352,0.48593 -1.16443,0.86413 -1.73828,1.54492 -1.98412,2.35385 -3.205077,6.00577 -3.205077,8.79297 0,0.70927 -0.32037,1.44898 0.78125,4.50976 0.550817,1.5304 1.570157,4.29876 5.394527,6.6875 3.314675,2.07038 8.021375,2.03274 10.986335,1.2168 0.62403,0.0255 0.62454,0.0372 1.52149,0.0606 4.15901,0.10847 12.77944,0.82891 19.46484,-7.57422 a 13.0965,13.0965 0 0 0 -2.0957,-18.40234 13.0965,13.0965 0 0 0 -4.30078,-1.23438 c 0.11153,-0.34581 0.17185,-0.54855 0.28515,-0.89844 3.6581,-11.29656 8.53683,-25.03816 11.33985,-30.55272 10.95367,-21.54992 36.67278,-61.41672 49.72265,-97.769542 0.005,-0.0119 0.0106,-0.0213 0.0156,-0.0332 l -0.002,-0.002 c 0.0799,-0.22271 0.18473,-0.45138 0.26368,-0.67383 A 13.09781,13.09781 0 0 0 175.63448,69.823648 Z M 111.88839,220.06389 c 0.0714,0.026 0.13825,0.0586 0.20898,0.0859 a 13.0965,13.0965 0 0 0 -0.625,0.3457 c 0.16401,-0.20615 0.26331,-0.25739 0.41602,-0.43164 z"
     id="path2" /><path
     style="color:#000000;fill:#000000;stroke-linecap:round;stroke-linejoin:round;-inkscape-stroke:none;paint-order:markers fill stroke"
     d="m 372.52471,225.80856 c -14.89993,0.34793 -27.27064,5.60505 -36.08789,11.35938 -5.03843,3.28818 -8.98542,6.73265 -11.93164,9.81445 -1.47311,1.5409 -2.68963,2.97391 -3.75391,4.44336 -1.06428,1.46945 -2.12896,1.47458 -3.25,6.84765 a 13.0965,13.0965 0 0 0 10.14454,15.49414 13.0965,13.0965 0 0 0 15.49609,-10.14453 c -0.39104,1.87426 -0.6145,2.33398 -0.81445,2.74414 0.25459,-0.32075 0.52508,-0.67397 1.10937,-1.28515 1.55179,-1.6232 4.09424,-3.87694 7.31446,-5.97852 6.44042,-4.20316 15.31984,-7.82028 26.39453,-7.00781 8.43366,0.61871 14.0263,6.26485 17.18554,16.64258 3.15925,10.37772 2.01877,24.2556 -4.42773,34.91015 -7.54059,12.46285 -23.72949,32.38057 -40.72852,48.77735 -5.51927,5.32372 -11.20131,9.97078 -16.74414,14.20703 -1.95191,-4.48233 -4.26399,-9.17537 -7.65039,-13.94922 -5.20671,-7.33998 -12.74039,-12.66258 -20.94531,-13.44531 -8.20492,-0.78274 -15.05514,2.5918 -20.00586,6.32812 -9.90144,7.47264 -15.03554,16.25719 -17.78906,24.17578 -3.16495,9.10182 -1.70037,19.88144 6.1582,28.5 7.85857,8.61856 21.39983,12.49935 37.72852,9.94727 3.8909,-0.60813 7.68663,-1.79478 11.4414,-3.24024 2.63796,3.06843 5.93577,5.86124 10.18164,7.64453 7.7333,3.24805 16.38322,2.7981 25.79688,0.24414 a 13.0965,13.0965 0 0 0 9.20898,-16.06835 13.0965,13.0965 0 0 0 -16.06836,-9.21094 c -0.67797,0.18393 -0.85485,0.11444 -1.4414,0.24609 6.13944,-5.05636 12.22271,-10.65142 18.31445,-16.52734 18.54263,-17.88569 35.38655,-38.25897 44.95313,-54.07031 10.66069,-17.61963 12.47051,-38.3779 7.07617,-56.09766 -5.39435,-17.71976 -19.85657,-33.63488 -40.32813,-35.13672 -2.22882,-0.16351 -4.40854,-0.21376 -6.53711,-0.16406 z m -71.18359,139.56836 c 0.30601,0.24097 0.9399,0.85912 2.07617,2.46093 2.71495,3.82731 4.49963,8.30301 6.29297,13.2129 -1.50307,0.62995 -2.84499,1.1061 -3.82813,1.25976 -10.80684,1.68905 -13.48757,-0.79282 -14.33007,-1.7168 -0.84251,-0.92398 -0.55801,-2.8676 -0.77344,-2.24804 0.196,-0.56366 5.38496,-9.27301 8.83008,-11.87305 1.23315,-0.93066 1.67085,-1.05717 1.73242,-1.0957 z"
     id="path11-6" /></svg>
