<?xml version="1.0" encoding="UTF-8" standalone="no"?>
<svg
   version="1.1"
   viewBox="-19 0 535.39254 1078.5071"
   id="svg1"
   sodipodi:docname="1d3.svg"
   width="535.39252"
   height="1078.5071"
   inkscape:version="1.3 (0e150ed6c4, 2023-07-21)"
   xml:space="preserve"
   xmlns:inkscape="http://www.inkscape.org/namespaces/inkscape"
   xmlns:sodipodi="http://sodipodi.sourceforge.net/DTD/sodipodi-0.dtd"
   xmlns="http://www.w3.org/2000/svg"
   xmlns:svg="http://www.w3.org/2000/svg"><defs
     id="defs1"><pattern
       id="EMFhbasepattern"
       patternUnits="userSpaceOnUse"
       width="6"
       height="6"
       x="0"
       y="0" /><pattern
       id="EMFhbasepattern-2"
       patternUnits="userSpaceOnUse"
       width="6"
       height="6"
       x="0"
       y="0" /><pattern
       id="EMFhbasepattern-3"
       patternUnits="userSpaceOnUse"
       width="6"
       height="6"
       x="0"
       y="0" /><pattern
       id="EMFhbasepattern-0"
       patternUnits="userSpaceOnUse"
       width="6"
       height="6"
       x="0"
       y="0" /><pattern
       id="EMFhbasepattern-4"
       patternUnits="userSpaceOnUse"
       width="6"
       height="6"
       x="0"
       y="0" /><pattern
       id="EMFhbasepattern-9"
       patternUnits="userSpaceOnUse"
       width="6"
       height="6"
       x="0"
       y="0" /><pattern
       id="EMFhbasepattern-28"
       patternUnits="userSpaceOnUse"
       width="6"
       height="6"
       x="0"
       y="0" /><pattern
       id="EMFhbasepattern-2-1"
       patternUnits="userSpaceOnUse"
       width="6"
       height="6"
       x="0"
       y="0" /><pattern
       id="EMFhbasepattern-3-4"
       patternUnits="userSpaceOnUse"
       width="6"
       height="6"
       x="0"
       y="0" /><pattern
       id="EMFhbasepattern-0-3"
       patternUnits="userSpaceOnUse"
       width="6"
       height="6"
       x="0"
       y="0" /><pattern
       id="EMFhbasepattern-4-9"
       patternUnits="userSpaceOnUse"
       width="6"
       height="6"
       x="0"
       y="0" /><pattern
       id="EMFhbasepattern-9-0"
       patternUnits="userSpaceOnUse"
       width="6"
       height="6"
       x="0"
       y="0" /><pattern
       id="EMFhbasepattern-1"
       patternUnits="userSpaceOnUse"
       width="6"
       height="6"
       x="0"
       y="0" /><pattern
       id="EMFhbasepattern-2-5"
       patternUnits="userSpaceOnUse"
       width="6"
       height="6"
       x="0"
       y="0" /><pattern
       id="EMFhbasepattern-3-6"
       patternUnits="userSpaceOnUse"
       width="6"
       height="6"
       x="0"
       y="0" /><pattern
       id="EMFhbasepattern-0-6"
       patternUnits="userSpaceOnUse"
       width="6"
       height="6"
       x="0"
       y="0" /><pattern
       id="EMFhbasepattern-4-6"
       patternUnits="userSpaceOnUse"
       width="6"
       height="6"
       x="0"
       y="0" /><pattern
       id="EMFhbasepattern-9-9"
       patternUnits="userSpaceOnUse"
       width="6"
       height="6"
       x="0"
       y="0" /><pattern
       id="EMFhbasepattern-45"
       patternUnits="userSpaceOnUse"
       width="6"
       height="6"
       x="0"
       y="0" /><pattern
       id="EMFhbasepattern-2-55"
       patternUnits="userSpaceOnUse"
       width="6"
       height="6"
       x="0"
       y="0" /><pattern
       id="EMFhbasepattern-3-63"
       patternUnits="userSpaceOnUse"
       width="6"
       height="6"
       x="0"
       y="0" /><pattern
       id="EMFhbasepattern-0-4"
       patternUnits="userSpaceOnUse"
       width="6"
       height="6"
       x="0"
       y="0" /><pattern
       id="EMFhbasepattern-4-7"
       patternUnits="userSpaceOnUse"
       width="6"
       height="6"
       x="0"
       y="0" /><pattern
       id="EMFhbasepattern-9-97"
       patternUnits="userSpaceOnUse"
       width="6"
       height="6"
       x="0"
       y="0" /><pattern
       id="EMFhbasepattern-8"
       patternUnits="userSpaceOnUse"
       width="6"
       height="6"
       x="0"
       y="0" /><pattern
       id="EMFhbasepattern-2-0"
       patternUnits="userSpaceOnUse"
       width="6"
       height="6"
       x="0"
       y="0" /><pattern
       id="EMFhbasepattern-3-9"
       patternUnits="userSpaceOnUse"
       width="6"
       height="6"
       x="0"
       y="0" /><pattern
       id="EMFhbasepattern-0-9"
       patternUnits="userSpaceOnUse"
       width="6"
       height="6"
       x="0"
       y="0" /><pattern
       id="EMFhbasepattern-4-8"
       patternUnits="userSpaceOnUse"
       width="6"
       height="6"
       x="0"
       y="0" /><pattern
       id="EMFhbasepattern-9-96"
       patternUnits="userSpaceOnUse"
       width="6"
       height="6"
       x="0"
       y="0" /><pattern
       id="EMFhbasepattern-5"
       patternUnits="userSpaceOnUse"
       width="6"
       height="6"
       x="0"
       y="0" /><pattern
       id="EMFhbasepattern-2-3"
       patternUnits="userSpaceOnUse"
       width="6"
       height="6"
       x="0"
       y="0" /><pattern
       id="EMFhbasepattern-3-5"
       patternUnits="userSpaceOnUse"
       width="6"
       height="6"
       x="0"
       y="0" /><pattern
       id="EMFhbasepattern-0-2"
       patternUnits="userSpaceOnUse"
       width="6"
       height="6"
       x="0"
       y="0" /><pattern
       id="EMFhbasepattern-4-1"
       patternUnits="userSpaceOnUse"
       width="6"
       height="6"
       x="0"
       y="0" /><pattern
       id="EMFhbasepattern-9-5"
       patternUnits="userSpaceOnUse"
       width="6"
       height="6"
       x="0"
       y="0" /><pattern
       id="EMFhbasepattern-6"
       patternUnits="userSpaceOnUse"
       width="6"
       height="6"
       x="0"
       y="0" /><pattern
       id="EMFhbasepattern-2-6"
       patternUnits="userSpaceOnUse"
       width="6"
       height="6"
       x="0"
       y="0" /><pattern
       id="EMFhbasepattern-3-49"
       patternUnits="userSpaceOnUse"
       width="6"
       height="6"
       x="0"
       y="0" /><pattern
       id="EMFhbasepattern-0-98"
       patternUnits="userSpaceOnUse"
       width="6"
       height="6"
       x="0"
       y="0" /><pattern
       id="EMFhbasepattern-4-63"
       patternUnits="userSpaceOnUse"
       width="6"
       height="6"
       x="0"
       y="0" /><pattern
       id="EMFhbasepattern-9-8"
       patternUnits="userSpaceOnUse"
       width="6"
       height="6"
       x="0"
       y="0" /><pattern
       id="EMFhbasepattern-95"
       patternUnits="userSpaceOnUse"
       width="6"
       height="6"
       x="0"
       y="0" /><pattern
       id="EMFhbasepattern-2-7"
       patternUnits="userSpaceOnUse"
       width="6"
       height="6"
       x="0"
       y="0" /><pattern
       id="EMFhbasepattern-3-8"
       patternUnits="userSpaceOnUse"
       width="6"
       height="6"
       x="0"
       y="0" /><pattern
       id="EMFhbasepattern-0-22"
       patternUnits="userSpaceOnUse"
       width="6"
       height="6"
       x="0"
       y="0" /><pattern
       id="EMFhbasepattern-4-78"
       patternUnits="userSpaceOnUse"
       width="6"
       height="6"
       x="0"
       y="0" /><pattern
       id="EMFhbasepattern-9-09"
       patternUnits="userSpaceOnUse"
       width="6"
       height="6"
       x="0"
       y="0" /></defs><sodipodi:namedview
     id="namedview1"
     pagecolor="#ffffff"
     bordercolor="#000000"
     borderopacity="0.25"
     inkscape:showpageshadow="2"
     inkscape:pageopacity="0.0"
     inkscape:pagecheckerboard="0"
     inkscape:deskcolor="#d1d1d1"
     showgrid="false"
     showguides="true"
     inkscape:zoom="0.3885"
     inkscape:cx="-312.74131"
     inkscape:cy="572.71557"
     inkscape:window-width="1920"
     inkscape:window-height="991"
     inkscape:window-x="-9"
     inkscape:window-y="-9"
     inkscape:window-maximized="1"
     inkscape:current-layer="svg1"><sodipodi:guide
       position="145.45319,381.02139"
       orientation="0,-1"
       id="guide1"
       inkscape:locked="false" /><sodipodi:guide
       position="522.21279,1081.7579"
       orientation="0,-1"
       id="guide2"
       inkscape:locked="false" /><sodipodi:guide
       position="309.14535,641.32251"
       orientation="0,-1"
       id="guide3"
       inkscape:locked="false" /><sodipodi:guide
       position="978.38602,0.39587094"
       orientation="0,-1"
       id="guide4"
       inkscape:locked="false" /><sodipodi:guide
       position="538.23159,486.88236"
       orientation="0,-1"
       id="guide5"
       inkscape:locked="false" /></sodipodi:namedview><path
     style="fill:none;stroke:#000000;stroke-width:26.3;stroke-linecap:round;stroke-linejoin:round;stroke-dasharray:none;stroke-opacity:1"
     d="m 97.798335,415.73549 c 0,0 74.623895,-103.7454 125.586545,-161.98843 C 274.34753,195.50403 367.17236,77.197885 367.17236,77.197885"
     id="path9"
     sodipodi:nodetypes="csc" /><path
     style="color:#000000;fill:#000000;stroke-linecap:round;stroke-linejoin:round;-inkscape-stroke:none;paint-order:markers fill stroke"
     d="m 175.63448,69.823648 a 13.09781,13.09781 0 0 0 -12.85937,7.97657 c -8.21184,19.62422 -16.90342,30.398092 -26.91602,37.630862 -10.0126,7.23276 -22.18237,11.23654 -38.228515,14.72656 a 13.0965,13.0965 0 0 0 -10.013677,15.58008 13.0965,13.0965 0 0 0 15.580082,10.01562 c 8.36777,-1.81998 16.44528,-3.93651 24.20118,-6.76562 -5.11669,9.10618 -9.90977,17.69805 -13.54883,24.85743 -4.72037,9.28669 -9.14368,22.72632 -12.90821,34.35155 -1.882265,5.81262 -3.518945,11.06131 -4.650395,14.60742 -0.56572,1.77306 -1.02529,3.17034 -1.22461,3.73242 -0.0997,0.28105 -0.291397,0.59221 0.20703,-0.42968 0.12461,-0.25548 0.2764,-0.597 0.77539,-1.35547 0.38357,-0.58302 0.36017,-1.64562 2.7168,-3.1875 -0.58352,0.48593 -1.16443,0.86413 -1.73828,1.54492 -1.98412,2.35385 -3.205077,6.00577 -3.205077,8.79297 0,0.70927 -0.32037,1.44898 0.78125,4.50976 0.550817,1.5304 1.570157,4.29876 5.394527,6.6875 3.314675,2.07038 8.021375,2.03274 10.986335,1.2168 0.62403,0.0255 0.62454,0.0372 1.52149,0.0606 4.15901,0.10847 12.77944,0.82891 19.46484,-7.57422 a 13.0965,13.0965 0 0 0 -2.0957,-18.40234 13.0965,13.0965 0 0 0 -4.30078,-1.23438 c 0.11153,-0.34581 0.17185,-0.54855 0.28515,-0.89844 3.6581,-11.29656 8.53683,-25.03816 11.33985,-30.55272 10.95367,-21.54992 36.67278,-61.41672 49.72265,-97.769542 0.005,-0.0119 0.0106,-0.0213 0.0156,-0.0332 l -0.002,-0.002 c 0.0799,-0.22271 0.18473,-0.45138 0.26368,-0.67383 A 13.09781,13.09781 0 0 0 175.63448,69.823648 Z M 111.88839,220.06389 c 0.0714,0.026 0.13825,0.0586 0.20898,0.0859 a 13.0965,13.0965 0 0 0 -0.625,0.3457 c 0.16401,-0.20615 0.26331,-0.25739 0.41602,-0.43164 z"
     id="path2" /><path
     style="color:#000000;fill:#000000;stroke-linecap:round;stroke-linejoin:round;-inkscape-stroke:none"
     d="m 380.60274,227.40338 c -3.93092,0.16437 -7.72802,0.79912 -11.44922,1.51562 -14.8848,2.86603 -28.67188,8.78711 -28.67188,8.78711 a 13.15,13.15 0 0 0 -7.02734,17.2168 13.15,13.15 0 0 0 17.2168,7.02929 c 0,0 12.3806,-5.07467 23.45507,-7.20703 3.38344,-0.65147 6.24616,-0.80382 8.50586,-0.80468 -1.00239,1.70196 -2.60365,3.97748 -5.37695,6.63086 -5.12192,4.90043 -12.75828,10.29315 -20.52539,14.99609 -15.53423,9.40588 -31.26563,16.14844 -31.26563,16.14844 a 13.151315,13.151315 0 0 0 5.16016,25.24609 c 0,0 11.65353,0.28913 20.92383,4.03906 4.63515,1.87497 8.10775,4.39814 9.86328,7.01172 1.75553,2.61359 2.90786,5.6006 1.25,12.85547 -3.9654,17.35287 -13.04008,31.58186 -23.65234,39.26367 -10.61227,7.68182 -21.9547,9.89941 -36.3418,3.60352 -32.98081,-14.43265 -48.22266,-38.07813 -48.22266,-38.07813 a 13.15,13.15 0 0 0 -18.18164,-3.90625 13.15,13.15 0 0 0 -3.90625,18.18164 c 0,0 19.64717,30.33949 59.76758,47.89649 22.16356,9.69892 45.29631,5.91913 62.30469,-6.39258 17.00838,-12.31171 28.70078,-32.0748 33.87304,-54.70898 2.911,-12.73866 0.74001,-24.74614 -5.05859,-33.37891 -4.24765,-6.32377 -9.84899,-10.65405 -15.57422,-13.76172 0.9127,-0.53652 1.76431,-0.96605 2.68164,-1.52148 8.74298,-5.29383 17.66954,-11.39651 25.08594,-18.49219 7.4164,-7.09569 14.37336,-15.39537 14.78516,-27.28906 0.18525,-5.35035 -1.33212,-11.23517 -4.83594,-15.62891 -3.50382,-4.39374 -8.27026,-6.7766 -12.5293,-7.94336 -4.25904,-1.16676 -8.32299,-1.47297 -12.2539,-1.30859 z"
     id="path1" /></svg>
