<?xml version="1.0" encoding="UTF-8" standalone="no"?>
<svg
   version="1.1"
   viewBox="-19 0 535.39254 1078.5071"
   id="svg1"
   sodipodi:docname="1d4.svg"
   width="535.39252"
   height="1078.5071"
   inkscape:version="1.3 (0e150ed6c4, 2023-07-21)"
   xml:space="preserve"
   xmlns:inkscape="http://www.inkscape.org/namespaces/inkscape"
   xmlns:sodipodi="http://sodipodi.sourceforge.net/DTD/sodipodi-0.dtd"
   xmlns="http://www.w3.org/2000/svg"
   xmlns:svg="http://www.w3.org/2000/svg"><defs
     id="defs1"><pattern
       id="EMFhbasepattern"
       patternUnits="userSpaceOnUse"
       width="6"
       height="6"
       x="0"
       y="0" /><pattern
       id="EMFhbasepattern-2"
       patternUnits="userSpaceOnUse"
       width="6"
       height="6"
       x="0"
       y="0" /><pattern
       id="EMFhbasepattern-3"
       patternUnits="userSpaceOnUse"
       width="6"
       height="6"
       x="0"
       y="0" /><pattern
       id="EMFhbasepattern-0"
       patternUnits="userSpaceOnUse"
       width="6"
       height="6"
       x="0"
       y="0" /><pattern
       id="EMFhbasepattern-4"
       patternUnits="userSpaceOnUse"
       width="6"
       height="6"
       x="0"
       y="0" /><pattern
       id="EMFhbasepattern-9"
       patternUnits="userSpaceOnUse"
       width="6"
       height="6"
       x="0"
       y="0" /><pattern
       id="EMFhbasepattern-28"
       patternUnits="userSpaceOnUse"
       width="6"
       height="6"
       x="0"
       y="0" /><pattern
       id="EMFhbasepattern-2-1"
       patternUnits="userSpaceOnUse"
       width="6"
       height="6"
       x="0"
       y="0" /><pattern
       id="EMFhbasepattern-3-4"
       patternUnits="userSpaceOnUse"
       width="6"
       height="6"
       x="0"
       y="0" /><pattern
       id="EMFhbasepattern-0-3"
       patternUnits="userSpaceOnUse"
       width="6"
       height="6"
       x="0"
       y="0" /><pattern
       id="EMFhbasepattern-4-9"
       patternUnits="userSpaceOnUse"
       width="6"
       height="6"
       x="0"
       y="0" /><pattern
       id="EMFhbasepattern-9-0"
       patternUnits="userSpaceOnUse"
       width="6"
       height="6"
       x="0"
       y="0" /><pattern
       id="EMFhbasepattern-1"
       patternUnits="userSpaceOnUse"
       width="6"
       height="6"
       x="0"
       y="0" /><pattern
       id="EMFhbasepattern-2-5"
       patternUnits="userSpaceOnUse"
       width="6"
       height="6"
       x="0"
       y="0" /><pattern
       id="EMFhbasepattern-3-6"
       patternUnits="userSpaceOnUse"
       width="6"
       height="6"
       x="0"
       y="0" /><pattern
       id="EMFhbasepattern-0-6"
       patternUnits="userSpaceOnUse"
       width="6"
       height="6"
       x="0"
       y="0" /><pattern
       id="EMFhbasepattern-4-6"
       patternUnits="userSpaceOnUse"
       width="6"
       height="6"
       x="0"
       y="0" /><pattern
       id="EMFhbasepattern-9-9"
       patternUnits="userSpaceOnUse"
       width="6"
       height="6"
       x="0"
       y="0" /><pattern
       id="EMFhbasepattern-45"
       patternUnits="userSpaceOnUse"
       width="6"
       height="6"
       x="0"
       y="0" /><pattern
       id="EMFhbasepattern-2-55"
       patternUnits="userSpaceOnUse"
       width="6"
       height="6"
       x="0"
       y="0" /><pattern
       id="EMFhbasepattern-3-63"
       patternUnits="userSpaceOnUse"
       width="6"
       height="6"
       x="0"
       y="0" /><pattern
       id="EMFhbasepattern-0-4"
       patternUnits="userSpaceOnUse"
       width="6"
       height="6"
       x="0"
       y="0" /><pattern
       id="EMFhbasepattern-4-7"
       patternUnits="userSpaceOnUse"
       width="6"
       height="6"
       x="0"
       y="0" /><pattern
       id="EMFhbasepattern-9-97"
       patternUnits="userSpaceOnUse"
       width="6"
       height="6"
       x="0"
       y="0" /><pattern
       id="EMFhbasepattern-8"
       patternUnits="userSpaceOnUse"
       width="6"
       height="6"
       x="0"
       y="0" /><pattern
       id="EMFhbasepattern-2-0"
       patternUnits="userSpaceOnUse"
       width="6"
       height="6"
       x="0"
       y="0" /><pattern
       id="EMFhbasepattern-3-9"
       patternUnits="userSpaceOnUse"
       width="6"
       height="6"
       x="0"
       y="0" /><pattern
       id="EMFhbasepattern-0-9"
       patternUnits="userSpaceOnUse"
       width="6"
       height="6"
       x="0"
       y="0" /><pattern
       id="EMFhbasepattern-4-8"
       patternUnits="userSpaceOnUse"
       width="6"
       height="6"
       x="0"
       y="0" /><pattern
       id="EMFhbasepattern-9-96"
       patternUnits="userSpaceOnUse"
       width="6"
       height="6"
       x="0"
       y="0" /><pattern
       id="EMFhbasepattern-5"
       patternUnits="userSpaceOnUse"
       width="6"
       height="6"
       x="0"
       y="0" /><pattern
       id="EMFhbasepattern-2-3"
       patternUnits="userSpaceOnUse"
       width="6"
       height="6"
       x="0"
       y="0" /><pattern
       id="EMFhbasepattern-3-5"
       patternUnits="userSpaceOnUse"
       width="6"
       height="6"
       x="0"
       y="0" /><pattern
       id="EMFhbasepattern-0-2"
       patternUnits="userSpaceOnUse"
       width="6"
       height="6"
       x="0"
       y="0" /><pattern
       id="EMFhbasepattern-4-1"
       patternUnits="userSpaceOnUse"
       width="6"
       height="6"
       x="0"
       y="0" /><pattern
       id="EMFhbasepattern-9-5"
       patternUnits="userSpaceOnUse"
       width="6"
       height="6"
       x="0"
       y="0" /><pattern
       id="EMFhbasepattern-6"
       patternUnits="userSpaceOnUse"
       width="6"
       height="6"
       x="0"
       y="0" /><pattern
       id="EMFhbasepattern-2-6"
       patternUnits="userSpaceOnUse"
       width="6"
       height="6"
       x="0"
       y="0" /><pattern
       id="EMFhbasepattern-3-49"
       patternUnits="userSpaceOnUse"
       width="6"
       height="6"
       x="0"
       y="0" /><pattern
       id="EMFhbasepattern-0-98"
       patternUnits="userSpaceOnUse"
       width="6"
       height="6"
       x="0"
       y="0" /><pattern
       id="EMFhbasepattern-4-63"
       patternUnits="userSpaceOnUse"
       width="6"
       height="6"
       x="0"
       y="0" /><pattern
       id="EMFhbasepattern-9-8"
       patternUnits="userSpaceOnUse"
       width="6"
       height="6"
       x="0"
       y="0" /><pattern
       id="EMFhbasepattern-95"
       patternUnits="userSpaceOnUse"
       width="6"
       height="6"
       x="0"
       y="0" /><pattern
       id="EMFhbasepattern-2-7"
       patternUnits="userSpaceOnUse"
       width="6"
       height="6"
       x="0"
       y="0" /><pattern
       id="EMFhbasepattern-3-8"
       patternUnits="userSpaceOnUse"
       width="6"
       height="6"
       x="0"
       y="0" /><pattern
       id="EMFhbasepattern-0-22"
       patternUnits="userSpaceOnUse"
       width="6"
       height="6"
       x="0"
       y="0" /><pattern
       id="EMFhbasepattern-4-78"
       patternUnits="userSpaceOnUse"
       width="6"
       height="6"
       x="0"
       y="0" /><pattern
       id="EMFhbasepattern-9-09"
       patternUnits="userSpaceOnUse"
       width="6"
       height="6"
       x="0"
       y="0" /></defs><sodipodi:namedview
     id="namedview1"
     pagecolor="#ffffff"
     bordercolor="#000000"
     borderopacity="0.25"
     inkscape:showpageshadow="2"
     inkscape:pageopacity="0.0"
     inkscape:pagecheckerboard="0"
     inkscape:deskcolor="#d1d1d1"
     showgrid="false"
     showguides="true"
     inkscape:zoom="0.27471099"
     inkscape:cx="-398.60073"
     inkscape:cy="744.41872"
     inkscape:window-width="1920"
     inkscape:window-height="991"
     inkscape:window-x="-9"
     inkscape:window-y="-9"
     inkscape:window-maximized="1"
     inkscape:current-layer="svg1"><sodipodi:guide
       position="145.45319,381.02139"
       orientation="0,-1"
       id="guide1"
       inkscape:locked="false" /><sodipodi:guide
       position="522.21279,1081.7579"
       orientation="0,-1"
       id="guide2"
       inkscape:locked="false" /><sodipodi:guide
       position="309.14535,641.32251"
       orientation="0,-1"
       id="guide3"
       inkscape:locked="false" /><sodipodi:guide
       position="978.38602,0.39587094"
       orientation="0,-1"
       id="guide4"
       inkscape:locked="false" /><sodipodi:guide
       position="538.23159,486.88236"
       orientation="0,-1"
       id="guide5"
       inkscape:locked="false" /></sodipodi:namedview><path
     style="fill:none;stroke:#000000;stroke-width:26.3;stroke-linecap:round;stroke-linejoin:round;stroke-dasharray:none;stroke-opacity:1"
     d="m 97.798335,415.73549 c 0,0 74.623895,-103.7454 125.586545,-161.98843 C 274.34753,195.50403 367.17236,77.197885 367.17236,77.197885"
     id="path9"
     sodipodi:nodetypes="csc" /><path
     style="color:#000000;fill:#000000;stroke-linecap:round;stroke-linejoin:round;-inkscape-stroke:none;paint-order:markers fill stroke"
     d="m 175.63448,69.823648 a 13.09781,13.09781 0 0 0 -12.85937,7.97657 c -8.21184,19.62422 -16.90342,30.398092 -26.91602,37.630862 -10.0126,7.23276 -22.18237,11.23654 -38.228515,14.72656 a 13.0965,13.0965 0 0 0 -10.013677,15.58008 13.0965,13.0965 0 0 0 15.580082,10.01562 c 8.36777,-1.81998 16.44528,-3.93651 24.20118,-6.76562 -5.11669,9.10618 -9.90977,17.69805 -13.54883,24.85743 -4.72037,9.28669 -9.14368,22.72632 -12.90821,34.35155 -1.882265,5.81262 -3.518945,11.06131 -4.650395,14.60742 -0.56572,1.77306 -1.02529,3.17034 -1.22461,3.73242 -0.0997,0.28105 -0.291397,0.59221 0.20703,-0.42968 0.12461,-0.25548 0.2764,-0.597 0.77539,-1.35547 0.38357,-0.58302 0.36017,-1.64562 2.7168,-3.1875 -0.58352,0.48593 -1.16443,0.86413 -1.73828,1.54492 -1.98412,2.35385 -3.205077,6.00577 -3.205077,8.79297 0,0.70927 -0.32037,1.44898 0.78125,4.50976 0.550817,1.5304 1.570157,4.29876 5.394527,6.6875 3.314675,2.07038 8.021375,2.03274 10.986335,1.2168 0.62403,0.0255 0.62454,0.0372 1.52149,0.0606 4.15901,0.10847 12.77944,0.82891 19.46484,-7.57422 a 13.0965,13.0965 0 0 0 -2.0957,-18.40234 13.0965,13.0965 0 0 0 -4.30078,-1.23438 c 0.11153,-0.34581 0.17185,-0.54855 0.28515,-0.89844 3.6581,-11.29656 8.53683,-25.03816 11.33985,-30.55272 10.95367,-21.54992 36.67278,-61.41672 49.72265,-97.769542 0.005,-0.0119 0.0106,-0.0213 0.0156,-0.0332 l -0.002,-0.002 c 0.0799,-0.22271 0.18473,-0.45138 0.26368,-0.67383 A 13.09781,13.09781 0 0 0 175.63448,69.823648 Z M 111.88839,220.06389 c 0.0714,0.026 0.13825,0.0586 0.20898,0.0859 a 13.0965,13.0965 0 0 0 -0.625,0.3457 c 0.16401,-0.20615 0.26331,-0.25739 0.41602,-0.43164 z"
     id="path2" /><path
     style="color:#000000;fill:#000000;stroke-linecap:round;stroke-linejoin:round;-inkscape-stroke:none"
     d="m 291.87761,227.04628 a 13.15,13.15 0 0 0 -15.01172,10.97461 c 0,0 -3.02248,19.43641 -6.86719,39.41016 -1.92235,9.98687 -4.06208,20.11991 -6.03711,27.71875 -0.98751,3.79941 -1.95439,6.9927 -2.67383,8.92382 -0.71944,1.93113 -3.10341,2.89141 1.4629,-0.66015 -1.63973,1.27534 -4.23773,3.65976 -5.17579,8.22851 -0.93805,4.56875 1.17653,9.49453 3.04883,11.68164 3.74461,4.37422 5.75895,4.23379 7.54883,4.83789 3.57976,1.2082 6.79136,1.68355 10.91602,2.23438 8.24931,1.10165 19.20123,1.85885 30.78906,2.25 11.58782,0.39115 23.68012,0.40041 33.92968,-0.1543 4.81946,-0.26083 9.13005,-0.67048 13.07227,-1.25781 -4.15409,19.74559 -8.42622,39.83146 -12.08594,55.49023 -2.15441,9.21804 -4.12086,17.15191 -5.72461,22.95313 -1.60375,5.80122 -4.21011,11.05102 -2.49609,8.30859 a 13.15,13.15 0 0 0 4.18164,18.12109 13.15,13.15 0 0 0 18.12109,-4.18164 c 3.61749,-5.78799 3.77205,-8.84138 5.54102,-15.24023 1.76897,-6.39885 3.78849,-14.56241 5.98828,-23.97461 4.39957,-18.8244 9.50168,-42.58546 14.36719,-65.95898 9.73102,-46.74705 18.5,-91.92188 18.5,-91.92188 a 13.151315,13.151315 0 0 0 -25.75781,-5.30468 c 0,0 -4.13701,18.96877 -9.53907,38.62109 -2.70103,9.82616 -5.73392,19.82417 -8.55273,27.33008 -1.40941,3.75295 -2.78973,6.8973 -3.82227,8.82422 -0.12594,0.23502 -0.18271,0.23186 -0.3125,0.42382 -0.55559,0.17024 -0.93316,0.33349 -1.68945,0.45313 -2.7126,0.42911 -6.6637,0.80664 -11.21094,1.05273 -9.09448,0.4922 -20.65472,0.5011 -31.62304,0.13086 -8.38263,-0.28295 -15.94036,-0.83386 -22.29883,-1.46093 0.30679,-1.1016 0.64609,-1.96097 0.95117,-3.13477 2.23641,-8.60448 4.42844,-19.07622 6.4082,-29.36133 3.95953,-20.57022 7.0293,-40.3457 7.0293,-40.3457 a 13.15,13.15 0 0 0 -10.97656,-15.01172 z m -15.29297,86.19531 c 0.005,0.002 0.25332,-0.1461 0.89258,0.16211 -0.1092,-0.0251 -0.89551,-0.1631 -0.89258,-0.16211 z"
     id="path2-0" /></svg>
