<?xml version="1.0" encoding="UTF-8" standalone="no"?>
<svg
   version="1.1"
   viewBox="-19 0 511.44659 1081.362"
   id="svg1"
   sodipodi:docname="2.svg"
   width="511.44659"
   height="1081.3621"
   inkscape:version="1.3 (0e150ed6c4, 2023-07-21)"
   xmlns:inkscape="http://www.inkscape.org/namespaces/inkscape"
   xmlns:sodipodi="http://sodipodi.sourceforge.net/DTD/sodipodi-0.dtd"
   xmlns="http://www.w3.org/2000/svg"
   xmlns:svg="http://www.w3.org/2000/svg">
  <defs
     id="defs1">
    <pattern
       id="EMFhbasepattern"
       patternUnits="userSpaceOnUse"
       width="6"
       height="6"
       x="0"
       y="0" />
    <pattern
       id="EMFhbasepattern-2"
       patternUnits="userSpaceOnUse"
       width="6"
       height="6"
       x="0"
       y="0" />
    <pattern
       id="EMFhbasepattern-3"
       patternUnits="userSpaceOnUse"
       width="6"
       height="6"
       x="0"
       y="0" />
    <pattern
       id="EMFhbasepattern-0"
       patternUnits="userSpaceOnUse"
       width="6"
       height="6"
       x="0"
       y="0" />
    <pattern
       id="EMFhbasepattern-35"
       patternUnits="userSpaceOnUse"
       width="6"
       height="6"
       x="0"
       y="0" />
    <pattern
       id="EMFhbasepattern-4"
       patternUnits="userSpaceOnUse"
       width="6"
       height="6"
       x="0"
       y="0" />
  </defs>
  <sodipodi:namedview
     id="namedview1"
     pagecolor="#ffffff"
     bordercolor="#000000"
     borderopacity="0.25"
     inkscape:showpageshadow="2"
     inkscape:pageopacity="0.0"
     inkscape:pagecheckerboard="0"
     inkscape:deskcolor="#d1d1d1"
     showgrid="false"
     showguides="true"
     inkscape:zoom="0.27471098"
     inkscape:cx="-252.99316"
     inkscape:cy="285.75486"
     inkscape:window-width="1920"
     inkscape:window-height="991"
     inkscape:window-x="-9"
     inkscape:window-y="-9"
     inkscape:window-maximized="1"
     inkscape:current-layer="svg1">
    <sodipodi:guide
       position="-89.651313,380.6255"
       orientation="0,-1"
       id="guide1"
       inkscape:locked="false" />
    <sodipodi:guide
       position="287.10828,1081.362"
       orientation="0,-1"
       id="guide2"
       inkscape:locked="false" />
    <sodipodi:guide
       position="74.040852,640.92662"
       orientation="0,-1"
       id="guide3"
       inkscape:locked="false" />
    <sodipodi:guide
       position="743.28152,-1.3392134e-05"
       orientation="0,-1"
       id="guide4"
       inkscape:locked="false" />
    <sodipodi:guide
       position="303.12708,486.48647"
       orientation="0,-1"
       id="guide5"
       inkscape:locked="false" />
  </sodipodi:namedview>
  <path
     style="fill:none;fill-opacity:1;stroke:#000000;stroke-width:26.193;stroke-linecap:round;stroke-linejoin:round;stroke-dasharray:none;stroke-opacity:1;paint-order:markers fill stroke"
     d="m 341.79064,457.75082 c 0,-3.98278 -16.75114,-61.10756 -102.55644,-58.74594 -108.5306,2.9871 -104.54783,67.70718 -104.54783,67.70718 0,0 -14.93541,77.66408 113.50908,67.70716 101.49511,-7.86783 116.49615,76.66841 116.49615,76.66841 0,0 2.98708,79.65549 -106.53923,70.69424 -109.52629,-8.96123 -94.59088,-37.83635 -94.59088,-37.83635"
     id="path10-7"
     sodipodi:nodetypes="cscscsc" />
  <path
     style="fill:none;fill-opacity:1;stroke:#000000;stroke-width:26.193;stroke-linecap:round;stroke-linejoin:round;stroke-dasharray:none;stroke-opacity:1;paint-order:markers fill stroke"
     d="m 836.83134,-34.17829 c 2.60633,-12.00826 83.40234,-102.07032 211.11236,-93.06412 127.7098,9.0062 177.23,183.1262 101.6465,303.20895 C 1074.0069,296.04929 857.68185,518.2024 737.79099,536.2148 617.90005,554.22722 594.44314,482.17756 607.47476,446.15273 c 13.03163,-36.02482 91.22137,-148.60239 157.68266,-58.54033 66.46125,90.06207 37.79175,205.64171 175.92691,169.61689"
     id="path11-6" />
</svg>
