<?xml version="1.0" encoding="UTF-8" standalone="no"?>
<svg
   version="1.1"
   viewBox="-19 0 535.39254 1078.5071"
   id="svg1"
   sodipodi:docname="2d3.svg"
   width="535.39252"
   height="1078.5071"
   inkscape:version="1.3 (0e150ed6c4, 2023-07-21)"
   xml:space="preserve"
   xmlns:inkscape="http://www.inkscape.org/namespaces/inkscape"
   xmlns:sodipodi="http://sodipodi.sourceforge.net/DTD/sodipodi-0.dtd"
   xmlns="http://www.w3.org/2000/svg"
   xmlns:svg="http://www.w3.org/2000/svg"><defs
     id="defs1"><pattern
       id="EMFhbasepattern"
       patternUnits="userSpaceOnUse"
       width="6"
       height="6"
       x="0"
       y="0" /><pattern
       id="EMFhbasepattern-2"
       patternUnits="userSpaceOnUse"
       width="6"
       height="6"
       x="0"
       y="0" /><pattern
       id="EMFhbasepattern-3"
       patternUnits="userSpaceOnUse"
       width="6"
       height="6"
       x="0"
       y="0" /><pattern
       id="EMFhbasepattern-0"
       patternUnits="userSpaceOnUse"
       width="6"
       height="6"
       x="0"
       y="0" /><pattern
       id="EMFhbasepattern-4"
       patternUnits="userSpaceOnUse"
       width="6"
       height="6"
       x="0"
       y="0" /><pattern
       id="EMFhbasepattern-9"
       patternUnits="userSpaceOnUse"
       width="6"
       height="6"
       x="0"
       y="0" /><pattern
       id="EMFhbasepattern-28"
       patternUnits="userSpaceOnUse"
       width="6"
       height="6"
       x="0"
       y="0" /><pattern
       id="EMFhbasepattern-2-1"
       patternUnits="userSpaceOnUse"
       width="6"
       height="6"
       x="0"
       y="0" /><pattern
       id="EMFhbasepattern-3-4"
       patternUnits="userSpaceOnUse"
       width="6"
       height="6"
       x="0"
       y="0" /><pattern
       id="EMFhbasepattern-0-3"
       patternUnits="userSpaceOnUse"
       width="6"
       height="6"
       x="0"
       y="0" /><pattern
       id="EMFhbasepattern-4-9"
       patternUnits="userSpaceOnUse"
       width="6"
       height="6"
       x="0"
       y="0" /><pattern
       id="EMFhbasepattern-9-0"
       patternUnits="userSpaceOnUse"
       width="6"
       height="6"
       x="0"
       y="0" /><pattern
       id="EMFhbasepattern-1"
       patternUnits="userSpaceOnUse"
       width="6"
       height="6"
       x="0"
       y="0" /><pattern
       id="EMFhbasepattern-2-5"
       patternUnits="userSpaceOnUse"
       width="6"
       height="6"
       x="0"
       y="0" /><pattern
       id="EMFhbasepattern-3-6"
       patternUnits="userSpaceOnUse"
       width="6"
       height="6"
       x="0"
       y="0" /><pattern
       id="EMFhbasepattern-0-6"
       patternUnits="userSpaceOnUse"
       width="6"
       height="6"
       x="0"
       y="0" /><pattern
       id="EMFhbasepattern-4-6"
       patternUnits="userSpaceOnUse"
       width="6"
       height="6"
       x="0"
       y="0" /><pattern
       id="EMFhbasepattern-9-9"
       patternUnits="userSpaceOnUse"
       width="6"
       height="6"
       x="0"
       y="0" /><pattern
       id="EMFhbasepattern-45"
       patternUnits="userSpaceOnUse"
       width="6"
       height="6"
       x="0"
       y="0" /><pattern
       id="EMFhbasepattern-2-55"
       patternUnits="userSpaceOnUse"
       width="6"
       height="6"
       x="0"
       y="0" /><pattern
       id="EMFhbasepattern-3-63"
       patternUnits="userSpaceOnUse"
       width="6"
       height="6"
       x="0"
       y="0" /><pattern
       id="EMFhbasepattern-0-4"
       patternUnits="userSpaceOnUse"
       width="6"
       height="6"
       x="0"
       y="0" /><pattern
       id="EMFhbasepattern-4-7"
       patternUnits="userSpaceOnUse"
       width="6"
       height="6"
       x="0"
       y="0" /><pattern
       id="EMFhbasepattern-9-97"
       patternUnits="userSpaceOnUse"
       width="6"
       height="6"
       x="0"
       y="0" /><pattern
       id="EMFhbasepattern-8"
       patternUnits="userSpaceOnUse"
       width="6"
       height="6"
       x="0"
       y="0" /><pattern
       id="EMFhbasepattern-2-0"
       patternUnits="userSpaceOnUse"
       width="6"
       height="6"
       x="0"
       y="0" /><pattern
       id="EMFhbasepattern-3-9"
       patternUnits="userSpaceOnUse"
       width="6"
       height="6"
       x="0"
       y="0" /><pattern
       id="EMFhbasepattern-0-9"
       patternUnits="userSpaceOnUse"
       width="6"
       height="6"
       x="0"
       y="0" /><pattern
       id="EMFhbasepattern-4-8"
       patternUnits="userSpaceOnUse"
       width="6"
       height="6"
       x="0"
       y="0" /><pattern
       id="EMFhbasepattern-9-96"
       patternUnits="userSpaceOnUse"
       width="6"
       height="6"
       x="0"
       y="0" /><pattern
       id="EMFhbasepattern-5"
       patternUnits="userSpaceOnUse"
       width="6"
       height="6"
       x="0"
       y="0" /><pattern
       id="EMFhbasepattern-2-3"
       patternUnits="userSpaceOnUse"
       width="6"
       height="6"
       x="0"
       y="0" /><pattern
       id="EMFhbasepattern-3-5"
       patternUnits="userSpaceOnUse"
       width="6"
       height="6"
       x="0"
       y="0" /><pattern
       id="EMFhbasepattern-0-2"
       patternUnits="userSpaceOnUse"
       width="6"
       height="6"
       x="0"
       y="0" /><pattern
       id="EMFhbasepattern-4-1"
       patternUnits="userSpaceOnUse"
       width="6"
       height="6"
       x="0"
       y="0" /><pattern
       id="EMFhbasepattern-9-5"
       patternUnits="userSpaceOnUse"
       width="6"
       height="6"
       x="0"
       y="0" /><pattern
       id="EMFhbasepattern-6"
       patternUnits="userSpaceOnUse"
       width="6"
       height="6"
       x="0"
       y="0" /><pattern
       id="EMFhbasepattern-2-6"
       patternUnits="userSpaceOnUse"
       width="6"
       height="6"
       x="0"
       y="0" /><pattern
       id="EMFhbasepattern-3-49"
       patternUnits="userSpaceOnUse"
       width="6"
       height="6"
       x="0"
       y="0" /><pattern
       id="EMFhbasepattern-0-98"
       patternUnits="userSpaceOnUse"
       width="6"
       height="6"
       x="0"
       y="0" /><pattern
       id="EMFhbasepattern-4-63"
       patternUnits="userSpaceOnUse"
       width="6"
       height="6"
       x="0"
       y="0" /><pattern
       id="EMFhbasepattern-9-8"
       patternUnits="userSpaceOnUse"
       width="6"
       height="6"
       x="0"
       y="0" /><pattern
       id="EMFhbasepattern-95"
       patternUnits="userSpaceOnUse"
       width="6"
       height="6"
       x="0"
       y="0" /><pattern
       id="EMFhbasepattern-2-7"
       patternUnits="userSpaceOnUse"
       width="6"
       height="6"
       x="0"
       y="0" /><pattern
       id="EMFhbasepattern-3-8"
       patternUnits="userSpaceOnUse"
       width="6"
       height="6"
       x="0"
       y="0" /><pattern
       id="EMFhbasepattern-0-22"
       patternUnits="userSpaceOnUse"
       width="6"
       height="6"
       x="0"
       y="0" /><pattern
       id="EMFhbasepattern-4-78"
       patternUnits="userSpaceOnUse"
       width="6"
       height="6"
       x="0"
       y="0" /><pattern
       id="EMFhbasepattern-9-09"
       patternUnits="userSpaceOnUse"
       width="6"
       height="6"
       x="0"
       y="0" /></defs><sodipodi:namedview
     id="namedview1"
     pagecolor="#ffffff"
     bordercolor="#000000"
     borderopacity="0.25"
     inkscape:showpageshadow="2"
     inkscape:pageopacity="0.0"
     inkscape:pagecheckerboard="0"
     inkscape:deskcolor="#d1d1d1"
     showgrid="false"
     showguides="true"
     inkscape:zoom="0.3885"
     inkscape:cx="-312.74131"
     inkscape:cy="572.71557"
     inkscape:window-width="1920"
     inkscape:window-height="991"
     inkscape:window-x="-9"
     inkscape:window-y="-9"
     inkscape:window-maximized="1"
     inkscape:current-layer="svg1"><sodipodi:guide
       position="145.45319,381.02139"
       orientation="0,-1"
       id="guide1"
       inkscape:locked="false" /><sodipodi:guide
       position="522.21279,1081.7579"
       orientation="0,-1"
       id="guide2"
       inkscape:locked="false" /><sodipodi:guide
       position="309.14535,641.32251"
       orientation="0,-1"
       id="guide3"
       inkscape:locked="false" /><sodipodi:guide
       position="978.38602,0.39587094"
       orientation="0,-1"
       id="guide4"
       inkscape:locked="false" /><sodipodi:guide
       position="538.23159,486.88236"
       orientation="0,-1"
       id="guide5"
       inkscape:locked="false" /></sodipodi:namedview><path
     style="fill:none;stroke:#000000;stroke-width:26.3;stroke-linecap:round;stroke-linejoin:round;stroke-dasharray:none;stroke-opacity:1"
     d="m 97.798335,415.73549 c 0,0 74.623895,-103.7454 125.586545,-161.98843 C 274.34753,195.50403 367.17236,77.197885 367.17236,77.197885"
     id="path9"
     sodipodi:nodetypes="csc" /><path
     style="color:#000000;fill:#000000;stroke-linecap:round;stroke-linejoin:round;-inkscape-stroke:none;paint-order:markers fill stroke"
     d="m 148.58648,55.924389 c -14.89993,0.34793 -27.27064,5.60505 -36.08789,11.35938 -5.03843,3.28818 -8.98542,6.73265 -11.93164,9.81445 -1.473107,1.5409 -2.689627,2.97391 -3.753907,4.44336 -1.06428,1.46945 -2.12896,1.47458 -3.25,6.84765 a 13.0965,13.0965 0 0 0 10.144537,15.494141 13.0965,13.0965 0 0 0 15.49609,-10.144531 c -0.39104,1.87426 -0.6145,2.33398 -0.81445,2.74414 0.25459,-0.32075 0.52508,-0.67397 1.10937,-1.28515 1.55179,-1.6232 4.09424,-3.87694 7.31446,-5.97852 6.44042,-4.20316 15.31984,-7.82028 26.39453,-7.00781 8.43366,0.61871 14.0263,6.26485 17.18554,16.64258 3.15925,10.377721 2.01877,24.255601 -4.42773,34.910151 -7.54059,12.46285 -23.72949,32.38057 -40.72852,48.77735 -5.51927,5.32372 -11.20131,9.97078 -16.74414,14.20703 -1.95191,-4.48233 -4.26399,-9.17537 -7.65039,-13.94922 -5.206707,-7.33998 -12.740387,-12.66258 -20.945307,-13.44531 -8.20492,-0.78274 -15.05514,2.5918 -20.00586,6.32812 -9.90144,7.47264 -15.03554,16.25719 -17.78906,24.17578 -3.16495,9.10182 -1.70037,19.88144 6.1582,28.5 7.85857,8.61856 21.39983,12.49935 37.72852,9.94727 3.8909,-0.60813 7.68663,-1.79478 11.4414,-3.24024 2.637957,3.06843 5.935767,5.86124 10.181637,7.64453 7.7333,3.24805 16.38322,2.7981 25.79688,0.24414 a 13.0965,13.0965 0 0 0 9.20898,-16.06835 13.0965,13.0965 0 0 0 -16.06836,-9.21094 c -0.67797,0.18393 -0.85485,0.11444 -1.4414,0.24609 6.13944,-5.05636 12.22271,-10.65142 18.31445,-16.52734 18.54263,-17.88569 35.38655,-38.25897 44.95313,-54.07031 10.66069,-17.61963 12.47051,-38.3779 7.07617,-56.097661 -5.39435,-17.71976 -19.85657,-33.63488 -40.32813,-35.13672 -2.22882,-0.16351 -4.40854,-0.21376 -6.53711,-0.16406 z M 77.402893,195.49275 c 0.30601,0.24097 0.9399,0.85912 2.07617,2.46093 2.71495,3.82731 4.49963,8.30301 6.29297,13.2129 -1.50307,0.62995 -2.84499,1.1061 -3.82813,1.25976 -10.80684,1.68905 -13.48757,-0.79282 -14.33007,-1.7168 -0.84251,-0.92398 -0.55801,-2.8676 -0.77344,-2.24804 0.196,-0.56366 5.38496,-9.27301 8.83008,-11.87305 1.23315,-0.93066 1.67085,-1.05717 1.73242,-1.0957 z"
     id="path11-6" /><path
     style="color:#000000;fill:#000000;stroke-linecap:round;stroke-linejoin:round;-inkscape-stroke:none"
     d="m 380.60274,227.40338 c -3.93092,0.16437 -7.72802,0.79912 -11.44922,1.51562 -14.8848,2.86603 -28.67188,8.78711 -28.67188,8.78711 a 13.15,13.15 0 0 0 -7.02734,17.2168 13.15,13.15 0 0 0 17.2168,7.02929 c 0,0 12.3806,-5.07467 23.45507,-7.20703 3.38344,-0.65147 6.24616,-0.80382 8.50586,-0.80468 -1.00239,1.70196 -2.60365,3.97748 -5.37695,6.63086 -5.12192,4.90043 -12.75828,10.29315 -20.52539,14.99609 -15.53423,9.40588 -31.26563,16.14844 -31.26563,16.14844 a 13.151315,13.151315 0 0 0 5.16016,25.24609 c 0,0 11.65353,0.28913 20.92383,4.03906 4.63515,1.87497 8.10775,4.39814 9.86328,7.01172 1.75553,2.61359 2.90786,5.6006 1.25,12.85547 -3.9654,17.35287 -13.04008,31.58186 -23.65234,39.26367 -10.61227,7.68182 -21.9547,9.89941 -36.3418,3.60352 -32.98081,-14.43265 -48.22266,-38.07813 -48.22266,-38.07813 a 13.15,13.15 0 0 0 -18.18164,-3.90625 13.15,13.15 0 0 0 -3.90625,18.18164 c 0,0 19.64717,30.33949 59.76758,47.89649 22.16356,9.69892 45.29631,5.91913 62.30469,-6.39258 17.00838,-12.31171 28.70078,-32.0748 33.87304,-54.70898 2.911,-12.73866 0.74001,-24.74614 -5.05859,-33.37891 -4.24765,-6.32377 -9.84899,-10.65405 -15.57422,-13.76172 0.9127,-0.53652 1.76431,-0.96605 2.68164,-1.52148 8.74298,-5.29383 17.66954,-11.39651 25.08594,-18.49219 7.4164,-7.09569 14.37336,-15.39537 14.78516,-27.28906 0.18525,-5.35035 -1.33212,-11.23517 -4.83594,-15.62891 -3.50382,-4.39374 -8.27026,-6.7766 -12.5293,-7.94336 -4.25904,-1.16676 -8.32299,-1.47297 -12.2539,-1.30859 z"
     id="path1" /></svg>
