<?xml version="1.0" encoding="UTF-8" standalone="no"?>
<svg
   version="1.1"
   viewBox="-19 0 859.08472 1084.7763"
   id="svg1"
   sodipodi:docname="3.svg"
   width="859.08472"
   height="1084.7764"
   inkscape:version="1.3 (0e150ed6c4, 2023-07-21)"
   xmlns:inkscape="http://www.inkscape.org/namespaces/inkscape"
   xmlns:sodipodi="http://sodipodi.sourceforge.net/DTD/sodipodi-0.dtd"
   xmlns="http://www.w3.org/2000/svg"
   xmlns:svg="http://www.w3.org/2000/svg">
  <path
     style="color:#000000;fill:#000000;stroke-linecap:round;stroke-linejoin:round;-inkscape-stroke:none"
     d="m 624.16211,11.181249 c -16.5849,-0.325546 -34.24826,2.013549 -51.82422,5.417969 -56.24307,10.894143 -111.71094,34.472656 -111.71094,34.472656 a 13.15,13.15 0 0 0 -6.99219,17.232422 13.15,13.15 0 0 0 17.23243,6.990234 c 0,0 54.05826,-22.722841 106.4707,-32.875 26.20622,-5.076079 51.97071,-6.566478 68.27148,-2.074219 8.15039,2.24613 13.62536,5.624165 17.14063,10.058594 3.51527,4.43443 5.78191,10.455716 5.42773,20.746094 -0.66752,19.394808 -15.8102,43.642621 -40.90625,67.796871 -25.09605,24.15426 -59.11183,47.9993 -93.17578,68.74805 -68.1279,41.4975 -136.11914,70.70313 -136.11914,70.70313 a 13.151315,13.151315 0 0 0 5.18555,25.23437 c 0,0 54.64059,0.29205 103.26367,20.07813 24.31154,9.89303 46.5548,24.43671 60.35547,45.10547 13.80067,20.66876 20.25649,47.76042 11.31445,87.125 C 559.56916,537.49891 517.39442,606.2939 462.78711,646.0582 408.1798,685.82251 341.97418,697.65791 269.38086,665.70078 119.97487,599.92898 49.142582,489.62852 49.142582,489.62852 a 13.15,13.15 0 0 0 -18.171875,-3.95508 13.15,13.15 0 0 0 -3.955078,18.17187 c 0,0 75.201981,117.0013 231.769521,185.92578 80.3937,35.39102 158.48231,21.96972 219.48438,-22.45117 61.00207,-44.42088 105.7525,-118.74026 125.47266,-205.55273 10.18143,-44.8206 2.72817,-80.86929 -15.08985,-107.55469 -17.81802,-26.6854 -44.90405,-43.71002 -72.3125,-54.86328 -22.10681,-8.99587 -44.60356,-14.21063 -63.80273,-17.35742 26.01842,-12.74706 60.51353,-30.6835 95.24023,-51.83594 35.04093,-21.34384 70.34788,-45.9029 97.73242,-72.25977 27.38455,-26.35686 47.88217,-54.72549 48.95313,-85.841794 0.51507,-14.965174 -3.30308,-28.150694 -11.10156,-37.988281 -7.79848,-9.837588 -18.86712,-15.797652 -30.76368,-19.076172 -8.92241,-2.458891 -18.4846,-3.613266 -28.43554,-3.808594 z"
     id="path1" />
  <defs
     id="defs1">
    <pattern
       id="EMFhbasepattern"
       patternUnits="userSpaceOnUse"
       width="6"
       height="6"
       x="0"
       y="0" />
    <pattern
       id="EMFhbasepattern-2"
       patternUnits="userSpaceOnUse"
       width="6"
       height="6"
       x="0"
       y="0" />
    <pattern
       id="EMFhbasepattern-3"
       patternUnits="userSpaceOnUse"
       width="6"
       height="6"
       x="0"
       y="0" />
    <pattern
       id="EMFhbasepattern-0"
       patternUnits="userSpaceOnUse"
       width="6"
       height="6"
       x="0"
       y="0" />
    <pattern
       id="EMFhbasepattern-35"
       patternUnits="userSpaceOnUse"
       width="6"
       height="6"
       x="0"
       y="0" />
    <pattern
       id="EMFhbasepattern-9"
       patternUnits="userSpaceOnUse"
       width="6"
       height="6"
       x="0"
       y="0" />
    <pattern
       id="EMFhbasepattern-5"
       patternUnits="userSpaceOnUse"
       width="6"
       height="6"
       x="0"
       y="0" />
    <pattern
       id="EMFhbasepattern-4"
       patternUnits="userSpaceOnUse"
       width="6"
       height="6"
       x="0"
       y="0" />
  </defs>
  <sodipodi:namedview
     id="namedview1"
     pagecolor="#ffffff"
     bordercolor="#000000"
     borderopacity="0.25"
     inkscape:showpageshadow="2"
     inkscape:pageopacity="0.0"
     inkscape:pagecheckerboard="0"
     inkscape:deskcolor="#d1d1d1"
     showgrid="false"
     showguides="true"
     inkscape:zoom="0.27471098"
     inkscape:cx="1607.1436"
     inkscape:cy="824.50289"
     inkscape:window-width="1920"
     inkscape:window-height="991"
     inkscape:window-x="-9"
     inkscape:window-y="-9"
     inkscape:window-maximized="1"
     inkscape:current-layer="svg1">
    <sodipodi:guide
       position="120.0689,403.54972"
       orientation="0,-1"
       id="guide1"
       inkscape:locked="false" />
    <sodipodi:guide
       position="496.8285,1104.2862"
       orientation="0,-1"
       id="guide2"
       inkscape:locked="false" />
    <sodipodi:guide
       position="283.76107,663.85083"
       orientation="0,-1"
       id="guide3"
       inkscape:locked="false" />
    <sodipodi:guide
       position="953.00174,22.924205"
       orientation="0,-1"
       id="guide4"
       inkscape:locked="false" />
    <sodipodi:guide
       position="512.8473,509.41069"
       orientation="0,-1"
       id="guide5"
       inkscape:locked="false" />
  </sodipodi:namedview>
</svg>
