<?xml version="1.0" encoding="UTF-8" standalone="no"?>
<svg
   version="1.1"
   viewBox="-19 0 535.39254 1078.5071"
   id="svg1"
   sodipodi:docname="3d4.svg"
   width="535.39252"
   height="1078.5071"
   inkscape:version="1.3 (0e150ed6c4, 2023-07-21)"
   xml:space="preserve"
   xmlns:inkscape="http://www.inkscape.org/namespaces/inkscape"
   xmlns:sodipodi="http://sodipodi.sourceforge.net/DTD/sodipodi-0.dtd"
   xmlns="http://www.w3.org/2000/svg"
   xmlns:svg="http://www.w3.org/2000/svg"><defs
     id="defs1"><pattern
       id="EMFhbasepattern"
       patternUnits="userSpaceOnUse"
       width="6"
       height="6"
       x="0"
       y="0" /><pattern
       id="EMFhbasepattern-2"
       patternUnits="userSpaceOnUse"
       width="6"
       height="6"
       x="0"
       y="0" /><pattern
       id="EMFhbasepattern-3"
       patternUnits="userSpaceOnUse"
       width="6"
       height="6"
       x="0"
       y="0" /><pattern
       id="EMFhbasepattern-0"
       patternUnits="userSpaceOnUse"
       width="6"
       height="6"
       x="0"
       y="0" /><pattern
       id="EMFhbasepattern-4"
       patternUnits="userSpaceOnUse"
       width="6"
       height="6"
       x="0"
       y="0" /><pattern
       id="EMFhbasepattern-9"
       patternUnits="userSpaceOnUse"
       width="6"
       height="6"
       x="0"
       y="0" /><pattern
       id="EMFhbasepattern-28"
       patternUnits="userSpaceOnUse"
       width="6"
       height="6"
       x="0"
       y="0" /><pattern
       id="EMFhbasepattern-2-1"
       patternUnits="userSpaceOnUse"
       width="6"
       height="6"
       x="0"
       y="0" /><pattern
       id="EMFhbasepattern-3-4"
       patternUnits="userSpaceOnUse"
       width="6"
       height="6"
       x="0"
       y="0" /><pattern
       id="EMFhbasepattern-0-3"
       patternUnits="userSpaceOnUse"
       width="6"
       height="6"
       x="0"
       y="0" /><pattern
       id="EMFhbasepattern-4-9"
       patternUnits="userSpaceOnUse"
       width="6"
       height="6"
       x="0"
       y="0" /><pattern
       id="EMFhbasepattern-9-0"
       patternUnits="userSpaceOnUse"
       width="6"
       height="6"
       x="0"
       y="0" /><pattern
       id="EMFhbasepattern-1"
       patternUnits="userSpaceOnUse"
       width="6"
       height="6"
       x="0"
       y="0" /><pattern
       id="EMFhbasepattern-2-5"
       patternUnits="userSpaceOnUse"
       width="6"
       height="6"
       x="0"
       y="0" /><pattern
       id="EMFhbasepattern-3-6"
       patternUnits="userSpaceOnUse"
       width="6"
       height="6"
       x="0"
       y="0" /><pattern
       id="EMFhbasepattern-0-6"
       patternUnits="userSpaceOnUse"
       width="6"
       height="6"
       x="0"
       y="0" /><pattern
       id="EMFhbasepattern-4-6"
       patternUnits="userSpaceOnUse"
       width="6"
       height="6"
       x="0"
       y="0" /><pattern
       id="EMFhbasepattern-9-9"
       patternUnits="userSpaceOnUse"
       width="6"
       height="6"
       x="0"
       y="0" /><pattern
       id="EMFhbasepattern-45"
       patternUnits="userSpaceOnUse"
       width="6"
       height="6"
       x="0"
       y="0" /><pattern
       id="EMFhbasepattern-2-55"
       patternUnits="userSpaceOnUse"
       width="6"
       height="6"
       x="0"
       y="0" /><pattern
       id="EMFhbasepattern-3-63"
       patternUnits="userSpaceOnUse"
       width="6"
       height="6"
       x="0"
       y="0" /><pattern
       id="EMFhbasepattern-0-4"
       patternUnits="userSpaceOnUse"
       width="6"
       height="6"
       x="0"
       y="0" /><pattern
       id="EMFhbasepattern-4-7"
       patternUnits="userSpaceOnUse"
       width="6"
       height="6"
       x="0"
       y="0" /><pattern
       id="EMFhbasepattern-9-97"
       patternUnits="userSpaceOnUse"
       width="6"
       height="6"
       x="0"
       y="0" /><pattern
       id="EMFhbasepattern-8"
       patternUnits="userSpaceOnUse"
       width="6"
       height="6"
       x="0"
       y="0" /><pattern
       id="EMFhbasepattern-2-0"
       patternUnits="userSpaceOnUse"
       width="6"
       height="6"
       x="0"
       y="0" /><pattern
       id="EMFhbasepattern-3-9"
       patternUnits="userSpaceOnUse"
       width="6"
       height="6"
       x="0"
       y="0" /><pattern
       id="EMFhbasepattern-0-9"
       patternUnits="userSpaceOnUse"
       width="6"
       height="6"
       x="0"
       y="0" /><pattern
       id="EMFhbasepattern-4-8"
       patternUnits="userSpaceOnUse"
       width="6"
       height="6"
       x="0"
       y="0" /><pattern
       id="EMFhbasepattern-9-96"
       patternUnits="userSpaceOnUse"
       width="6"
       height="6"
       x="0"
       y="0" /><pattern
       id="EMFhbasepattern-5"
       patternUnits="userSpaceOnUse"
       width="6"
       height="6"
       x="0"
       y="0" /><pattern
       id="EMFhbasepattern-2-3"
       patternUnits="userSpaceOnUse"
       width="6"
       height="6"
       x="0"
       y="0" /><pattern
       id="EMFhbasepattern-3-5"
       patternUnits="userSpaceOnUse"
       width="6"
       height="6"
       x="0"
       y="0" /><pattern
       id="EMFhbasepattern-0-2"
       patternUnits="userSpaceOnUse"
       width="6"
       height="6"
       x="0"
       y="0" /><pattern
       id="EMFhbasepattern-4-1"
       patternUnits="userSpaceOnUse"
       width="6"
       height="6"
       x="0"
       y="0" /><pattern
       id="EMFhbasepattern-9-5"
       patternUnits="userSpaceOnUse"
       width="6"
       height="6"
       x="0"
       y="0" /><pattern
       id="EMFhbasepattern-6"
       patternUnits="userSpaceOnUse"
       width="6"
       height="6"
       x="0"
       y="0" /><pattern
       id="EMFhbasepattern-2-6"
       patternUnits="userSpaceOnUse"
       width="6"
       height="6"
       x="0"
       y="0" /><pattern
       id="EMFhbasepattern-3-49"
       patternUnits="userSpaceOnUse"
       width="6"
       height="6"
       x="0"
       y="0" /><pattern
       id="EMFhbasepattern-0-98"
       patternUnits="userSpaceOnUse"
       width="6"
       height="6"
       x="0"
       y="0" /><pattern
       id="EMFhbasepattern-4-63"
       patternUnits="userSpaceOnUse"
       width="6"
       height="6"
       x="0"
       y="0" /><pattern
       id="EMFhbasepattern-9-8"
       patternUnits="userSpaceOnUse"
       width="6"
       height="6"
       x="0"
       y="0" /><pattern
       id="EMFhbasepattern-95"
       patternUnits="userSpaceOnUse"
       width="6"
       height="6"
       x="0"
       y="0" /><pattern
       id="EMFhbasepattern-2-7"
       patternUnits="userSpaceOnUse"
       width="6"
       height="6"
       x="0"
       y="0" /><pattern
       id="EMFhbasepattern-3-8"
       patternUnits="userSpaceOnUse"
       width="6"
       height="6"
       x="0"
       y="0" /><pattern
       id="EMFhbasepattern-0-22"
       patternUnits="userSpaceOnUse"
       width="6"
       height="6"
       x="0"
       y="0" /><pattern
       id="EMFhbasepattern-4-78"
       patternUnits="userSpaceOnUse"
       width="6"
       height="6"
       x="0"
       y="0" /><pattern
       id="EMFhbasepattern-9-09"
       patternUnits="userSpaceOnUse"
       width="6"
       height="6"
       x="0"
       y="0" /></defs><sodipodi:namedview
     id="namedview1"
     pagecolor="#ffffff"
     bordercolor="#000000"
     borderopacity="0.25"
     inkscape:showpageshadow="2"
     inkscape:pageopacity="0.0"
     inkscape:pagecheckerboard="0"
     inkscape:deskcolor="#d1d1d1"
     showgrid="false"
     showguides="true"
     inkscape:zoom="0.3885"
     inkscape:cx="-312.74131"
     inkscape:cy="572.71557"
     inkscape:window-width="1920"
     inkscape:window-height="991"
     inkscape:window-x="-9"
     inkscape:window-y="-9"
     inkscape:window-maximized="1"
     inkscape:current-layer="svg1"><sodipodi:guide
       position="145.45319,381.02139"
       orientation="0,-1"
       id="guide1"
       inkscape:locked="false" /><sodipodi:guide
       position="522.21279,1081.7579"
       orientation="0,-1"
       id="guide2"
       inkscape:locked="false" /><sodipodi:guide
       position="309.14535,641.32251"
       orientation="0,-1"
       id="guide3"
       inkscape:locked="false" /><sodipodi:guide
       position="978.38602,0.39587094"
       orientation="0,-1"
       id="guide4"
       inkscape:locked="false" /><sodipodi:guide
       position="538.23159,486.88236"
       orientation="0,-1"
       id="guide5"
       inkscape:locked="false" /></sodipodi:namedview><path
     style="fill:none;stroke:#000000;stroke-width:26.3;stroke-linecap:round;stroke-linejoin:round;stroke-dasharray:none;stroke-opacity:1"
     d="m 97.798335,415.73549 c 0,0 74.623895,-103.7454 125.586545,-161.98843 C 274.34753,195.50403 367.17236,77.197885 367.17236,77.197885"
     id="path9"
     sodipodi:nodetypes="csc" /><path
     style="color:#000000;fill:#000000;stroke-linecap:round;stroke-linejoin:round;-inkscape-stroke:none"
     d="m 291.87761,227.04628 a 13.15,13.15 0 0 0 -15.01172,10.97461 c 0,0 -3.02248,19.43641 -6.86719,39.41016 -1.92235,9.98687 -4.06208,20.11991 -6.03711,27.71875 -0.98751,3.79941 -1.95439,6.9927 -2.67383,8.92382 -0.71944,1.93113 -3.10341,2.89141 1.4629,-0.66015 -1.63973,1.27534 -4.23773,3.65976 -5.17579,8.22851 -0.93805,4.56875 1.17653,9.49453 3.04883,11.68164 3.74461,4.37422 5.75895,4.23379 7.54883,4.83789 3.57976,1.2082 6.79136,1.68355 10.91602,2.23438 8.24931,1.10165 19.20123,1.85885 30.78906,2.25 11.58782,0.39115 23.68012,0.40041 33.92968,-0.1543 4.81946,-0.26083 9.13005,-0.67048 13.07227,-1.25781 -4.15409,19.74559 -8.42622,39.83146 -12.08594,55.49023 -2.15441,9.21804 -4.12086,17.15191 -5.72461,22.95313 -1.60375,5.80122 -4.21011,11.05102 -2.49609,8.30859 a 13.15,13.15 0 0 0 4.18164,18.12109 13.15,13.15 0 0 0 18.12109,-4.18164 c 3.61749,-5.78799 3.77205,-8.84138 5.54102,-15.24023 1.76897,-6.39885 3.78849,-14.56241 5.98828,-23.97461 4.39957,-18.8244 9.50168,-42.58546 14.36719,-65.95898 9.73102,-46.74705 18.5,-91.92188 18.5,-91.92188 a 13.151315,13.151315 0 0 0 -25.75781,-5.30468 c 0,0 -4.13701,18.96877 -9.53907,38.62109 -2.70103,9.82616 -5.73392,19.82417 -8.55273,27.33008 -1.40941,3.75295 -2.78973,6.8973 -3.82227,8.82422 -0.12594,0.23502 -0.18271,0.23186 -0.3125,0.42382 -0.55559,0.17024 -0.93316,0.33349 -1.68945,0.45313 -2.7126,0.42911 -6.6637,0.80664 -11.21094,1.05273 -9.09448,0.4922 -20.65472,0.5011 -31.62304,0.13086 -8.38263,-0.28295 -15.94036,-0.83386 -22.29883,-1.46093 0.30679,-1.1016 0.64609,-1.96097 0.95117,-3.13477 2.23641,-8.60448 4.42844,-19.07622 6.4082,-29.36133 3.95953,-20.57022 7.0293,-40.3457 7.0293,-40.3457 a 13.15,13.15 0 0 0 -10.97656,-15.01172 z m -15.29297,86.19531 c 0.005,0.002 0.25332,-0.1461 0.89258,0.16211 -0.1092,-0.0251 -0.89551,-0.1631 -0.89258,-0.16211 z"
     id="path2-0" /><path
     style="color:#000000;fill:#000000;stroke-linecap:round;stroke-linejoin:round;-inkscape-stroke:none"
     d="m 190.12655,70.38922 c -3.93092,0.16437 -7.72802,0.79912 -11.44922,1.51562 -14.8848,2.86603 -28.67188,8.78711 -28.67188,8.78711 a 13.15,13.15 0 0 0 -7.02734,17.2168 13.15,13.15 0 0 0 17.2168,7.02929 c 0,0 12.3806,-5.07467 23.45507,-7.20703 3.38344,-0.65147 6.24616,-0.80382 8.50586,-0.80468 -1.00239,1.70196 -2.60365,3.97748 -5.37695,6.63086 -5.12192,4.90043 -12.75828,10.29315 -20.52539,14.99609 -15.53423,9.40588 -31.26563,16.14844 -31.26563,16.14844 a 13.151315,13.151315 0 0 0 5.16016,25.24609 c 0,0 11.65353,0.28913 20.92383,4.03906 4.63515,1.87497 8.10775,4.39814 9.86328,7.01172 1.75553,2.61359 2.90786,5.6006 1.25,12.85547 -3.9654,17.35287 -13.04008,31.58186 -23.65234,39.26367 -10.61227,7.68182 -21.9547,9.89941 -36.3418,3.60352 C 79.210188,212.2886 63.968338,188.64312 63.968338,188.64312 a 13.15,13.15 0 0 0 -18.18164,-3.90625 13.15,13.15 0 0 0 -3.90625,18.18164 c 0,0 19.64717,30.33949 59.767582,47.89649 22.16356,9.69892 45.29631,5.91913 62.30469,-6.39258 17.00838,-12.31171 28.70078,-32.0748 33.87304,-54.70898 2.911,-12.73866 0.74001,-24.74614 -5.05859,-33.37891 -4.24765,-6.32377 -9.84899,-10.65405 -15.57422,-13.76172 0.9127,-0.53652 1.76431,-0.96605 2.68164,-1.52148 8.74298,-5.29383 17.66954,-11.39651 25.08594,-18.49219 7.4164,-7.09569 14.37336,-15.39537 14.78516,-27.28906 0.18525,-5.35035 -1.33212,-11.23517 -4.83594,-15.62891 -3.50382,-4.39374 -8.27026,-6.7766 -12.5293,-7.94336 -4.25904,-1.16676 -8.32299,-1.47297 -12.2539,-1.30859 z"
     id="path1" /></svg>
