<?xml version="1.0" encoding="UTF-8" standalone="no"?>
<svg
   version="1.1"
   viewBox="-19 0 706.19672 1059.295"
   id="svg1"
   sodipodi:docname="7.svg"
   width="706.19672"
   height="1059.295"
   inkscape:version="1.3 (0e150ed6c4, 2023-07-21)"
   xmlns:inkscape="http://www.inkscape.org/namespaces/inkscape"
   xmlns:sodipodi="http://sodipodi.sourceforge.net/DTD/sodipodi-0.dtd"
   xmlns="http://www.w3.org/2000/svg"
   xmlns:svg="http://www.w3.org/2000/svg">
  <defs
     id="defs1">
    <pattern
       id="EMFhbasepattern"
       patternUnits="userSpaceOnUse"
       width="6"
       height="6"
       x="0"
       y="0" />
    <pattern
       id="EMFhbasepattern-2"
       patternUnits="userSpaceOnUse"
       width="6"
       height="6"
       x="0"
       y="0" />
    <pattern
       id="EMFhbasepattern-3"
       patternUnits="userSpaceOnUse"
       width="6"
       height="6"
       x="0"
       y="0" />
    <pattern
       id="EMFhbasepattern-0"
       patternUnits="userSpaceOnUse"
       width="6"
       height="6"
       x="0"
       y="0" />
    <pattern
       id="EMFhbasepattern-35"
       patternUnits="userSpaceOnUse"
       width="6"
       height="6"
       x="0"
       y="0" />
    <pattern
       id="EMFhbasepattern-9"
       patternUnits="userSpaceOnUse"
       width="6"
       height="6"
       x="0"
       y="0" />
    <pattern
       id="EMFhbasepattern-5"
       patternUnits="userSpaceOnUse"
       width="6"
       height="6"
       x="0"
       y="0" />
    <pattern
       id="EMFhbasepattern-4"
       patternUnits="userSpaceOnUse"
       width="6"
       height="6"
       x="0"
       y="0" />
    <pattern
       id="EMFhbasepattern-03"
       patternUnits="userSpaceOnUse"
       width="6"
       height="6"
       x="0"
       y="0" />
    <pattern
       id="EMFhbasepattern-52"
       patternUnits="userSpaceOnUse"
       width="6"
       height="6"
       x="0"
       y="0" />
  </defs>
  <sodipodi:namedview
     id="namedview1"
     pagecolor="#ffffff"
     bordercolor="#000000"
     borderopacity="0.25"
     inkscape:showpageshadow="2"
     inkscape:pageopacity="0.0"
     inkscape:pagecheckerboard="0"
     inkscape:deskcolor="#d1d1d1"
     showgrid="false"
     showguides="true"
     inkscape:zoom="0.54942197"
     inkscape:cx="-168.35876"
     inkscape:cy="459.57391"
     inkscape:window-width="1920"
     inkscape:window-height="991"
     inkscape:window-x="-9"
     inkscape:window-y="-9"
     inkscape:window-maximized="1"
     inkscape:current-layer="svg1">
    <sodipodi:guide
       position="120.0689,403.54972"
       orientation="0,-1"
       id="guide1"
       inkscape:locked="false" />
    <sodipodi:guide
       position="496.8285,1104.2862"
       orientation="0,-1"
       id="guide2"
       inkscape:locked="false" />
    <sodipodi:guide
       position="283.76107,663.85083"
       orientation="0,-1"
       id="guide3"
       inkscape:locked="false" />
    <sodipodi:guide
       position="953.00174,22.924205"
       orientation="0,-1"
       id="guide4"
       inkscape:locked="false" />
    <sodipodi:guide
       position="512.8473,509.41069"
       orientation="0,-1"
       id="guide5"
       inkscape:locked="false" />
  </sodipodi:namedview>
  <path
     style="color:#000000;fill:#000000;stroke-linecap:round;stroke-linejoin:round;-inkscape-stroke:none"
     d="m 522.86565,6.2684344 c -6.442,0.45874 -8.59184,2.868845 -11.14453,4.8886716 -2.55269,2.019828 -4.96643,4.390238 -7.72656,7.363282 C 469.76559,55.389768 378.58402,77.76527 296.73479,87.368044 214.88557,96.970818 142.7055,96.012575 142.7055,96.012575 a 13.15,13.15 0 0 0 -13.32617,12.970705 13.15,13.15 0 0 0 12.9707,13.32617 c 0,0 73.62206,1.01452 157.44922,-8.82031 71.37976,-8.37447 150.2936,-23.086297 200.14062,-57.357424 -2.18442,5.176794 -3.82586,9.448553 -6.52929,15.427734 C 471.83392,119.2805 434.51336,193.12182 392.32268,274.06531 307.94134,435.9523 203.98687,626.53265 165.47893,698.37977 a 13.15,13.15 0 0 0 5.37696,17.80078 13.15,13.15 0 0 0 17.80273,-5.37695 C 227.00387,639.26001 331.08183,448.45728 415.64495,286.22156 457.92651,205.10371 495.30809,131.19972 517.37542,82.393434 528.40908,57.990295 535.58498,40.876867 538.03948,28.69031 c 0.61363,-3.04664 1.25442,-5.686821 0.38672,-10.183594 -0.43385,-2.248386 -1.41252,-5.419644 -4.44727,-8.300782 -3.03474,-2.8811366 -7.89228,-4.1668686 -11.11328,-3.9374996 z m 5.54493,25.5058596 c -0.0446,0.02752 -0.39228,0.05911 -0.45899,0.08984 0.0156,-0.01253 0.0729,-0.07209 0.0879,-0.08398 0.41111,-0.325294 0.72832,-0.226475 0.3711,-0.0059 z"
     id="path5" />
  <path
     style="color:#000000;fill:#000000;stroke-linecap:round;stroke-linejoin:round;-inkscape-stroke:none"
     d="m 505.22893,319.03211 a 13.15,13.15 0 0 0 -6.70117,2.19141 c -1.26267,0.32389 -3.92222,0.82645 -7.38281,1.28906 -6.96328,0.93084 -17.267,1.82207 -29.53125,2.60547 -24.52851,1.5668 -57.07203,2.75006 -89.45312,3.61914 -64.7622,1.73815 -128.94141,2.23633 -128.94141,2.23633 a 13.15,13.15 0 0 0 -13.04688,13.25 13.15,13.15 0 0 0 13.25,13.04883 c 0,0 64.35216,-0.49711 129.44532,-2.24415 32.54658,-0.87351 65.26278,-2.05685 90.42382,-3.66406 12.58052,-0.8036 23.22868,-1.70112 31.3379,-2.78515 4.0546,-0.54202 7.42659,-1.09895 10.52148,-1.89844 1.54744,-0.39974 3.01072,-0.8221 4.81641,-1.6543 1.80568,-0.83219 4.57791,-1.51796 7.32226,-6.67383 a 13.15,13.15 0 0 0 -5.42773,-17.78711 13.15,13.15 0 0 0 -6.63282,-1.5332 z m -6.90234,2.4082 a 13.15,13.15 0 0 0 -4.25195,4.55469 c 1.9726,-3.70597 3.42536,-4.28038 4.25195,-4.55469 z"
     id="path6" />
</svg>
