<?xml version="1.0" encoding="UTF-8" standalone="no"?>
<svg
   version="1.1"
   viewBox="-19 0 706.19672 1059.295"
   id="svg1"
   sodipodi:docname="9.svg"
   width="706.19672"
   height="1059.295"
   inkscape:version="1.3 (0e150ed6c4, 2023-07-21)"
   xmlns:inkscape="http://www.inkscape.org/namespaces/inkscape"
   xmlns:sodipodi="http://sodipodi.sourceforge.net/DTD/sodipodi-0.dtd"
   xmlns="http://www.w3.org/2000/svg"
   xmlns:svg="http://www.w3.org/2000/svg">
  <defs
     id="defs1">
    <pattern
       id="EMFhbasepattern"
       patternUnits="userSpaceOnUse"
       width="6"
       height="6"
       x="0"
       y="0" />
    <pattern
       id="EMFhbasepattern-2"
       patternUnits="userSpaceOnUse"
       width="6"
       height="6"
       x="0"
       y="0" />
    <pattern
       id="EMFhbasepattern-3"
       patternUnits="userSpaceOnUse"
       width="6"
       height="6"
       x="0"
       y="0" />
    <pattern
       id="EMFhbasepattern-0"
       patternUnits="userSpaceOnUse"
       width="6"
       height="6"
       x="0"
       y="0" />
    <pattern
       id="EMFhbasepattern-35"
       patternUnits="userSpaceOnUse"
       width="6"
       height="6"
       x="0"
       y="0" />
    <pattern
       id="EMFhbasepattern-9"
       patternUnits="userSpaceOnUse"
       width="6"
       height="6"
       x="0"
       y="0" />
    <pattern
       id="EMFhbasepattern-5"
       patternUnits="userSpaceOnUse"
       width="6"
       height="6"
       x="0"
       y="0" />
    <pattern
       id="EMFhbasepattern-4"
       patternUnits="userSpaceOnUse"
       width="6"
       height="6"
       x="0"
       y="0" />
    <pattern
       id="EMFhbasepattern-03"
       patternUnits="userSpaceOnUse"
       width="6"
       height="6"
       x="0"
       y="0" />
    <pattern
       id="EMFhbasepattern-52"
       patternUnits="userSpaceOnUse"
       width="6"
       height="6"
       x="0"
       y="0" />
    <pattern
       id="EMFhbasepattern-7"
       patternUnits="userSpaceOnUse"
       width="6"
       height="6"
       x="0"
       y="0" />
  </defs>
  <sodipodi:namedview
     id="namedview1"
     pagecolor="#ffffff"
     bordercolor="#000000"
     borderopacity="0.25"
     inkscape:showpageshadow="2"
     inkscape:pageopacity="0.0"
     inkscape:pagecheckerboard="0"
     inkscape:deskcolor="#d1d1d1"
     showgrid="false"
     showguides="true"
     inkscape:zoom="0.27471098"
     inkscape:cx="-464.12414"
     inkscape:cy="478.6849"
     inkscape:window-width="1920"
     inkscape:window-height="991"
     inkscape:window-x="-9"
     inkscape:window-y="-9"
     inkscape:window-maximized="1"
     inkscape:current-layer="svg1">
    <sodipodi:guide
       position="120.0689,403.54972"
       orientation="0,-1"
       id="guide1"
       inkscape:locked="false" />
    <sodipodi:guide
       position="496.8285,1104.2862"
       orientation="0,-1"
       id="guide2"
       inkscape:locked="false" />
    <sodipodi:guide
       position="283.76107,663.85083"
       orientation="0,-1"
       id="guide3"
       inkscape:locked="false" />
    <sodipodi:guide
       position="953.00174,22.924205"
       orientation="0,-1"
       id="guide4"
       inkscape:locked="false" />
    <sodipodi:guide
       position="512.8473,509.41069"
       orientation="0,-1"
       id="guide5"
       inkscape:locked="false" />
  </sodipodi:namedview>
  <path
     style="color:#000000;fill:#000000;stroke-linecap:round;stroke-linejoin:round;-inkscape-stroke:none"
     d="m 423.89258,9.5878906 c -6.66823,-0.19207 -13.60044,-0.10949 -20.80274,0.2636719 C 290.24146,15.698428 232.62679,55.688219 204.98437,95.826172 c -25.88331,37.583668 -25.33095,73.713908 -25.16015,78.322268 -0.4018,2.86658 -5.22563,40.07275 11.82031,81.01172 17.72716,42.57503 60.81743,88.27772 150.83594,100.16211 45.95236,6.0667 83.53838,-4.23219 112.50195,-23.32032 28.96358,-19.08812 49.32611,-46.40027 63.76563,-73.87695 6.97393,-13.27056 12.54995,-26.64059 17.08398,-39.33203 -4.93104,31.54645 -12.32031,54.74805 -12.32031,54.74805 a 13.151315,13.151315 0 0 0 -0.38477,1.42578 c 0,0 -17.26339,82.18569 -52.29492,170.73632 -35.03152,88.55064 -89.10569,181.50322 -153.75976,205.28516 -69.49019,25.56082 -125.9233,18.92625 -160.25196,-1.14844 -34.32866,-20.07468 -47.40987,-51.18567 -34.41406,-84.34375 a 13.15,13.15 0 0 0 -7.44336,-17.04101 13.15,13.15 0 0 0 -17.042968,7.44336 c -17.545671,44.76681 2.761198,91.57981 45.623048,116.64453 42.86185,25.06471 107.42273,30.78507 182.60937,3.1289 80.02266,-29.43501 133.14314,-129.31543 169.13477,-220.29296 35.6257,-90.05257 53.09121,-172.74029 53.44531,-174.42383 0.78453,-2.35945 22.54503,-68.47049 16.79102,-136.02344 C 562.5943,110.54307 552.33847,75.135358 526.70898,48.796875 504.28319,25.750702 470.57017,10.932381 423.89258,9.5878906 Z m -0.75781,26.2460934 c 41.36353,1.02176 67.4018,13.500722 84.7246,31.302735 16.54706,17.004801 25.51045,40.068971 29.5586,65.103511 a 13.15,13.15 0 0 0 -10.04492,10.98829 c 0,0 -5.85104,53.08212 -31.90625,102.6621 -13.02761,24.79 -30.92884,48.31684 -54.95703,64.15235 -24.0282,15.83551 -54.16116,24.54397 -94.58594,19.20703 -82.73569,-10.9229 -115.28124,-48.84745 -130,-84.19727 -14.71876,-35.34981 -9.98438,-68.08593 -9.98438,-68.08593 a 13.151315,13.151315 0 0 0 0.11524,-2.79883 c 0,0 -2.16114,-30.39039 20.58984,-63.42578 22.75099,-33.035396 70.55484,-69.07016 177.80469,-74.626956 6.55385,-0.339564 12.77647,-0.427215 18.68555,-0.28125 z"
     id="path8" />
</svg>
