<?xml version="1.0" encoding="UTF-8" standalone="no"?>
<svg
   version="1.1"
   viewBox="-19 0 250.28306 1077.4961"
   id="svg1"
   sodipodi:docname="ord6.svg"
   width="250.28305"
   height="1077.4961"
   inkscape:version="1.3 (0e150ed6c4, 2023-07-21)"
   xmlns:inkscape="http://www.inkscape.org/namespaces/inkscape"
   xmlns:sodipodi="http://sodipodi.sourceforge.net/DTD/sodipodi-0.dtd"
   xmlns="http://www.w3.org/2000/svg"
   xmlns:svg="http://www.w3.org/2000/svg">
  <defs
     id="defs1">
    <pattern
       id="EMFhbasepattern"
       patternUnits="userSpaceOnUse"
       width="6"
       height="6"
       x="0"
       y="0" />
    <pattern
       id="EMFhbasepattern-2"
       patternUnits="userSpaceOnUse"
       width="6"
       height="6"
       x="0"
       y="0" />
    <pattern
       id="EMFhbasepattern-3"
       patternUnits="userSpaceOnUse"
       width="6"
       height="6"
       x="0"
       y="0" />
    <pattern
       id="EMFhbasepattern-0"
       patternUnits="userSpaceOnUse"
       width="6"
       height="6"
       x="0"
       y="0" />
    <pattern
       id="EMFhbasepattern-4"
       patternUnits="userSpaceOnUse"
       width="6"
       height="6"
       x="0"
       y="0" />
    <pattern
       id="EMFhbasepattern-9"
       patternUnits="userSpaceOnUse"
       width="6"
       height="6"
       x="0"
       y="0" />
  </defs>
  <sodipodi:namedview
     id="namedview1"
     pagecolor="#ffffff"
     bordercolor="#000000"
     borderopacity="0.25"
     inkscape:showpageshadow="2"
     inkscape:pageopacity="0.0"
     inkscape:pagecheckerboard="0"
     inkscape:deskcolor="#d1d1d1"
     showgrid="false"
     showguides="true"
     inkscape:zoom="1.0988439"
     inkscape:cx="103.29037"
     inkscape:cy="67.798527"
     inkscape:window-width="1920"
     inkscape:window-height="991"
     inkscape:window-x="-9"
     inkscape:window-y="-9"
     inkscape:window-maximized="1"
     inkscape:current-layer="svg1">
    <sodipodi:guide
       position="150.60119,383.59539"
       orientation="0,-1"
       id="guide1"
       inkscape:locked="false" />
    <sodipodi:guide
       position="527.36079,1084.3319"
       orientation="0,-1"
       id="guide2"
       inkscape:locked="false" />
    <sodipodi:guide
       position="314.29335,643.89651"
       orientation="0,-1"
       id="guide3"
       inkscape:locked="false" />
    <sodipodi:guide
       position="983.53402,2.9698735"
       orientation="0,-1"
       id="guide4"
       inkscape:locked="false" />
    <sodipodi:guide
       position="543.37959,489.45636"
       orientation="0,-1"
       id="guide5"
       inkscape:locked="false" />
  </sodipodi:namedview>
  <path
     style="color:#000000;fill:#000000;stroke-linecap:round;stroke-linejoin:round;-inkscape-stroke:none"
     d="m 171.49219,8.4316406 a 13.15,13.15 0 0 0 -6.02344,3.1699224 c 0,0 -27.97094,25.867173 -58.07227,54.673828 -15.05066,14.403327 -30.635334,29.542328 -43.599605,42.628909 -12.964271,13.08657 -22.919416,23.44506 -28.458984,31.11523 -8.148353,11.28233 -22.971673,29.83529 -29.7480473,50.64844 -3.3881869,10.40657 -4.87831128,22.20797 -0.2675781,33.58008 4.6107332,11.3721 15.2150814,20.35748 29.8222654,25.54687 27.764117,9.86357 57.155257,8.24661 81.455079,-0.88867 24.29982,-9.13528 44.56697,-26.09097 50.53906,-49.55273 5.0147,-19.70055 6.0639,-40.92402 -6.23828,-57.4043 -12.30218,-16.48028 -35.85989,-22.77026 -67.980468,-17.5332 -3.218042,0.52468 -6.196436,1.11368 -9.126953,1.71484 C 96.251117,113.58943 111.08355,99.150367 125.58008,85.277344 155.48379,56.659806 183.32617,30.910156 183.32617,30.910156 A 13.15,13.15 0 0 0 184.05078,12.326172 13.15,13.15 0 0 0 171.49219,8.4316406 Z M 114.63672,148.73828 c 14.70833,-0.075 21.59047,4.1247 25.1875,8.94336 4.79603,6.42488 5.84647,19.39727 1.82812,35.18359 -3.06093,12.0251 -15.69964,24.42676 -34.30664,31.42188 -18.606995,6.99511 -42.124197,8.28187 -63.396481,0.72461 -9.911019,-3.52102 -12.856064,-7.19879 -14.253907,-10.64649 -1.397842,-3.44769 -1.355105,-8.62304 0.902344,-15.55664 1.582302,-4.85992 4.3664,-10.18714 7.466797,-15.55664 a 13.15,13.15 0 0 0 11.402344,-13.3164 c 0,0 -0.19314,1.70115 0.0039,1.17187 0.197046,-0.52927 0.796893,-1.96115 3.087891,-4.17578 4.581995,-4.42926 16.570308,-11.98956 44.59375,-16.55859 6.809806,-1.1103 12.581596,-1.60977 17.484376,-1.63477 z"
     id="path4" />
</svg>
