<?xml version="1.0" encoding="UTF-8" standalone="no"?>
<svg
   version="1.1"
   viewBox="-19 0 449.56339 1073.7326"
   id="svg1"
   sodipodi:docname="acirc.svg"
   width="449.56339"
   height="1073.7327"
   inkscape:version="1.3 (0e150ed6c4, 2023-07-21)"
   xmlns:inkscape="http://www.inkscape.org/namespaces/inkscape"
   xmlns:sodipodi="http://sodipodi.sourceforge.net/DTD/sodipodi-0.dtd"
   xmlns="http://www.w3.org/2000/svg"
   xmlns:svg="http://www.w3.org/2000/svg">
  <path
     style="color:#000000;fill:#000000;stroke-linecap:round;stroke-linejoin:round;-inkscape-stroke:none"
     d="M 217.83594,2.7050781 C 156.07438,4.8342065 102.82726,38.227426 61.623047,87.861328 10.910168,148.94921 -23.622598,234.61223 -41.115234,322.20703 c -17.492637,87.5948 -17.974863,177.07723 1.919922,246.70508 9.947392,34.81392 25.04647,64.83414 46.5800776,86.74805 21.5336074,21.91391 49.9168384,35.24946 83.1562504,35.73828 28.621494,0.4209 55.344294,-5.40123 80.115234,-15.41602 a 13.15,13.15 0 0 0 12.62695,1.54688 c 0,0 24.8558,-10.44451 55.61719,-37.50782 11.99907,-10.55655 25.05007,-23.81826 38.19727,-39.99414 11.09422,-11.61655 21.37307,-23.62652 30.79882,-35.57812 22.94038,-29.08776 40.86795,-57.92986 53.82032,-80.92188 1.43502,18.56476 3.97239,40.30867 8.49414,62.24219 5.90173,28.6274 15.01756,57.67959 30.50586,80.76563 15.48829,23.08604 39.05527,40.41211 69.49023,40.41211 a 13.15,13.15 0 0 0 13.14844,-13.1504 13.15,13.15 0 0 0 -13.14844,-13.15039 c -21.00312,0 -35.29076,-10.34396 -47.64844,-28.76367 -12.35768,-18.41971 -21.0807,-44.71023 -26.58789,-71.42383 -11.01438,-53.42719 -9.69336,-107.68164 -9.69336,-107.68164 a 13.151315,13.151315 0 0 0 -21.43359,-10.19531 c 19.90908,-59.98704 37.7383,-131.1375 40.19141,-198.48633 1.82382,-50.07227 -4.78393,-98.20106 -26.80469,-137.5332 C 356.20971,47.230364 318.10985,17.650095 261.91016,6.4101562 246.79408,3.3869409 232.08861,2.2137408 217.83594,2.7050781 Z m 0.58203,26.1230469 c 12.33357,-0.356801 25.10913,0.725733 38.33594,3.371094 49.97781,9.995562 79.92912,33.988445 98.52929,67.210937 18.60018,33.222494 25.18418,76.632284 23.46875,123.728514 -3.43085,94.19246 -39.89324,201.86964 -67.20508,267.29102 -16.10256,38.57125 -35.13833,68.52198 -53.86523,91.77343 C 213.26272,628.45907 156.58018,666.06704 90.927734,665.10156 64.246508,664.70919 43.512268,654.90103 26.144531,637.22656 8.7767941,619.5521 -4.8073762,593.53861 -13.908203,561.6875 -32.109857,497.98527 -32.150643,411.61614 -15.324219,327.35742 1.5022054,243.0987 35.16508,160.90497 81.857422,104.66016 119.79495,58.961249 164.9725,30.374263 218.41797,28.828125 Z"
     id="path1" />
  <defs
     id="defs1">
    <pattern
       id="EMFhbasepattern"
       patternUnits="userSpaceOnUse"
       width="6"
       height="6"
       x="0"
       y="0" />
    <pattern
       id="EMFhbasepattern-2"
       patternUnits="userSpaceOnUse"
       width="6"
       height="6"
       x="0"
       y="0" />
    <pattern
       id="EMFhbasepattern-3"
       patternUnits="userSpaceOnUse"
       width="6"
       height="6"
       x="0"
       y="0" />
    <pattern
       id="EMFhbasepattern-9"
       patternUnits="userSpaceOnUse"
       width="6"
       height="6"
       x="0"
       y="0" />
    <pattern
       id="EMFhbasepattern-0"
       patternUnits="userSpaceOnUse"
       width="6"
       height="6"
       x="0"
       y="0" />
    <pattern
       id="EMFhbasepattern-8"
       patternUnits="userSpaceOnUse"
       width="6"
       height="6"
       x="0"
       y="0" />
    <pattern
       id="EMFhbasepattern-01"
       patternUnits="userSpaceOnUse"
       width="6"
       height="6"
       x="0"
       y="0" />
  </defs>
  <sodipodi:namedview
     id="namedview1"
     pagecolor="#ffffff"
     bordercolor="#000000"
     borderopacity="0.25"
     inkscape:showpageshadow="2"
     inkscape:pageopacity="0.0"
     inkscape:pagecheckerboard="0"
     inkscape:deskcolor="#d1d1d1"
     showgrid="false"
     showguides="true"
     inkscape:zoom="0.54942194"
     inkscape:cx="301.22568"
     inkscape:cy="295.7654"
     inkscape:window-width="1920"
     inkscape:window-height="991"
     inkscape:window-x="-9"
     inkscape:window-y="-9"
     inkscape:window-maximized="1"
     inkscape:current-layer="svg1">
    <sodipodi:guide
       position="331.71162,386.07809"
       orientation="0,-1"
       id="guide1"
       inkscape:locked="false" />
    <sodipodi:guide
       position="708.47122,1086.8146"
       orientation="0,-1"
       id="guide2"
       inkscape:locked="false" />
    <sodipodi:guide
       position="1139.8503,649.00249"
       orientation="0,-1"
       id="guide3"
       inkscape:locked="false" />
    <sodipodi:guide
       position="1164.6445,5.4525762"
       orientation="0,-1"
       id="guide4"
       inkscape:locked="false" />
    <sodipodi:guide
       position="449.10835,420.13715"
       orientation="0,-1"
       id="guide5"
       inkscape:locked="false" />
  </sodipodi:namedview>
  <path
     style="color:#000000;fill:#000000;stroke-linecap:round;stroke-linejoin:round;-inkscape-stroke:none"
     d="m 276.95026,-157.70392 a 13.151315,13.151315 0 0 0 -13.92578,5.88281 c 0,0 -4.28493,6.86176 -11.31445,16.52735 1.17686,-1.61818 -0.99129,0.93419 -3.89844,3.24414 -2.90715,2.30995 -6.95671,5.31311 -11.66602,8.66797 -9.41861,6.70972 -21.5114,14.876 -33.38671,22.73633 -23.75063,15.72065 -46.64649,30.23047 -46.64649,30.23046 a 13.15,13.15 0 0 0 -4.07031,18.14649 13.15,13.15 0 0 0 18.14648,4.07031 c 0,0 23.06109,-14.61216 47.08789,-30.51562 12.01341,-7.95173 24.26592,-16.22176 34.12891,-23.24805 4.9315,-3.51315 9.25464,-6.7048 12.76758,-9.49609 3.51294,-2.79129 5.80968,-4.24638 8.80664,-8.36719 1.20576,-1.65793 1.82292,-2.63365 2.88086,-4.13477 7.8295,8.16639 18.35217,18.92852 30.73437,30.80274 11.26846,10.80616 23.28013,21.74041 34.31055,30.42968 11.03042,8.68928 19.10183,15.86191 31.80859,17.38672 a 13.15,13.15 0 0 0 14.62305,-11.48828 13.15,13.15 0 0 0 -11.48828,-14.62304 c 1.33118,0.15974 -8.79771,-4.15672 -18.66992,-11.9336 -9.87221,-7.77688 -21.46499,-18.28773 -32.37891,-28.7539 -21.82784,-20.93235 -40.96484,-41.63477 -40.96484,-41.63477 a 13.151315,13.151315 0 0 0 -6.88477,-3.92969 z"
     id="path15" />
</svg>
