<?xml version="1.0" encoding="UTF-8" standalone="no"?>
<svg
   version="1.1"
   viewBox="-19 0 449.56339 1073.7326"
   id="svg1"
   sodipodi:docname="b.svg"
   width="449.56339"
   height="1073.7327"
   inkscape:version="1.3 (0e150ed6c4, 2023-07-21)"
   xmlns:inkscape="http://www.inkscape.org/namespaces/inkscape"
   xmlns:sodipodi="http://sodipodi.sourceforge.net/DTD/sodipodi-0.dtd"
   xmlns="http://www.w3.org/2000/svg"
   xmlns:svg="http://www.w3.org/2000/svg">
  <path
     style="color:#000000;fill:#000000;stroke-linecap:round;stroke-linejoin:round;-inkscape-stroke:none"
     d="M 305.58203,-7.4667969 C 232.10137,-8.4164352 131.56791,32.324707 -2.8535156,140.83594 c -5.5780886,4.50289 -8.1370454,9.68223 -10.9589844,15.96679 -2.821939,6.28457 -5.395011,13.77994 -7.9375,22.53907 -5.084977,17.51825 -9.968104,40.04691 -14.644531,65.93359 -9.352854,51.77336 -17.798899,116.84565 -24.019531,179.24219 -6.220633,62.39654 -10.213737,121.96579 -10.548829,163.06445 -0.167545,20.54933 0.353818,36.00581 2.69336,47.01953 0.584885,2.75343 1.253854,5.26793 2.535156,7.99805 1.281302,2.73012 3.151925,6.47596 8.660156,8.87109 5.508232,2.39514 12.608993,0.22658 15.746094,-2.20898 3.137101,-2.43557 4.640868,-4.8069 6.148438,-7.35742 5.853621,-9.90325 9.547744,-23.16981 13.447265,-40.75 3.899521,-17.58019 7.508111,-39.09591 10.888672,-63.22071 C -4.0826284,489.684 1.7374643,431.04573 6.515625,374.19531 15.981364,261.57221 21.266436,157.22417 21.367187,155.23242 149.27653,53.560064 243.28514,18.029367 305.24219,18.830078 c 63.20838,0.816883 95.0134,35.844433 106.44922,82.560552 11.43581,46.71611 -0.916,105.11643 -32.46289,144.95117 -14.18458,17.91108 -31.82322,32.27986 -53.05665,40.80273 -2.91926,-0.9542 -5.84819,-1.95408 -8.74414,-2.81836 -38.60949,-11.52282 -74.20313,-15.27459 -96.01367,-13.62695 -5.45263,0.41191 -10.00434,1.04208 -14.57812,2.72461 -2.2869,0.84126 -4.70218,1.8751 -7.34961,4.38476 -2.64744,2.50967 -5.3847,7.75201 -4.88086,12.79883 0.50383,5.04682 3.04607,8.23074 5.14844,10.31445 2.10237,2.08372 4.1975,3.43767 6.49414,4.72071 4.59326,2.56608 10.12484,4.71294 17.42187,7 37.74292,11.8295 72.03403,11.19212 101.57227,1.94726 30.73298,10.96835 61.1339,27.45836 82.46679,50.20118 24.8707,26.51442 38.5114,60.49673 28.63086,109.27929 -20.68358,93.49386 -81.20522,150.66367 -151.96875,182.24805 -18.66943,8.33286 -38.05889,14.74576 -57.52148,19.50195 C 172.64717,671.2406 115.97265,657.07034 60.175781,626.00977 32.853411,610.80015 15.398839,604.04804 -0.19726562,605.58398 c -7.79805208,0.76797 -16.68682938,6.00039 -19.63281238,13.96094 -2.945983,7.96056 -1.054786,15.09985 1.691406,21.50195 5.492384,12.80422 16.5359388,25.31595 31.66211,36.9375 15.12617,11.62156 34.436796,21.88806 56.529296,27.05079 45.352666,10.59832 102.273986,10.78705 159.181636,-2.63868 36.18204,2.73255 71.06966,1.47429 103.59766,-1.86328 85.27927,-8.75016 156.52562,-31.2191 189.50391,-33.08008 a 13.15,13.15 0 0 0 12.38867,-13.86914 13.15,13.15 0 0 0 -13.86914,-12.38867 c -41.64674,2.35014 -108.59414,24.75031 -190.70899,33.17578 -8.81507,0.90448 -17.84674,1.55922 -26.94336,2.10938 73.25502,-35.07266 137.13094,-98.46094 158.85352,-196.87891 a 13.151315,13.151315 0 0 0 0.0469,-0.21679 c 11.40167,-56.15714 -5.572,-100.98604 -35.2129,-132.58594 -19.25016,-20.52243 -43.39451,-35.81089 -68.52343,-47.21094 16.04123,-9.79731 29.98669,-22.40707 41.47851,-36.91797 C 436.91652,215.86004 450.84509,150.72948 437.23633,95.136719 423.62757,39.543953 379.0627,-6.5171585 305.58203,-7.4667969 Z M -10.8125,251.75391 c -2.36512,35.91784 -5.206766,76.52402 -8.880859,120.23828 -4.755175,56.57694 -10.553213,114.89275 -17.195313,162.29297 -2.410872,17.20478 -4.963597,32.2289 -7.566406,45.89062 0.691266,-39.38701 4.399508,-94.75683 10.210937,-153.04883 6.097462,-61.16106 14.391642,-124.93304 23.431641,-175.37304 z M 6.9550781,632.30664 c 7.0476309,1.42015 21.1049759,5.92411 40.4296879,16.68164 29.746484,16.55905 59.732704,28.54703 89.453124,37.06836 C 114.8575,685.79727 94.100963,683.64707 76.037109,679.42578 58.21775,675.26163 41.987988,666.68751 29.546875,657.12891 18.065862,648.30795 10.13028,638.42901 6.9550781,632.30664 Z"
     id="path2" />
  <defs
     id="defs1">
    <pattern
       id="EMFhbasepattern"
       patternUnits="userSpaceOnUse"
       width="6"
       height="6"
       x="0"
       y="0" />
    <pattern
       id="EMFhbasepattern-2"
       patternUnits="userSpaceOnUse"
       width="6"
       height="6"
       x="0"
       y="0" />
    <pattern
       id="EMFhbasepattern-3"
       patternUnits="userSpaceOnUse"
       width="6"
       height="6"
       x="0"
       y="0" />
    <pattern
       id="EMFhbasepattern-9"
       patternUnits="userSpaceOnUse"
       width="6"
       height="6"
       x="0"
       y="0" />
    <pattern
       id="EMFhbasepattern-0"
       patternUnits="userSpaceOnUse"
       width="6"
       height="6"
       x="0"
       y="0" />
    <pattern
       id="EMFhbasepattern-8"
       patternUnits="userSpaceOnUse"
       width="6"
       height="6"
       x="0"
       y="0" />
    <pattern
       id="EMFhbasepattern-6"
       patternUnits="userSpaceOnUse"
       width="6"
       height="6"
       x="0"
       y="0" />
    <pattern
       id="EMFhbasepattern-02"
       patternUnits="userSpaceOnUse"
       width="6"
       height="6"
       x="0"
       y="0" />
  </defs>
  <sodipodi:namedview
     id="namedview1"
     pagecolor="#ffffff"
     bordercolor="#000000"
     borderopacity="0.25"
     inkscape:showpageshadow="2"
     inkscape:pageopacity="0.0"
     inkscape:pagecheckerboard="0"
     inkscape:deskcolor="#d1d1d1"
     showgrid="false"
     showguides="true"
     inkscape:zoom="0.38849998"
     inkscape:cx="662.8057"
     inkscape:cy="454.31148"
     inkscape:window-width="1920"
     inkscape:window-height="991"
     inkscape:window-x="-9"
     inkscape:window-y="-9"
     inkscape:window-maximized="1"
     inkscape:current-layer="svg1">
    <sodipodi:guide
       position="331.71162,386.07809"
       orientation="0,-1"
       id="guide1"
       inkscape:locked="false" />
    <sodipodi:guide
       position="708.47122,1086.8146"
       orientation="0,-1"
       id="guide2"
       inkscape:locked="false" />
    <sodipodi:guide
       position="1139.8503,649.00249"
       orientation="0,-1"
       id="guide3"
       inkscape:locked="false" />
    <sodipodi:guide
       position="1164.6445,5.4525762"
       orientation="0,-1"
       id="guide4"
       inkscape:locked="false" />
    <sodipodi:guide
       position="449.10835,420.13715"
       orientation="0,-1"
       id="guide5"
       inkscape:locked="false" />
  </sodipodi:namedview>
</svg>
