<?xml version="1.0" encoding="UTF-8" standalone="no"?>
<svg
   version="1.1"
   viewBox="-19 0 836.47981 1083.8952"
   id="svg1"
   sodipodi:docname="euml.svg"
   width="836.4798"
   height="1083.8953"
   inkscape:version="1.3 (0e150ed6c4, 2023-07-21)"
   xml:space="preserve"
   xmlns:inkscape="http://www.inkscape.org/namespaces/inkscape"
   xmlns:sodipodi="http://sodipodi.sourceforge.net/DTD/sodipodi-0.dtd"
   xmlns="http://www.w3.org/2000/svg"
   xmlns:svg="http://www.w3.org/2000/svg"><defs
     id="defs1"><pattern
       id="EMFhbasepattern"
       patternUnits="userSpaceOnUse"
       width="6"
       height="6"
       x="0"
       y="0" /><pattern
       id="EMFhbasepattern-2"
       patternUnits="userSpaceOnUse"
       width="6"
       height="6"
       x="0"
       y="0" /><pattern
       id="EMFhbasepattern-3"
       patternUnits="userSpaceOnUse"
       width="6"
       height="6"
       x="0"
       y="0" /><pattern
       id="EMFhbasepattern-9"
       patternUnits="userSpaceOnUse"
       width="6"
       height="6"
       x="0"
       y="0" /><pattern
       id="EMFhbasepattern-0"
       patternUnits="userSpaceOnUse"
       width="6"
       height="6"
       x="0"
       y="0" /><pattern
       id="EMFhbasepattern-8"
       patternUnits="userSpaceOnUse"
       width="6"
       height="6"
       x="0"
       y="0" /><pattern
       id="EMFhbasepattern-1"
       patternUnits="userSpaceOnUse"
       width="6"
       height="6"
       x="0"
       y="0" /><pattern
       id="EMFhbasepattern-7"
       patternUnits="userSpaceOnUse"
       width="6"
       height="6"
       x="0"
       y="0" /><pattern
       id="EMFhbasepattern-35"
       patternUnits="userSpaceOnUse"
       width="6"
       height="6"
       x="0"
       y="0" /><pattern
       id="EMFhbasepattern-22"
       patternUnits="userSpaceOnUse"
       width="6"
       height="6"
       x="0"
       y="0" /><pattern
       id="EMFhbasepattern-5"
       patternUnits="userSpaceOnUse"
       width="6"
       height="6"
       x="0"
       y="0" /><pattern
       id="EMFhbasepattern-2-3"
       patternUnits="userSpaceOnUse"
       width="6"
       height="6"
       x="0"
       y="0" /><pattern
       id="EMFhbasepattern-3-3"
       patternUnits="userSpaceOnUse"
       width="6"
       height="6"
       x="0"
       y="0" /><pattern
       id="EMFhbasepattern-9-2"
       patternUnits="userSpaceOnUse"
       width="6"
       height="6"
       x="0"
       y="0" /><pattern
       id="EMFhbasepattern-0-4"
       patternUnits="userSpaceOnUse"
       width="6"
       height="6"
       x="0"
       y="0" /><pattern
       id="EMFhbasepattern-8-7"
       patternUnits="userSpaceOnUse"
       width="6"
       height="6"
       x="0"
       y="0" /><pattern
       id="EMFhbasepattern-01"
       patternUnits="userSpaceOnUse"
       width="6"
       height="6"
       x="0"
       y="0" /><pattern
       id="EMFhbasepattern-21"
       patternUnits="userSpaceOnUse"
       width="6"
       height="6"
       x="0"
       y="0" /><pattern
       id="EMFhbasepattern-2-7"
       patternUnits="userSpaceOnUse"
       width="6"
       height="6"
       x="0"
       y="0" /><pattern
       id="EMFhbasepattern-3-6"
       patternUnits="userSpaceOnUse"
       width="6"
       height="6"
       x="0"
       y="0" /><pattern
       id="EMFhbasepattern-9-0"
       patternUnits="userSpaceOnUse"
       width="6"
       height="6"
       x="0"
       y="0" /><pattern
       id="EMFhbasepattern-0-9"
       patternUnits="userSpaceOnUse"
       width="6"
       height="6"
       x="0"
       y="0" /><pattern
       id="EMFhbasepattern-8-9"
       patternUnits="userSpaceOnUse"
       width="6"
       height="6"
       x="0"
       y="0" /><pattern
       id="EMFhbasepattern-01-0"
       patternUnits="userSpaceOnUse"
       width="6"
       height="6"
       x="0"
       y="0" /><pattern
       id="EMFhbasepattern-6"
       patternUnits="userSpaceOnUse"
       width="6"
       height="6"
       x="0"
       y="0" /><pattern
       id="EMFhbasepattern-2-1"
       patternUnits="userSpaceOnUse"
       width="6"
       height="6"
       x="0"
       y="0" /><pattern
       id="EMFhbasepattern-3-7"
       patternUnits="userSpaceOnUse"
       width="6"
       height="6"
       x="0"
       y="0" /><pattern
       id="EMFhbasepattern-9-4"
       patternUnits="userSpaceOnUse"
       width="6"
       height="6"
       x="0"
       y="0" /><pattern
       id="EMFhbasepattern-0-5"
       patternUnits="userSpaceOnUse"
       width="6"
       height="6"
       x="0"
       y="0" /><pattern
       id="EMFhbasepattern-8-93"
       patternUnits="userSpaceOnUse"
       width="6"
       height="6"
       x="0"
       y="0" /><pattern
       id="EMFhbasepattern-01-8"
       patternUnits="userSpaceOnUse"
       width="6"
       height="6"
       x="0"
       y="0" /><pattern
       id="EMFhbasepattern-77"
       patternUnits="userSpaceOnUse"
       width="6"
       height="6"
       x="0"
       y="0" /><pattern
       id="EMFhbasepattern-2-70"
       patternUnits="userSpaceOnUse"
       width="6"
       height="6"
       x="0"
       y="0" /><pattern
       id="EMFhbasepattern-3-1"
       patternUnits="userSpaceOnUse"
       width="6"
       height="6"
       x="0"
       y="0" /><pattern
       id="EMFhbasepattern-9-6"
       patternUnits="userSpaceOnUse"
       width="6"
       height="6"
       x="0"
       y="0" /><pattern
       id="EMFhbasepattern-0-41"
       patternUnits="userSpaceOnUse"
       width="6"
       height="6"
       x="0"
       y="0" /><pattern
       id="EMFhbasepattern-8-1"
       patternUnits="userSpaceOnUse"
       width="6"
       height="6"
       x="0"
       y="0" /><pattern
       id="EMFhbasepattern-01-2"
       patternUnits="userSpaceOnUse"
       width="6"
       height="6"
       x="0"
       y="0" /></defs><sodipodi:namedview
     id="namedview1"
     pagecolor="#ffffff"
     bordercolor="#000000"
     borderopacity="0.25"
     inkscape:showpageshadow="2"
     inkscape:pageopacity="0.0"
     inkscape:pagecheckerboard="0"
     inkscape:deskcolor="#d1d1d1"
     showgrid="false"
     showguides="true"
     inkscape:zoom="0.19424999"
     inkscape:cx="1091.3771"
     inkscape:cy="424.71045"
     inkscape:window-width="1920"
     inkscape:window-height="991"
     inkscape:window-x="-9"
     inkscape:window-y="-9"
     inkscape:window-maximized="1"
     inkscape:current-layer="svg1"><sodipodi:guide
       position="635.66742,376.97762"
       orientation="0,-1"
       id="guide1"
       inkscape:locked="false" /><sodipodi:guide
       position="1012.427,1077.7141"
       orientation="0,-1"
       id="guide2"
       inkscape:locked="false" /><sodipodi:guide
       position="1443.8061,639.90202"
       orientation="0,-1"
       id="guide3"
       inkscape:locked="false" /><sodipodi:guide
       position="1468.6003,-3.6478979"
       orientation="0,-1"
       id="guide4"
       inkscape:locked="false" /><sodipodi:guide
       position="753.06415,411.03668"
       orientation="0,-1"
       id="guide5"
       inkscape:locked="false" /></sodipodi:namedview><path
     style="fill:none;stroke:#000000;stroke-width:26.3;stroke-linecap:round;stroke-linejoin:round"
     d="m 170.1892,186.6152 c 0,0 33.46203,110.68211 127.41313,111.96911 93.9511,1.28701 287.00131,-42.47104 332.04635,-122.26512 45.04505,-79.794088 48.90605,-155.727168 -57.91506,-155.727168 -106.82111,0 -208.49422,63.063066 -176.31918,153.153158 32.17503,90.0901 97.53771,59.39609 97.53771,59.39609 0,0 -44.77066,-31.08206 -167.03579,53.86003 -122.26513,84.94209 -110.68211,243.24326 -110.68211,243.24326 0,0 1.287,146.71815 199.48521,159.58817 198.19821,12.87001 316.60233,-115.83013 319.17633,-176.31919 2.57401,-60.48906 -38.61004,-166.02317 -164.73617,-153.15316 -126.12613,12.87001 -148.00516,99.0991 -148.00516,99.0991"
     id="path16"
     sodipodi:nodetypes="csssscscsssc" /><path
     style="color:#000000;fill:#000000;stroke-linecap:round;stroke-linejoin:round;-inkscape-stroke:none"
     d="m 473.4164,-123.98112 a 13.15,13.15 0 0 0 -14.2852,11.90625 c 0.4231,-4.65364 0.8982,-2.43312 -1.5781,-0.22851 -2.4763,2.20461 -6.5053,5.09707 -10.6758,7.85937 -4.1705,2.7623 -8.4673,5.42493 -12.0957,7.88086 -1.8142,1.22797 -3.4332,2.34996 -5.1406,3.82032 -0.8537,0.73517 -1.7384,1.5155 -2.8535,2.93359 -1.1152,1.41809 -3.2032,3.52432 -3.2032,8.95703 a 13.15,13.15 0 0 0 13.1504,13.14844 13.15,13.15 0 0 0 10.8672,-6.05274 c -0.036,0.0424 -0.1125,0.16685 -0.1426,0.20508 -0.6081,0.77333 -0.7499,0.81895 -0.6562,0.73828 0.1873,-0.16132 1.2786,-0.99465 2.7207,-1.9707 2.8841,-1.95211 7.2883,-4.69317 11.8769,-7.73242 4.5887,-3.03925 9.3769,-6.34657 13.6407,-10.14258 4.2637,-3.79601 9.4031,-7.37626 10.2812,-17.03516 a 13.15,13.15 0 0 0 -11.9062,-14.28711 z m -23.5313,43.12891 c 0,3.65854 -0.9006,5.19331 -1.6621,6.20117 a 13.15,13.15 0 0 0 1.6621,-6.20117 z"
     id="path17" /><path
     style="color:#000000;fill:#000000;stroke-linecap:round;stroke-linejoin:round;-inkscape-stroke:none"
     d="m 675.7894,-121.91471 a 13.15,13.15 0 0 0 -15.9785,9.51367 c 0.6798,-2.68086 -0.4931,0.67932 -2.9688,3.61328 -2.4756,2.93397 -5.9811,6.54725 -9.539,9.93946 -3.5579,3.3922 -7.201,6.60732 -9.9903,8.91797 -1.3946,1.15532 -2.5899,2.09306 -3.332,2.63867 -0.7421,0.54561 -2.6322,0.95536 1.1934,-0.39649 a 13.15,13.15 0 0 0 -8.0176,16.78125 13.15,13.15 0 0 0 16.7812,8.01758 c 4.5991,-1.62515 4.2491,-2.20417 5.6212,-3.21289 1.372,-1.00872 2.8637,-2.19119 4.5331,-3.57422 3.339,-2.76605 7.3334,-6.2982 11.3594,-10.13672 4.026,-3.83851 8.052,-7.93893 11.4903,-12.01367 3.4382,-4.07474 6.5631,-7.01786 8.3613,-14.10937 a 13.15,13.15 0 0 0 -9.5137,-15.97852 z"
     id="path18" /></svg>
