<?xml version="1.0" encoding="UTF-8" standalone="no"?>
<svg
   version="1.1"
   viewBox="-19 0 290.86231 1065.637"
   id="svg1"
   sodipodi:docname="f.svg"
   width="290.8623"
   height="1065.6371"
   inkscape:version="1.3 (0e150ed6c4, 2023-07-21)"
   xml:space="preserve"
   xmlns:inkscape="http://www.inkscape.org/namespaces/inkscape"
   xmlns:sodipodi="http://sodipodi.sourceforge.net/DTD/sodipodi-0.dtd"
   xmlns="http://www.w3.org/2000/svg"
   xmlns:svg="http://www.w3.org/2000/svg"><defs
     id="defs1"><pattern
       id="EMFhbasepattern"
       patternUnits="userSpaceOnUse"
       width="6"
       height="6"
       x="0"
       y="0" /><pattern
       id="EMFhbasepattern-2"
       patternUnits="userSpaceOnUse"
       width="6"
       height="6"
       x="0"
       y="0" /><pattern
       id="EMFhbasepattern-3"
       patternUnits="userSpaceOnUse"
       width="6"
       height="6"
       x="0"
       y="0" /><pattern
       id="EMFhbasepattern-9"
       patternUnits="userSpaceOnUse"
       width="6"
       height="6"
       x="0"
       y="0" /><pattern
       id="EMFhbasepattern-0"
       patternUnits="userSpaceOnUse"
       width="6"
       height="6"
       x="0"
       y="0" /><pattern
       id="EMFhbasepattern-8"
       patternUnits="userSpaceOnUse"
       width="6"
       height="6"
       x="0"
       y="0" /><pattern
       id="EMFhbasepattern-1"
       patternUnits="userSpaceOnUse"
       width="6"
       height="6"
       x="0"
       y="0" /><pattern
       id="EMFhbasepattern-7"
       patternUnits="userSpaceOnUse"
       width="6"
       height="6"
       x="0"
       y="0" /><pattern
       id="EMFhbasepattern-04"
       patternUnits="userSpaceOnUse"
       width="6"
       height="6"
       x="0"
       y="0" /><pattern
       id="EMFhbasepattern-2-6"
       patternUnits="userSpaceOnUse"
       width="6"
       height="6"
       x="0"
       y="0" /><pattern
       id="EMFhbasepattern-3-6"
       patternUnits="userSpaceOnUse"
       width="6"
       height="6"
       x="0"
       y="0" /><pattern
       id="EMFhbasepattern-9-8"
       patternUnits="userSpaceOnUse"
       width="6"
       height="6"
       x="0"
       y="0" /><pattern
       id="EMFhbasepattern-0-8"
       patternUnits="userSpaceOnUse"
       width="6"
       height="6"
       x="0"
       y="0" /><pattern
       id="EMFhbasepattern-8-7"
       patternUnits="userSpaceOnUse"
       width="6"
       height="6"
       x="0"
       y="0" /><pattern
       id="EMFhbasepattern-5"
       patternUnits="userSpaceOnUse"
       width="6"
       height="6"
       x="0"
       y="0" /><pattern
       id="EMFhbasepattern-2-8"
       patternUnits="userSpaceOnUse"
       width="6"
       height="6"
       x="0"
       y="0" /><pattern
       id="EMFhbasepattern-3-9"
       patternUnits="userSpaceOnUse"
       width="6"
       height="6"
       x="0"
       y="0" /><pattern
       id="EMFhbasepattern-9-3"
       patternUnits="userSpaceOnUse"
       width="6"
       height="6"
       x="0"
       y="0" /><pattern
       id="EMFhbasepattern-0-3"
       patternUnits="userSpaceOnUse"
       width="6"
       height="6"
       x="0"
       y="0" /><pattern
       id="EMFhbasepattern-8-0"
       patternUnits="userSpaceOnUse"
       width="6"
       height="6"
       x="0"
       y="0" /><pattern
       id="EMFhbasepattern-70"
       patternUnits="userSpaceOnUse"
       width="6"
       height="6"
       x="0"
       y="0" /><pattern
       id="EMFhbasepattern-2-4"
       patternUnits="userSpaceOnUse"
       width="6"
       height="6"
       x="0"
       y="0" /><pattern
       id="EMFhbasepattern-3-5"
       patternUnits="userSpaceOnUse"
       width="6"
       height="6"
       x="0"
       y="0" /><pattern
       id="EMFhbasepattern-9-39"
       patternUnits="userSpaceOnUse"
       width="6"
       height="6"
       x="0"
       y="0" /><pattern
       id="EMFhbasepattern-0-2"
       patternUnits="userSpaceOnUse"
       width="6"
       height="6"
       x="0"
       y="0" /><pattern
       id="EMFhbasepattern-8-1"
       patternUnits="userSpaceOnUse"
       width="6"
       height="6"
       x="0"
       y="0" /><pattern
       id="EMFhbasepattern-4"
       patternUnits="userSpaceOnUse"
       width="6"
       height="6"
       x="0"
       y="0" /><pattern
       id="EMFhbasepattern-2-5"
       patternUnits="userSpaceOnUse"
       width="6"
       height="6"
       x="0"
       y="0" /><pattern
       id="EMFhbasepattern-3-7"
       patternUnits="userSpaceOnUse"
       width="6"
       height="6"
       x="0"
       y="0" /><pattern
       id="EMFhbasepattern-9-9"
       patternUnits="userSpaceOnUse"
       width="6"
       height="6"
       x="0"
       y="0" /><pattern
       id="EMFhbasepattern-0-25"
       patternUnits="userSpaceOnUse"
       width="6"
       height="6"
       x="0"
       y="0" /><pattern
       id="EMFhbasepattern-8-4"
       patternUnits="userSpaceOnUse"
       width="6"
       height="6"
       x="0"
       y="0" /><pattern
       id="EMFhbasepattern-6"
       patternUnits="userSpaceOnUse"
       width="6"
       height="6"
       x="0"
       y="0" /><pattern
       id="EMFhbasepattern-45"
       patternUnits="userSpaceOnUse"
       width="6"
       height="6"
       x="0"
       y="0" /></defs><sodipodi:namedview
     id="namedview1"
     pagecolor="#ffffff"
     bordercolor="#000000"
     borderopacity="0.25"
     inkscape:showpageshadow="2"
     inkscape:pageopacity="0.0"
     inkscape:pagecheckerboard="0"
     inkscape:deskcolor="#d1d1d1"
     showgrid="false"
     showguides="true"
     inkscape:zoom="0.38849998"
     inkscape:cx="-265.12228"
     inkscape:cy="508.36554"
     inkscape:window-width="1920"
     inkscape:window-height="991"
     inkscape:window-x="-9"
     inkscape:window-y="-9"
     inkscape:window-maximized="1"
     inkscape:current-layer="svg1"><sodipodi:guide
       position="622.79741,394.86223"
       orientation="0,-1"
       id="guide1"
       inkscape:locked="false" /><sodipodi:guide
       position="999.55699,1095.5987"
       orientation="0,-1"
       id="guide2"
       inkscape:locked="false" /><sodipodi:guide
       position="1430.9361,657.78663"
       orientation="0,-1"
       id="guide3"
       inkscape:locked="false" /><sodipodi:guide
       position="1455.7303,14.236708"
       orientation="0,-1"
       id="guide4"
       inkscape:locked="false" /><sodipodi:guide
       position="740.19414,428.92129"
       orientation="0,-1"
       id="guide5"
       inkscape:locked="false" /></sodipodi:namedview><path
     style="color:#000000;fill:#000000;stroke-linecap:round;stroke-linejoin:round;-inkscape-stroke:none"
     d="m 416.01758,-34.980469 a 13.151315,13.151315 0 0 0 -12.1211,8.00586 C 350.50275,98.937825 268.84308,152.59076 169.5,168.76758 70.156916,184.9444 -47.44754,161.56837 -166.44922,127.50586 a 13.151315,13.151315 0 0 0 -2.09961,-0.41992 c -43.60355,-5.07019 -83.06649,14.33719 -109.58203,42.88476 -26.51554,28.54757 -41.34347,66.7989 -33.8457,102.42578 7.49776,35.62689 39.24547,65.54731 95.31054,74.05664 56.06508,8.50934 137.325455,-1.89861 253.015629,-42.84179 a 13.15,13.15 0 0 0 8.009766,-16.78321 13.15,13.15 0 0 0 -16.783203,-8.00976 c -113.319654,40.10425 -191.251022,49.0768 -240.296872,41.63281 -49.04585,-7.44399 -68.32946,-28.80918 -73.51953,-53.4707 -5.19008,-24.66152 5.63697,-55.7011 27.38086,-79.11133 21.59458,-23.24949 52.72261,-38.37326 86.57812,-34.69336 119.835955,34.22561 239.952664,58.81863 346.00781,41.54883 C 256.80963,181.19554 330.82258,140.5296 386.06836,60.4375 342.21693,266.76916 293.70998,403.29647 245.70312,489.5918 191.39897,587.20692 139.27804,619.49482 95.294922,622.07812 51.311804,624.66143 10.756297,596.9298 -19.064453,563.62695 c -14.423948,-16.1082 -26.08568,-33.25929 -34.195313,-47.94531 5.26084,3.39289 11.168561,6.40091 17.900391,8.38086 a 13.15,13.15 0 0 0 16.326172,-8.90625 13.15,13.15 0 0 0 -8.90625,-16.32617 c -11.068054,-3.25531 -21.569602,-13.34853 -29.480469,-21.6875 -1.977717,-2.08474 -3.798425,-4.03529 -5.722656,-5.8711 -1.924231,-1.8358 -3.438562,-3.71724 -7.908203,-5.53515 -2.234821,-0.90896 -5.943695,-1.83996 -10.191406,-0.51953 -4.247712,1.32042 -7.368491,4.80567 -8.707032,7.36718 -2.677081,5.12303 -2.263672,8.00395 -2.263672,11.56055 0,12.91262 5.800781,25.66808 14.941407,42.53711 9.140625,16.86903 22.19718,36.15508 38.615234,54.49023 32.8361083,36.67031 79.845243,70.42865 135.494141,67.16016 C 152.48679,645.06355 212.06618,604.15733 268.6875,502.37695 325.30882,400.59658 380.50558,236.72207 428.92383,-19.398437 a 13.151315,13.151315 0 0 0 -12.90625,-15.582032 z"
     id="path1" /><path
     style="color:#000000;fill:#000000;stroke-linecap:round;stroke-linejoin:round;-inkscape-stroke:none"
     d="m 371.60547,380.19727 c -6.50441,-0.18421 -13.24423,-0.15372 -20.17383,0.0176 -27.71841,0.68518 -58.26902,4.17388 -86.8418,8.48828 -57.14554,8.62882 -106.51953,20.65625 -106.51953,20.65625 a 13.15,13.15 0 0 0 -9.66797,15.88672 13.15,13.15 0 0 0 15.88868,9.66797 c 0,0 48.43785,-11.78309 104.22656,-20.20703 27.89435,-4.21197 57.59083,-7.55913 83.56445,-8.20117 25.97363,-0.64205 48.44879,1.95181 59.84766,7.04492 a 13.15,13.15 0 0 0 17.36914,-6.64258 13.15,13.15 0 0 0 -6.64063,-17.36914 c -14.13422,-6.31529 -31.53951,-8.78918 -51.05273,-9.34179 z"
     id="path2" /></svg>
