<?xml version="1.0" encoding="UTF-8" standalone="no"?>
<svg
   version="1.1"
   viewBox="-19 0 290.86231 1065.637"
   id="svg1"
   sodipodi:docname="g.svg"
   width="290.8623"
   height="1065.6371"
   inkscape:version="1.3 (0e150ed6c4, 2023-07-21)"
   xml:space="preserve"
   xmlns:inkscape="http://www.inkscape.org/namespaces/inkscape"
   xmlns:sodipodi="http://sodipodi.sourceforge.net/DTD/sodipodi-0.dtd"
   xmlns="http://www.w3.org/2000/svg"
   xmlns:svg="http://www.w3.org/2000/svg"><defs
     id="defs1"><pattern
       id="EMFhbasepattern"
       patternUnits="userSpaceOnUse"
       width="6"
       height="6"
       x="0"
       y="0" /><pattern
       id="EMFhbasepattern-2"
       patternUnits="userSpaceOnUse"
       width="6"
       height="6"
       x="0"
       y="0" /><pattern
       id="EMFhbasepattern-3"
       patternUnits="userSpaceOnUse"
       width="6"
       height="6"
       x="0"
       y="0" /><pattern
       id="EMFhbasepattern-9"
       patternUnits="userSpaceOnUse"
       width="6"
       height="6"
       x="0"
       y="0" /><pattern
       id="EMFhbasepattern-0"
       patternUnits="userSpaceOnUse"
       width="6"
       height="6"
       x="0"
       y="0" /><pattern
       id="EMFhbasepattern-8"
       patternUnits="userSpaceOnUse"
       width="6"
       height="6"
       x="0"
       y="0" /><pattern
       id="EMFhbasepattern-1"
       patternUnits="userSpaceOnUse"
       width="6"
       height="6"
       x="0"
       y="0" /><pattern
       id="EMFhbasepattern-7"
       patternUnits="userSpaceOnUse"
       width="6"
       height="6"
       x="0"
       y="0" /><pattern
       id="EMFhbasepattern-04"
       patternUnits="userSpaceOnUse"
       width="6"
       height="6"
       x="0"
       y="0" /><pattern
       id="EMFhbasepattern-2-6"
       patternUnits="userSpaceOnUse"
       width="6"
       height="6"
       x="0"
       y="0" /><pattern
       id="EMFhbasepattern-3-6"
       patternUnits="userSpaceOnUse"
       width="6"
       height="6"
       x="0"
       y="0" /><pattern
       id="EMFhbasepattern-9-8"
       patternUnits="userSpaceOnUse"
       width="6"
       height="6"
       x="0"
       y="0" /><pattern
       id="EMFhbasepattern-0-8"
       patternUnits="userSpaceOnUse"
       width="6"
       height="6"
       x="0"
       y="0" /><pattern
       id="EMFhbasepattern-8-7"
       patternUnits="userSpaceOnUse"
       width="6"
       height="6"
       x="0"
       y="0" /><pattern
       id="EMFhbasepattern-5"
       patternUnits="userSpaceOnUse"
       width="6"
       height="6"
       x="0"
       y="0" /><pattern
       id="EMFhbasepattern-2-8"
       patternUnits="userSpaceOnUse"
       width="6"
       height="6"
       x="0"
       y="0" /><pattern
       id="EMFhbasepattern-3-9"
       patternUnits="userSpaceOnUse"
       width="6"
       height="6"
       x="0"
       y="0" /><pattern
       id="EMFhbasepattern-9-3"
       patternUnits="userSpaceOnUse"
       width="6"
       height="6"
       x="0"
       y="0" /><pattern
       id="EMFhbasepattern-0-3"
       patternUnits="userSpaceOnUse"
       width="6"
       height="6"
       x="0"
       y="0" /><pattern
       id="EMFhbasepattern-8-0"
       patternUnits="userSpaceOnUse"
       width="6"
       height="6"
       x="0"
       y="0" /><pattern
       id="EMFhbasepattern-70"
       patternUnits="userSpaceOnUse"
       width="6"
       height="6"
       x="0"
       y="0" /><pattern
       id="EMFhbasepattern-2-4"
       patternUnits="userSpaceOnUse"
       width="6"
       height="6"
       x="0"
       y="0" /><pattern
       id="EMFhbasepattern-3-5"
       patternUnits="userSpaceOnUse"
       width="6"
       height="6"
       x="0"
       y="0" /><pattern
       id="EMFhbasepattern-9-39"
       patternUnits="userSpaceOnUse"
       width="6"
       height="6"
       x="0"
       y="0" /><pattern
       id="EMFhbasepattern-0-2"
       patternUnits="userSpaceOnUse"
       width="6"
       height="6"
       x="0"
       y="0" /><pattern
       id="EMFhbasepattern-8-1"
       patternUnits="userSpaceOnUse"
       width="6"
       height="6"
       x="0"
       y="0" /><pattern
       id="EMFhbasepattern-4"
       patternUnits="userSpaceOnUse"
       width="6"
       height="6"
       x="0"
       y="0" /><pattern
       id="EMFhbasepattern-2-5"
       patternUnits="userSpaceOnUse"
       width="6"
       height="6"
       x="0"
       y="0" /><pattern
       id="EMFhbasepattern-3-7"
       patternUnits="userSpaceOnUse"
       width="6"
       height="6"
       x="0"
       y="0" /><pattern
       id="EMFhbasepattern-9-9"
       patternUnits="userSpaceOnUse"
       width="6"
       height="6"
       x="0"
       y="0" /><pattern
       id="EMFhbasepattern-0-25"
       patternUnits="userSpaceOnUse"
       width="6"
       height="6"
       x="0"
       y="0" /><pattern
       id="EMFhbasepattern-8-4"
       patternUnits="userSpaceOnUse"
       width="6"
       height="6"
       x="0"
       y="0" /><pattern
       id="EMFhbasepattern-6"
       patternUnits="userSpaceOnUse"
       width="6"
       height="6"
       x="0"
       y="0" /><pattern
       id="EMFhbasepattern-45"
       patternUnits="userSpaceOnUse"
       width="6"
       height="6"
       x="0"
       y="0" /><pattern
       id="EMFhbasepattern-68"
       patternUnits="userSpaceOnUse"
       width="6"
       height="6"
       x="0"
       y="0" /></defs><sodipodi:namedview
     id="namedview1"
     pagecolor="#ffffff"
     bordercolor="#000000"
     borderopacity="0.25"
     inkscape:showpageshadow="2"
     inkscape:pageopacity="0.0"
     inkscape:pagecheckerboard="0"
     inkscape:deskcolor="#d1d1d1"
     showgrid="false"
     showguides="true"
     inkscape:zoom="0.54942194"
     inkscape:cx="239.34246"
     inkscape:cy="443.19308"
     inkscape:window-width="1920"
     inkscape:window-height="991"
     inkscape:window-x="-9"
     inkscape:window-y="-9"
     inkscape:window-maximized="1"
     inkscape:current-layer="svg1"><sodipodi:guide
       position="622.79741,394.86223"
       orientation="0,-1"
       id="guide1"
       inkscape:locked="false" /><sodipodi:guide
       position="999.55699,1095.5987"
       orientation="0,-1"
       id="guide2"
       inkscape:locked="false" /><sodipodi:guide
       position="1430.9361,657.78663"
       orientation="0,-1"
       id="guide3"
       inkscape:locked="false" /><sodipodi:guide
       position="1455.7303,14.236708"
       orientation="0,-1"
       id="guide4"
       inkscape:locked="false" /><sodipodi:guide
       position="740.19414,428.92129"
       orientation="0,-1"
       id="guide5"
       inkscape:locked="false" /></sodipodi:namedview><path
     style="color:#000000;fill:#000000;stroke-linecap:round;stroke-linejoin:round;-inkscape-stroke:none"
     d="M 95.146484,-28.675781 C 52.01438,-29.063847 10.037919,-23.218605 -28.275391,-15.462891 -181.07797,15.468738 -270.00237,93.074242 -308.30078,184.22461 c -38.29842,91.15037 -26.43586,194.3274 16.7832,277.03516 43.21906,82.70775 118.50109,145.96505 208.669924,154.6582 86.0282628,8.29396 183.130736,-34.31094 274.138676,-150.84961 10.8876,29.08963 16.33215,76.21061 14.0996,130.95508 -0.77818,19.08208 -2.45796,39.13272 -4.81835,59.64648 -14.71496,7.88173 -29.59473,16.8028 -44.52149,26.76367 C 103.32247,717.62007 50.640553,764.58991 8.0058594,813.7793 -34.628834,862.96868 -67.377492,914.02617 -79.255859,959.68555 c -5.939184,22.82968 -6.667751,44.76635 0.886718,64.05275 7.55447,19.2863 23.709148,34.7748 46.824219,43.8437 25.5852416,10.0381 51.531232,8.7695 74.708984,-1.3906 23.177753,-10.1601 43.775268,-28.5232 62.367188,-52.1738 37.18384,-47.30128 66.83031,-116.41588 88.41211,-191.32815 14.12159,-49.01724 24.61077,-100.43478 31.03125,-149.7832 30.64194,-14.90176 59.05175,-23.61777 81.61133,-23.97852 a 13.15,13.15 0 0 0 12.9375,-13.35937 13.15,13.15 0 0 0 -13.35742,-12.9375 c -24.11878,0.38568 -50.41567,7.59773 -77.71875,19.48437 1.47758,-15.34052 2.62837,-30.44904 3.22265,-45.02148 2.857,-70.05694 -3.40383,-129.19218 -26.96875,-164.27148 a 13.151315,13.151315 0 0 0 -21.53515,-0.42383 C 91.922141,557.30899 -0.95896624,597.39181 -80.324219,589.74023 -159.68947,582.08865 -228.24323,525.55634 -268.20703,449.07812 -308.17083,372.59991 -318.8361,277.192 -284.05469,194.41211 -249.27327,111.63222 -169.51001,39.960425 -23.058594,10.314453 76.118837,-9.7619067 193.81185,-15.962384 292.02344,65.464844 340.374,105.55229 343.13687,139.89488 336.5918,166.41211 c -6.54508,26.51723 -24.33203,44.27344 -24.33203,44.27344 a 13.15,13.15 0 0 0 -0.18555,18.59765 13.15,13.15 0 0 0 18.5957,0.18555 c 0,0 22.91317,-22.14059 31.45703,-56.75586 8.54386,-34.61527 0.7839,-82.63958 -53.3164,-127.49414 C 242.12922,-10.066739 167.03333,-28.029005 95.146484,-28.675781 Z M 196.19141,688.44141 c -6.34798,42.17082 -15.58589,85.54606 -27.51954,126.96875 -20.98355,72.83573 -50.19924,139.58691 -83.818354,182.35351 -16.809557,21.38333 -34.599207,36.60333 -52.248047,44.33983 -17.64884,7.7365 -34.9679755,8.6769 -54.544922,0.9961 -17.892275,-7.0198 -27.113189,-16.6268 -31.941406,-28.9531 -4.828218,-12.3263 -4.947956,-28.52006 0.07813,-47.83986 10.052162,-38.63961 40.654245,-87.96775 81.68164,-135.30273 41.027396,-47.33498 92.319814,-93.02808 142.771484,-126.69532 8.56141,-5.71317 17.0757,-10.91446 25.54102,-15.86718 z"
     id="path3" /></svg>
