<?xml version="1.0" encoding="UTF-8" standalone="no"?>
<svg
   version="1.1"
   viewBox="-19 0 290.86231 1065.637"
   id="svg1"
   sodipodi:docname="iuml.svg"
   width="290.8623"
   height="1065.6371"
   inkscape:version="1.3 (0e150ed6c4, 2023-07-21)"
   xml:space="preserve"
   xmlns:inkscape="http://www.inkscape.org/namespaces/inkscape"
   xmlns:sodipodi="http://sodipodi.sourceforge.net/DTD/sodipodi-0.dtd"
   xmlns="http://www.w3.org/2000/svg"
   xmlns:svg="http://www.w3.org/2000/svg"><defs
     id="defs1"><pattern
       id="EMFhbasepattern"
       patternUnits="userSpaceOnUse"
       width="6"
       height="6"
       x="0"
       y="0" /><pattern
       id="EMFhbasepattern-2"
       patternUnits="userSpaceOnUse"
       width="6"
       height="6"
       x="0"
       y="0" /><pattern
       id="EMFhbasepattern-3"
       patternUnits="userSpaceOnUse"
       width="6"
       height="6"
       x="0"
       y="0" /><pattern
       id="EMFhbasepattern-9"
       patternUnits="userSpaceOnUse"
       width="6"
       height="6"
       x="0"
       y="0" /><pattern
       id="EMFhbasepattern-0"
       patternUnits="userSpaceOnUse"
       width="6"
       height="6"
       x="0"
       y="0" /><pattern
       id="EMFhbasepattern-8"
       patternUnits="userSpaceOnUse"
       width="6"
       height="6"
       x="0"
       y="0" /><pattern
       id="EMFhbasepattern-1"
       patternUnits="userSpaceOnUse"
       width="6"
       height="6"
       x="0"
       y="0" /><pattern
       id="EMFhbasepattern-7"
       patternUnits="userSpaceOnUse"
       width="6"
       height="6"
       x="0"
       y="0" /><pattern
       id="EMFhbasepattern-04"
       patternUnits="userSpaceOnUse"
       width="6"
       height="6"
       x="0"
       y="0" /><pattern
       id="EMFhbasepattern-2-6"
       patternUnits="userSpaceOnUse"
       width="6"
       height="6"
       x="0"
       y="0" /><pattern
       id="EMFhbasepattern-3-6"
       patternUnits="userSpaceOnUse"
       width="6"
       height="6"
       x="0"
       y="0" /><pattern
       id="EMFhbasepattern-9-8"
       patternUnits="userSpaceOnUse"
       width="6"
       height="6"
       x="0"
       y="0" /><pattern
       id="EMFhbasepattern-0-8"
       patternUnits="userSpaceOnUse"
       width="6"
       height="6"
       x="0"
       y="0" /><pattern
       id="EMFhbasepattern-8-7"
       patternUnits="userSpaceOnUse"
       width="6"
       height="6"
       x="0"
       y="0" /><pattern
       id="EMFhbasepattern-5"
       patternUnits="userSpaceOnUse"
       width="6"
       height="6"
       x="0"
       y="0" /><pattern
       id="EMFhbasepattern-2-8"
       patternUnits="userSpaceOnUse"
       width="6"
       height="6"
       x="0"
       y="0" /><pattern
       id="EMFhbasepattern-3-9"
       patternUnits="userSpaceOnUse"
       width="6"
       height="6"
       x="0"
       y="0" /><pattern
       id="EMFhbasepattern-9-3"
       patternUnits="userSpaceOnUse"
       width="6"
       height="6"
       x="0"
       y="0" /><pattern
       id="EMFhbasepattern-0-3"
       patternUnits="userSpaceOnUse"
       width="6"
       height="6"
       x="0"
       y="0" /><pattern
       id="EMFhbasepattern-8-0"
       patternUnits="userSpaceOnUse"
       width="6"
       height="6"
       x="0"
       y="0" /><pattern
       id="EMFhbasepattern-70"
       patternUnits="userSpaceOnUse"
       width="6"
       height="6"
       x="0"
       y="0" /><pattern
       id="EMFhbasepattern-2-4"
       patternUnits="userSpaceOnUse"
       width="6"
       height="6"
       x="0"
       y="0" /><pattern
       id="EMFhbasepattern-3-5"
       patternUnits="userSpaceOnUse"
       width="6"
       height="6"
       x="0"
       y="0" /><pattern
       id="EMFhbasepattern-9-39"
       patternUnits="userSpaceOnUse"
       width="6"
       height="6"
       x="0"
       y="0" /><pattern
       id="EMFhbasepattern-0-2"
       patternUnits="userSpaceOnUse"
       width="6"
       height="6"
       x="0"
       y="0" /><pattern
       id="EMFhbasepattern-8-1"
       patternUnits="userSpaceOnUse"
       width="6"
       height="6"
       x="0"
       y="0" /><pattern
       id="EMFhbasepattern-4"
       patternUnits="userSpaceOnUse"
       width="6"
       height="6"
       x="0"
       y="0" /><pattern
       id="EMFhbasepattern-2-5"
       patternUnits="userSpaceOnUse"
       width="6"
       height="6"
       x="0"
       y="0" /><pattern
       id="EMFhbasepattern-3-7"
       patternUnits="userSpaceOnUse"
       width="6"
       height="6"
       x="0"
       y="0" /><pattern
       id="EMFhbasepattern-9-9"
       patternUnits="userSpaceOnUse"
       width="6"
       height="6"
       x="0"
       y="0" /><pattern
       id="EMFhbasepattern-0-25"
       patternUnits="userSpaceOnUse"
       width="6"
       height="6"
       x="0"
       y="0" /><pattern
       id="EMFhbasepattern-8-4"
       patternUnits="userSpaceOnUse"
       width="6"
       height="6"
       x="0"
       y="0" /><pattern
       id="EMFhbasepattern-6"
       patternUnits="userSpaceOnUse"
       width="6"
       height="6"
       x="0"
       y="0" /><pattern
       id="EMFhbasepattern-45"
       patternUnits="userSpaceOnUse"
       width="6"
       height="6"
       x="0"
       y="0" /><pattern
       id="EMFhbasepattern-68"
       patternUnits="userSpaceOnUse"
       width="6"
       height="6"
       x="0"
       y="0" /><pattern
       id="EMFhbasepattern-62"
       patternUnits="userSpaceOnUse"
       width="6"
       height="6"
       x="0"
       y="0" /><pattern
       id="EMFhbasepattern-34"
       patternUnits="userSpaceOnUse"
       width="6"
       height="6"
       x="0"
       y="0" /><pattern
       id="EMFhbasepattern-2-1"
       patternUnits="userSpaceOnUse"
       width="6"
       height="6"
       x="0"
       y="0" /><pattern
       id="EMFhbasepattern-3-96"
       patternUnits="userSpaceOnUse"
       width="6"
       height="6"
       x="0"
       y="0" /><pattern
       id="EMFhbasepattern-9-92"
       patternUnits="userSpaceOnUse"
       width="6"
       height="6"
       x="0"
       y="0" /><pattern
       id="EMFhbasepattern-0-5"
       patternUnits="userSpaceOnUse"
       width="6"
       height="6"
       x="0"
       y="0" /><pattern
       id="EMFhbasepattern-8-3"
       patternUnits="userSpaceOnUse"
       width="6"
       height="6"
       x="0"
       y="0" /><pattern
       id="EMFhbasepattern-01"
       patternUnits="userSpaceOnUse"
       width="6"
       height="6"
       x="0"
       y="0" /><pattern
       id="EMFhbasepattern-17"
       patternUnits="userSpaceOnUse"
       width="6"
       height="6"
       x="0"
       y="0" /><pattern
       id="EMFhbasepattern-2-3"
       patternUnits="userSpaceOnUse"
       width="6"
       height="6"
       x="0"
       y="0" /><pattern
       id="EMFhbasepattern-3-62"
       patternUnits="userSpaceOnUse"
       width="6"
       height="6"
       x="0"
       y="0" /><pattern
       id="EMFhbasepattern-9-1"
       patternUnits="userSpaceOnUse"
       width="6"
       height="6"
       x="0"
       y="0" /><pattern
       id="EMFhbasepattern-0-9"
       patternUnits="userSpaceOnUse"
       width="6"
       height="6"
       x="0"
       y="0" /><pattern
       id="EMFhbasepattern-8-07"
       patternUnits="userSpaceOnUse"
       width="6"
       height="6"
       x="0"
       y="0" /><pattern
       id="EMFhbasepattern-01-9"
       patternUnits="userSpaceOnUse"
       width="6"
       height="6"
       x="0"
       y="0" /><pattern
       id="EMFhbasepattern-50"
       patternUnits="userSpaceOnUse"
       width="6"
       height="6"
       x="0"
       y="0" /><pattern
       id="EMFhbasepattern-2-19"
       patternUnits="userSpaceOnUse"
       width="6"
       height="6"
       x="0"
       y="0" /><pattern
       id="EMFhbasepattern-3-3"
       patternUnits="userSpaceOnUse"
       width="6"
       height="6"
       x="0"
       y="0" /><pattern
       id="EMFhbasepattern-9-2"
       patternUnits="userSpaceOnUse"
       width="6"
       height="6"
       x="0"
       y="0" /><pattern
       id="EMFhbasepattern-0-1"
       patternUnits="userSpaceOnUse"
       width="6"
       height="6"
       x="0"
       y="0" /><pattern
       id="EMFhbasepattern-8-9"
       patternUnits="userSpaceOnUse"
       width="6"
       height="6"
       x="0"
       y="0" /><pattern
       id="EMFhbasepattern-01-3"
       patternUnits="userSpaceOnUse"
       width="6"
       height="6"
       x="0"
       y="0" /></defs><sodipodi:namedview
     id="namedview1"
     pagecolor="#ffffff"
     bordercolor="#000000"
     borderopacity="0.25"
     inkscape:showpageshadow="2"
     inkscape:pageopacity="0.0"
     inkscape:pagecheckerboard="0"
     inkscape:deskcolor="#d1d1d1"
     showgrid="false"
     showguides="true"
     inkscape:zoom="0.38849998"
     inkscape:cx="-155.72716"
     inkscape:cy="101.67311"
     inkscape:window-width="1920"
     inkscape:window-height="991"
     inkscape:window-x="-9"
     inkscape:window-y="-9"
     inkscape:window-maximized="1"
     inkscape:current-layer="svg1"><sodipodi:guide
       position="622.79741,394.86223"
       orientation="0,-1"
       id="guide1"
       inkscape:locked="false" /><sodipodi:guide
       position="999.55699,1095.5987"
       orientation="0,-1"
       id="guide2"
       inkscape:locked="false" /><sodipodi:guide
       position="1430.9361,657.78663"
       orientation="0,-1"
       id="guide3"
       inkscape:locked="false" /><sodipodi:guide
       position="1455.7303,14.236708"
       orientation="0,-1"
       id="guide4"
       inkscape:locked="false" /><sodipodi:guide
       position="740.19414,428.92129"
       orientation="0,-1"
       id="guide5"
       inkscape:locked="false" /></sodipodi:namedview><path
     style="color:#000000;fill:#000000;stroke-linecap:round;stroke-linejoin:round;-inkscape-stroke:none"
     d="m 216.03906,-42.447266 c -6.63501,0.786003 -12.99419,3.918966 -17.38086,8.365235 -5.84889,5.928358 -9.16196,13.342287 -11.54101,21.603515 -4.75811,16.5224572 -5.61251,37.367619 -3.95313,60.634766 2.32514,32.602037 9.88671,69.51504 22.24414,102.33984 -33.84126,29.08181 -88.13524,51.83751 -172.369138,56.60547 -46.525729,2.63353 -73.802685,-4.57257 -97.033203,-14.25195 -23.230517,-9.67938 -43.020949,-22.90341 -71.634769,-30.79688 -31.05106,-8.56581 -67.90953,-1.22801 -97.23437,19.17188 -29.32484,20.39988 -50.82624,55.59298 -46.76563,100.25976 2.22304,24.45344 17.8642,41.83522 36.86133,50.5254 18.99713,8.69017 41.28753,10.81559 62.83594,10.57617 43.09682,-0.47886 84.171874,-11.34766 84.171874,-11.34766 a 13.15,13.15 0 0 0 9.398438,-16.04687 13.15,13.15 0 0 0 -16.048832,-9.39649 c 0,0 -39.00709,10.061 -77.81445,10.49219 -19.40368,0.2156 -38.52151,-2.20904 -51.60351,-8.19336 -13.08201,-5.98432 -20.19223,-13.40163 -21.60938,-28.99023 -3.21976,-35.41731 12.59091,-60.2871 35.59375,-76.28907 23.00284,-16.00197 53.48908,-21.40313 75.2207,-15.4082 24.16888,6.66728 42.60169,18.92404 68.513675,29.7207 25.911989,10.79667 58.695566,19.06112 108.634766,16.23438 83.525469,-4.72786 142.301449,-27.46376 181.458979,-58.14649 2.48377,5.01062 5.07381,9.88184 7.82618,14.4961 53.07756,88.98295 37.76963,200.95993 -2.6211,291.34375 -20.19536,45.19191 -46.59022,84.70982 -72.69922,112.36914 -26.10899,27.65931 -52.357271,42.20508 -67.503902,42.20508 -6.299226,0 -13.365294,-0.10251 -20.615234,-0.40235 -26.60644,-4.18201 -45.681487,-20.98776 -59.605469,-39.5625 -15.976798,-21.31321 -23.27018,-42.61609 -24.150391,-45.27929 -0.197167,-1.87556 -2.074043,-19.76495 -3.324218,-29.9375 -0.328734,-2.67488 -0.486661,-4.23723 -0.882813,-6.26172 -0.09904,-0.50613 0.861788,0.37824 -1.294922,-3.83985 -0.539177,-1.05452 -0.360684,-3.49543 -6.585937,-6.13867 -3.112627,-1.32162 -8.592917,-1.0972 -11.742188,0.72852 -3.14927,1.82572 -4.251031,3.80626 -4.93164,5.04297 -2.722437,4.9468 -1.553816,4.74497 -1.605469,5.37109 -0.206612,2.50446 -0.04214,2.43121 0.01758,3.57226 0.238889,4.56424 1.061627,14.86921 2.894531,35.85352 4.587063,52.51572 28.332537,81.99922 56.0546877,95.26563 18.0409913,8.63349 36.6826043,10.86287 52.7285153,11.50781 7.329699,1.07522 15.034586,1.46153 23.177735,0.88672 78.013336,-5.50683 169.848416,-17.71289 212.025386,-17.71289 a 13.15,13.15 0 0 0 13.15039,-13.15039 13.15,13.15 0 0 0 -13.15039,-13.14844 c -33.29458,0 -88.40539,6.19564 -144.88281,11.73828 6.47015,-5.6713 12.9249,-11.87728 19.35156,-18.68555 28.5883,-30.28583 56.24989,-71.94694 77.58594,-119.6914 42.6721,-95.48893 60.32621,-216.4157 1.19531,-315.54688 -3.53254,-5.9222 -6.78599,-12.60165 -9.90234,-19.56055 17.65905,-18.57149 29.57134,-38.9987 36.48047,-59.599605 10.86189,-32.386831 9.75574,-64.566033 0.67773,-90.15625 -9.07801,-25.590217 -26.76951,-46.076209 -50.94922,-49.333984 -2.21032,-0.297802 -4.45239,-0.297158 -6.66406,-0.03516 z m 2.17383,25.945313 c 0.13117,-0.05678 0.28731,0.06117 0.97852,0.154297 10.71439,1.443569 22.73127,12.4919673 29.67382,32.0625 6.94256,19.570532 8.16951,46.177626 -0.82617,73 -4.56317,13.605996 -11.72379,27.411636 -22.08984,40.580076 -8.82907,-27.10296 -14.69988,-57.029862 -16.55274,-83.009764 -1.52197,-21.34046 -0.26634,-40.1711116 2.99219,-51.4863279 1.62927,-5.6576081 3.80211,-9.2039101 4.99219,-10.4101561 0.59504,-0.603123 0.70086,-0.83385 0.83203,-0.890625 z M -27.435547,517.96875 c 0.06747,0.13092 0.08873,0.2579 0.05078,0.60547 -0.0037,-0.0656 -0.04747,-0.54431 -0.05078,-0.60547 z m -25.966797,1.26562 c -0.01543,-0.0788 0.09727,0.72486 0.109375,0.81836 -0.222669,-0.69544 -0.09629,-0.75147 -0.109375,-0.81836 z"
     id="path5" /><g
     id="g3"
     transform="translate(-396.39642,-48.906051)"><path
       style="color:#000000;fill:#000000;stroke-linecap:round;stroke-linejoin:round;-inkscape-stroke:none"
       d="m 527.75232,-84.920393 a 13.15,13.15 0 0 0 -14.2852,11.90625 c 0.4231,-4.65364 0.8981,-2.43312 -1.5781,-0.22851 -2.4763,2.20461 -6.5053,5.09707 -10.6758,7.85937 -4.1705,2.7623 -8.4673,5.42493 -12.0957,7.88086 -1.8142,1.22797 -3.4332,2.34996 -5.1406,3.82032 -0.8537,0.73517 -1.7384,1.5155 -2.8535,2.93359 -1.1152,1.41809 -3.2032,3.52432 -3.2032,8.95703 a 13.15,13.15 0 0 0 13.1504,13.14844 13.15,13.15 0 0 0 10.8672,-6.05274 c -0.036,0.0424 -0.1125,0.16685 -0.1426,0.20508 -0.6081,0.77333 -0.7499,0.81895 -0.6562,0.73828 0.1873,-0.16132 1.2786,-0.99465 2.7207,-1.9707 2.8841,-1.95211 7.2883,-4.69317 11.8769,-7.73242 4.5887,-3.03925 9.3769,-6.34657 13.6407,-10.14258 4.2637,-3.79601 9.4031,-7.37626 10.2812,-17.03516 a 13.15,13.15 0 0 0 -11.9062,-14.28711 z m -23.5313,43.12891 c 0,3.65854 -0.9006,5.19331 -1.6621,6.20117 a 13.15,13.15 0 0 0 1.6621,-6.20117 z"
       id="path17" /><path
       style="color:#000000;fill:#000000;stroke-linecap:round;stroke-linejoin:round;-inkscape-stroke:none"
       d="m 730.12534,-82.853983 a 13.15,13.15 0 0 0 -15.97852,9.51367 c 0.67978,-2.68086 -0.49305,0.67932 -2.96875,3.61328 -2.47569,2.93397 -5.98116,6.54725 -9.53906,9.93946 -3.5579,3.3922 -7.20099,6.60732 -9.99024,8.91797 -1.39462,1.15532 -2.58992,2.09306 -3.33203,2.63867 -0.74211,0.54561 -2.63225,0.95536 1.19336,-0.39649 a 13.15,13.15 0 0 0 -8.01758,16.78125 13.15,13.15 0 0 0 16.78125,8.01758 c 4.59905,-1.62515 4.24908,-2.20417 5.6211,-3.21289 1.37201,-1.00872 2.86371,-2.19119 4.5332,-3.57422 3.33897,-2.76605 7.33336,-6.2982 11.35938,-10.13672 4.02601,-3.83851 8.05195,-7.93893 11.49023,-12.01367 3.43828,-4.07474 6.56315,-7.01786 8.36133,-14.10937 a 13.15,13.15 0 0 0 -9.51367,-15.97852 z"
       id="path18" /></g></svg>
