<?xml version="1.0" encoding="UTF-8" standalone="no"?>
<svg
   version="1.1"
   viewBox="-19 0 290.86231 1065.637"
   id="svg1"
   sodipodi:docname="j.svg"
   width="290.8623"
   height="1065.6371"
   inkscape:version="1.3 (0e150ed6c4, 2023-07-21)"
   xml:space="preserve"
   xmlns:inkscape="http://www.inkscape.org/namespaces/inkscape"
   xmlns:sodipodi="http://sodipodi.sourceforge.net/DTD/sodipodi-0.dtd"
   xmlns="http://www.w3.org/2000/svg"
   xmlns:svg="http://www.w3.org/2000/svg"><defs
     id="defs1"><pattern
       id="EMFhbasepattern"
       patternUnits="userSpaceOnUse"
       width="6"
       height="6"
       x="0"
       y="0" /><pattern
       id="EMFhbasepattern-2"
       patternUnits="userSpaceOnUse"
       width="6"
       height="6"
       x="0"
       y="0" /><pattern
       id="EMFhbasepattern-3"
       patternUnits="userSpaceOnUse"
       width="6"
       height="6"
       x="0"
       y="0" /><pattern
       id="EMFhbasepattern-9"
       patternUnits="userSpaceOnUse"
       width="6"
       height="6"
       x="0"
       y="0" /><pattern
       id="EMFhbasepattern-0"
       patternUnits="userSpaceOnUse"
       width="6"
       height="6"
       x="0"
       y="0" /><pattern
       id="EMFhbasepattern-8"
       patternUnits="userSpaceOnUse"
       width="6"
       height="6"
       x="0"
       y="0" /><pattern
       id="EMFhbasepattern-1"
       patternUnits="userSpaceOnUse"
       width="6"
       height="6"
       x="0"
       y="0" /><pattern
       id="EMFhbasepattern-7"
       patternUnits="userSpaceOnUse"
       width="6"
       height="6"
       x="0"
       y="0" /><pattern
       id="EMFhbasepattern-04"
       patternUnits="userSpaceOnUse"
       width="6"
       height="6"
       x="0"
       y="0" /><pattern
       id="EMFhbasepattern-2-6"
       patternUnits="userSpaceOnUse"
       width="6"
       height="6"
       x="0"
       y="0" /><pattern
       id="EMFhbasepattern-3-6"
       patternUnits="userSpaceOnUse"
       width="6"
       height="6"
       x="0"
       y="0" /><pattern
       id="EMFhbasepattern-9-8"
       patternUnits="userSpaceOnUse"
       width="6"
       height="6"
       x="0"
       y="0" /><pattern
       id="EMFhbasepattern-0-8"
       patternUnits="userSpaceOnUse"
       width="6"
       height="6"
       x="0"
       y="0" /><pattern
       id="EMFhbasepattern-8-7"
       patternUnits="userSpaceOnUse"
       width="6"
       height="6"
       x="0"
       y="0" /><pattern
       id="EMFhbasepattern-5"
       patternUnits="userSpaceOnUse"
       width="6"
       height="6"
       x="0"
       y="0" /><pattern
       id="EMFhbasepattern-2-8"
       patternUnits="userSpaceOnUse"
       width="6"
       height="6"
       x="0"
       y="0" /><pattern
       id="EMFhbasepattern-3-9"
       patternUnits="userSpaceOnUse"
       width="6"
       height="6"
       x="0"
       y="0" /><pattern
       id="EMFhbasepattern-9-3"
       patternUnits="userSpaceOnUse"
       width="6"
       height="6"
       x="0"
       y="0" /><pattern
       id="EMFhbasepattern-0-3"
       patternUnits="userSpaceOnUse"
       width="6"
       height="6"
       x="0"
       y="0" /><pattern
       id="EMFhbasepattern-8-0"
       patternUnits="userSpaceOnUse"
       width="6"
       height="6"
       x="0"
       y="0" /><pattern
       id="EMFhbasepattern-70"
       patternUnits="userSpaceOnUse"
       width="6"
       height="6"
       x="0"
       y="0" /><pattern
       id="EMFhbasepattern-2-4"
       patternUnits="userSpaceOnUse"
       width="6"
       height="6"
       x="0"
       y="0" /><pattern
       id="EMFhbasepattern-3-5"
       patternUnits="userSpaceOnUse"
       width="6"
       height="6"
       x="0"
       y="0" /><pattern
       id="EMFhbasepattern-9-39"
       patternUnits="userSpaceOnUse"
       width="6"
       height="6"
       x="0"
       y="0" /><pattern
       id="EMFhbasepattern-0-2"
       patternUnits="userSpaceOnUse"
       width="6"
       height="6"
       x="0"
       y="0" /><pattern
       id="EMFhbasepattern-8-1"
       patternUnits="userSpaceOnUse"
       width="6"
       height="6"
       x="0"
       y="0" /><pattern
       id="EMFhbasepattern-4"
       patternUnits="userSpaceOnUse"
       width="6"
       height="6"
       x="0"
       y="0" /><pattern
       id="EMFhbasepattern-2-5"
       patternUnits="userSpaceOnUse"
       width="6"
       height="6"
       x="0"
       y="0" /><pattern
       id="EMFhbasepattern-3-7"
       patternUnits="userSpaceOnUse"
       width="6"
       height="6"
       x="0"
       y="0" /><pattern
       id="EMFhbasepattern-9-9"
       patternUnits="userSpaceOnUse"
       width="6"
       height="6"
       x="0"
       y="0" /><pattern
       id="EMFhbasepattern-0-25"
       patternUnits="userSpaceOnUse"
       width="6"
       height="6"
       x="0"
       y="0" /><pattern
       id="EMFhbasepattern-8-4"
       patternUnits="userSpaceOnUse"
       width="6"
       height="6"
       x="0"
       y="0" /><pattern
       id="EMFhbasepattern-6"
       patternUnits="userSpaceOnUse"
       width="6"
       height="6"
       x="0"
       y="0" /><pattern
       id="EMFhbasepattern-45"
       patternUnits="userSpaceOnUse"
       width="6"
       height="6"
       x="0"
       y="0" /><pattern
       id="EMFhbasepattern-68"
       patternUnits="userSpaceOnUse"
       width="6"
       height="6"
       x="0"
       y="0" /><pattern
       id="EMFhbasepattern-62"
       patternUnits="userSpaceOnUse"
       width="6"
       height="6"
       x="0"
       y="0" /></defs><sodipodi:namedview
     id="namedview1"
     pagecolor="#ffffff"
     bordercolor="#000000"
     borderopacity="0.25"
     inkscape:showpageshadow="2"
     inkscape:pageopacity="0.0"
     inkscape:pagecheckerboard="0"
     inkscape:deskcolor="#d1d1d1"
     showgrid="false"
     showguides="true"
     inkscape:zoom="0.38849998"
     inkscape:cx="320.46334"
     inkscape:cy="516.08754"
     inkscape:window-width="1920"
     inkscape:window-height="991"
     inkscape:window-x="-9"
     inkscape:window-y="-9"
     inkscape:window-maximized="1"
     inkscape:current-layer="svg1"><sodipodi:guide
       position="622.79741,394.86223"
       orientation="0,-1"
       id="guide1"
       inkscape:locked="false" /><sodipodi:guide
       position="999.55699,1095.5987"
       orientation="0,-1"
       id="guide2"
       inkscape:locked="false" /><sodipodi:guide
       position="1430.9361,657.78663"
       orientation="0,-1"
       id="guide3"
       inkscape:locked="false" /><sodipodi:guide
       position="1455.7303,14.236708"
       orientation="0,-1"
       id="guide4"
       inkscape:locked="false" /><sodipodi:guide
       position="740.19414,428.92129"
       orientation="0,-1"
       id="guide5"
       inkscape:locked="false" /></sodipodi:namedview><path
     style="color:#000000;fill:#000000;stroke-linecap:round;stroke-linejoin:round;-inkscape-stroke:none"
     d="m -113.10938,-38.580078 c -3.3569,-0.497339 -5.79055,0.32988 -7.28515,0.994141 -5.9784,2.657043 -4.85552,3.637438 -5.4043,4.36914 -1.09755,1.463404 -1.59384,2.37624 -2.73242,4.400391 -2.27717,4.0483 -6.39883,11.854303 -14.63281,28.32226537 C -156.75694,26.691618 -176.90625,24.998047 -176.90625,24.998047 a 13.15,13.15 0 0 0 -13.14844,13.15039 13.15,13.15 0 0 0 13.14844,13.150391 c 0,0 38.09683,-1.693653 57.26562,-40.03125 4.49164,-8.9832705 5.41793,-10.54963817 7.73633,-14.9902343 C 9.3147807,114.99457 126.75871,118.69203 203.76953,87.789062 c 5.25968,-2.110606 10.30426,-4.382854 15.18164,-6.761718 2.51385,10.713706 5.36672,21.781986 8.74219,33.636716 21.36031,75.01803 56.93514,172.78338 62.88086,279.10938 4.36337,78.02926 2.63294,159.23003 -7.63477,236.15429 C 153.33477,653.7322 55.749314,743.98333 0.22851563,832.3418 -32.254534,884.03689 -50.835522,934.94862 -52.730469,974.57031 c -0.947473,19.81085 2.117896,37.44629 12.419922,50.59179 10.302027,13.1455 28.115382,19.0699 47.404297,16.1172 132.2464,-20.2439 214.93167,-114.44472 260.76953,-236.36133 17.72169,-47.13501 30.18178,-98.56782 38.4082,-152.00195 14.73068,-1.87882 29.84436,-2.87633 45.36719,-2.78711 a 13.15,13.15 0 0 0 13.22461,-13.07422 13.15,13.15 0 0 0 -13.07422,-13.22657 c -14.24175,-0.0818 -28.14878,0.69345 -41.7539,2.15235 9.68248,-76.72029 11.10082,-156.7421 6.79882,-233.67383 -6.22042,-111.2385 -42.96234,-211.50076 -63.8457,-284.84375 -4.17622,-14.667002 -7.38886,-27.908566 -9.91797,-40.177734 19.94199,-13.19265 35.10076,-28.338205 44.52149,-43.117187 7.439,-11.670103 12.06893,-23.43224963 9.62304,-35.867188 -1.22294,-6.217469 -4.82539,-12.398233 -10.10742,-16.476562 -5.28203,-4.07833 -11.70953,-6.121583 -18.57812,-6.820313 a 13.151315,13.151315 0 0 0 -3.59571,0.128907 c -15.46938,2.703851 -28.26119,8.690967 -37.2832,18.267578 -9.02201,9.5766107 -13.62252,22.069963 -15.14258,35.412109 -1.23942,10.878876 -0.65322,22.63269 1.1211,35.224609 -6.1827,3.345915 -12.66625,6.539578 -19.6543,9.34375 -70.43073,28.262502 -179.433188,27.326048 -299.5,-98.03125 l 0.18555,0.462891 c -1.8475,-1.995565 -4.79361,-3.951682 -7.76954,-4.392578 z m -15.06249,13.025391 a 13.151315,13.151315 0 0 0 3.45507,8.603515 c -0.23516,-0.254126 -0.63986,-0.472935 -0.83008,-0.726562 -3.36236,-4.483181 -2.625,-7.876954 -2.62499,-7.876953 z m 23.41406,8.117187 c -0.17155,0.228728 0.0267,0.674405 -0.83594,1.488281 0.87873,-1.553272 1.41098,-2.255005 0.83594,-1.488281 z M 267.49023,-8.5 c 1.99019,0.3976161 3.24739,0.9123973 3.54297,1.140625 0.37878,0.2924619 0.2265,-0.030544 0.37696,0.734375 0.30091,1.529837 -0.62861,8.2358832 -5.9961,16.65625 -5.41878,8.50084 -14.61768,18.409306 -26.9082,27.958984 -0.42845,-6.052694 -0.40346,-11.476935 0.13476,-16.201172 1.07646,-9.448473 3.77181,-15.7016244 8.1543,-20.3535151 C 250.90067,-2.9225938 257.22108,-6.408089 267.49023,-8.5 Z m 11.32618,666.07227 c -7.97235,48.84216 -19.5785,95.55584 -35.57032,138.08984 -43.79931,116.49461 -118.18701,200.952 -240.1328087,219.61909 -12.901289,1.9749 -18.2955953,-0.6903 -22.7246093,-6.3417 -4.429015,-5.6515 -7.617267,-17.02143 -6.847656,-33.11333 1.539221,-32.18379 18.2776849,-80.67071 48.955078,-129.49219 C 73.664208,764.90258 162.28306,682.27379 278.81641,657.57227 Z"
     id="path6" /></svg>
