<?xml version="1.0" encoding="UTF-8" standalone="no"?>
<svg
   version="1.1"
   viewBox="-19 0 449.56339 1073.7326"
   id="svg1"
   sodipodi:docname="k.svg"
   width="449.56339"
   height="1073.7327"
   inkscape:version="1.3 (0e150ed6c4, 2023-07-21)"
   xmlns:inkscape="http://www.inkscape.org/namespaces/inkscape"
   xmlns:sodipodi="http://sodipodi.sourceforge.net/DTD/sodipodi-0.dtd"
   xmlns="http://www.w3.org/2000/svg"
   xmlns:svg="http://www.w3.org/2000/svg">
  <defs
     id="defs1">
    <pattern
       id="EMFhbasepattern"
       patternUnits="userSpaceOnUse"
       width="6"
       height="6"
       x="0"
       y="0" />
    <pattern
       id="EMFhbasepattern-2"
       patternUnits="userSpaceOnUse"
       width="6"
       height="6"
       x="0"
       y="0" />
    <pattern
       id="EMFhbasepattern-3"
       patternUnits="userSpaceOnUse"
       width="6"
       height="6"
       x="0"
       y="0" />
    <pattern
       id="EMFhbasepattern-9"
       patternUnits="userSpaceOnUse"
       width="6"
       height="6"
       x="0"
       y="0" />
    <pattern
       id="EMFhbasepattern-0"
       patternUnits="userSpaceOnUse"
       width="6"
       height="6"
       x="0"
       y="0" />
    <pattern
       id="EMFhbasepattern-8"
       patternUnits="userSpaceOnUse"
       width="6"
       height="6"
       x="0"
       y="0" />
    <pattern
       id="EMFhbasepattern-6"
       patternUnits="userSpaceOnUse"
       width="6"
       height="6"
       x="0"
       y="0" />
    <pattern
       id="EMFhbasepattern-02"
       patternUnits="userSpaceOnUse"
       width="6"
       height="6"
       x="0"
       y="0" />
  </defs>
  <sodipodi:namedview
     id="namedview1"
     pagecolor="#ffffff"
     bordercolor="#000000"
     borderopacity="0.25"
     inkscape:showpageshadow="2"
     inkscape:pageopacity="0.0"
     inkscape:pagecheckerboard="0"
     inkscape:deskcolor="#d1d1d1"
     showgrid="false"
     showguides="true"
     inkscape:zoom="0.77699996"
     inkscape:cx="-72.715576"
     inkscape:cy="430.50195"
     inkscape:window-width="1920"
     inkscape:window-height="991"
     inkscape:window-x="-9"
     inkscape:window-y="-9"
     inkscape:window-maximized="1"
     inkscape:current-layer="svg1">
    <sodipodi:guide
       position="331.71162,386.07809"
       orientation="0,-1"
       id="guide1"
       inkscape:locked="false" />
    <sodipodi:guide
       position="708.47122,1086.8146"
       orientation="0,-1"
       id="guide2"
       inkscape:locked="false" />
    <sodipodi:guide
       position="1139.8503,649.00249"
       orientation="0,-1"
       id="guide3"
       inkscape:locked="false" />
    <sodipodi:guide
       position="1164.6445,5.4525762"
       orientation="0,-1"
       id="guide4"
       inkscape:locked="false" />
    <sodipodi:guide
       position="449.10835,420.13715"
       orientation="0,-1"
       id="guide5"
       inkscape:locked="false" />
  </sodipodi:namedview>
  <path
     style="color:#000000;fill:#000000;stroke-linecap:round;stroke-linejoin:round;-inkscape-stroke:none"
     d="m 494.45898,-10.806641 c -3.65703,-0.06194 -6.27967,0.761719 -8.75976,1.6933597 -4.96018,1.8632816 -9.4851,4.6330282 -14.7793,8.2617188 -10.5884,7.2573812 -23.67533,18.1001565 -38.87695,31.6269535 -30.40324,27.053593 -68.88072,64.707443 -106.83203,103.011719 -46.84811,47.28382 -85.75765,88.11366 -114.10742,118.12305 6.7113,-31.55264 15.16231,-72.75063 22.46289,-113.21485 7.11516,-39.436554 12.95965,-76.961556 14.41796,-102.400388 0.72916,-12.719416 1.95354,-21.077831 -2.85937,-31.1640626 -1.20323,-2.521558 -3.19485,-5.66463946 -7.18164,-7.8789063 C 233.95657,-4.9623137 228.50464,-5.0096712 225,-3.8066406 217.99073,-1.4005795 215.48295,2.4739778 212.20898,6.8867187 204.58003,17.169225 198.52608,32.881937 190.60742,55.599609 182.68877,78.317281 173.81829,107.28706 164.36719,140.39648 145.46497,206.61534 124.2735,289.33798 104.39063,370.2832 64.624865,532.17365 30.113281,686.9375 30.113281,686.9375 a 13.151315,13.151315 0 0 0 24.863281,8.17383 C 134.33798,515.3255 150.59238,468.98129 181.54492,327.06836 c 14.94114,48.87836 19.33881,111.94569 22.3125,171.88086 3.47158,69.96999 3.97189,134.6607 24.9336,173.91797 5.91395,11.0757 18.18224,17.80995 28.91601,17.40625 10.73377,-0.4037 19.84505,-4.60691 29.61719,-9.03711 19.54429,-8.86042 41.20414,-19.88644 65.0957,-19.70703 a 13.15,13.15 0 0 0 13.25,-13.05078 13.15,13.15 0 0 0 -13.05273,-13.24805 c -31.86512,-0.23928 -57.80434,13.73465 -76.15235,22.05273 -9.174,4.15904 -16.58048,6.58993 -19.74609,6.70899 -3.16561,0.11906 -2.17698,1.26487 -4.72852,-3.51367 -14.6976,-27.52581 -18.37775,-92.58092 -21.86328,-162.83204 -3.1976,-64.44803 -7.24034,-133.95304 -27.07617,-189.62109 2.56024,-1.43656 4.87185,-2.61372 8.01758,-4.61133 10.37312,-6.58714 24.21193,-16.28715 40.47656,-28.33203 32.52927,-24.08976 74.58376,-57.46608 115.36133,-92.65234 40.77757,-35.18627 80.19946,-72.0604 107.70117,-103.687503 13.75086,-15.813551 24.54912,-30.18715 31.22656,-43.402343 3.33872,-6.607597 5.73826,-12.954819 6.47852,-19.720703 0.74026,-6.7658848 -0.63839,-14.606923 -5.47266,-20.5625004 -3.26244,-4.0191739 -8.72382,-5.8013406 -12.38086,-5.8632816 z m -12.08593,34.253907 c -0.006,0.01181 -0.008,0.01943 -0.0137,0.03125 -4.89056,9.678832 -14.61887,23.080201 -27.59765,38.005859 -25.95756,29.851316 -64.80505,66.317655 -105.03711,101.033205 -26.5885,22.94276 -53.57107,44.8894 -78.18945,64.14844 22.41137,-23.3483 46.66249,-48.43327 72.35937,-74.36915 37.75844,-38.10961 76.0564,-75.557139 105.63281,-101.874995 13.19719,-11.743196 24.2824,-20.782134 32.84571,-26.974609 z M 220.25977,51.203125 c -2.37962,22.424894 -7.00539,51.956415 -12.57422,82.822265 -5.34705,29.63656 -11.26678,59.03925 -16.78516,85.71094 a 13.15,13.15 0 0 0 -15.4707,10.14844 c -34.59298,164.1178 -45.6914,217.5542 -86.796878,319.71289 12.104098,-51.89361 25.932518,-110.48321 41.298828,-173.04102 19.84019,-80.77143 40.98732,-163.29348 59.72656,-228.94141 9.36962,-32.82396 18.14443,-61.444645 25.78321,-83.359371 1.63748,-4.697743 3.24441,-8.963027 4.81836,-13.052734 z"
     id="path1" />
</svg>
