<?xml version="1.0" encoding="UTF-8" standalone="no"?>
<svg
   version="1.1"
   viewBox="-19 0 290.86231 1065.637"
   id="svg1"
   sodipodi:docname="l.svg"
   width="290.8623"
   height="1065.6371"
   inkscape:version="1.3 (0e150ed6c4, 2023-07-21)"
   xml:space="preserve"
   xmlns:inkscape="http://www.inkscape.org/namespaces/inkscape"
   xmlns:sodipodi="http://sodipodi.sourceforge.net/DTD/sodipodi-0.dtd"
   xmlns="http://www.w3.org/2000/svg"
   xmlns:svg="http://www.w3.org/2000/svg"><defs
     id="defs1"><pattern
       id="EMFhbasepattern"
       patternUnits="userSpaceOnUse"
       width="6"
       height="6"
       x="0"
       y="0" /><pattern
       id="EMFhbasepattern-2"
       patternUnits="userSpaceOnUse"
       width="6"
       height="6"
       x="0"
       y="0" /><pattern
       id="EMFhbasepattern-3"
       patternUnits="userSpaceOnUse"
       width="6"
       height="6"
       x="0"
       y="0" /><pattern
       id="EMFhbasepattern-9"
       patternUnits="userSpaceOnUse"
       width="6"
       height="6"
       x="0"
       y="0" /><pattern
       id="EMFhbasepattern-0"
       patternUnits="userSpaceOnUse"
       width="6"
       height="6"
       x="0"
       y="0" /><pattern
       id="EMFhbasepattern-8"
       patternUnits="userSpaceOnUse"
       width="6"
       height="6"
       x="0"
       y="0" /><pattern
       id="EMFhbasepattern-1"
       patternUnits="userSpaceOnUse"
       width="6"
       height="6"
       x="0"
       y="0" /><pattern
       id="EMFhbasepattern-7"
       patternUnits="userSpaceOnUse"
       width="6"
       height="6"
       x="0"
       y="0" /><pattern
       id="EMFhbasepattern-04"
       patternUnits="userSpaceOnUse"
       width="6"
       height="6"
       x="0"
       y="0" /><pattern
       id="EMFhbasepattern-2-6"
       patternUnits="userSpaceOnUse"
       width="6"
       height="6"
       x="0"
       y="0" /><pattern
       id="EMFhbasepattern-3-6"
       patternUnits="userSpaceOnUse"
       width="6"
       height="6"
       x="0"
       y="0" /><pattern
       id="EMFhbasepattern-9-8"
       patternUnits="userSpaceOnUse"
       width="6"
       height="6"
       x="0"
       y="0" /><pattern
       id="EMFhbasepattern-0-8"
       patternUnits="userSpaceOnUse"
       width="6"
       height="6"
       x="0"
       y="0" /><pattern
       id="EMFhbasepattern-8-7"
       patternUnits="userSpaceOnUse"
       width="6"
       height="6"
       x="0"
       y="0" /><pattern
       id="EMFhbasepattern-5"
       patternUnits="userSpaceOnUse"
       width="6"
       height="6"
       x="0"
       y="0" /><pattern
       id="EMFhbasepattern-2-8"
       patternUnits="userSpaceOnUse"
       width="6"
       height="6"
       x="0"
       y="0" /><pattern
       id="EMFhbasepattern-3-9"
       patternUnits="userSpaceOnUse"
       width="6"
       height="6"
       x="0"
       y="0" /><pattern
       id="EMFhbasepattern-9-3"
       patternUnits="userSpaceOnUse"
       width="6"
       height="6"
       x="0"
       y="0" /><pattern
       id="EMFhbasepattern-0-3"
       patternUnits="userSpaceOnUse"
       width="6"
       height="6"
       x="0"
       y="0" /><pattern
       id="EMFhbasepattern-8-0"
       patternUnits="userSpaceOnUse"
       width="6"
       height="6"
       x="0"
       y="0" /><pattern
       id="EMFhbasepattern-70"
       patternUnits="userSpaceOnUse"
       width="6"
       height="6"
       x="0"
       y="0" /><pattern
       id="EMFhbasepattern-2-4"
       patternUnits="userSpaceOnUse"
       width="6"
       height="6"
       x="0"
       y="0" /><pattern
       id="EMFhbasepattern-3-5"
       patternUnits="userSpaceOnUse"
       width="6"
       height="6"
       x="0"
       y="0" /><pattern
       id="EMFhbasepattern-9-39"
       patternUnits="userSpaceOnUse"
       width="6"
       height="6"
       x="0"
       y="0" /><pattern
       id="EMFhbasepattern-0-2"
       patternUnits="userSpaceOnUse"
       width="6"
       height="6"
       x="0"
       y="0" /><pattern
       id="EMFhbasepattern-8-1"
       patternUnits="userSpaceOnUse"
       width="6"
       height="6"
       x="0"
       y="0" /><pattern
       id="EMFhbasepattern-4"
       patternUnits="userSpaceOnUse"
       width="6"
       height="6"
       x="0"
       y="0" /><pattern
       id="EMFhbasepattern-2-5"
       patternUnits="userSpaceOnUse"
       width="6"
       height="6"
       x="0"
       y="0" /><pattern
       id="EMFhbasepattern-3-7"
       patternUnits="userSpaceOnUse"
       width="6"
       height="6"
       x="0"
       y="0" /><pattern
       id="EMFhbasepattern-9-9"
       patternUnits="userSpaceOnUse"
       width="6"
       height="6"
       x="0"
       y="0" /><pattern
       id="EMFhbasepattern-0-25"
       patternUnits="userSpaceOnUse"
       width="6"
       height="6"
       x="0"
       y="0" /><pattern
       id="EMFhbasepattern-8-4"
       patternUnits="userSpaceOnUse"
       width="6"
       height="6"
       x="0"
       y="0" /><pattern
       id="EMFhbasepattern-6"
       patternUnits="userSpaceOnUse"
       width="6"
       height="6"
       x="0"
       y="0" /><pattern
       id="EMFhbasepattern-45"
       patternUnits="userSpaceOnUse"
       width="6"
       height="6"
       x="0"
       y="0" /><pattern
       id="EMFhbasepattern-68"
       patternUnits="userSpaceOnUse"
       width="6"
       height="6"
       x="0"
       y="0" /><pattern
       id="EMFhbasepattern-62"
       patternUnits="userSpaceOnUse"
       width="6"
       height="6"
       x="0"
       y="0" /><pattern
       id="EMFhbasepattern-34"
       patternUnits="userSpaceOnUse"
       width="6"
       height="6"
       x="0"
       y="0" /><pattern
       id="EMFhbasepattern-2-1"
       patternUnits="userSpaceOnUse"
       width="6"
       height="6"
       x="0"
       y="0" /><pattern
       id="EMFhbasepattern-3-96"
       patternUnits="userSpaceOnUse"
       width="6"
       height="6"
       x="0"
       y="0" /><pattern
       id="EMFhbasepattern-9-92"
       patternUnits="userSpaceOnUse"
       width="6"
       height="6"
       x="0"
       y="0" /><pattern
       id="EMFhbasepattern-0-5"
       patternUnits="userSpaceOnUse"
       width="6"
       height="6"
       x="0"
       y="0" /><pattern
       id="EMFhbasepattern-8-3"
       patternUnits="userSpaceOnUse"
       width="6"
       height="6"
       x="0"
       y="0" /><pattern
       id="EMFhbasepattern-01"
       patternUnits="userSpaceOnUse"
       width="6"
       height="6"
       x="0"
       y="0" /><pattern
       id="EMFhbasepattern-17"
       patternUnits="userSpaceOnUse"
       width="6"
       height="6"
       x="0"
       y="0" /><pattern
       id="EMFhbasepattern-2-3"
       patternUnits="userSpaceOnUse"
       width="6"
       height="6"
       x="0"
       y="0" /><pattern
       id="EMFhbasepattern-3-62"
       patternUnits="userSpaceOnUse"
       width="6"
       height="6"
       x="0"
       y="0" /><pattern
       id="EMFhbasepattern-9-1"
       patternUnits="userSpaceOnUse"
       width="6"
       height="6"
       x="0"
       y="0" /><pattern
       id="EMFhbasepattern-0-9"
       patternUnits="userSpaceOnUse"
       width="6"
       height="6"
       x="0"
       y="0" /><pattern
       id="EMFhbasepattern-8-07"
       patternUnits="userSpaceOnUse"
       width="6"
       height="6"
       x="0"
       y="0" /><pattern
       id="EMFhbasepattern-01-9"
       patternUnits="userSpaceOnUse"
       width="6"
       height="6"
       x="0"
       y="0" /><pattern
       id="EMFhbasepattern-50"
       patternUnits="userSpaceOnUse"
       width="6"
       height="6"
       x="0"
       y="0" /><pattern
       id="EMFhbasepattern-2-19"
       patternUnits="userSpaceOnUse"
       width="6"
       height="6"
       x="0"
       y="0" /><pattern
       id="EMFhbasepattern-3-3"
       patternUnits="userSpaceOnUse"
       width="6"
       height="6"
       x="0"
       y="0" /><pattern
       id="EMFhbasepattern-9-2"
       patternUnits="userSpaceOnUse"
       width="6"
       height="6"
       x="0"
       y="0" /><pattern
       id="EMFhbasepattern-0-1"
       patternUnits="userSpaceOnUse"
       width="6"
       height="6"
       x="0"
       y="0" /><pattern
       id="EMFhbasepattern-8-9"
       patternUnits="userSpaceOnUse"
       width="6"
       height="6"
       x="0"
       y="0" /><pattern
       id="EMFhbasepattern-01-3"
       patternUnits="userSpaceOnUse"
       width="6"
       height="6"
       x="0"
       y="0" /></defs><sodipodi:namedview
     id="namedview1"
     pagecolor="#ffffff"
     bordercolor="#000000"
     borderopacity="0.25"
     inkscape:showpageshadow="2"
     inkscape:pageopacity="0.0"
     inkscape:pagecheckerboard="0"
     inkscape:deskcolor="#d1d1d1"
     showgrid="false"
     showguides="true"
     inkscape:zoom="0.77699996"
     inkscape:cx="489.70402"
     inkscape:cy="534.74906"
     inkscape:window-width="1920"
     inkscape:window-height="991"
     inkscape:window-x="-9"
     inkscape:window-y="-9"
     inkscape:window-maximized="1"
     inkscape:current-layer="svg1"><sodipodi:guide
       position="622.79741,394.86223"
       orientation="0,-1"
       id="guide1"
       inkscape:locked="false" /><sodipodi:guide
       position="999.55699,1095.5987"
       orientation="0,-1"
       id="guide2"
       inkscape:locked="false" /><sodipodi:guide
       position="1430.9361,657.78663"
       orientation="0,-1"
       id="guide3"
       inkscape:locked="false" /><sodipodi:guide
       position="1455.7303,14.236708"
       orientation="0,-1"
       id="guide4"
       inkscape:locked="false" /><sodipodi:guide
       position="740.19414,428.92129"
       orientation="0,-1"
       id="guide5"
       inkscape:locked="false" /></sodipodi:namedview><path
     style="color:#000000;fill:#000000;stroke-linecap:round;stroke-linejoin:round;-inkscape-stroke:none"
     d="m 323.3125,-22.789062 c -4.01852,0.437059 -5.8361,2.292579 -7.92773,3.611328 -2.78885,1.758331 -5.42015,3.857941 -8.41016,6.453125 C 300.99458,-7.5342427 293.76592,-0.3663707 285.125,8.7324219 267.84315,26.930007 245.10042,52.75669 218.64062,83.820312 165.72103,145.94756 98.04061,228.93005 31.263672,312.02148 c -18.081996,22.49967 -35.1717919,44.0268 -52.806641,66.12696 -50.835103,25.95647 -78.213665,28.74107 -90.083981,26.36328 -6.83022,-1.36819 -8.95377,-3.71468 -10.17383,-5.3086 -1.22006,-1.59391 -1.02149,-1.47851 -1.02149,-1.47851 a 13.15,13.15 0 0 0 -15.13281,-10.80859 13.15,13.15 0 0 0 -10.80859,15.13281 c 0,0 1.33556,6.94227 6.08008,13.14062 4.74451,6.19836 13.41269,12.60987 25.89062,15.10938 14.32822,2.87014 33.408965,1.24787 59.968751,-7.96875 C -153.9532,544.52871 -232.19336,644.79492 -232.19336,644.79492 a 13.15,13.15 0 0 0 2.2832,18.45508 13.15,13.15 0 0 0 18.45704,-2.2832 c 0,0 95.98118,-122.88464 206.9941356,-262.06446 C 2.140499,395.41456 8.8677748,391.79487 16.121094,387.62891 153.49931,308.72522 270.03977,216.47098 314.28516,134.9668 335.46653,95.948697 349.15607,61.545193 353.95898,34.529297 356.36044,21.021349 356.80652,9.255092 353.30273,-1.3574219 349.79895,-11.969936 339.79712,-21.214304 328.15625,-22.681641 c -1.92022,-0.242044 -3.50424,-0.253108 -4.84375,-0.107421 z m 6.58203,25.7851558 c 0.11095,0.096531 -0.2365,0.30756 -0.97266,0.4570312 0.10033,-0.067284 0.40817,-0.3310663 0.49024,-0.3828125 0.21769,-0.1372503 0.40855,-0.1384915 0.48242,-0.074219 z m -2.43555,1.6035156 c 0.23246,0.4550491 0.40084,0.8706198 0.86914,2.2890625 1.22842,3.7207171 1.70318,11.9738041 -0.26367,23.0371091 -3.93369,22.126611 -16.57559,55.068342 -36.89258,92.494139 -35.08653,64.63272 -132.14088,147.27491 -250.488276,219.95313 3.785448,-4.71806 7.287902,-9.15587 11.082031,-13.87696 C 118.46269,245.50404 186.06143,162.62784 238.66211,100.875 c 26.30034,-30.876419 48.87969,-56.49529 65.5332,-74.03125 8.32676,-8.76798 15.21761,-15.539205 20.01953,-19.7070313 1.49843,-1.3005583 2.25695,-1.7997827 3.24414,-2.5371093 z"
     id="path2" /><path
     style="color:#000000;fill:#000000;stroke-linecap:round;stroke-linejoin:round;-inkscape-stroke:none"
     d="m 345.83789,310.75586 c -4.72467,0.17906 -9.53988,0.79733 -14.42383,1.89453 -21.56204,4.84402 -37.97045,16.73052 -44.08594,33.67188 -6.11548,16.94136 -0.79842,36.27696 12.60157,52.47851 20.49365,24.77832 59.65905,45.54891 119.33008,54.80859 -0.43483,9.02784 -1.47065,18.20872 -3.38868,27.44336 -17.03203,82.0033 -92.21312,168.2285 -279.86328,164.61524 C 88.671085,644.75648 57.40041,629.55691 35.179687,607.44531 12.958965,585.33371 -0.17377569,555.49201 -7.4726562,524.96484 -22.070417,463.91051 -12.892578,402.11133 -12.892578,402.11133 a 13.15,13.15 0 0 0 -11.017578,-14.98242 13.15,13.15 0 0 0 -14.982422,11.01562 c 0,0 -10.256944,65.61357 5.839844,132.9375 8.048393,33.66197 22.795416,68.25167 49.68164,95.00586 26.886224,26.75419 65.950513,44.85599 118.871094,45.875 196.08821,3.77574 286.60512,-91.59049 306.12305,-185.5625 2.06497,-9.94213 3.21056,-19.81736 3.80273,-29.57812 10.99834,0.98855 22.56463,1.63449 34.75,1.875 a 13.15,13.15 0 0 0 13.40625,-12.88868 13.15,13.15 0 0 0 -12.88867,-13.40625 c -12.5667,-0.24802 -24.30741,-1.00915 -35.39453,-2.125 -1.93531,-26.34464 -9.0401,-50.80155 -20.63086,-70.84765 -17.09923,-29.57294 -45.75741,-49.92727 -78.83008,-48.67383 z m 1.33398,26.1543 c 22.69744,-1.18798 41.0387,12.00913 54.72852,35.68554 8.51082,14.71939 14.28381,33.452 16.5293,54.01563 -52.36716,-9.24732 -84.41336,-27.86402 -98.23242,-44.57227 -9.31925,-11.26764 -10.50424,-20.21771 -8.13282,-26.78711 2.37142,-6.5694 9.4381,-13.41794 25.11328,-16.93945 3.41941,-0.76818 6.75165,-1.23263 9.99414,-1.40234 z"
     id="path3" /><path
     style="color:#000000;fill:#000000;stroke-linecap:round;stroke-linejoin:round;-inkscape-stroke:none"
     d="m 442.39844,623.59766 c -56.10105,1.33573 -240.59375,18.39062 -240.59375,18.39062 a 13.15,13.15 0 0 0 -11.89258,14.29883 13.15,13.15 0 0 0 14.29883,11.89062 c 0,0 186.80749,-17.04885 238.81445,-18.28711 a 13.15,13.15 0 0 0 12.83203,-13.45898 13.15,13.15 0 0 0 -13.45898,-12.83398 z"
     id="path4" /></svg>
