<?xml version="1.0" encoding="UTF-8" standalone="no"?>
<svg
   version="1.1"
   viewBox="-19 0 290.86231 1065.637"
   id="svg1"
   sodipodi:docname="q.svg"
   width="290.8623"
   height="1065.6371"
   inkscape:version="1.3 (0e150ed6c4, 2023-07-21)"
   xml:space="preserve"
   xmlns:inkscape="http://www.inkscape.org/namespaces/inkscape"
   xmlns:sodipodi="http://sodipodi.sourceforge.net/DTD/sodipodi-0.dtd"
   xmlns="http://www.w3.org/2000/svg"
   xmlns:svg="http://www.w3.org/2000/svg"><defs
     id="defs1"><pattern
       id="EMFhbasepattern"
       patternUnits="userSpaceOnUse"
       width="6"
       height="6"
       x="0"
       y="0" /><pattern
       id="EMFhbasepattern-2"
       patternUnits="userSpaceOnUse"
       width="6"
       height="6"
       x="0"
       y="0" /><pattern
       id="EMFhbasepattern-3"
       patternUnits="userSpaceOnUse"
       width="6"
       height="6"
       x="0"
       y="0" /><pattern
       id="EMFhbasepattern-9"
       patternUnits="userSpaceOnUse"
       width="6"
       height="6"
       x="0"
       y="0" /><pattern
       id="EMFhbasepattern-0"
       patternUnits="userSpaceOnUse"
       width="6"
       height="6"
       x="0"
       y="0" /><pattern
       id="EMFhbasepattern-8"
       patternUnits="userSpaceOnUse"
       width="6"
       height="6"
       x="0"
       y="0" /><pattern
       id="EMFhbasepattern-1"
       patternUnits="userSpaceOnUse"
       width="6"
       height="6"
       x="0"
       y="0" /><pattern
       id="EMFhbasepattern-7"
       patternUnits="userSpaceOnUse"
       width="6"
       height="6"
       x="0"
       y="0" /><pattern
       id="EMFhbasepattern-04"
       patternUnits="userSpaceOnUse"
       width="6"
       height="6"
       x="0"
       y="0" /><pattern
       id="EMFhbasepattern-2-6"
       patternUnits="userSpaceOnUse"
       width="6"
       height="6"
       x="0"
       y="0" /><pattern
       id="EMFhbasepattern-3-6"
       patternUnits="userSpaceOnUse"
       width="6"
       height="6"
       x="0"
       y="0" /><pattern
       id="EMFhbasepattern-9-8"
       patternUnits="userSpaceOnUse"
       width="6"
       height="6"
       x="0"
       y="0" /><pattern
       id="EMFhbasepattern-0-8"
       patternUnits="userSpaceOnUse"
       width="6"
       height="6"
       x="0"
       y="0" /><pattern
       id="EMFhbasepattern-8-7"
       patternUnits="userSpaceOnUse"
       width="6"
       height="6"
       x="0"
       y="0" /><pattern
       id="EMFhbasepattern-5"
       patternUnits="userSpaceOnUse"
       width="6"
       height="6"
       x="0"
       y="0" /><pattern
       id="EMFhbasepattern-2-8"
       patternUnits="userSpaceOnUse"
       width="6"
       height="6"
       x="0"
       y="0" /><pattern
       id="EMFhbasepattern-3-9"
       patternUnits="userSpaceOnUse"
       width="6"
       height="6"
       x="0"
       y="0" /><pattern
       id="EMFhbasepattern-9-3"
       patternUnits="userSpaceOnUse"
       width="6"
       height="6"
       x="0"
       y="0" /><pattern
       id="EMFhbasepattern-0-3"
       patternUnits="userSpaceOnUse"
       width="6"
       height="6"
       x="0"
       y="0" /><pattern
       id="EMFhbasepattern-8-0"
       patternUnits="userSpaceOnUse"
       width="6"
       height="6"
       x="0"
       y="0" /><pattern
       id="EMFhbasepattern-70"
       patternUnits="userSpaceOnUse"
       width="6"
       height="6"
       x="0"
       y="0" /><pattern
       id="EMFhbasepattern-2-4"
       patternUnits="userSpaceOnUse"
       width="6"
       height="6"
       x="0"
       y="0" /><pattern
       id="EMFhbasepattern-3-5"
       patternUnits="userSpaceOnUse"
       width="6"
       height="6"
       x="0"
       y="0" /><pattern
       id="EMFhbasepattern-9-39"
       patternUnits="userSpaceOnUse"
       width="6"
       height="6"
       x="0"
       y="0" /><pattern
       id="EMFhbasepattern-0-2"
       patternUnits="userSpaceOnUse"
       width="6"
       height="6"
       x="0"
       y="0" /><pattern
       id="EMFhbasepattern-8-1"
       patternUnits="userSpaceOnUse"
       width="6"
       height="6"
       x="0"
       y="0" /><pattern
       id="EMFhbasepattern-4"
       patternUnits="userSpaceOnUse"
       width="6"
       height="6"
       x="0"
       y="0" /><pattern
       id="EMFhbasepattern-2-5"
       patternUnits="userSpaceOnUse"
       width="6"
       height="6"
       x="0"
       y="0" /><pattern
       id="EMFhbasepattern-3-7"
       patternUnits="userSpaceOnUse"
       width="6"
       height="6"
       x="0"
       y="0" /><pattern
       id="EMFhbasepattern-9-9"
       patternUnits="userSpaceOnUse"
       width="6"
       height="6"
       x="0"
       y="0" /><pattern
       id="EMFhbasepattern-0-25"
       patternUnits="userSpaceOnUse"
       width="6"
       height="6"
       x="0"
       y="0" /><pattern
       id="EMFhbasepattern-8-4"
       patternUnits="userSpaceOnUse"
       width="6"
       height="6"
       x="0"
       y="0" /><pattern
       id="EMFhbasepattern-6"
       patternUnits="userSpaceOnUse"
       width="6"
       height="6"
       x="0"
       y="0" /><pattern
       id="EMFhbasepattern-45"
       patternUnits="userSpaceOnUse"
       width="6"
       height="6"
       x="0"
       y="0" /><pattern
       id="EMFhbasepattern-68"
       patternUnits="userSpaceOnUse"
       width="6"
       height="6"
       x="0"
       y="0" /><pattern
       id="EMFhbasepattern-62"
       patternUnits="userSpaceOnUse"
       width="6"
       height="6"
       x="0"
       y="0" /><pattern
       id="EMFhbasepattern-42"
       patternUnits="userSpaceOnUse"
       width="6"
       height="6"
       x="0"
       y="0" /></defs><sodipodi:namedview
     id="namedview1"
     pagecolor="#ffffff"
     bordercolor="#000000"
     borderopacity="0.25"
     inkscape:showpageshadow="2"
     inkscape:pageopacity="0.0"
     inkscape:pagecheckerboard="0"
     inkscape:deskcolor="#d1d1d1"
     showgrid="false"
     showguides="true"
     inkscape:zoom="0.54942194"
     inkscape:cx="639.76331"
     inkscape:cy="634.30303"
     inkscape:window-width="1920"
     inkscape:window-height="991"
     inkscape:window-x="-9"
     inkscape:window-y="-9"
     inkscape:window-maximized="1"
     inkscape:current-layer="svg1"><sodipodi:guide
       position="622.79741,394.86223"
       orientation="0,-1"
       id="guide1"
       inkscape:locked="false" /><sodipodi:guide
       position="999.55699,1095.5987"
       orientation="0,-1"
       id="guide2"
       inkscape:locked="false" /><sodipodi:guide
       position="1430.9361,657.78663"
       orientation="0,-1"
       id="guide3"
       inkscape:locked="false" /><sodipodi:guide
       position="1455.7303,14.236708"
       orientation="0,-1"
       id="guide4"
       inkscape:locked="false" /><sodipodi:guide
       position="740.19414,428.92129"
       orientation="0,-1"
       id="guide5"
       inkscape:locked="false" /></sodipodi:namedview><path
     id="path7"
     style="color:#000000;fill:#000000;stroke-linecap:round;stroke-linejoin:round;-inkscape-stroke:none"
     d="M 491.94531 -26.876953 C 487.46296 -26.59721 482.95763 -25.423192 477.17773 -24.111328 C 466.90238 -21.779126 454.18589 -17.784222 439.50195 -11.849609 C 410.1341 0.019614876 372.99015 19.664284 334.13086 49.328125 C 257.00203 108.20561 173.28776 206.90254 133.03906 360.92969 A 13.15 13.15 0 0 0 133.03125 360.94141 C 133.01283 361.00907 132.99887 361.07104 132.98047 361.13867 C 132.69152 362.2459 132.35279 363.28938 132.06836 364.40234 A 13.15 13.15 0 0 0 132.07031 364.625 C 114.28551 430.76697 106.4371 481.7425 107.58398 520.10547 C 108.75261 559.19552 119.69658 587.31608 142.37695 600.62891 C 165.05734 613.94173 194.08348 609.88306 225.9707 596.01758 C 256.70517 582.65334 291.63148 559.32389 330.0293 528.04688 C 330.63987 528.91161 331.15737 529.51638 331.83789 530.7207 C 334.60112 535.61084 337.93788 542.85986 341.85742 551.19922 C 290.81764 591.00638 229.45109 622.61481 156.22461 640.64453 C 122.88421 648.85355 95.039495 644.18485 72.779297 628.69922 C 50.519099 613.21358 33.209659 586.01383 24.488281 546.36523 C 7.0455273 467.06804 25.644147 339.32015 105.66797 175.02734 A 13.15 13.15 0 0 0 99.603516 157.44727 A 13.15 13.15 0 0 0 82.023438 163.50977 C 0.37471829 331.13856 -20.711255 463.30232 -1.1972656 552.01562 C 8.5597286 596.37228 28.889376 630.20495 57.759766 650.28906 C 86.630154 670.37318 123.40801 675.81213 162.51367 666.18359 C 237.51598 647.71664 300.81745 615.57487 353.73633 575.12109 C 372.11421 609.31407 402.93552 649.68269 458.63086 654.1582 A 13.15 13.15 0 0 0 472.79297 642.10352 A 13.15 13.15 0 0 0 460.73828 627.94336 C 415.69338 624.32368 392.58904 592.53135 375.82031 560.67969 C 375.3854 559.85358 375.0188 559.05681 374.5957 558.23438 C 451.899 492.53569 504.9607 408.81344 538.43359 326.5957 C 567.49149 255.22228 582.07585 184.89203 585.43164 127.39844 C 587.10954 98.651637 586.00043 73.124475 582.27539 51.972656 C 578.55035 30.820838 572.64384 13.871098 561.89648 2.0996094 C 550.60302 -10.270042 535.49357 -16.611215 523.26758 -20.595703 C 511.04159 -24.580191 500.98047 -25.984375 500.98047 -25.984375 L 502.94922 -25.552734 C 500.63746 -26.249341 498.51365 -26.652425 496.4668 -26.830078 C 494.93165 -26.963318 493.43943 -26.970201 491.94531 -26.876953 z M 495.36133 -0.37109375 A 13.151315 13.151315 0 0 0 497.33203 0.060546875 C 497.33203 0.060546875 505.14892 1.1608303 515.11914 4.4101562 C 525.08936 7.6594823 536.49453 13.282093 542.47461 19.832031 C 547.34279 25.164113 553.12692 38.100773 556.37305 56.533203 C 559.61916 74.965634 560.76026 98.720869 559.17578 125.86719 C 556.00683 180.15981 542.01006 248.06231 514.07422 316.67969 C 482.59602 393.99796 433.72956 472.06813 362.8457 533.92969 C 360.10272 528.10287 357.44586 522.57832 354.73633 517.7832 C 351.44563 511.9596 348.43525 506.68143 341.92188 502.51172 C 338.6652 500.42686 334.00228 498.87055 329.29492 499.30859 C 324.58758 499.74664 320.56203 501.91677 317.54102 504.4082 C 278.57321 536.54497 243.65378 559.64872 215.48242 571.89844 C 187.31106 584.14816 167.44195 584.84569 155.68945 577.94727 C 143.93695 571.04883 134.90953 553.99048 133.87305 519.32031 C 132.83656 484.65016 140.28993 434.39533 158.40625 367.84961 A 13.15 13.15 0 0 0 158.4082 367.83398 C 197.07056 219.6075 276.84889 126.14399 350.08984 70.234375 C 386.96876 42.082292 422.20654 23.506424 449.35742 12.533203 C 462.93287 7.046593 474.51025 3.4635879 482.99805 1.5371094 C 491.48584 -0.38936929 498.46902 0.56535192 495.36133 -0.37109375 z " /></svg>
