<?xml version="1.0" encoding="UTF-8" standalone="no"?>
<svg
   version="1.1"
   viewBox="-19 0 290.86231 1065.637"
   id="svg1"
   sodipodi:docname="r.svg"
   width="290.8623"
   height="1065.6371"
   inkscape:version="1.3 (0e150ed6c4, 2023-07-21)"
   xml:space="preserve"
   xmlns:inkscape="http://www.inkscape.org/namespaces/inkscape"
   xmlns:sodipodi="http://sodipodi.sourceforge.net/DTD/sodipodi-0.dtd"
   xmlns="http://www.w3.org/2000/svg"
   xmlns:svg="http://www.w3.org/2000/svg"><defs
     id="defs1"><pattern
       id="EMFhbasepattern"
       patternUnits="userSpaceOnUse"
       width="6"
       height="6"
       x="0"
       y="0" /><pattern
       id="EMFhbasepattern-2"
       patternUnits="userSpaceOnUse"
       width="6"
       height="6"
       x="0"
       y="0" /><pattern
       id="EMFhbasepattern-3"
       patternUnits="userSpaceOnUse"
       width="6"
       height="6"
       x="0"
       y="0" /><pattern
       id="EMFhbasepattern-9"
       patternUnits="userSpaceOnUse"
       width="6"
       height="6"
       x="0"
       y="0" /><pattern
       id="EMFhbasepattern-0"
       patternUnits="userSpaceOnUse"
       width="6"
       height="6"
       x="0"
       y="0" /><pattern
       id="EMFhbasepattern-8"
       patternUnits="userSpaceOnUse"
       width="6"
       height="6"
       x="0"
       y="0" /><pattern
       id="EMFhbasepattern-1"
       patternUnits="userSpaceOnUse"
       width="6"
       height="6"
       x="0"
       y="0" /><pattern
       id="EMFhbasepattern-7"
       patternUnits="userSpaceOnUse"
       width="6"
       height="6"
       x="0"
       y="0" /><pattern
       id="EMFhbasepattern-04"
       patternUnits="userSpaceOnUse"
       width="6"
       height="6"
       x="0"
       y="0" /><pattern
       id="EMFhbasepattern-2-6"
       patternUnits="userSpaceOnUse"
       width="6"
       height="6"
       x="0"
       y="0" /><pattern
       id="EMFhbasepattern-3-6"
       patternUnits="userSpaceOnUse"
       width="6"
       height="6"
       x="0"
       y="0" /><pattern
       id="EMFhbasepattern-9-8"
       patternUnits="userSpaceOnUse"
       width="6"
       height="6"
       x="0"
       y="0" /><pattern
       id="EMFhbasepattern-0-8"
       patternUnits="userSpaceOnUse"
       width="6"
       height="6"
       x="0"
       y="0" /><pattern
       id="EMFhbasepattern-8-7"
       patternUnits="userSpaceOnUse"
       width="6"
       height="6"
       x="0"
       y="0" /><pattern
       id="EMFhbasepattern-5"
       patternUnits="userSpaceOnUse"
       width="6"
       height="6"
       x="0"
       y="0" /><pattern
       id="EMFhbasepattern-2-8"
       patternUnits="userSpaceOnUse"
       width="6"
       height="6"
       x="0"
       y="0" /><pattern
       id="EMFhbasepattern-3-9"
       patternUnits="userSpaceOnUse"
       width="6"
       height="6"
       x="0"
       y="0" /><pattern
       id="EMFhbasepattern-9-3"
       patternUnits="userSpaceOnUse"
       width="6"
       height="6"
       x="0"
       y="0" /><pattern
       id="EMFhbasepattern-0-3"
       patternUnits="userSpaceOnUse"
       width="6"
       height="6"
       x="0"
       y="0" /><pattern
       id="EMFhbasepattern-8-0"
       patternUnits="userSpaceOnUse"
       width="6"
       height="6"
       x="0"
       y="0" /><pattern
       id="EMFhbasepattern-70"
       patternUnits="userSpaceOnUse"
       width="6"
       height="6"
       x="0"
       y="0" /><pattern
       id="EMFhbasepattern-2-4"
       patternUnits="userSpaceOnUse"
       width="6"
       height="6"
       x="0"
       y="0" /><pattern
       id="EMFhbasepattern-3-5"
       patternUnits="userSpaceOnUse"
       width="6"
       height="6"
       x="0"
       y="0" /><pattern
       id="EMFhbasepattern-9-39"
       patternUnits="userSpaceOnUse"
       width="6"
       height="6"
       x="0"
       y="0" /><pattern
       id="EMFhbasepattern-0-2"
       patternUnits="userSpaceOnUse"
       width="6"
       height="6"
       x="0"
       y="0" /><pattern
       id="EMFhbasepattern-8-1"
       patternUnits="userSpaceOnUse"
       width="6"
       height="6"
       x="0"
       y="0" /><pattern
       id="EMFhbasepattern-4"
       patternUnits="userSpaceOnUse"
       width="6"
       height="6"
       x="0"
       y="0" /><pattern
       id="EMFhbasepattern-2-5"
       patternUnits="userSpaceOnUse"
       width="6"
       height="6"
       x="0"
       y="0" /><pattern
       id="EMFhbasepattern-3-7"
       patternUnits="userSpaceOnUse"
       width="6"
       height="6"
       x="0"
       y="0" /><pattern
       id="EMFhbasepattern-9-9"
       patternUnits="userSpaceOnUse"
       width="6"
       height="6"
       x="0"
       y="0" /><pattern
       id="EMFhbasepattern-0-25"
       patternUnits="userSpaceOnUse"
       width="6"
       height="6"
       x="0"
       y="0" /><pattern
       id="EMFhbasepattern-8-4"
       patternUnits="userSpaceOnUse"
       width="6"
       height="6"
       x="0"
       y="0" /><pattern
       id="EMFhbasepattern-6"
       patternUnits="userSpaceOnUse"
       width="6"
       height="6"
       x="0"
       y="0" /><pattern
       id="EMFhbasepattern-45"
       patternUnits="userSpaceOnUse"
       width="6"
       height="6"
       x="0"
       y="0" /><pattern
       id="EMFhbasepattern-68"
       patternUnits="userSpaceOnUse"
       width="6"
       height="6"
       x="0"
       y="0" /><pattern
       id="EMFhbasepattern-62"
       patternUnits="userSpaceOnUse"
       width="6"
       height="6"
       x="0"
       y="0" /><pattern
       id="EMFhbasepattern-42"
       patternUnits="userSpaceOnUse"
       width="6"
       height="6"
       x="0"
       y="0" /></defs><sodipodi:namedview
     id="namedview1"
     pagecolor="#ffffff"
     bordercolor="#000000"
     borderopacity="0.25"
     inkscape:showpageshadow="2"
     inkscape:pageopacity="0.0"
     inkscape:pagecheckerboard="0"
     inkscape:deskcolor="#d1d1d1"
     showgrid="false"
     showguides="true"
     inkscape:zoom="0.27471097"
     inkscape:cx="806.30198"
     inkscape:cy="977.39089"
     inkscape:window-width="1920"
     inkscape:window-height="991"
     inkscape:window-x="-9"
     inkscape:window-y="-9"
     inkscape:window-maximized="1"
     inkscape:current-layer="svg1"><sodipodi:guide
       position="622.79741,394.86223"
       orientation="0,-1"
       id="guide1"
       inkscape:locked="false" /><sodipodi:guide
       position="999.55699,1095.5987"
       orientation="0,-1"
       id="guide2"
       inkscape:locked="false" /><sodipodi:guide
       position="1430.9361,657.78663"
       orientation="0,-1"
       id="guide3"
       inkscape:locked="false" /><sodipodi:guide
       position="1455.7303,14.236708"
       orientation="0,-1"
       id="guide4"
       inkscape:locked="false" /><sodipodi:guide
       position="740.19414,428.92129"
       orientation="0,-1"
       id="guide5"
       inkscape:locked="false" /></sodipodi:namedview><path
     style="color:#000000;fill:#000000;stroke-linecap:round;stroke-linejoin:round;-inkscape-stroke:none"
     d="m -426.38086,280.54297 a 13.15,13.15 0 0 0 -6.79297,0.43359 13.15,13.15 0 0 0 -8.25195,16.66602 c 0,0 66.07342,197.24487 58.52344,365.86133 a 13.15,13.15 0 0 0 12.54882,13.72656 13.15,13.15 0 0 0 13.72657,-12.54883 c 7.894,-176.29956 -59.88086,-375.45312 -59.88086,-375.45312 a 13.15,13.15 0 0 0 -9.87305,-8.68555 z"
     id="path3" /><path
     style="color:#000000;fill:#000000;stroke-linecap:round;stroke-linejoin:round;-inkscape-stroke:none"
     d="m -158.60742,-28.339844 c -66.5977,0.658027 -142.57795,12.592051 -227.95117,38.884766 -268.68174,82.746934 -445.86329,207.632808 -445.86328,207.632808 a 13.15,13.15 0 0 0 -3.17188,18.32422 13.15,13.15 0 0 0 18.32422,3.17188 c 0,0 173.76608,-122.47807 438.45117,-203.994143 C -212.18443,-15.639196 -85.227648,-9.9476625 3.4257813,24.90625 92.079211,59.760163 142.91033,123.44714 158.99609,191.05859 c 16.08577,67.61146 -2.58752,139.23462 -55.83007,191.13086 -50.092466,48.82581 -131.402784,80.63877 -245.53321,72.60352 -3.26382,-8.00182 -8.79613,-13.26139 -16.07031,-19.17578 -7.91244,-6.43334 -17.92112,-12.49653 -29.375,-16.3086 -11.45388,-3.81207 -24.63352,-5.37393 -37.72852,-1.33984 -13.09499,4.03409 -25.26609,13.91822 -33.8496,29.35742 -2.43296,4.37616 -4.46332,9.15951 -3.67774,15.4043 0.78558,6.24479 5.83792,11.99307 10.29297,14.27734 8.91011,4.56855 16.37178,3.69737 25.41992,3.3711 18.09628,-0.65255 41.31118,-3.51122 60.18555,-1.41407 1.57252,0.17473 3.07787,0.25523 4.64062,0.41602 6.66286,29.43117 6.51944,63.45733 10.26172,96.05078 4.36185,37.98954 15.90436,76.3438 54.408205,97.17383 10.276322,5.55934 21.351082,4.59938 32.53125,2.29297 C -54.147957,672.59203 -41.818024,668.5424 -27,664.14648 2.6360477,655.35465 41.975729,644.96324 95.832031,643.77734 A 13.15,13.15 0 0 0 108.68945,630.3418 13.15,13.15 0 0 0 95.253906,617.48437 c -56.98459,1.25479 -99.4114541,12.45363 -129.734375,21.44922 -15.16146,4.4978 -27.357965,8.39078 -36.162109,10.20703 -8.804144,1.81626 -13.171482,1.15958 -14.701172,0.33204 -28.93635,-15.65415 -36.7554,-41.85879 -40.79492,-77.04102 -3.19183,-27.79923 -2.9856,-59.72002 -9.05078,-90.94531 115.41514,6.10915 201.928396,-27.0637 256.71289,-80.46289 C 181.26968,342.78795 202.7127,261.17729 184.58203,184.9707 166.45136,108.76412 108.73489,38.048467 13.048828,0.4296875 -34.794205,-18.379702 -92.009726,-28.99787 -158.60742,-28.339844 Z m -48.8418,470.314454 c 3.64849,0.21572 7.46091,1.00068 11.33203,2.28906 5.33072,1.77417 10.37343,4.59832 15.00782,7.625 -17.93155,-0.21785 -35.14934,1.77273 -47.19336,2.20703 -1.64733,0.0594 -2.62574,-0.11054 -4.05664,-0.16992 4.71722,-6.26025 9.56557,-9.28349 14.56054,-10.82226 3.21643,-0.99087 6.70112,-1.34463 10.34961,-1.12891 z"
     id="path4" /></svg>
