<?xml version="1.0" encoding="UTF-8" standalone="no"?>
<svg
   version="1.1"
   viewBox="-19 0 290.86231 1065.637"
   id="svg1"
   sodipodi:docname="s.svg"
   width="290.8623"
   height="1065.6371"
   inkscape:version="1.3 (0e150ed6c4, 2023-07-21)"
   xml:space="preserve"
   xmlns:inkscape="http://www.inkscape.org/namespaces/inkscape"
   xmlns:sodipodi="http://sodipodi.sourceforge.net/DTD/sodipodi-0.dtd"
   xmlns="http://www.w3.org/2000/svg"
   xmlns:svg="http://www.w3.org/2000/svg"><defs
     id="defs1"><pattern
       id="EMFhbasepattern"
       patternUnits="userSpaceOnUse"
       width="6"
       height="6"
       x="0"
       y="0" /><pattern
       id="EMFhbasepattern-2"
       patternUnits="userSpaceOnUse"
       width="6"
       height="6"
       x="0"
       y="0" /><pattern
       id="EMFhbasepattern-3"
       patternUnits="userSpaceOnUse"
       width="6"
       height="6"
       x="0"
       y="0" /><pattern
       id="EMFhbasepattern-9"
       patternUnits="userSpaceOnUse"
       width="6"
       height="6"
       x="0"
       y="0" /><pattern
       id="EMFhbasepattern-0"
       patternUnits="userSpaceOnUse"
       width="6"
       height="6"
       x="0"
       y="0" /><pattern
       id="EMFhbasepattern-8"
       patternUnits="userSpaceOnUse"
       width="6"
       height="6"
       x="0"
       y="0" /><pattern
       id="EMFhbasepattern-1"
       patternUnits="userSpaceOnUse"
       width="6"
       height="6"
       x="0"
       y="0" /><pattern
       id="EMFhbasepattern-7"
       patternUnits="userSpaceOnUse"
       width="6"
       height="6"
       x="0"
       y="0" /><pattern
       id="EMFhbasepattern-04"
       patternUnits="userSpaceOnUse"
       width="6"
       height="6"
       x="0"
       y="0" /><pattern
       id="EMFhbasepattern-2-6"
       patternUnits="userSpaceOnUse"
       width="6"
       height="6"
       x="0"
       y="0" /><pattern
       id="EMFhbasepattern-3-6"
       patternUnits="userSpaceOnUse"
       width="6"
       height="6"
       x="0"
       y="0" /><pattern
       id="EMFhbasepattern-9-8"
       patternUnits="userSpaceOnUse"
       width="6"
       height="6"
       x="0"
       y="0" /><pattern
       id="EMFhbasepattern-0-8"
       patternUnits="userSpaceOnUse"
       width="6"
       height="6"
       x="0"
       y="0" /><pattern
       id="EMFhbasepattern-8-7"
       patternUnits="userSpaceOnUse"
       width="6"
       height="6"
       x="0"
       y="0" /><pattern
       id="EMFhbasepattern-5"
       patternUnits="userSpaceOnUse"
       width="6"
       height="6"
       x="0"
       y="0" /><pattern
       id="EMFhbasepattern-2-8"
       patternUnits="userSpaceOnUse"
       width="6"
       height="6"
       x="0"
       y="0" /><pattern
       id="EMFhbasepattern-3-9"
       patternUnits="userSpaceOnUse"
       width="6"
       height="6"
       x="0"
       y="0" /><pattern
       id="EMFhbasepattern-9-3"
       patternUnits="userSpaceOnUse"
       width="6"
       height="6"
       x="0"
       y="0" /><pattern
       id="EMFhbasepattern-0-3"
       patternUnits="userSpaceOnUse"
       width="6"
       height="6"
       x="0"
       y="0" /><pattern
       id="EMFhbasepattern-8-0"
       patternUnits="userSpaceOnUse"
       width="6"
       height="6"
       x="0"
       y="0" /><pattern
       id="EMFhbasepattern-70"
       patternUnits="userSpaceOnUse"
       width="6"
       height="6"
       x="0"
       y="0" /><pattern
       id="EMFhbasepattern-2-4"
       patternUnits="userSpaceOnUse"
       width="6"
       height="6"
       x="0"
       y="0" /><pattern
       id="EMFhbasepattern-3-5"
       patternUnits="userSpaceOnUse"
       width="6"
       height="6"
       x="0"
       y="0" /><pattern
       id="EMFhbasepattern-9-39"
       patternUnits="userSpaceOnUse"
       width="6"
       height="6"
       x="0"
       y="0" /><pattern
       id="EMFhbasepattern-0-2"
       patternUnits="userSpaceOnUse"
       width="6"
       height="6"
       x="0"
       y="0" /><pattern
       id="EMFhbasepattern-8-1"
       patternUnits="userSpaceOnUse"
       width="6"
       height="6"
       x="0"
       y="0" /><pattern
       id="EMFhbasepattern-4"
       patternUnits="userSpaceOnUse"
       width="6"
       height="6"
       x="0"
       y="0" /><pattern
       id="EMFhbasepattern-2-5"
       patternUnits="userSpaceOnUse"
       width="6"
       height="6"
       x="0"
       y="0" /><pattern
       id="EMFhbasepattern-3-7"
       patternUnits="userSpaceOnUse"
       width="6"
       height="6"
       x="0"
       y="0" /><pattern
       id="EMFhbasepattern-9-9"
       patternUnits="userSpaceOnUse"
       width="6"
       height="6"
       x="0"
       y="0" /><pattern
       id="EMFhbasepattern-0-25"
       patternUnits="userSpaceOnUse"
       width="6"
       height="6"
       x="0"
       y="0" /><pattern
       id="EMFhbasepattern-8-4"
       patternUnits="userSpaceOnUse"
       width="6"
       height="6"
       x="0"
       y="0" /><pattern
       id="EMFhbasepattern-6"
       patternUnits="userSpaceOnUse"
       width="6"
       height="6"
       x="0"
       y="0" /><pattern
       id="EMFhbasepattern-45"
       patternUnits="userSpaceOnUse"
       width="6"
       height="6"
       x="0"
       y="0" /><pattern
       id="EMFhbasepattern-68"
       patternUnits="userSpaceOnUse"
       width="6"
       height="6"
       x="0"
       y="0" /><pattern
       id="EMFhbasepattern-62"
       patternUnits="userSpaceOnUse"
       width="6"
       height="6"
       x="0"
       y="0" /><pattern
       id="EMFhbasepattern-42"
       patternUnits="userSpaceOnUse"
       width="6"
       height="6"
       x="0"
       y="0" /><pattern
       id="EMFhbasepattern-22"
       patternUnits="userSpaceOnUse"
       width="6"
       height="6"
       x="0"
       y="0" /></defs><sodipodi:namedview
     id="namedview1"
     pagecolor="#ffffff"
     bordercolor="#000000"
     borderopacity="0.25"
     inkscape:showpageshadow="2"
     inkscape:pageopacity="0.0"
     inkscape:pagecheckerboard="0"
     inkscape:deskcolor="#d1d1d1"
     showgrid="false"
     showguides="true"
     inkscape:zoom="0.38849998"
     inkscape:cx="168.59718"
     inkscape:cy="227.79924"
     inkscape:window-width="1920"
     inkscape:window-height="991"
     inkscape:window-x="-9"
     inkscape:window-y="-9"
     inkscape:window-maximized="1"
     inkscape:current-layer="svg1"><sodipodi:guide
       position="622.79741,394.86223"
       orientation="0,-1"
       id="guide1"
       inkscape:locked="false" /><sodipodi:guide
       position="999.55699,1095.5987"
       orientation="0,-1"
       id="guide2"
       inkscape:locked="false" /><sodipodi:guide
       position="1430.9361,657.78663"
       orientation="0,-1"
       id="guide3"
       inkscape:locked="false" /><sodipodi:guide
       position="1455.7303,14.236708"
       orientation="0,-1"
       id="guide4"
       inkscape:locked="false" /><sodipodi:guide
       position="740.19414,428.92129"
       orientation="0,-1"
       id="guide5"
       inkscape:locked="false" /></sodipodi:namedview><path
     style="color:#000000;fill:#000000;stroke-linecap:round;stroke-linejoin:round;-inkscape-stroke:none"
     d="m 126.14648,-28.419922 c -7.34185,-0.01238 -14.71019,0.118659 -22.10156,0.386719 -118.261891,4.28895 -242.94179,42.990059 -358.36133,91.857422 a 13.151315,13.151315 0 0 0 -2.30468,1.259765 c 0,0 -6.50363,4.440685 -13.53125,10.583985 -7.02763,6.143299 -15.38286,12.694751 -18.85352,24.921871 -2.31017,8.13872 0.87881,18.17008 7.1875,24.8711 6.30869,6.70101 15.21722,12.02109 28.25586,17.56445 26.07727,11.08673 69.24583,22.53902 141.20117,34.67773 129.580809,21.86001 256.24051,45.01562 356.71875,75.85938 100.47824,30.84376 173.48343,70.28231 198.46094,118.04102 16.95447,32.41812 21.35575,62.39295 16.49219,90.4121 -9.38721,54.08004 -55.05522,102.85604 -122.72657,138.26563 -28.6463,14.98941 -61.2055,27.2965 -95.94726,36.77344 -70.2259,0.76057 -137.47361,-2.39262 -200.837892,-13.59375 C -108.01595,597.33119 -234.83524,529.11407 -335.17383,363.83203 a 13.151315,13.151315 0 0 0 -23.97656,10.10547 c 28.96072,112.42234 94.1117,191.07673 175.48828,240.58789 81.37658,49.51116 178.6473195,70.31564 273.351563,69.62109 53.256907,-0.39057 105.594107,-7.77259 154.158207,-20.68359 93.97494,-1.143 192.12484,-9.22247 292.75,-14.54297 39.71272,-1.27601 60.15127,-1.10715 70.15429,-0.6582 5.00774,0.22475 7.45035,0.54456 7.98047,0.63672 0.19124,0.0332 -0.22406,-0.0755 -0.60742,-0.19141 a 13.15,13.15 0 0 0 12.8125,-2.10156 13.15,13.15 0 0 0 1.9043,-18.5 c 0,0 -1.32594,-1.43721 -1.92578,-1.92383 -0.59985,-0.48662 -1.14504,-0.84537 -1.63477,-1.13477 -0.97945,-0.57878 -1.74761,-0.89277 -2.42578,-1.13867 -1.35635,-0.49179 -2.39062,-0.70635 -3.61914,-0.91992 -2.45705,-0.42713 -5.66453,-0.74686 -11.30469,-1 -11.28031,-0.50627 -32.12534,-0.64629 -72.29492,0.64649 a 13.151315,13.151315 0 0 0 -0.27149,0.0117 c -71.54237,3.7806 -141.35781,8.74176 -208.9707,11.78907 7.63481,-3.47061 15.13641,-7.05983 22.38281,-10.85157 72.12716,-37.74112 125.08973,-91.65035 136.44532,-157.07031 5.88339,-33.89444 0.12212,-70.3463 -19.09961,-107.09961 C 434.56073,299.06477 354.93703,259.99567 252.07422,228.41992 149.2114,196.84417 21.819615,173.66752 -107.98633,151.76953 c -70.94757,-11.9687 -112.95587,-23.45399 -135.28515,-32.94726 -11.16465,-4.74664 -17.26769,-9.12541 -19.39844,-11.38868 -0.41259,-0.43825 -0.28653,-0.20885 -0.47656,-0.3789 0.73101,-0.92108 5.08579,-7.02547 10.30273,-11.58594 4.86038,-4.248769 8.81338,-7.065022 10.07617,-7.953125 C -129.40232,39.624594 -7.7506003,2.3390037 104.99805,-1.75 218.17262,-5.8544505 321.65444,22.743264 402.55273,106.92383 a 13.15,13.15 0 0 0 18.59375,0.36914 13.15,13.15 0 0 0 0.36914,-18.591798 C 340.27679,4.1662523 236.27426,-28.234251 126.14648,-28.419922 Z m -419.9375,494.613282 c 93.29083,109.05568 205.54128,161.33971 329.011723,183.16601 19.671018,3.47732 39.634793,6.18661 59.853516,8.28711 -1.864641,0.0313 -3.711628,0.18553 -5.578125,0.19922 -90.7055474,0.66522 -183.288185,-19.42738 -259.488284,-65.78906 -49.65248,-30.20958 -92.41323,-71.47659 -123.79883,-125.86328 z m 902.23047,178.50781 a 13.15,13.15 0 0 0 5.41016,3.91211 c -0.449,-0.16357 -1.0636,-0.40165 -1.94727,-0.92383 -0.45114,-0.26659 -0.97152,-0.60931 -1.55664,-1.08398 -0.58512,-0.47468 -1.90625,-1.9043 -1.90625,-1.9043 z"
     id="path5" /></svg>
