<?xml version="1.0" encoding="UTF-8" standalone="no"?>
<svg
   version="1.1"
   viewBox="-19 0 290.86231 1065.637"
   id="svg1"
   sodipodi:docname="z.svg"
   width="290.8623"
   height="1065.6371"
   inkscape:version="1.3 (0e150ed6c4, 2023-07-21)"
   xml:space="preserve"
   xmlns:inkscape="http://www.inkscape.org/namespaces/inkscape"
   xmlns:sodipodi="http://sodipodi.sourceforge.net/DTD/sodipodi-0.dtd"
   xmlns="http://www.w3.org/2000/svg"
   xmlns:svg="http://www.w3.org/2000/svg"><defs
     id="defs1"><pattern
       id="EMFhbasepattern"
       patternUnits="userSpaceOnUse"
       width="6"
       height="6"
       x="0"
       y="0" /><pattern
       id="EMFhbasepattern-2"
       patternUnits="userSpaceOnUse"
       width="6"
       height="6"
       x="0"
       y="0" /><pattern
       id="EMFhbasepattern-3"
       patternUnits="userSpaceOnUse"
       width="6"
       height="6"
       x="0"
       y="0" /><pattern
       id="EMFhbasepattern-9"
       patternUnits="userSpaceOnUse"
       width="6"
       height="6"
       x="0"
       y="0" /><pattern
       id="EMFhbasepattern-0"
       patternUnits="userSpaceOnUse"
       width="6"
       height="6"
       x="0"
       y="0" /><pattern
       id="EMFhbasepattern-8"
       patternUnits="userSpaceOnUse"
       width="6"
       height="6"
       x="0"
       y="0" /><pattern
       id="EMFhbasepattern-1"
       patternUnits="userSpaceOnUse"
       width="6"
       height="6"
       x="0"
       y="0" /><pattern
       id="EMFhbasepattern-7"
       patternUnits="userSpaceOnUse"
       width="6"
       height="6"
       x="0"
       y="0" /><pattern
       id="EMFhbasepattern-04"
       patternUnits="userSpaceOnUse"
       width="6"
       height="6"
       x="0"
       y="0" /><pattern
       id="EMFhbasepattern-2-6"
       patternUnits="userSpaceOnUse"
       width="6"
       height="6"
       x="0"
       y="0" /><pattern
       id="EMFhbasepattern-3-6"
       patternUnits="userSpaceOnUse"
       width="6"
       height="6"
       x="0"
       y="0" /><pattern
       id="EMFhbasepattern-9-8"
       patternUnits="userSpaceOnUse"
       width="6"
       height="6"
       x="0"
       y="0" /><pattern
       id="EMFhbasepattern-0-8"
       patternUnits="userSpaceOnUse"
       width="6"
       height="6"
       x="0"
       y="0" /><pattern
       id="EMFhbasepattern-8-7"
       patternUnits="userSpaceOnUse"
       width="6"
       height="6"
       x="0"
       y="0" /><pattern
       id="EMFhbasepattern-5"
       patternUnits="userSpaceOnUse"
       width="6"
       height="6"
       x="0"
       y="0" /><pattern
       id="EMFhbasepattern-2-8"
       patternUnits="userSpaceOnUse"
       width="6"
       height="6"
       x="0"
       y="0" /><pattern
       id="EMFhbasepattern-3-9"
       patternUnits="userSpaceOnUse"
       width="6"
       height="6"
       x="0"
       y="0" /><pattern
       id="EMFhbasepattern-9-3"
       patternUnits="userSpaceOnUse"
       width="6"
       height="6"
       x="0"
       y="0" /><pattern
       id="EMFhbasepattern-0-3"
       patternUnits="userSpaceOnUse"
       width="6"
       height="6"
       x="0"
       y="0" /><pattern
       id="EMFhbasepattern-8-0"
       patternUnits="userSpaceOnUse"
       width="6"
       height="6"
       x="0"
       y="0" /><pattern
       id="EMFhbasepattern-70"
       patternUnits="userSpaceOnUse"
       width="6"
       height="6"
       x="0"
       y="0" /><pattern
       id="EMFhbasepattern-2-4"
       patternUnits="userSpaceOnUse"
       width="6"
       height="6"
       x="0"
       y="0" /><pattern
       id="EMFhbasepattern-3-5"
       patternUnits="userSpaceOnUse"
       width="6"
       height="6"
       x="0"
       y="0" /><pattern
       id="EMFhbasepattern-9-39"
       patternUnits="userSpaceOnUse"
       width="6"
       height="6"
       x="0"
       y="0" /><pattern
       id="EMFhbasepattern-0-2"
       patternUnits="userSpaceOnUse"
       width="6"
       height="6"
       x="0"
       y="0" /><pattern
       id="EMFhbasepattern-8-1"
       patternUnits="userSpaceOnUse"
       width="6"
       height="6"
       x="0"
       y="0" /><pattern
       id="EMFhbasepattern-4"
       patternUnits="userSpaceOnUse"
       width="6"
       height="6"
       x="0"
       y="0" /><pattern
       id="EMFhbasepattern-2-5"
       patternUnits="userSpaceOnUse"
       width="6"
       height="6"
       x="0"
       y="0" /><pattern
       id="EMFhbasepattern-3-7"
       patternUnits="userSpaceOnUse"
       width="6"
       height="6"
       x="0"
       y="0" /><pattern
       id="EMFhbasepattern-9-9"
       patternUnits="userSpaceOnUse"
       width="6"
       height="6"
       x="0"
       y="0" /><pattern
       id="EMFhbasepattern-0-25"
       patternUnits="userSpaceOnUse"
       width="6"
       height="6"
       x="0"
       y="0" /><pattern
       id="EMFhbasepattern-8-4"
       patternUnits="userSpaceOnUse"
       width="6"
       height="6"
       x="0"
       y="0" /><pattern
       id="EMFhbasepattern-6"
       patternUnits="userSpaceOnUse"
       width="6"
       height="6"
       x="0"
       y="0" /><pattern
       id="EMFhbasepattern-45"
       patternUnits="userSpaceOnUse"
       width="6"
       height="6"
       x="0"
       y="0" /><pattern
       id="EMFhbasepattern-68"
       patternUnits="userSpaceOnUse"
       width="6"
       height="6"
       x="0"
       y="0" /></defs><sodipodi:namedview
     id="namedview1"
     pagecolor="#ffffff"
     bordercolor="#000000"
     borderopacity="0.25"
     inkscape:showpageshadow="2"
     inkscape:pageopacity="0.0"
     inkscape:pagecheckerboard="0"
     inkscape:deskcolor="#d1d1d1"
     showgrid="false"
     showguides="true"
     inkscape:zoom="0.54942194"
     inkscape:cx="221.14151"
     inkscape:cy="519.63706"
     inkscape:window-width="1920"
     inkscape:window-height="991"
     inkscape:window-x="-9"
     inkscape:window-y="-9"
     inkscape:window-maximized="1"
     inkscape:current-layer="svg1"><sodipodi:guide
       position="622.79741,394.86223"
       orientation="0,-1"
       id="guide1"
       inkscape:locked="false" /><sodipodi:guide
       position="999.55699,1095.5987"
       orientation="0,-1"
       id="guide2"
       inkscape:locked="false" /><sodipodi:guide
       position="1430.9361,657.78663"
       orientation="0,-1"
       id="guide3"
       inkscape:locked="false" /><sodipodi:guide
       position="1455.7303,14.236708"
       orientation="0,-1"
       id="guide4"
       inkscape:locked="false" /><sodipodi:guide
       position="740.19414,428.92129"
       orientation="0,-1"
       id="guide5"
       inkscape:locked="false" /></sodipodi:namedview><path
     id="path3"
     style="color:#000000;fill:#000000;stroke-linecap:round;stroke-linejoin:round;-inkscape-stroke:none"
     d="M 44.068359 -3.2910156 C -135.27868 -7.9373121 -236.15806 66.662612 -289 142.72656 C -315.42097 180.75854 -330.10668 218.91442 -337.80469 247.83398 C -341.65369 262.29377 -343.75724 274.41174 -344.67969 283.34961 C -345.14091 287.81854 -345.32884 291.41482 -345.19922 294.62891 C -345.13442 296.23594 -345.0743 297.65017 -344.50781 299.85352 C -344.22457 300.95518 -343.93078 302.28357 -342.5 304.45312 C -341.06922 306.62269 -336.90658 310.58008 -331.21094 310.58008 A 13.15 13.15 0 0 0 -318.06055 297.42969 A 13.15 13.15 0 0 0 -318.89258 293.06836 C -318.91948 291.8152 -318.86678 289.43235 -318.51758 286.04883 C -317.76923 278.79785 -315.90535 267.80894 -312.38867 254.59766 C -305.35533 228.17507 -291.71447 192.73161 -267.40039 157.73242 C -218.77225 87.734067 -128.54188 18.54584 43.388672 23 C 216.32869 27.480312 299.74709 82.027179 341.04883 144.30078 C 382.35057 206.57439 381.81216 279.21315 378.26172 321.81836 C 375.28304 357.5625 332.79395 418.60518 272.6875 465.67383 C 255.67138 478.99895 237.32008 491.22757 218.29688 501.86328 C 211.78139 492.45588 203.44587 485.1392 194.09375 479.98242 C 164.96802 463.92244 128.3668 465.37414 93.208984 464.47266 C 73.367162 463.96389 52.813898 468.04487 34.746094 474.6543 C 16.678289 481.26371 1.1018173 489.93915 -8.9179688 501.96289 C -13.927862 507.97476 -17.824014 515.47761 -17.550781 524.20703 C -17.27755 532.93645 -12.220915 541.18099 -5.1328125 546.79492 C 9.0433919 558.0228 31.414385 563.87367 68.035156 567.16016 C 113.65448 571.25419 160.94861 559.29885 205.23828 538.41211 C 207.29503 548.79392 207.77708 562.18254 206.2168 578.79102 L 205.80273 578.79102 C 205.78134 580.62914 205.70314 582.53096 205.66992 584.38281 C 205.56437 585.27557 205.53361 586.04959 205.41602 586.96094 A 13.15 13.15 0 0 0 205.57812 588.16992 C 205.51536 590.78842 205.49938 593.35666 205.39062 596.02344 C 204.61246 615.10548 202.93264 635.1562 200.57227 655.66992 C 185.85733 663.55163 170.97752 672.47274 156.05078 682.43359 C 103.32257 717.62001 50.640467 764.59001 8.0058594 813.7793 C -34.628748 862.96858 -67.377516 914.02625 -79.255859 959.68555 C -85.195031 982.51517 -85.923594 1004.4519 -78.369141 1023.7383 C -70.814685 1043.0246 -54.659947 1058.5131 -31.544922 1067.582 C -5.9597314 1077.6201 19.986358 1076.3515 43.164062 1066.1914 C 66.341769 1056.0313 86.939368 1037.6682 105.53125 1014.0176 C 142.71501 966.71638 172.3616 897.60158 193.94336 822.68945 C 208.06493 773.67231 218.55415 722.25457 224.97461 672.90625 C 255.61649 658.00451 284.0264 649.28848 306.58594 648.92773 A 13.15 13.15 0 0 0 319.52344 635.56836 A 13.15 13.15 0 0 0 306.16602 622.63086 C 282.04728 623.01654 255.75029 630.22863 228.44727 642.11523 C 229.92483 626.77475 231.07564 611.66617 231.66992 597.09375 C 231.83049 593.15651 231.87889 589.35593 231.95312 585.52344 C 234.61192 561.68292 233.81126 542.09733 229.36719 526.01562 C 250.30903 514.34684 270.3568 500.90323 288.9043 486.37891 C 352.56404 436.52771 400.16902 375.62219 404.4707 324.00195 C 408.20064 279.24279 409.48445 199.90365 362.9668 129.76562 C 316.44913 59.627606 222.40593 1.3291289 44.068359 -3.2910156 z M 92.533203 490.76367 C 128.35894 491.68228 161.83283 492.22536 181.39453 503.01172 C 186.67739 505.9247 191.03638 509.45777 194.70703 514.01172 C 153.30892 533.5217 109.91432 544.51237 70.384766 540.96484 C 36.021983 537.88101 16.985186 530.76385 11.197266 526.17969 C 8.3033051 523.8876 8.7403753 523.51407 8.7363281 523.38477 C 8.7322781 523.25546 8.9009293 521.6599 11.285156 518.79883 C 16.05361 513.07668 28.575513 504.91595 43.78125 499.35352 C 58.986987 493.79107 76.883249 490.36239 92.533203 490.76367 z M 196.19141 688.44141 C 189.84343 730.61213 180.60549 773.98755 168.67188 815.41016 C 147.68837 888.24573 118.47257 954.99715 84.853516 997.76367 C 68.043991 1019.147 50.254273 1034.367 32.605469 1042.1035 C 14.956663 1049.84 -2.3625459 1050.7804 -21.939453 1043.0996 C -39.831692 1036.0798 -49.052652 1026.4728 -53.880859 1014.1465 C -58.709069 1001.8202 -58.82881 985.6264 -53.802734 966.30664 C -43.750592 927.66711 -13.148407 878.33879 27.878906 831.00391 C 68.90622 783.66901 120.19882 737.97577 170.65039 704.30859 C 179.21178 698.59544 187.72609 693.39411 196.19141 688.44141 z " /></svg>
