<?xml version="1.0" encoding="UTF-8" standalone="no"?>
<svg
   version="1.1"
   viewBox="-19 0 449.56339 1073.7326"
   id="svg1"
   sodipodi:docname="acirc.svg"
   width="449.56339"
   height="1073.7327"
   inkscape:version="1.3 (0e150ed6c4, 2023-07-21)"
   xmlns:inkscape="http://www.inkscape.org/namespaces/inkscape"
   xmlns:sodipodi="http://sodipodi.sourceforge.net/DTD/sodipodi-0.dtd"
   xmlns="http://www.w3.org/2000/svg"
   xmlns:svg="http://www.w3.org/2000/svg">
  <defs
     id="defs1">
    <pattern
       id="EMFhbasepattern"
       patternUnits="userSpaceOnUse"
       width="6"
       height="6"
       x="0"
       y="0" />
    <pattern
       id="EMFhbasepattern-2"
       patternUnits="userSpaceOnUse"
       width="6"
       height="6"
       x="0"
       y="0" />
    <pattern
       id="EMFhbasepattern-3"
       patternUnits="userSpaceOnUse"
       width="6"
       height="6"
       x="0"
       y="0" />
    <pattern
       id="EMFhbasepattern-9"
       patternUnits="userSpaceOnUse"
       width="6"
       height="6"
       x="0"
       y="0" />
    <pattern
       id="EMFhbasepattern-0"
       patternUnits="userSpaceOnUse"
       width="6"
       height="6"
       x="0"
       y="0" />
    <pattern
       id="EMFhbasepattern-8"
       patternUnits="userSpaceOnUse"
       width="6"
       height="6"
       x="0"
       y="0" />
  </defs>
  <sodipodi:namedview
     id="namedview1"
     pagecolor="#ffffff"
     bordercolor="#000000"
     borderopacity="0.25"
     inkscape:showpageshadow="2"
     inkscape:pageopacity="0.0"
     inkscape:pagecheckerboard="0"
     inkscape:deskcolor="#d1d1d1"
     showgrid="false"
     showguides="true"
     inkscape:zoom="0.097124997"
     inkscape:cx="-1230.3733"
     inkscape:cy="952.38098"
     inkscape:window-width="1920"
     inkscape:window-height="991"
     inkscape:window-x="-9"
     inkscape:window-y="-9"
     inkscape:window-maximized="1"
     inkscape:current-layer="svg1">
    <sodipodi:guide
       position="331.71162,386.07809"
       orientation="0,-1"
       id="guide1"
       inkscape:locked="false" />
    <sodipodi:guide
       position="708.47122,1086.8146"
       orientation="0,-1"
       id="guide2"
       inkscape:locked="false" />
    <sodipodi:guide
       position="1139.8503,649.00249"
       orientation="0,-1"
       id="guide3"
       inkscape:locked="false" />
    <sodipodi:guide
       position="1164.6445,5.4525762"
       orientation="0,-1"
       id="guide4"
       inkscape:locked="false" />
    <sodipodi:guide
       position="449.10835,420.13715"
       orientation="0,-1"
       id="guide5"
       inkscape:locked="false" />
  </sodipodi:namedview>
  <path
     style="color:#000000;fill:#000000;stroke-linecap:round;stroke-linejoin:round;-inkscape-stroke:none"
     d="m 270.63867,426.43945 c -21.00576,0.16293 -48.72893,5.26037 -81.2832,21.94532 -75.44804,38.66924 -122.514115,121.30651 -143.402345,164.01562 -10.831961,22.14756 -26.945799,29.62314 -41.625,32.71484 -14.679201,3.09171 -26.408203,0.81446 -26.408203,0.81446 a 13.15,13.15 0 0 0 -15.455078,10.34375 13.15,13.15 0 0 0 10.34375,15.45508 c 0,0 16.771145,3.37126 36.941406,-0.87696 18.969971,-3.99541 42.176622,-15.79295 57.007812,-41.94726 0.04843,0.19378 0.07309,0.39457 0.123047,0.58789 9.378529,36.2927 44.316211,58.45345 85.326171,66.49218 41.00996,8.03874 89.88549,2.93048 134.32422,-17.2832 28.78053,-13.09129 55.68237,-32.79649 76.69922,-59.45703 -0.22875,4.51876 -0.47814,7.83294 -0.61524,11.19531 -0.47949,11.76021 5.60789,22.27713 13.26368,28.25977 7.65578,5.98264 16.38495,8.81054 24.58593,10.61133 16.40197,3.60157 31.97852,2.65234 31.97852,2.65234 a 13.15,13.15 0 0 0 12.44726,-13.81641 13.15,13.15 0 0 0 -13.8164,-12.44921 c 0,0 -13.05469,0.54189 -24.96875,-2.07422 -5.95703,-1.30806 -11.30623,-3.51548 -14.0332,-5.64649 -2.72698,-2.131 -3.32691,-2.80636 -3.17774,-6.46484 0.78017,-19.1339 3.62891,-65.98438 3.62891,-65.98438 a 13.151315,13.151315 0 0 0 -25.38282,-5.56054 c -17.94317,46.19275 -52.24224,76.93878 -91.49804,94.79492 -39.25581,17.85614 -83.42098,22.2661 -118.37696,15.41406 -34.95597,-6.85204 -58.907768,-23.99051 -64.92187,-47.26367 -6.014102,-23.27316 4.530808,-58.68404 51.83594,-104.99024 60.72404,-59.44165 109.90357,-67.95933 147.59765,-58.24804 37.69409,9.71128 65.61223,40.12058 77.36133,62.90234 a 13.151315,13.151315 0 0 0 24.35352,-2.49023 c 0,0 0.50527,-2.56864 0.5039,-3.78711 -0.001,-1.21847 -0.14537,-2.37389 -0.38476,-3.50586 -0.47878,-2.26394 -1.31713,-4.45854 -2.64063,-7.07422 -2.64698,-5.23135 -7.3088,-12.22763 -16.58593,-23.23828 -20.62012,-24.47326 -58.80665,-47.10742 -58.80665,-47.10742 a 13.151315,13.151315 0 0 0 -0.74804,-0.42578 c 0,0 -13.83674,-7.02513 -35.60547,-8.29493 -2.72109,-0.15872 -5.58512,-0.23616 -8.58594,-0.21289 z"
     id="path2" />
  <path
     style="color:#000000;fill:#000000;stroke-linecap:round;stroke-linejoin:round;-inkscape-stroke:none"
     d="m 265.88867,268.35156 a 13.151315,13.151315 0 0 0 -13.92578,5.88281 c 0,0 -4.28493,6.86176 -11.31445,16.52735 1.17686,-1.61818 -0.99129,0.93419 -3.89844,3.24414 -2.90715,2.30995 -6.95671,5.31311 -11.66602,8.66797 -9.41861,6.70972 -21.5114,14.876 -33.38671,22.73633 -23.75063,15.72065 -46.64649,30.23047 -46.64649,30.23046 a 13.15,13.15 0 0 0 -4.07031,18.14649 13.15,13.15 0 0 0 18.14648,4.07031 c 0,0 23.06109,-14.61216 47.08789,-30.51562 12.01341,-7.95173 24.26592,-16.22176 34.12891,-23.24805 4.9315,-3.51315 9.25464,-6.7048 12.76758,-9.49609 3.51294,-2.79129 5.80968,-4.24638 8.80664,-8.36719 1.20576,-1.65793 1.82292,-2.63365 2.88086,-4.13477 7.8295,8.16639 18.35217,18.92852 30.73437,30.80274 11.26846,10.80616 23.28013,21.74041 34.31055,30.42968 11.03042,8.68928 19.10183,15.86191 31.80859,17.38672 a 13.15,13.15 0 0 0 14.62305,-11.48828 13.15,13.15 0 0 0 -11.48828,-14.62304 c 1.33118,0.15974 -8.79771,-4.15672 -18.66992,-11.9336 -9.87221,-7.77688 -21.46499,-18.28773 -32.37891,-28.7539 -21.82784,-20.93235 -40.96484,-41.63477 -40.96484,-41.63477 a 13.151315,13.151315 0 0 0 -6.88477,-3.92969 z"
     id="path15" />
</svg>
