<?xml version="1.0" encoding="UTF-8" standalone="no"?>
<svg
   version="1.1"
   viewBox="-19 0 449.56339 1073.7326"
   id="svg1"
   sodipodi:docname="auml.svg"
   width="449.56339"
   height="1073.7327"
   inkscape:version="1.3 (0e150ed6c4, 2023-07-21)"
   xmlns:inkscape="http://www.inkscape.org/namespaces/inkscape"
   xmlns:sodipodi="http://sodipodi.sourceforge.net/DTD/sodipodi-0.dtd"
   xmlns="http://www.w3.org/2000/svg"
   xmlns:svg="http://www.w3.org/2000/svg">
  <defs
     id="defs1">
    <pattern
       id="EMFhbasepattern"
       patternUnits="userSpaceOnUse"
       width="6"
       height="6"
       x="0"
       y="0" />
    <pattern
       id="EMFhbasepattern-2"
       patternUnits="userSpaceOnUse"
       width="6"
       height="6"
       x="0"
       y="0" />
    <pattern
       id="EMFhbasepattern-3"
       patternUnits="userSpaceOnUse"
       width="6"
       height="6"
       x="0"
       y="0" />
    <pattern
       id="EMFhbasepattern-9"
       patternUnits="userSpaceOnUse"
       width="6"
       height="6"
       x="0"
       y="0" />
    <pattern
       id="EMFhbasepattern-0"
       patternUnits="userSpaceOnUse"
       width="6"
       height="6"
       x="0"
       y="0" />
    <pattern
       id="EMFhbasepattern-8"
       patternUnits="userSpaceOnUse"
       width="6"
       height="6"
       x="0"
       y="0" />
  </defs>
  <sodipodi:namedview
     id="namedview1"
     pagecolor="#ffffff"
     bordercolor="#000000"
     borderopacity="0.25"
     inkscape:showpageshadow="2"
     inkscape:pageopacity="0.0"
     inkscape:pagecheckerboard="0"
     inkscape:deskcolor="#d1d1d1"
     showgrid="false"
     showguides="true"
     inkscape:zoom="0.13735549"
     inkscape:cx="644.31354"
     inkscape:cy="535.10785"
     inkscape:window-width="1920"
     inkscape:window-height="991"
     inkscape:window-x="-9"
     inkscape:window-y="-9"
     inkscape:window-maximized="1"
     inkscape:current-layer="svg1">
    <sodipodi:guide
       position="331.71162,386.07809"
       orientation="0,-1"
       id="guide1"
       inkscape:locked="false" />
    <sodipodi:guide
       position="708.47122,1086.8146"
       orientation="0,-1"
       id="guide2"
       inkscape:locked="false" />
    <sodipodi:guide
       position="1139.8503,649.00249"
       orientation="0,-1"
       id="guide3"
       inkscape:locked="false" />
    <sodipodi:guide
       position="1164.6445,5.4525762"
       orientation="0,-1"
       id="guide4"
       inkscape:locked="false" />
    <sodipodi:guide
       position="449.10835,420.13715"
       orientation="0,-1"
       id="guide5"
       inkscape:locked="false" />
  </sodipodi:namedview>
  <path
     style="color:#000000;fill:#000000;stroke-linecap:round;stroke-linejoin:round;-inkscape-stroke:none"
     d="m 270.63867,426.43945 c -21.00576,0.16293 -48.72893,5.26037 -81.2832,21.94532 -75.44804,38.66924 -122.514115,121.30651 -143.402345,164.01562 -10.831961,22.14756 -26.945799,29.62314 -41.625,32.71484 -14.679201,3.09171 -26.408203,0.81446 -26.408203,0.81446 a 13.15,13.15 0 0 0 -15.455078,10.34375 13.15,13.15 0 0 0 10.34375,15.45508 c 0,0 16.771145,3.37126 36.941406,-0.87696 18.969971,-3.99541 42.176622,-15.79295 57.007812,-41.94726 0.04843,0.19378 0.07309,0.39457 0.123047,0.58789 9.378529,36.2927 44.316211,58.45345 85.326171,66.49218 41.00996,8.03874 89.88549,2.93048 134.32422,-17.2832 28.78053,-13.09129 55.68237,-32.79649 76.69922,-59.45703 -0.22875,4.51876 -0.47814,7.83294 -0.61524,11.19531 -0.47949,11.76021 5.60789,22.27713 13.26368,28.25977 7.65578,5.98264 16.38495,8.81054 24.58593,10.61133 16.40197,3.60157 31.97852,2.65234 31.97852,2.65234 a 13.15,13.15 0 0 0 12.44726,-13.81641 13.15,13.15 0 0 0 -13.8164,-12.44921 c 0,0 -13.05469,0.54189 -24.96875,-2.07422 -5.95703,-1.30806 -11.30623,-3.51548 -14.0332,-5.64649 -2.72698,-2.131 -3.32691,-2.80636 -3.17774,-6.46484 0.78017,-19.1339 3.62891,-65.98438 3.62891,-65.98438 a 13.151315,13.151315 0 0 0 -25.38282,-5.56054 c -17.94317,46.19275 -52.24224,76.93878 -91.49804,94.79492 -39.25581,17.85614 -83.42098,22.2661 -118.37696,15.41406 -34.95597,-6.85204 -58.907768,-23.99051 -64.92187,-47.26367 -6.014102,-23.27316 4.530808,-58.68404 51.83594,-104.99024 60.72404,-59.44165 109.90357,-67.95933 147.59765,-58.24804 37.69409,9.71128 65.61223,40.12058 77.36133,62.90234 a 13.151315,13.151315 0 0 0 24.35352,-2.49023 c 0,0 0.50527,-2.56864 0.5039,-3.78711 -0.001,-1.21847 -0.14537,-2.37389 -0.38476,-3.50586 -0.47878,-2.26394 -1.31713,-4.45854 -2.64063,-7.07422 -2.64698,-5.23135 -7.3088,-12.22763 -16.58593,-23.23828 -20.62012,-24.47326 -58.80665,-47.10742 -58.80665,-47.10742 a 13.151315,13.151315 0 0 0 -0.74804,-0.42578 c 0,0 -13.83674,-7.02513 -35.60547,-8.29493 -2.72109,-0.15872 -5.58512,-0.23616 -8.58594,-0.21289 z"
     id="path2" />
  <path
     style="color:#000000;fill:#000000;stroke-linecap:round;stroke-linejoin:round;-inkscape-stroke:none"
     d="m 147.81836,307.24023 a 13.15,13.15 0 0 0 -14.28516,11.90625 c 0.42306,-4.65364 0.89814,-2.43312 -1.57812,-0.22851 -2.47627,2.20461 -6.50525,5.09707 -10.67578,7.85937 -4.17053,2.7623 -8.46727,5.42493 -12.09571,7.88086 -1.81422,1.22797 -3.43321,2.34996 -5.14062,3.82032 -0.85371,0.73517 -1.73839,1.5155 -2.85352,2.93359 -1.11512,1.41809 -3.203122,3.52432 -3.203122,8.95703 a 13.15,13.15 0 0 0 13.150392,13.14844 13.15,13.15 0 0 0 10.86719,-6.05274 c -0.0356,0.0424 -0.11252,0.16685 -0.14258,0.20508 -0.60811,0.77333 -0.74992,0.81895 -0.65625,0.73828 0.18734,-0.16132 1.27866,-0.99465 2.7207,-1.9707 2.88408,-1.95211 7.28829,-4.69317 11.87695,-7.73242 4.58867,-3.03925 9.37686,-6.34657 13.64063,-10.14258 4.26376,-3.79601 9.40316,-7.37626 10.28125,-17.03516 a 13.15,13.15 0 0 0 -11.90625,-14.28711 z m -23.53125,43.12891 c 0,3.65854 -0.90058,5.19331 -1.66211,6.20117 a 13.15,13.15 0 0 0 1.66211,-6.20117 z"
     id="path17" />
  <path
     style="color:#000000;fill:#000000;stroke-linecap:round;stroke-linejoin:round;-inkscape-stroke:none"
     d="m 350.19141,309.30664 a 13.15,13.15 0 0 0 -15.97852,9.51367 c 0.67978,-2.68086 -0.49305,0.67932 -2.96875,3.61328 -2.47569,2.93397 -5.98116,6.54725 -9.53906,9.93946 -3.5579,3.3922 -7.20099,6.60732 -9.99024,8.91797 -1.39462,1.15532 -2.58992,2.09306 -3.33203,2.63867 -0.74211,0.54561 -2.63225,0.95536 1.19336,-0.39649 a 13.15,13.15 0 0 0 -8.01758,16.78125 13.15,13.15 0 0 0 16.78125,8.01758 c 4.59905,-1.62515 4.24908,-2.20417 5.6211,-3.21289 1.37201,-1.00872 2.86371,-2.19119 4.5332,-3.57422 3.33897,-2.76605 7.33336,-6.2982 11.35938,-10.13672 4.02601,-3.83851 8.05195,-7.93893 11.49023,-12.01367 3.43828,-4.07474 6.56315,-7.01786 8.36133,-14.10937 a 13.15,13.15 0 0 0 -9.51367,-15.97852 z"
     id="path18" />
</svg>
