<?xml version="1.0" encoding="UTF-8" standalone="no"?>
<svg
   version="1.1"
   viewBox="-19 0 449.56339 1073.7326"
   id="svg1"
   sodipodi:docname="b.svg"
   width="449.56339"
   height="1073.7327"
   inkscape:version="1.3 (0e150ed6c4, 2023-07-21)"
   xmlns:inkscape="http://www.inkscape.org/namespaces/inkscape"
   xmlns:sodipodi="http://sodipodi.sourceforge.net/DTD/sodipodi-0.dtd"
   xmlns="http://www.w3.org/2000/svg"
   xmlns:svg="http://www.w3.org/2000/svg">
  <defs
     id="defs1">
    <pattern
       id="EMFhbasepattern"
       patternUnits="userSpaceOnUse"
       width="6"
       height="6"
       x="0"
       y="0" />
    <pattern
       id="EMFhbasepattern-2"
       patternUnits="userSpaceOnUse"
       width="6"
       height="6"
       x="0"
       y="0" />
    <pattern
       id="EMFhbasepattern-3"
       patternUnits="userSpaceOnUse"
       width="6"
       height="6"
       x="0"
       y="0" />
    <pattern
       id="EMFhbasepattern-9"
       patternUnits="userSpaceOnUse"
       width="6"
       height="6"
       x="0"
       y="0" />
    <pattern
       id="EMFhbasepattern-0"
       patternUnits="userSpaceOnUse"
       width="6"
       height="6"
       x="0"
       y="0" />
    <pattern
       id="EMFhbasepattern-8"
       patternUnits="userSpaceOnUse"
       width="6"
       height="6"
       x="0"
       y="0" />
    <pattern
       id="EMFhbasepattern-6"
       patternUnits="userSpaceOnUse"
       width="6"
       height="6"
       x="0"
       y="0" />
  </defs>
  <sodipodi:namedview
     id="namedview1"
     pagecolor="#ffffff"
     bordercolor="#000000"
     borderopacity="0.25"
     inkscape:showpageshadow="2"
     inkscape:pageopacity="0.0"
     inkscape:pagecheckerboard="0"
     inkscape:deskcolor="#d1d1d1"
     showgrid="false"
     showguides="true"
     inkscape:zoom="0.77699996"
     inkscape:cx="323.68084"
     inkscape:cy="442.08497"
     inkscape:window-width="1920"
     inkscape:window-height="991"
     inkscape:window-x="-9"
     inkscape:window-y="-9"
     inkscape:window-maximized="1"
     inkscape:current-layer="svg1">
    <sodipodi:guide
       position="331.71162,386.07809"
       orientation="0,-1"
       id="guide1"
       inkscape:locked="false" />
    <sodipodi:guide
       position="708.47122,1086.8146"
       orientation="0,-1"
       id="guide2"
       inkscape:locked="false" />
    <sodipodi:guide
       position="1139.8503,649.00249"
       orientation="0,-1"
       id="guide3"
       inkscape:locked="false" />
    <sodipodi:guide
       position="1164.6445,5.4525762"
       orientation="0,-1"
       id="guide4"
       inkscape:locked="false" />
    <sodipodi:guide
       position="449.10835,420.13715"
       orientation="0,-1"
       id="guide5"
       inkscape:locked="false" />
  </sodipodi:namedview>
  <path
     style="color:#000000;fill:#000000;stroke-linecap:round;stroke-linejoin:round;-inkscape-stroke:none"
     d="M 323.41992,12.003906 C 310.4029,12.688323 297.54129,16.486522 285.49023,22.871094 261.38813,35.640238 239.56881,57.865702 219.5,86.212891 179.36238,142.90727 146.23857,224.81849 125.55859,310.24805 c -20.67997,85.42956 -28.884468,174.14247 -16.98632,244.9082 1.6244,9.66135 3.66514,18.96562 6.08007,27.92383 -38.142179,25.73267 -70.351955,41.23218 -94.869137,50.2832 -36.355479,13.42137 -54.738281,13.24024 -54.738281,13.24024 a 13.15,13.15 0 0 0 -13.101563,13.19921 13.15,13.15 0 0 0 13.199219,13.09961 c 0,0 24.40297,-0.34214 63.748047,-14.86718 25.202337,-9.30396 57.169452,-24.5429 94.429685,-49.05274 5.44572,13.41332 12.07186,25.68043 20.19727,36.39258 18.01975,23.75637 43.73099,39.74458 75.54492,43.12305 77.97591,8.28062 130.31756,-5.63907 164.72656,-26.39453 2.77901,0.58813 5.58312,1.20823 8.30664,1.74023 36.55685,7.1409 67.9336,8.41602 67.9336,8.41602 a 13.15,13.15 0 0 0 13.67968,-12.59766 13.15,13.15 0 0 0 -12.5957,-13.67969 c 0,0 -21.92238,-1.12526 -49.5918,-5.55859 28.86926,-28.89417 34.5918,-60.58203 34.5918,-60.58203 a 13.151315,13.151315 0 0 0 -0.0937,-4.78516 c -4.24324,-20.6346 -22.82803,-32.38795 -42.10351,-36.64844 -19.27548,-4.26048 -41.20423,-2.92997 -61.56055,1.85938 -20.35632,4.78935 -39.1003,12.69258 -51.72461,25.44726 -6.31216,6.37735 -11.26838,14.57359 -11.97656,24.20118 -0.70819,9.62758 3.27898,19.42886 10.33398,27.48632 14.11401,16.11951 34.57814,26.74596 56.41992,34.29688 -28.51449,10.71837 -68.05794,16.5414 -123.56836,10.64648 -24.95288,-2.64986 -42.9833,-13.89769 -57.36914,-32.86328 -7.47676,-9.857 -13.76742,-21.96168 -18.88086,-35.84961 14.42734,-10.3873 29.4828,-22.01133 45.21875,-35.29492 69.68249,-58.82287 120.89486,-185.00687 152.9375,-299.59766 16.02132,-57.29539 26.86682,-111.58215 31.56446,-153.23046 2.34882,-20.824159 3.2006,-38.414053 2.20312,-52.283208 -0.49874,-6.934577 -1.39865,-12.928606 -3.27344,-18.4375 -1.87479,-5.508893 -4.82004,-11.545303 -11.95117,-14.96289 -12.67848,-6.076149 -25.85212,-8.506682 -38.86914,-7.822266 z m 1.16211,25.894531 c 8.12388,-0.457035 16.19612,1.18785 24.55078,4.902344 0.10108,0.190869 0.0678,0.04024 0.21094,0.460938 0.71239,2.09329 1.53829,6.300881 1.9375,11.851562 0.79842,11.101363 0.13237,27.609017 -2.10547,47.449219 -4.47567,39.6804 -15.07047,92.99469 -30.75781,149.0957 -31.37468,112.20203 -84.65708,236.00263 -144.57422,286.58203 -12.54728,10.59186 -24.50364,19.85558 -36.12891,28.47461 -1.18255,-5.16396 -2.28261,-10.43151 -3.20507,-15.91797 -10.95947,-65.18279 -3.45155,-151.48103 16.61132,-234.36132 20.06288,-82.8803 52.71363,-162.57911 89.84375,-215.02539 18.56506,-26.223147 38.25157,-45.451916 56.83789,-55.298832 9.29316,-4.923458 18.07306,-7.723092 26.7793,-8.212891 z m 49.98828,524.429683 c 8.60605,-0.32178 16.79158,0.23944 23.66992,1.75977 12.41143,2.74331 18.92804,7.08507 21.33789,13.96289 -1.28472,5.72132 -7.0289,25.87737 -29.2832,46.57813 -3.35399,3.11985 -7.11511,6.21968 -11.26172,9.24414 -28.88388,-7.41091 -57.35156,-19.05479 -70.25781,-33.79493 -3.7378,-4.26892 -4.01894,-6.48804 -3.89062,-8.23242 0.12831,-1.74437 1.11498,-4.27208 4.4375,-7.6289 6.64502,-6.71365 21.93573,-14.31998 39.05468,-18.34766 8.55948,-2.01384 17.58732,-3.21923 26.19336,-3.54102 z"
     id="path1" />
</svg>
