<?xml version="1.0" encoding="UTF-8" standalone="no"?>
<svg
   version="1.1"
   viewBox="-19 0 449.56339 1073.7326"
   id="svg1"
   sodipodi:docname="c.svg"
   width="449.56339"
   height="1073.7327"
   inkscape:version="1.3 (0e150ed6c4, 2023-07-21)"
   xmlns:inkscape="http://www.inkscape.org/namespaces/inkscape"
   xmlns:sodipodi="http://sodipodi.sourceforge.net/DTD/sodipodi-0.dtd"
   xmlns="http://www.w3.org/2000/svg"
   xmlns:svg="http://www.w3.org/2000/svg">
  <defs
     id="defs1">
    <pattern
       id="EMFhbasepattern"
       patternUnits="userSpaceOnUse"
       width="6"
       height="6"
       x="0"
       y="0" />
    <pattern
       id="EMFhbasepattern-2"
       patternUnits="userSpaceOnUse"
       width="6"
       height="6"
       x="0"
       y="0" />
    <pattern
       id="EMFhbasepattern-3"
       patternUnits="userSpaceOnUse"
       width="6"
       height="6"
       x="0"
       y="0" />
    <pattern
       id="EMFhbasepattern-9"
       patternUnits="userSpaceOnUse"
       width="6"
       height="6"
       x="0"
       y="0" />
    <pattern
       id="EMFhbasepattern-0"
       patternUnits="userSpaceOnUse"
       width="6"
       height="6"
       x="0"
       y="0" />
    <pattern
       id="EMFhbasepattern-8"
       patternUnits="userSpaceOnUse"
       width="6"
       height="6"
       x="0"
       y="0" />
  </defs>
  <sodipodi:namedview
     id="namedview1"
     pagecolor="#ffffff"
     bordercolor="#000000"
     borderopacity="0.25"
     inkscape:showpageshadow="2"
     inkscape:pageopacity="0.0"
     inkscape:pagecheckerboard="0"
     inkscape:deskcolor="#d1d1d1"
     showgrid="false"
     showguides="true"
     inkscape:zoom="0.54942195"
     inkscape:cx="474.13468"
     inkscape:cy="809.03211"
     inkscape:window-width="1920"
     inkscape:window-height="991"
     inkscape:window-x="-9"
     inkscape:window-y="-9"
     inkscape:window-maximized="1"
     inkscape:current-layer="svg1">
    <sodipodi:guide
       position="331.71162,386.07809"
       orientation="0,-1"
       id="guide1"
       inkscape:locked="false" />
    <sodipodi:guide
       position="708.47122,1086.8146"
       orientation="0,-1"
       id="guide2"
       inkscape:locked="false" />
    <sodipodi:guide
       position="1139.8503,649.00249"
       orientation="0,-1"
       id="guide3"
       inkscape:locked="false" />
    <sodipodi:guide
       position="1164.6445,5.4525762"
       orientation="0,-1"
       id="guide4"
       inkscape:locked="false" />
    <sodipodi:guide
       position="449.10835,420.13715"
       orientation="0,-1"
       id="guide5"
       inkscape:locked="false" />
  </sodipodi:namedview>
  <path
     style="color:#000000;fill:#000000;stroke-linecap:round;stroke-linejoin:round;-inkscape-stroke:none"
     d="m 270.98416,416.50513 c -46.50344,-1.68051 -88.08592,18.52411 -122.43555,48.78125 -49.662817,43.74589 -98.622407,121.24926 -127.020117,173.74836 -3.88363,5.32413 -14.8829398,8.89635 -26.7421898,9.45117 -12.0237202,0.56252 -22.5898402,-1.32617 -22.5898402,-1.32617 -7.14237,-1.31167 -13.99592,3.41446 -15.3086,10.55664 -1.31288,7.14305 3.41355,13.9979 10.55664,15.31055 0,0 13.08441,2.45496 28.5703202,1.73047 15.4859098,-0.72449 35.6838298,-3.98921 47.3925798,-21.06445 0.26225,-0.38214 0.50412,-0.77787 0.7246,-1.18555 3.74931,-6.94025 19.06444,-27.72495 23.13536,-34.94954 9.72771,34.35283 38.195457,54.67156 71.871087,63.89063 34.43705,9.42751 75.42531,9.27955 116.20313,5.58203 40.77782,-3.69753 81.31647,-11.13537 113.83398,-17.34766 16.25876,-3.10615 30.52133,-5.90864 41.59961,-7.77148 11.07828,-1.86284 19.89161,-2.43342 20.83789,-2.33204 7.22124,0.774 13.70265,-4.45257 14.47657,-11.67382 0.774,-7.22125 -4.45257,-13.70266 -11.67383,-14.47657 -8.19807,-0.87836 -16.32153,0.58279 -28.00196,2.54688 -11.68042,1.96409 -25.99738,4.78263 -42.17382,7.87305 -32.35288,6.18084 -72.10202,13.43836 -111.27344,16.99023 -39.17142,3.55187 -77.7946,3.20735 -106.88281,-4.75586 -29.08822,-7.96321 -47.478877,-21.55547 -54.005857,-47.30078 -1.39472,-5.50137 3.16983,-25.86412 16.753897,-48.10352 13.58408,-22.2394 34.46285,-47.16876 58.88282,-68.08398 24.41997,-20.91522 52.40133,-37.76442 79.66796,-44.97266 13.42765,-3.54974 26.52794,-4.87717 39.28907,-3.42578 8.45955,1.5768 17.15154,3.97801 26.14257,7.42774 4.10211,1.89173 8.1779,4.01279 12.19922,6.65039 10.42823,6.83595 23.62744,-3.32404 19.6875,-15.1543 l -0.64257,-1.93164 c -1.13167,-3.39394 -3.59721,-6.18036 -6.82813,-7.7168 -5.15066,-2.45001 -10.24876,-4.54607 -15.31641,-6.4414 -11.15811,-4.8275 -22.626,-7.73755 -34.19531,-8.86719 -5.63654,-0.83129 -11.23183,-1.45936 -16.73437,-1.6582 z"
     id="path1-5"
     sodipodi:nodetypes="sscscscscccsssscscssssssssccccccccs" />
</svg>
