<?xml version="1.0" encoding="UTF-8" standalone="no"?>
<svg
   version="1.1"
   viewBox="-19 0 836.47981 1083.8952"
   id="svg1"
   sodipodi:docname="d.svg"
   width="836.4798"
   height="1083.8953"
   inkscape:version="1.3 (0e150ed6c4, 2023-07-21)"
   xmlns:inkscape="http://www.inkscape.org/namespaces/inkscape"
   xmlns:sodipodi="http://sodipodi.sourceforge.net/DTD/sodipodi-0.dtd"
   xmlns="http://www.w3.org/2000/svg"
   xmlns:svg="http://www.w3.org/2000/svg">
  <defs
     id="defs1">
    <pattern
       id="EMFhbasepattern"
       patternUnits="userSpaceOnUse"
       width="6"
       height="6"
       x="0"
       y="0" />
    <pattern
       id="EMFhbasepattern-2"
       patternUnits="userSpaceOnUse"
       width="6"
       height="6"
       x="0"
       y="0" />
    <pattern
       id="EMFhbasepattern-3"
       patternUnits="userSpaceOnUse"
       width="6"
       height="6"
       x="0"
       y="0" />
    <pattern
       id="EMFhbasepattern-9"
       patternUnits="userSpaceOnUse"
       width="6"
       height="6"
       x="0"
       y="0" />
    <pattern
       id="EMFhbasepattern-0"
       patternUnits="userSpaceOnUse"
       width="6"
       height="6"
       x="0"
       y="0" />
    <pattern
       id="EMFhbasepattern-8"
       patternUnits="userSpaceOnUse"
       width="6"
       height="6"
       x="0"
       y="0" />
    <pattern
       id="EMFhbasepattern-1"
       patternUnits="userSpaceOnUse"
       width="6"
       height="6"
       x="0"
       y="0" />
  </defs>
  <sodipodi:namedview
     id="namedview1"
     pagecolor="#ffffff"
     bordercolor="#000000"
     borderopacity="0.25"
     inkscape:showpageshadow="2"
     inkscape:pageopacity="0.0"
     inkscape:pagecheckerboard="0"
     inkscape:deskcolor="#d1d1d1"
     showgrid="false"
     showguides="true"
     inkscape:zoom="0.54942194"
     inkscape:cx="111.93583"
     inkscape:cy="552.39876"
     inkscape:window-width="1920"
     inkscape:window-height="991"
     inkscape:window-x="-9"
     inkscape:window-y="-9"
     inkscape:window-maximized="1"
     inkscape:current-layer="svg1">
    <sodipodi:guide
       position="635.66742,376.97762"
       orientation="0,-1"
       id="guide1"
       inkscape:locked="false" />
    <sodipodi:guide
       position="1012.427,1077.7141"
       orientation="0,-1"
       id="guide2"
       inkscape:locked="false" />
    <sodipodi:guide
       position="1443.8061,639.90202"
       orientation="0,-1"
       id="guide3"
       inkscape:locked="false" />
    <sodipodi:guide
       position="1468.6003,-3.6478979"
       orientation="0,-1"
       id="guide4"
       inkscape:locked="false" />
    <sodipodi:guide
       position="753.06415,411.03668"
       orientation="0,-1"
       id="guide5"
       inkscape:locked="false" />
  </sodipodi:namedview>
  <path
     style="color:#000000;fill:#000000;stroke-linecap:round;stroke-linejoin:round;-inkscape-stroke:none"
     d="m 763.33398,14.292969 c -2.95427,0.06379 -5.71714,0.454396 -8.10546,1.050781 -9.48479,2.368429 -16.26173,7.124707 -16.35938,7.193359 -0.55125,0.367041 -228.78954,152.521751 -163.91797,426.136721 3.07981,12.99 6.32772,25.18808 9.70508,36.76367 -102.1362,-48.49161 -189.96997,-51.85107 -265.10156,-32.89844 -17.36696,3.43381 -33.85249,7.90623 -49.30664,13.22656 -42.18861,14.52411 -76.89463,35.09852 -102.27344,57.20899 -3.99333,3.47906 -7.68232,6.9957 -11.22461,10.52734 -32.41141,23.47793 -61.464154,47.87215 -87.474609,68.62891 -36.445223,29.08386 -67.6235503,50.14665 -90.945313,53.44141 a 13.15,13.15 0 0 0 -11.18164,14.86132 13.15,13.15 0 0 0 14.861328,11.18164 C 16.174031,676.78872 48.644101,652.24248 85.679687,622.6875 97.2207,613.47759 109.3347,603.64131 121.74414,593.6543 c -2.5754,18.44494 2.73238,36.55423 13.9668,51.45703 11.68944,15.5064 29.25573,28.01841 51.16797,37.67578 43.82447,19.31473 105.61264,27.42813 177.93359,19.2793 76.61033,-8.63216 159.21005,-70.38031 233.0332,-158.88282 1.57514,-1.88833 3.12092,-3.86015 4.6875,-5.77343 22.56682,55.39922 49.72512,89.37249 79.9668,110.17773 43.87433,30.18405 91.75799,31.21747 134.24414,34.20898 A 13.15,13.15 0 0 0 830.78516,669.60156 13.15,13.15 0 0 0 818.5918,655.56055 C 775.3145,652.51333 734.1125,651.17257 697.40625,625.91992 669.94607,607.02825 643.61854,573.91655 621.43164,513.46289 685.29669,429.43921 740.23423,325.44917 772.62305,217.48633 790.66066,157.36105 798.97277,115.60647 801.14258,85.966797 803.31238,56.327123 799.94029,38.01635 790.13477,25.929687 782.78062,16.864691 772.19681,14.101588 763.33398,14.292969 Z m 2.92969,25.796875 c 1.17808,0.142047 2.15338,0.813312 3.44727,2.408203 2.58777,3.189782 7.14113,15.0488 5.20117,41.548828 -1.93996,26.500025 -9.77212,66.855105 -27.48047,125.882815 -29.52011,98.40046 -78.81877,194.13836 -136.09961,272.99414 -3.74784,-12.48664 -7.35811,-25.84535 -10.78906,-40.31641 C 539.27882,184.20781 753.43555,44.429687 753.43555,44.429687 a 13.151315,13.151315 0 0 0 0.16211,-0.107421 c 0,0 3.79204,-2.409687 8.00195,-3.460938 2.10496,-0.525625 3.48599,-0.913532 4.66406,-0.771484 z M 396.77148,471.20312 c 56.55604,-0.10902 120.15153,12.12974 188.17969,43.59375 a 13.151315,13.151315 0 0 0 1.88477,0.22461 c -3.05253,3.80054 -6.10085,7.61834 -9.18555,11.31641 -71.39771,85.59477 -151.3959,142.33884 -215.7832,149.59375 -68.67679,7.73823 -126.53783,-0.53154 -164.38282,-17.21094 -18.92249,-8.3397 -32.69518,-18.72795 -40.77148,-29.4414 -8.0763,-10.71346 -10.90098,-21.27789 -8.79492,-33.33985 1.88644,-10.80415 10.894,-26.65101 26.61133,-42.88086 11.84308,-8.52028 24.01976,-16.86505 36.70312,-24.75586 31.68058,-19.7097 65.94221,-36.73767 103.4707,-47.81054 25.2321,-5.76588 52.66491,-9.23238 82.06836,-9.28907 z"
     id="path2" />
</svg>
