<?xml version="1.0" encoding="UTF-8" standalone="no"?>
<svg
   version="1.1"
   viewBox="-19 0 836.47981 1083.8952"
   id="svg1"
   sodipodi:docname="d.svg"
   width="836.4798"
   height="1083.8953"
   inkscape:version="1.3 (0e150ed6c4, 2023-07-21)"
   xmlns:inkscape="http://www.inkscape.org/namespaces/inkscape"
   xmlns:sodipodi="http://sodipodi.sourceforge.net/DTD/sodipodi-0.dtd"
   xmlns="http://www.w3.org/2000/svg"
   xmlns:svg="http://www.w3.org/2000/svg">
  <defs
     id="defs1">
    <pattern
       id="EMFhbasepattern"
       patternUnits="userSpaceOnUse"
       width="6"
       height="6"
       x="0"
       y="0" />
    <pattern
       id="EMFhbasepattern-2"
       patternUnits="userSpaceOnUse"
       width="6"
       height="6"
       x="0"
       y="0" />
    <pattern
       id="EMFhbasepattern-3"
       patternUnits="userSpaceOnUse"
       width="6"
       height="6"
       x="0"
       y="0" />
    <pattern
       id="EMFhbasepattern-9"
       patternUnits="userSpaceOnUse"
       width="6"
       height="6"
       x="0"
       y="0" />
    <pattern
       id="EMFhbasepattern-0"
       patternUnits="userSpaceOnUse"
       width="6"
       height="6"
       x="0"
       y="0" />
    <pattern
       id="EMFhbasepattern-8"
       patternUnits="userSpaceOnUse"
       width="6"
       height="6"
       x="0"
       y="0" />
    <pattern
       id="EMFhbasepattern-1"
       patternUnits="userSpaceOnUse"
       width="6"
       height="6"
       x="0"
       y="0" />
  </defs>
  <sodipodi:namedview
     id="namedview1"
     pagecolor="#ffffff"
     bordercolor="#000000"
     borderopacity="0.25"
     inkscape:showpageshadow="2"
     inkscape:pageopacity="0.0"
     inkscape:pagecheckerboard="0"
     inkscape:deskcolor="#d1d1d1"
     showgrid="false"
     showguides="true"
     inkscape:zoom="0.38849998"
     inkscape:cx="-616.47365"
     inkscape:cy="752.89579"
     inkscape:window-width="1920"
     inkscape:window-height="991"
     inkscape:window-x="-9"
     inkscape:window-y="-9"
     inkscape:window-maximized="1"
     inkscape:current-layer="svg1">
    <sodipodi:guide
       position="635.66742,376.97762"
       orientation="0,-1"
       id="guide1"
       inkscape:locked="false" />
    <sodipodi:guide
       position="1012.427,1077.7141"
       orientation="0,-1"
       id="guide2"
       inkscape:locked="false" />
    <sodipodi:guide
       position="1443.8061,639.90202"
       orientation="0,-1"
       id="guide3"
       inkscape:locked="false" />
    <sodipodi:guide
       position="1468.6003,-3.6478979"
       orientation="0,-1"
       id="guide4"
       inkscape:locked="false" />
    <sodipodi:guide
       position="753.06415,411.03668"
       orientation="0,-1"
       id="guide5"
       inkscape:locked="false" />
  </sodipodi:namedview>
  <path
     style="color:#000000;fill:#000000;stroke-linecap:round;stroke-linejoin:round;-inkscape-stroke:none"
     d="m -571.95312,8.703125 a 13.151315,13.151315 0 0 0 -13.28711,10.753906 c 0,0 -15.05403,81.649099 -29.87891,181.089839 -14.82488,99.44075 -29.5175,216.25998 -28.58203,289.22657 0.26981,21.04568 1.3504,39.50991 3.10156,56.1914 -22.42999,53.07369 -51.10356,80.35955 -77.03125,94.54883 -41.41629,22.66563 -76.98047,12.93555 -76.98047,12.93555 A 13.151315,13.151315 0 0 0 -798,653.00391 c 0,0 -29.35311,-0.16694 -58.68555,-13.59375 -29.33243,-13.42682 -57.54369,-37.52759 -59.21875,-91.9668 -0.11709,-3.80539 0.13463,-7.22202 0.56055,-10.4668 5.23144,-11.63484 7.54903,-16.95158 9.54883,-21.62695 5.12621,-5.70717 12.04528,-10.25614 20.86914,-14.24414 20.86242,-9.42893 51.72529,-13.01434 83.14648,-12.6836 56.81674,0.59808 112.39013,12.51014 123.00782,14.88868 1.74097,1.05099 4.12697,2.52874 5.16796,3.09961 0.47204,0.25886 0.88048,0.48268 1.53125,0.78515 0.32539,0.15124 0.68591,0.32305 1.42383,0.58008 0.73792,0.25703 0.97699,1.21912 5.88477,0.67383 2.45389,-0.27265 8.23117,-2.41685 10.59375,-7.76367 2.36258,-5.34683 0.74014,-8.94955 0.0234,-10.59375 -1.43342,-3.28842 -2.10604,-3.3804 -2.56836,-3.86914 -0.92465,-0.97749 -1.22076,-1.16127 -1.57032,-1.44727 -2.79641,-2.28797 -5.76953,-4.18555 -5.76953,-4.18555 a 13.151315,13.151315 0 0 0 -4.41797,-1.96093 c 0,0 -0.48412,-0.10561 -0.5,-0.10938 -0.0905,-0.0559 -0.0681,-0.0387 -0.16015,-0.0957 -76.29516,-47.23033 -141.07442,-44.56144 -185.51953,-28.90625 -44.44512,15.65519 -69.67774,44.10937 -69.67774,44.10937 a 13.151315,13.151315 0 0 0 -2.27929,3.625 c 0,0 -2.55536,5.85335 -3.61915,8.33594 -4.31835,6.43894 -7.54357,13.68938 -9.56835,21.63867 -4.7718,10.59321 -10.24001,22.5355 -16.5586,35.59961 -8.32952,17.22185 -17.55135,35.25106 -26.33203,50.41016 -8.78068,15.1591 -17.6407,27.66379 -22.6973,32.40429 -5.8005,5.438 -31.7242,12.4892 -58.9785,14.40235 a 13.15,13.15 0 0 0 -12.1972,14.03906 13.15,13.15 0 0 0 14.039,12.19727 c 29.1302,-2.04483 57.4466,-4.87763 75.12502,-21.45118 9.5042,-8.91019 18.1603,-22.34328 27.46679,-38.41015 7.77879,-13.42942 15.53381,-28.52217 22.875,-43.39453 11.66365,42.26556 41.16946,67.36834 69.42188,80.30078 33.47373,15.32248 65.16438,15.90891 68.41992,15.93359 5.67564,1.30986 47.55706,9.85601 94.20703,-15.67383 24.76531,-13.55315 50.13924,-36.58839 71.82422,-74.08203 4.76803,18.77552 11.13081,34.16302 19.44531,46.63477 19.71247,29.56871 49.64948,40.92099 82.88867,46.61914 a 13.15,13.15 0 0 0 15.18164,-10.73828 13.15,13.15 0 0 0 -10.73828,-15.1836 c -30.46405,-5.22241 -50.57992,-12.98121 -65.44922,-35.28515 -9.98488,-14.97732 -17.5927,-38.19062 -21.83984,-72.79492 13.22629,-33.14481 24.01407,-74.02114 30.75781,-124.75977 38.33862,-288.45244 23.66797,-403.835937 23.66797,-403.835937 A 13.151315,13.151315 0 0 0 -571.95312,8.703125 Z M -585.4668,181.01367 c -3.31457,60.07249 -10.13588,138.67268 -23.53906,239.51563 -2.28705,17.20736 -5.0281,33.10466 -8.12891,47.87695 1.68433,-70.17123 14.66074,-174.32335 28.02735,-263.98242 1.23511,-8.28475 2.41126,-15.41087 3.64062,-23.41016 z"
     id="path1" />
</svg>
