<?xml version="1.0" encoding="UTF-8" standalone="no"?>
<svg
   version="1.1"
   viewBox="-19 0 290.86231 1065.637"
   id="svg1"
   sodipodi:docname="ecirc.svg"
   width="290.8623"
   height="1065.6371"
   inkscape:version="1.3 (0e150ed6c4, 2023-07-21)"
   xml:space="preserve"
   xmlns:inkscape="http://www.inkscape.org/namespaces/inkscape"
   xmlns:sodipodi="http://sodipodi.sourceforge.net/DTD/sodipodi-0.dtd"
   xmlns="http://www.w3.org/2000/svg"
   xmlns:svg="http://www.w3.org/2000/svg"><defs
     id="defs1"><pattern
       id="EMFhbasepattern"
       patternUnits="userSpaceOnUse"
       width="6"
       height="6"
       x="0"
       y="0" /><pattern
       id="EMFhbasepattern-2"
       patternUnits="userSpaceOnUse"
       width="6"
       height="6"
       x="0"
       y="0" /><pattern
       id="EMFhbasepattern-3"
       patternUnits="userSpaceOnUse"
       width="6"
       height="6"
       x="0"
       y="0" /><pattern
       id="EMFhbasepattern-9"
       patternUnits="userSpaceOnUse"
       width="6"
       height="6"
       x="0"
       y="0" /><pattern
       id="EMFhbasepattern-0"
       patternUnits="userSpaceOnUse"
       width="6"
       height="6"
       x="0"
       y="0" /><pattern
       id="EMFhbasepattern-8"
       patternUnits="userSpaceOnUse"
       width="6"
       height="6"
       x="0"
       y="0" /><pattern
       id="EMFhbasepattern-1"
       patternUnits="userSpaceOnUse"
       width="6"
       height="6"
       x="0"
       y="0" /><pattern
       id="EMFhbasepattern-7"
       patternUnits="userSpaceOnUse"
       width="6"
       height="6"
       x="0"
       y="0" /><pattern
       id="EMFhbasepattern-04"
       patternUnits="userSpaceOnUse"
       width="6"
       height="6"
       x="0"
       y="0" /><pattern
       id="EMFhbasepattern-2-6"
       patternUnits="userSpaceOnUse"
       width="6"
       height="6"
       x="0"
       y="0" /><pattern
       id="EMFhbasepattern-3-6"
       patternUnits="userSpaceOnUse"
       width="6"
       height="6"
       x="0"
       y="0" /><pattern
       id="EMFhbasepattern-9-8"
       patternUnits="userSpaceOnUse"
       width="6"
       height="6"
       x="0"
       y="0" /><pattern
       id="EMFhbasepattern-0-8"
       patternUnits="userSpaceOnUse"
       width="6"
       height="6"
       x="0"
       y="0" /><pattern
       id="EMFhbasepattern-8-7"
       patternUnits="userSpaceOnUse"
       width="6"
       height="6"
       x="0"
       y="0" /><pattern
       id="EMFhbasepattern-5"
       patternUnits="userSpaceOnUse"
       width="6"
       height="6"
       x="0"
       y="0" /><pattern
       id="EMFhbasepattern-2-8"
       patternUnits="userSpaceOnUse"
       width="6"
       height="6"
       x="0"
       y="0" /><pattern
       id="EMFhbasepattern-3-9"
       patternUnits="userSpaceOnUse"
       width="6"
       height="6"
       x="0"
       y="0" /><pattern
       id="EMFhbasepattern-9-3"
       patternUnits="userSpaceOnUse"
       width="6"
       height="6"
       x="0"
       y="0" /><pattern
       id="EMFhbasepattern-0-3"
       patternUnits="userSpaceOnUse"
       width="6"
       height="6"
       x="0"
       y="0" /><pattern
       id="EMFhbasepattern-8-0"
       patternUnits="userSpaceOnUse"
       width="6"
       height="6"
       x="0"
       y="0" /><pattern
       id="EMFhbasepattern-70"
       patternUnits="userSpaceOnUse"
       width="6"
       height="6"
       x="0"
       y="0" /><pattern
       id="EMFhbasepattern-2-4"
       patternUnits="userSpaceOnUse"
       width="6"
       height="6"
       x="0"
       y="0" /><pattern
       id="EMFhbasepattern-3-5"
       patternUnits="userSpaceOnUse"
       width="6"
       height="6"
       x="0"
       y="0" /><pattern
       id="EMFhbasepattern-9-39"
       patternUnits="userSpaceOnUse"
       width="6"
       height="6"
       x="0"
       y="0" /><pattern
       id="EMFhbasepattern-0-2"
       patternUnits="userSpaceOnUse"
       width="6"
       height="6"
       x="0"
       y="0" /><pattern
       id="EMFhbasepattern-8-1"
       patternUnits="userSpaceOnUse"
       width="6"
       height="6"
       x="0"
       y="0" /><pattern
       id="EMFhbasepattern-4"
       patternUnits="userSpaceOnUse"
       width="6"
       height="6"
       x="0"
       y="0" /><pattern
       id="EMFhbasepattern-2-5"
       patternUnits="userSpaceOnUse"
       width="6"
       height="6"
       x="0"
       y="0" /><pattern
       id="EMFhbasepattern-3-7"
       patternUnits="userSpaceOnUse"
       width="6"
       height="6"
       x="0"
       y="0" /><pattern
       id="EMFhbasepattern-9-9"
       patternUnits="userSpaceOnUse"
       width="6"
       height="6"
       x="0"
       y="0" /><pattern
       id="EMFhbasepattern-0-25"
       patternUnits="userSpaceOnUse"
       width="6"
       height="6"
       x="0"
       y="0" /><pattern
       id="EMFhbasepattern-8-4"
       patternUnits="userSpaceOnUse"
       width="6"
       height="6"
       x="0"
       y="0" /></defs><sodipodi:namedview
     id="namedview1"
     pagecolor="#ffffff"
     bordercolor="#000000"
     borderopacity="0.25"
     inkscape:showpageshadow="2"
     inkscape:pageopacity="0.0"
     inkscape:pagecheckerboard="0"
     inkscape:deskcolor="#d1d1d1"
     showgrid="false"
     showguides="true"
     inkscape:zoom="0.54942194"
     inkscape:cx="643.4035"
     inkscape:cy="497.79592"
     inkscape:window-width="1920"
     inkscape:window-height="991"
     inkscape:window-x="-9"
     inkscape:window-y="-9"
     inkscape:window-maximized="1"
     inkscape:current-layer="svg1"><sodipodi:guide
       position="622.79741,394.86223"
       orientation="0,-1"
       id="guide1"
       inkscape:locked="false" /><sodipodi:guide
       position="999.55699,1095.5987"
       orientation="0,-1"
       id="guide2"
       inkscape:locked="false" /><sodipodi:guide
       position="1430.9361,657.78663"
       orientation="0,-1"
       id="guide3"
       inkscape:locked="false" /><sodipodi:guide
       position="1455.7303,14.236708"
       orientation="0,-1"
       id="guide4"
       inkscape:locked="false" /><sodipodi:guide
       position="740.19414,428.92129"
       orientation="0,-1"
       id="guide5"
       inkscape:locked="false" /></sodipodi:namedview><path
     style="color:#000000;fill:#000000;stroke-linecap:round;stroke-linejoin:round;-inkscape-stroke:none"
     d="m 170.98155,436.13932 c -45.35128,-1.92908 -97.080079,38.39517 -97.080079,116.97461 0,25.37968 4.509462,48.03745 14.972656,66.80273 -35.53458,17.0746 -74.409567,29.15249 -106.136718,29.97656 a 13.15,13.15 0 0 0 -12.804688,13.48633 13.15,13.15 0 0 0 13.488281,12.80469 c 39.221497,-1.01874 82.712748,-15.39644 121.839848,-34.9668 18.50449,17.92981 45.08845,28.80826 79.49805,32.93946 56.9703,6.83981 89.58007,-1.70703 89.58007,-1.70704 a 13.15,13.15 0 0 0 9.25,-16.13085 13.15,13.15 0 0 0 -16.13281,-9.25196 c 0,0 -26.16713,7.38913 -79.5625,0.97852 -26.19638,-3.14512 -44.7647,-10.14176 -57.97851,-20.18555 37.78785,-21.93021 68.75823,-47.10175 82.79882,-72.25781 18.77615,-33.64057 21.867,-62.72995 12.28711,-84.59375 -9.57988,-21.8638 -31.34389,-33.9046 -54.01953,-34.86914 z m -1.11719,26.27539 c 14.62977,0.6223 25.7903,7.14709 31.04883,19.14844 5.25854,12.00134 5.10148,32.07829 -11.16406,61.2207 -9.51144,17.04132 -40.14667,43.55693 -77.59375,64.90234 -8.00661,-13.95263 -11.95508,-31.8119 -11.95508,-54.57226 0,-67.52299 40.40454,-91.94382 69.66406,-90.69922 z"
     id="path4" /><path
     style="color:#000000;fill:#000000;stroke-linecap:round;stroke-linejoin:round;-inkscape-stroke:none"
     d="m 179.66249,301.44338 a 13.151315,13.151315 0 0 0 -13.92578,5.88281 c 0,0 -4.28493,6.86176 -11.31445,16.52735 1.17686,-1.61818 -0.99129,0.93419 -3.89844,3.24414 -2.90715,2.30995 -6.95671,5.31311 -11.66602,8.66797 -9.41861,6.70972 -21.5114,14.876 -33.38671,22.73633 -23.750628,15.72065 -46.646488,30.23047 -46.646488,30.23046 a 13.15,13.15 0 0 0 -4.07031,18.14649 13.15,13.15 0 0 0 18.14648,4.07031 c 0,0 23.06109,-14.61216 47.087888,-30.51562 12.01341,-7.95173 24.26592,-16.22176 34.12891,-23.24805 4.9315,-3.51315 9.25464,-6.7048 12.76758,-9.49609 3.51294,-2.79129 5.80968,-4.24638 8.80664,-8.36719 1.20576,-1.65793 1.82292,-2.63365 2.88086,-4.13477 7.8295,8.16639 18.35217,18.92852 30.73437,30.80274 11.26846,10.80616 23.28013,21.74041 34.31055,30.42968 11.03042,8.68928 19.10183,15.86191 31.80859,17.38672 a 13.15,13.15 0 0 0 14.62305,-11.48828 13.15,13.15 0 0 0 -11.48828,-14.62304 c 1.33118,0.15974 -8.79771,-4.15672 -18.66992,-11.9336 -9.87221,-7.77688 -21.46499,-18.28773 -32.37891,-28.7539 -21.82784,-20.93235 -40.96484,-41.63477 -40.96484,-41.63477 a 13.151315,13.151315 0 0 0 -6.88477,-3.92969 z"
     id="path15" /></svg>
