<?xml version="1.0" encoding="UTF-8" standalone="no"?>
<svg
   version="1.1"
   viewBox="-19 0 290.86231 1065.637"
   id="svg1"
   sodipodi:docname="euml.svg"
   width="290.8623"
   height="1065.6371"
   inkscape:version="1.3 (0e150ed6c4, 2023-07-21)"
   xml:space="preserve"
   xmlns:inkscape="http://www.inkscape.org/namespaces/inkscape"
   xmlns:sodipodi="http://sodipodi.sourceforge.net/DTD/sodipodi-0.dtd"
   xmlns="http://www.w3.org/2000/svg"
   xmlns:svg="http://www.w3.org/2000/svg"><defs
     id="defs1"><pattern
       id="EMFhbasepattern"
       patternUnits="userSpaceOnUse"
       width="6"
       height="6"
       x="0"
       y="0" /><pattern
       id="EMFhbasepattern-2"
       patternUnits="userSpaceOnUse"
       width="6"
       height="6"
       x="0"
       y="0" /><pattern
       id="EMFhbasepattern-3"
       patternUnits="userSpaceOnUse"
       width="6"
       height="6"
       x="0"
       y="0" /><pattern
       id="EMFhbasepattern-9"
       patternUnits="userSpaceOnUse"
       width="6"
       height="6"
       x="0"
       y="0" /><pattern
       id="EMFhbasepattern-0"
       patternUnits="userSpaceOnUse"
       width="6"
       height="6"
       x="0"
       y="0" /><pattern
       id="EMFhbasepattern-8"
       patternUnits="userSpaceOnUse"
       width="6"
       height="6"
       x="0"
       y="0" /><pattern
       id="EMFhbasepattern-1"
       patternUnits="userSpaceOnUse"
       width="6"
       height="6"
       x="0"
       y="0" /><pattern
       id="EMFhbasepattern-7"
       patternUnits="userSpaceOnUse"
       width="6"
       height="6"
       x="0"
       y="0" /><pattern
       id="EMFhbasepattern-04"
       patternUnits="userSpaceOnUse"
       width="6"
       height="6"
       x="0"
       y="0" /><pattern
       id="EMFhbasepattern-2-6"
       patternUnits="userSpaceOnUse"
       width="6"
       height="6"
       x="0"
       y="0" /><pattern
       id="EMFhbasepattern-3-6"
       patternUnits="userSpaceOnUse"
       width="6"
       height="6"
       x="0"
       y="0" /><pattern
       id="EMFhbasepattern-9-8"
       patternUnits="userSpaceOnUse"
       width="6"
       height="6"
       x="0"
       y="0" /><pattern
       id="EMFhbasepattern-0-8"
       patternUnits="userSpaceOnUse"
       width="6"
       height="6"
       x="0"
       y="0" /><pattern
       id="EMFhbasepattern-8-7"
       patternUnits="userSpaceOnUse"
       width="6"
       height="6"
       x="0"
       y="0" /><pattern
       id="EMFhbasepattern-5"
       patternUnits="userSpaceOnUse"
       width="6"
       height="6"
       x="0"
       y="0" /><pattern
       id="EMFhbasepattern-2-8"
       patternUnits="userSpaceOnUse"
       width="6"
       height="6"
       x="0"
       y="0" /><pattern
       id="EMFhbasepattern-3-9"
       patternUnits="userSpaceOnUse"
       width="6"
       height="6"
       x="0"
       y="0" /><pattern
       id="EMFhbasepattern-9-3"
       patternUnits="userSpaceOnUse"
       width="6"
       height="6"
       x="0"
       y="0" /><pattern
       id="EMFhbasepattern-0-3"
       patternUnits="userSpaceOnUse"
       width="6"
       height="6"
       x="0"
       y="0" /><pattern
       id="EMFhbasepattern-8-0"
       patternUnits="userSpaceOnUse"
       width="6"
       height="6"
       x="0"
       y="0" /><pattern
       id="EMFhbasepattern-70"
       patternUnits="userSpaceOnUse"
       width="6"
       height="6"
       x="0"
       y="0" /><pattern
       id="EMFhbasepattern-2-4"
       patternUnits="userSpaceOnUse"
       width="6"
       height="6"
       x="0"
       y="0" /><pattern
       id="EMFhbasepattern-3-5"
       patternUnits="userSpaceOnUse"
       width="6"
       height="6"
       x="0"
       y="0" /><pattern
       id="EMFhbasepattern-9-39"
       patternUnits="userSpaceOnUse"
       width="6"
       height="6"
       x="0"
       y="0" /><pattern
       id="EMFhbasepattern-0-2"
       patternUnits="userSpaceOnUse"
       width="6"
       height="6"
       x="0"
       y="0" /><pattern
       id="EMFhbasepattern-8-1"
       patternUnits="userSpaceOnUse"
       width="6"
       height="6"
       x="0"
       y="0" /><pattern
       id="EMFhbasepattern-4"
       patternUnits="userSpaceOnUse"
       width="6"
       height="6"
       x="0"
       y="0" /><pattern
       id="EMFhbasepattern-2-5"
       patternUnits="userSpaceOnUse"
       width="6"
       height="6"
       x="0"
       y="0" /><pattern
       id="EMFhbasepattern-3-7"
       patternUnits="userSpaceOnUse"
       width="6"
       height="6"
       x="0"
       y="0" /><pattern
       id="EMFhbasepattern-9-9"
       patternUnits="userSpaceOnUse"
       width="6"
       height="6"
       x="0"
       y="0" /><pattern
       id="EMFhbasepattern-0-25"
       patternUnits="userSpaceOnUse"
       width="6"
       height="6"
       x="0"
       y="0" /><pattern
       id="EMFhbasepattern-8-4"
       patternUnits="userSpaceOnUse"
       width="6"
       height="6"
       x="0"
       y="0" /></defs><sodipodi:namedview
     id="namedview1"
     pagecolor="#ffffff"
     bordercolor="#000000"
     borderopacity="0.25"
     inkscape:showpageshadow="2"
     inkscape:pageopacity="0.0"
     inkscape:pagecheckerboard="0"
     inkscape:deskcolor="#d1d1d1"
     showgrid="false"
     showguides="true"
     inkscape:zoom="0.54942194"
     inkscape:cx="643.4035"
     inkscape:cy="497.79592"
     inkscape:window-width="1920"
     inkscape:window-height="991"
     inkscape:window-x="-9"
     inkscape:window-y="-9"
     inkscape:window-maximized="1"
     inkscape:current-layer="svg1"><sodipodi:guide
       position="622.79741,394.86223"
       orientation="0,-1"
       id="guide1"
       inkscape:locked="false" /><sodipodi:guide
       position="999.55699,1095.5987"
       orientation="0,-1"
       id="guide2"
       inkscape:locked="false" /><sodipodi:guide
       position="1430.9361,657.78663"
       orientation="0,-1"
       id="guide3"
       inkscape:locked="false" /><sodipodi:guide
       position="1455.7303,14.236708"
       orientation="0,-1"
       id="guide4"
       inkscape:locked="false" /><sodipodi:guide
       position="740.19414,428.92129"
       orientation="0,-1"
       id="guide5"
       inkscape:locked="false" /></sodipodi:namedview><path
     style="color:#000000;fill:#000000;stroke-linecap:round;stroke-linejoin:round;-inkscape-stroke:none"
     d="m 170.98155,436.13932 c -45.35128,-1.92908 -97.080079,38.39517 -97.080079,116.97461 0,25.37968 4.509462,48.03745 14.972656,66.80273 -35.53458,17.0746 -74.409567,29.15249 -106.136718,29.97656 a 13.15,13.15 0 0 0 -12.804688,13.48633 13.15,13.15 0 0 0 13.488281,12.80469 c 39.221497,-1.01874 82.712748,-15.39644 121.839848,-34.9668 18.50449,17.92981 45.08845,28.80826 79.49805,32.93946 56.9703,6.83981 89.58007,-1.70703 89.58007,-1.70704 a 13.15,13.15 0 0 0 9.25,-16.13085 13.15,13.15 0 0 0 -16.13281,-9.25196 c 0,0 -26.16713,7.38913 -79.5625,0.97852 -26.19638,-3.14512 -44.7647,-10.14176 -57.97851,-20.18555 37.78785,-21.93021 68.75823,-47.10175 82.79882,-72.25781 18.77615,-33.64057 21.867,-62.72995 12.28711,-84.59375 -9.57988,-21.8638 -31.34389,-33.9046 -54.01953,-34.86914 z m -1.11719,26.27539 c 14.62977,0.6223 25.7903,7.14709 31.04883,19.14844 5.25854,12.00134 5.10148,32.07829 -11.16406,61.2207 -9.51144,17.04132 -40.14667,43.55693 -77.59375,64.90234 -8.00661,-13.95263 -11.95508,-31.8119 -11.95508,-54.57226 0,-67.52299 40.40454,-91.94382 69.66406,-90.69922 z"
     id="path4" /><path
     style="color:#000000;fill:#000000;stroke-linecap:round;stroke-linejoin:round;-inkscape-stroke:none"
     d="m 96.173944,344.42783 a 13.15,13.15 0 0 0 -14.2851,11.90625 c 0.423,-4.65364 0.8981,-2.43312 -1.5781,-0.22851 -2.4763,2.20461 -6.5053,5.09707 -10.6758,7.85937 -4.1705,2.7623 -8.4673,5.42493 -12.0957,7.88086 -1.8142,1.22797 -3.4332,2.34996 -5.1407,3.82032 -0.8537,0.73517 -1.7383,1.5155 -2.8535,2.93359 -1.1151,1.41809 -3.203099,3.52432 -3.203099,8.95703 a 13.15,13.15 0 0 0 13.150399,13.14844 13.15,13.15 0 0 0 10.8672,-6.05274 c -0.036,0.0424 -0.1125,0.16685 -0.1426,0.20508 -0.6081,0.77333 -0.7499,0.81895 -0.6562,0.73828 0.1873,-0.16132 1.2786,-0.99465 2.7207,-1.9707 2.884,-1.95211 7.2882,-4.69317 11.8769,-7.73242 4.5887,-3.03925 9.3769,-6.34657 13.6406,-10.14258 4.263796,-3.79601 9.403196,-7.37626 10.281296,-17.03516 A 13.15,13.15 0 0 0 96.173944,344.42783 Z m -23.5312,43.12891 c 0,3.65854 -0.9006,5.19331 -1.6621,6.20117 a 13.15,13.15 0 0 0 1.6621,-6.20117 z"
     id="path17" /><path
     style="color:#000000;fill:#000000;stroke-linecap:round;stroke-linejoin:round;-inkscape-stroke:none"
     d="m 298.54705,346.49424 a 13.15,13.15 0 0 0 -15.9786,9.51367 c 0.6798,-2.68086 -0.493,0.67932 -2.9687,3.61328 -2.4757,2.93397 -5.9812,6.54725 -9.5391,9.93946 -3.5579,3.3922 -7.201,6.60732 -9.9902,8.91797 -1.3946,1.15532 -2.5899,2.09306 -3.332,2.63867 -0.7421,0.54561 -2.6323,0.95536 1.1933,-0.39649 a 13.15,13.15 0 0 0 -8.0176,16.78125 13.15,13.15 0 0 0 16.7813,8.01758 c 4.599,-1.62515 4.2491,-2.20417 5.6211,-3.21289 1.372,-1.00872 2.8637,-2.19119 4.5332,-3.57422 3.339,-2.76605 7.3334,-6.2982 11.3594,-10.13672 4.026,-3.83851 8.0519,-7.93893 11.4902,-12.01367 3.4383,-4.07474 6.5632,-7.01786 8.3613,-14.10937 a 13.15,13.15 0 0 0 -9.5136,-15.97852 z"
     id="path18" /></svg>
