<?xml version="1.0" encoding="UTF-8" standalone="no"?>
<svg
   version="1.1"
   viewBox="-19 0 290.86231 1065.637"
   id="svg1"
   sodipodi:docname="f.svg"
   width="290.8623"
   height="1065.6371"
   inkscape:version="1.3 (0e150ed6c4, 2023-07-21)"
   xml:space="preserve"
   xmlns:inkscape="http://www.inkscape.org/namespaces/inkscape"
   xmlns:sodipodi="http://sodipodi.sourceforge.net/DTD/sodipodi-0.dtd"
   xmlns="http://www.w3.org/2000/svg"
   xmlns:svg="http://www.w3.org/2000/svg"><defs
     id="defs1"><pattern
       id="EMFhbasepattern"
       patternUnits="userSpaceOnUse"
       width="6"
       height="6"
       x="0"
       y="0" /><pattern
       id="EMFhbasepattern-2"
       patternUnits="userSpaceOnUse"
       width="6"
       height="6"
       x="0"
       y="0" /><pattern
       id="EMFhbasepattern-3"
       patternUnits="userSpaceOnUse"
       width="6"
       height="6"
       x="0"
       y="0" /><pattern
       id="EMFhbasepattern-9"
       patternUnits="userSpaceOnUse"
       width="6"
       height="6"
       x="0"
       y="0" /><pattern
       id="EMFhbasepattern-0"
       patternUnits="userSpaceOnUse"
       width="6"
       height="6"
       x="0"
       y="0" /><pattern
       id="EMFhbasepattern-8"
       patternUnits="userSpaceOnUse"
       width="6"
       height="6"
       x="0"
       y="0" /><pattern
       id="EMFhbasepattern-1"
       patternUnits="userSpaceOnUse"
       width="6"
       height="6"
       x="0"
       y="0" /><pattern
       id="EMFhbasepattern-7"
       patternUnits="userSpaceOnUse"
       width="6"
       height="6"
       x="0"
       y="0" /><pattern
       id="EMFhbasepattern-04"
       patternUnits="userSpaceOnUse"
       width="6"
       height="6"
       x="0"
       y="0" /><pattern
       id="EMFhbasepattern-2-6"
       patternUnits="userSpaceOnUse"
       width="6"
       height="6"
       x="0"
       y="0" /><pattern
       id="EMFhbasepattern-3-6"
       patternUnits="userSpaceOnUse"
       width="6"
       height="6"
       x="0"
       y="0" /><pattern
       id="EMFhbasepattern-9-8"
       patternUnits="userSpaceOnUse"
       width="6"
       height="6"
       x="0"
       y="0" /><pattern
       id="EMFhbasepattern-0-8"
       patternUnits="userSpaceOnUse"
       width="6"
       height="6"
       x="0"
       y="0" /><pattern
       id="EMFhbasepattern-8-7"
       patternUnits="userSpaceOnUse"
       width="6"
       height="6"
       x="0"
       y="0" /><pattern
       id="EMFhbasepattern-5"
       patternUnits="userSpaceOnUse"
       width="6"
       height="6"
       x="0"
       y="0" /><pattern
       id="EMFhbasepattern-2-8"
       patternUnits="userSpaceOnUse"
       width="6"
       height="6"
       x="0"
       y="0" /><pattern
       id="EMFhbasepattern-3-9"
       patternUnits="userSpaceOnUse"
       width="6"
       height="6"
       x="0"
       y="0" /><pattern
       id="EMFhbasepattern-9-3"
       patternUnits="userSpaceOnUse"
       width="6"
       height="6"
       x="0"
       y="0" /><pattern
       id="EMFhbasepattern-0-3"
       patternUnits="userSpaceOnUse"
       width="6"
       height="6"
       x="0"
       y="0" /><pattern
       id="EMFhbasepattern-8-0"
       patternUnits="userSpaceOnUse"
       width="6"
       height="6"
       x="0"
       y="0" /><pattern
       id="EMFhbasepattern-70"
       patternUnits="userSpaceOnUse"
       width="6"
       height="6"
       x="0"
       y="0" /><pattern
       id="EMFhbasepattern-2-4"
       patternUnits="userSpaceOnUse"
       width="6"
       height="6"
       x="0"
       y="0" /><pattern
       id="EMFhbasepattern-3-5"
       patternUnits="userSpaceOnUse"
       width="6"
       height="6"
       x="0"
       y="0" /><pattern
       id="EMFhbasepattern-9-39"
       patternUnits="userSpaceOnUse"
       width="6"
       height="6"
       x="0"
       y="0" /><pattern
       id="EMFhbasepattern-0-2"
       patternUnits="userSpaceOnUse"
       width="6"
       height="6"
       x="0"
       y="0" /><pattern
       id="EMFhbasepattern-8-1"
       patternUnits="userSpaceOnUse"
       width="6"
       height="6"
       x="0"
       y="0" /><pattern
       id="EMFhbasepattern-4"
       patternUnits="userSpaceOnUse"
       width="6"
       height="6"
       x="0"
       y="0" /><pattern
       id="EMFhbasepattern-2-5"
       patternUnits="userSpaceOnUse"
       width="6"
       height="6"
       x="0"
       y="0" /><pattern
       id="EMFhbasepattern-3-7"
       patternUnits="userSpaceOnUse"
       width="6"
       height="6"
       x="0"
       y="0" /><pattern
       id="EMFhbasepattern-9-9"
       patternUnits="userSpaceOnUse"
       width="6"
       height="6"
       x="0"
       y="0" /><pattern
       id="EMFhbasepattern-0-25"
       patternUnits="userSpaceOnUse"
       width="6"
       height="6"
       x="0"
       y="0" /><pattern
       id="EMFhbasepattern-8-4"
       patternUnits="userSpaceOnUse"
       width="6"
       height="6"
       x="0"
       y="0" /><pattern
       id="EMFhbasepattern-6"
       patternUnits="userSpaceOnUse"
       width="6"
       height="6"
       x="0"
       y="0" /></defs><sodipodi:namedview
     id="namedview1"
     pagecolor="#ffffff"
     bordercolor="#000000"
     borderopacity="0.25"
     inkscape:showpageshadow="2"
     inkscape:pageopacity="0.0"
     inkscape:pagecheckerboard="0"
     inkscape:deskcolor="#d1d1d1"
     showgrid="false"
     showguides="true"
     inkscape:zoom="0.54942194"
     inkscape:cx="162.89848"
     inkscape:cy="497.79592"
     inkscape:window-width="1920"
     inkscape:window-height="991"
     inkscape:window-x="-9"
     inkscape:window-y="-9"
     inkscape:window-maximized="1"
     inkscape:current-layer="svg1"><sodipodi:guide
       position="622.79741,394.86223"
       orientation="0,-1"
       id="guide1"
       inkscape:locked="false" /><sodipodi:guide
       position="999.55699,1095.5987"
       orientation="0,-1"
       id="guide2"
       inkscape:locked="false" /><sodipodi:guide
       position="1430.9361,657.78663"
       orientation="0,-1"
       id="guide3"
       inkscape:locked="false" /><sodipodi:guide
       position="1455.7303,14.236708"
       orientation="0,-1"
       id="guide4"
       inkscape:locked="false" /><sodipodi:guide
       position="740.19414,428.92129"
       orientation="0,-1"
       id="guide5"
       inkscape:locked="false" /></sodipodi:namedview><path
     style="color:#000000;fill:#000000;stroke-linecap:round;stroke-linejoin:round;-inkscape-stroke:none"
     d="m 452.27161,-17.607422 c -4.69499,-0.317452 -9.44328,0.589711 -13.11133,2.412109 -7.33611,3.644798 -13.28221,9.3655956 -19.88281,17.0117192 C 406.07625,17.108654 390.97351,40.759996 373.01184,73.173828 319.97018,168.89338 243.09168,341.09944 147.00598,577.10937 c -1.30908,0.82358 -2.97946,2.00278 -4.0957,2.64063 -24.67656,14.1009 -70.640438,29.16437 -109.583988,39.98242 -38.9435505,10.81805 -71.16015,17.79688 -71.16015,17.79688 -7.179308,1.55471 -11.738765,8.63524 -10.1836,15.81445 1.554713,7.17931 8.635251,11.73876 15.81446,10.18359 0,0 32.90145952,-7.12478 72.64843,-18.16601 4.46736,-1.24098 9.19111,-2.68366 13.79102,-4.01172 0.0608,0.48865 0.0494,0.93335 0.13672,1.43164 1.20003,6.84651 4.99107,15.6188 13.10742,23.40039 11.49739,11.02319 22.25027,20.22173 32.44727,27.88281 -20.05626,50.29848 -40.61446,102.27898 -62.07813,157.30664 -0.05301,0.13523 -0.103792,0.27132 -0.15234,0.40821 l -68.08399,193.0098 c -2.283077,6.501 0.776272,13.6693 7.049858,16.5183 6.273586,2.8491 13.6843411,0.4357 17.0771015,-5.5613 C 13.649852,1020.4395 79.987022,917.12468 122.00598,819.96289 c 14.74406,-34.09315 26.57539,-67.34375 32.34961,-97.70117 21.60162,5.51659 41.01831,2.82942 57.61523,-3.55664 35.95027,-13.83272 53.97237,-47.72662 90.065,-56.79908 7.32525,-0.54057 12.82541,-6.91692 12.28515,-14.24219 -0.53955,-7.32603 -6.91621,-12.82734 -14.24219,-12.28711 -46.45116,8.27491 -69.5499,47.68786 -97.66069,58.50416 -13.83471,5.32324 -26.95971,7.18731 -44.63281,1.79883 0.21328,-3.5035 0.46469,-7.02492 0.45117,-10.41407 -0.0614,-15.40015 -2.6999,-29.87131 -9.0918,-42.30859 6.39854,-15.87363 13.05099,-32.59793 19.28907,-47.9375 33.98141,-23.12168 91.86894,-74.12097 149.4414,-144.6582 65.2391,-79.93032 128.5918,-184.12898 147.15234,-298.16992 7.59927,-46.69191 11.69192,-82.665373 12.375,-109.048832 0.34155,-13.191729 -0.13164,-23.964709 -1.70117,-32.9375 -1.56952,-8.9727912 -3.7405,-16.7262178 -10.64258,-22.876953 -3.45103,-3.075368 -8.09211,-4.618095 -12.7871,-4.935547 z m -3.83399,28.128906 c 0.37623,1.149797 0.75612,2.514067 1.0625,4.265625 1.07871,6.166869 1.62609,15.555946 1.3125,27.667969 -0.62718,24.224045 -4.54673,59.429982 -12.03906,105.464842 -17.42247,107.04832 -78.11841,207.95941 -141.50586,285.6211 -38.1213,46.70585 -77.54319,85.01472 -108.16406,111.24804 87.79797,-213.58535 158.62426,-371.10604 207.17578,-458.722654 17.52913,-31.633266 32.35309,-54.381954 43.13281,-66.86914 3.81754,-4.422227 6.78544,-6.982111 9.02539,-8.675782 z M 93.306762,607.12891 l 0.17578,0.0234 c -0.026,-0.004 -0.0502,-0.002 -0.0762,-0.006 -0.0341,-0.004 -0.0655,-0.0132 -0.0996,-0.0176 z m 38.464848,7.65234 c -0.73514,1.81869 -1.51076,3.76791 -2.24805,5.59375 -1.43349,-1.00188 -2.93738,-1.93142 -4.47266,-2.83203 2.24856,-0.91948 4.54595,-1.82305 6.72071,-2.76172 z m -77.144538,15.01953 c 0,0 -0.13834,1.04804 -0.20898,1.41602 -0.0132,0.11616 -0.18945,0.86328 -0.18945,0.86328 z m 30.30274,3.2832 c 1.18655,-5.3e-4 2.75275,0.113 4.82422,0.40625 0.05854,0.008 0.117135,0.016 0.17578,0.0234 14.300828,1.83033 23.014308,6.40664 29.164058,12.83008 -2.93793,7.30897 -5.86326,14.57769 -8.83398,21.99609 -7.60336,-6.03417 -15.670518,-13.01764 -24.371098,-21.35937 -4.17383,-4.00169 -4.98392,-6.9072 -5.31445,-8.79297 -0.33053,-1.88577 -0.24414,-1.53711 -0.24414,-1.53711 0.19954,-0.74733 0.333511,-1.51064 0.40039,-2.28125 0,0 -0.008,0.30085 0.27344,-0.0195 0.21134,-0.24029 0.36612,-1.26403 3.92578,-1.26563 z m 37.658198,75.96485 c 2.17143,1.232 4.31864,2.38497 6.44336,3.46679 -4.88739,28.1279 -16.35431,62.00681 -31.439448,96.88868 -16.29846,37.68744 -36.45801,76.36247 -56.18555,111.82812 l 21.30469,-60.39844 C 83.365702,807.88187 103.22528,757.63013 122.58801,709.04883 Z"
     id="path12"
     sodipodi:nodetypes="sssscsscccsccsccccscscscccscsccsssssscsssscssccccccccccccccsscccsscccssccsccc" /></svg>
