<?xml version="1.0" encoding="UTF-8" standalone="no"?>
<svg
   version="1.1"
   viewBox="-19 0 290.86231 1065.637"
   id="svg1"
   sodipodi:docname="g.svg"
   width="290.8623"
   height="1065.6371"
   inkscape:version="1.3 (0e150ed6c4, 2023-07-21)"
   xml:space="preserve"
   xmlns:inkscape="http://www.inkscape.org/namespaces/inkscape"
   xmlns:sodipodi="http://sodipodi.sourceforge.net/DTD/sodipodi-0.dtd"
   xmlns="http://www.w3.org/2000/svg"
   xmlns:svg="http://www.w3.org/2000/svg"><defs
     id="defs1"><pattern
       id="EMFhbasepattern"
       patternUnits="userSpaceOnUse"
       width="6"
       height="6"
       x="0"
       y="0" /><pattern
       id="EMFhbasepattern-2"
       patternUnits="userSpaceOnUse"
       width="6"
       height="6"
       x="0"
       y="0" /><pattern
       id="EMFhbasepattern-3"
       patternUnits="userSpaceOnUse"
       width="6"
       height="6"
       x="0"
       y="0" /><pattern
       id="EMFhbasepattern-9"
       patternUnits="userSpaceOnUse"
       width="6"
       height="6"
       x="0"
       y="0" /><pattern
       id="EMFhbasepattern-0"
       patternUnits="userSpaceOnUse"
       width="6"
       height="6"
       x="0"
       y="0" /><pattern
       id="EMFhbasepattern-8"
       patternUnits="userSpaceOnUse"
       width="6"
       height="6"
       x="0"
       y="0" /><pattern
       id="EMFhbasepattern-1"
       patternUnits="userSpaceOnUse"
       width="6"
       height="6"
       x="0"
       y="0" /><pattern
       id="EMFhbasepattern-7"
       patternUnits="userSpaceOnUse"
       width="6"
       height="6"
       x="0"
       y="0" /><pattern
       id="EMFhbasepattern-04"
       patternUnits="userSpaceOnUse"
       width="6"
       height="6"
       x="0"
       y="0" /><pattern
       id="EMFhbasepattern-2-6"
       patternUnits="userSpaceOnUse"
       width="6"
       height="6"
       x="0"
       y="0" /><pattern
       id="EMFhbasepattern-3-6"
       patternUnits="userSpaceOnUse"
       width="6"
       height="6"
       x="0"
       y="0" /><pattern
       id="EMFhbasepattern-9-8"
       patternUnits="userSpaceOnUse"
       width="6"
       height="6"
       x="0"
       y="0" /><pattern
       id="EMFhbasepattern-0-8"
       patternUnits="userSpaceOnUse"
       width="6"
       height="6"
       x="0"
       y="0" /><pattern
       id="EMFhbasepattern-8-7"
       patternUnits="userSpaceOnUse"
       width="6"
       height="6"
       x="0"
       y="0" /><pattern
       id="EMFhbasepattern-5"
       patternUnits="userSpaceOnUse"
       width="6"
       height="6"
       x="0"
       y="0" /><pattern
       id="EMFhbasepattern-2-8"
       patternUnits="userSpaceOnUse"
       width="6"
       height="6"
       x="0"
       y="0" /><pattern
       id="EMFhbasepattern-3-9"
       patternUnits="userSpaceOnUse"
       width="6"
       height="6"
       x="0"
       y="0" /><pattern
       id="EMFhbasepattern-9-3"
       patternUnits="userSpaceOnUse"
       width="6"
       height="6"
       x="0"
       y="0" /><pattern
       id="EMFhbasepattern-0-3"
       patternUnits="userSpaceOnUse"
       width="6"
       height="6"
       x="0"
       y="0" /><pattern
       id="EMFhbasepattern-8-0"
       patternUnits="userSpaceOnUse"
       width="6"
       height="6"
       x="0"
       y="0" /><pattern
       id="EMFhbasepattern-70"
       patternUnits="userSpaceOnUse"
       width="6"
       height="6"
       x="0"
       y="0" /><pattern
       id="EMFhbasepattern-2-4"
       patternUnits="userSpaceOnUse"
       width="6"
       height="6"
       x="0"
       y="0" /><pattern
       id="EMFhbasepattern-3-5"
       patternUnits="userSpaceOnUse"
       width="6"
       height="6"
       x="0"
       y="0" /><pattern
       id="EMFhbasepattern-9-39"
       patternUnits="userSpaceOnUse"
       width="6"
       height="6"
       x="0"
       y="0" /><pattern
       id="EMFhbasepattern-0-2"
       patternUnits="userSpaceOnUse"
       width="6"
       height="6"
       x="0"
       y="0" /><pattern
       id="EMFhbasepattern-8-1"
       patternUnits="userSpaceOnUse"
       width="6"
       height="6"
       x="0"
       y="0" /><pattern
       id="EMFhbasepattern-4"
       patternUnits="userSpaceOnUse"
       width="6"
       height="6"
       x="0"
       y="0" /><pattern
       id="EMFhbasepattern-2-5"
       patternUnits="userSpaceOnUse"
       width="6"
       height="6"
       x="0"
       y="0" /><pattern
       id="EMFhbasepattern-3-7"
       patternUnits="userSpaceOnUse"
       width="6"
       height="6"
       x="0"
       y="0" /><pattern
       id="EMFhbasepattern-9-9"
       patternUnits="userSpaceOnUse"
       width="6"
       height="6"
       x="0"
       y="0" /><pattern
       id="EMFhbasepattern-0-25"
       patternUnits="userSpaceOnUse"
       width="6"
       height="6"
       x="0"
       y="0" /><pattern
       id="EMFhbasepattern-8-4"
       patternUnits="userSpaceOnUse"
       width="6"
       height="6"
       x="0"
       y="0" /><pattern
       id="EMFhbasepattern-6"
       patternUnits="userSpaceOnUse"
       width="6"
       height="6"
       x="0"
       y="0" /><pattern
       id="EMFhbasepattern-29"
       patternUnits="userSpaceOnUse"
       width="6"
       height="6"
       x="0"
       y="0" /></defs><sodipodi:namedview
     id="namedview1"
     pagecolor="#ffffff"
     bordercolor="#000000"
     borderopacity="0.25"
     inkscape:showpageshadow="2"
     inkscape:pageopacity="0.0"
     inkscape:pagecheckerboard="0"
     inkscape:deskcolor="#d1d1d1"
     showgrid="false"
     showguides="true"
     inkscape:zoom="0.54942194"
     inkscape:cx="272.10417"
     inkscape:cy="829.05317"
     inkscape:window-width="1920"
     inkscape:window-height="991"
     inkscape:window-x="-9"
     inkscape:window-y="-9"
     inkscape:window-maximized="1"
     inkscape:current-layer="svg1"><sodipodi:guide
       position="622.79741,394.86223"
       orientation="0,-1"
       id="guide1"
       inkscape:locked="false" /><sodipodi:guide
       position="999.55699,1095.5987"
       orientation="0,-1"
       id="guide2"
       inkscape:locked="false" /><sodipodi:guide
       position="1430.9361,657.78663"
       orientation="0,-1"
       id="guide3"
       inkscape:locked="false" /><sodipodi:guide
       position="1455.7303,14.236708"
       orientation="0,-1"
       id="guide4"
       inkscape:locked="false" /><sodipodi:guide
       position="740.19414,428.92129"
       orientation="0,-1"
       id="guide5"
       inkscape:locked="false" /></sodipodi:namedview><path
     style="color:#000000;fill:#000000;stroke-linecap:round;stroke-linejoin:round;-inkscape-stroke:none"
     d="m 154.19141,417.74805 c -22.95637,0.4984 -44.1712,3.95974 -63.443363,11.27539 -35.677335,13.54299 -62.745532,41.14796 -78.902344,84.34765 -7.1698375,9.55346 -14.0870798,19.98425 -20.6640624,31.45508 -0.4513343,0.59815 -18.7814256,24.87259 -42.9160156,50.33789 -12.216486,12.89007 -25.823979,25.9291 -38.765625,35.89844 -12.94165,9.96934 -25.47969,16.50305 -33.17383,17.76562 a 13.4,13.4 0 0 0 -11.05273,15.39454 13.4,13.4 0 0 0 15.39258,11.05273 c 15.83481,-2.59842 30.52459,-11.68715 45.187496,-22.98242 14.662905,-11.29528 29.038175,-25.16111 41.863281,-38.69336 11.516034,-12.151 21.449666,-23.74739 29.2851561,-33.20703 -3.1058221,31.52521 8.8142185,59.13642 28.8320309,78.6875 20.175938,19.70551 48.039069,31.9234 77.935546,36.25781 48.21934,6.99087 103.18413,-7.18003 139.29688,-48.16602 -3.21678,14.29576 -6.63661,28.32001 -10.4336,41.80665 -23.43549,12.8293 -52.52666,35.15643 -85.12695,63.15429 -39.03926,33.5278 -82.020779,74.8475 -120.619141,116.00196 -38.598362,41.15445 -72.741348,81.97214 -94.335938,115.32421 -10.797295,16.67602 -18.5707,31.28222 -22.066406,44.73052 -1.747853,6.7241 -2.551548,13.3623 -0.900391,20.248 1.651158,6.8857 6.772221,13.7147 13.378907,17.0977 23.578493,12.0733 54.878797,3.5503 91.197265,-16.4707 36.318468,-20.0211 77.713573,-53.87112 117.498044,-102.28911 47.81512,-58.19135 93.05685,-137.65609 123.25,-239.00195 0.43523,-0.19358 0.9724,-0.49605 1.39063,-0.67188 86.91891,-36.54197 111.27539,-43.76758 111.27539,-43.76758 a 13.4,13.4 0 0 0 9.0039,-16.67382 13.4,13.4 0 0 0 -16.67578,-9.00391 c 0,0 -24.74028,7.82344 -95.97461,37.33008 9.7495,-38.48515 17.3752,-79.79813 22.16602,-124.16797 9.09782,-43.93403 5.20898,-76.29883 5.20898,-76.29883 a 13.40134,13.40134 0 0 0 -26.69531,1.15039 c -0.82135,24.20225 -2.56429,47.47693 -4.94531,70.04883 -3.58319,17.16603 -9.11885,36.10922 -18.41992,55.82617 -26.26712,55.68272 -83.46282,74.54236 -133.62696,67.26953 C 82.533167,665.17804 59.780955,654.77373 44.560547,639.9082 29.340138,625.04268 21.156105,606.40607 23.689453,582.47852 c 2.278638,-21.52181 6.06027,-39.71402 11.169922,-55.24805 42.279247,-55.72232 91.827375,-73.85528 135.755855,-78.04883 15.5348,-1.483 30.17143,-1.0045 43.56055,0.29297 19.49275,2.92659 40.11129,7.0277 62,12.39062 l 0.006,-0.0254 c 0.20561,0.0404 0.53613,0.14804 0.73828,0.18555 a 13.40134,13.40134 0 0 0 5.63281,-26.19141 c -0.35098,-0.086 -0.68461,-0.15274 -1.03515,-0.23828 -1.93429,-0.40571 -17.86616,-5.28385 -37.88086,-9.07226 -6.61817,-1.2527 -14.07046,-2.30849 -21.85742,-3.20508 -23.86111,-3.85177 -46.50752,-6.02799 -67.58789,-5.57031 z m 65.83007,311.33007 C 191.25739,813.25607 151.88911,879.938 110.95117,929.75977 73.080288,975.84891 33.857677,1007.6052 1.2226562,1025.5957 c -32.1191492,17.7061 -57.7078772,19.7894 -65.5878902,16.2285 -0.117418,-0.8024 -0.192907,-3.1224 0.787109,-6.8926 2.128197,-8.1873 8.633698,-21.475 18.625,-36.90621 C -24.970522,967.16297 8.5079073,926.90806 46.435547,886.46875 84.363186,846.02944 126.8112,805.23373 164.9668,772.46484 c 19.94314,-17.12762 38.80697,-31.89398 55.05468,-43.38672 z"
     id="path18" /></svg>
