<?xml version="1.0" encoding="UTF-8" standalone="no"?>
<svg
   version="1.1"
   viewBox="-19 0 290.86231 1065.637"
   id="svg1"
   sodipodi:docname="h.svg"
   width="290.8623"
   height="1065.6371"
   inkscape:version="1.3 (0e150ed6c4, 2023-07-21)"
   xml:space="preserve"
   xmlns:inkscape="http://www.inkscape.org/namespaces/inkscape"
   xmlns:sodipodi="http://sodipodi.sourceforge.net/DTD/sodipodi-0.dtd"
   xmlns="http://www.w3.org/2000/svg"
   xmlns:svg="http://www.w3.org/2000/svg"><defs
     id="defs1"><pattern
       id="EMFhbasepattern"
       patternUnits="userSpaceOnUse"
       width="6"
       height="6"
       x="0"
       y="0" /><pattern
       id="EMFhbasepattern-2"
       patternUnits="userSpaceOnUse"
       width="6"
       height="6"
       x="0"
       y="0" /><pattern
       id="EMFhbasepattern-3"
       patternUnits="userSpaceOnUse"
       width="6"
       height="6"
       x="0"
       y="0" /><pattern
       id="EMFhbasepattern-9"
       patternUnits="userSpaceOnUse"
       width="6"
       height="6"
       x="0"
       y="0" /><pattern
       id="EMFhbasepattern-0"
       patternUnits="userSpaceOnUse"
       width="6"
       height="6"
       x="0"
       y="0" /><pattern
       id="EMFhbasepattern-8"
       patternUnits="userSpaceOnUse"
       width="6"
       height="6"
       x="0"
       y="0" /><pattern
       id="EMFhbasepattern-1"
       patternUnits="userSpaceOnUse"
       width="6"
       height="6"
       x="0"
       y="0" /><pattern
       id="EMFhbasepattern-7"
       patternUnits="userSpaceOnUse"
       width="6"
       height="6"
       x="0"
       y="0" /><pattern
       id="EMFhbasepattern-04"
       patternUnits="userSpaceOnUse"
       width="6"
       height="6"
       x="0"
       y="0" /><pattern
       id="EMFhbasepattern-2-6"
       patternUnits="userSpaceOnUse"
       width="6"
       height="6"
       x="0"
       y="0" /><pattern
       id="EMFhbasepattern-3-6"
       patternUnits="userSpaceOnUse"
       width="6"
       height="6"
       x="0"
       y="0" /><pattern
       id="EMFhbasepattern-9-8"
       patternUnits="userSpaceOnUse"
       width="6"
       height="6"
       x="0"
       y="0" /><pattern
       id="EMFhbasepattern-0-8"
       patternUnits="userSpaceOnUse"
       width="6"
       height="6"
       x="0"
       y="0" /><pattern
       id="EMFhbasepattern-8-7"
       patternUnits="userSpaceOnUse"
       width="6"
       height="6"
       x="0"
       y="0" /><pattern
       id="EMFhbasepattern-5"
       patternUnits="userSpaceOnUse"
       width="6"
       height="6"
       x="0"
       y="0" /><pattern
       id="EMFhbasepattern-2-8"
       patternUnits="userSpaceOnUse"
       width="6"
       height="6"
       x="0"
       y="0" /><pattern
       id="EMFhbasepattern-3-9"
       patternUnits="userSpaceOnUse"
       width="6"
       height="6"
       x="0"
       y="0" /><pattern
       id="EMFhbasepattern-9-3"
       patternUnits="userSpaceOnUse"
       width="6"
       height="6"
       x="0"
       y="0" /><pattern
       id="EMFhbasepattern-0-3"
       patternUnits="userSpaceOnUse"
       width="6"
       height="6"
       x="0"
       y="0" /><pattern
       id="EMFhbasepattern-8-0"
       patternUnits="userSpaceOnUse"
       width="6"
       height="6"
       x="0"
       y="0" /><pattern
       id="EMFhbasepattern-70"
       patternUnits="userSpaceOnUse"
       width="6"
       height="6"
       x="0"
       y="0" /><pattern
       id="EMFhbasepattern-2-4"
       patternUnits="userSpaceOnUse"
       width="6"
       height="6"
       x="0"
       y="0" /><pattern
       id="EMFhbasepattern-3-5"
       patternUnits="userSpaceOnUse"
       width="6"
       height="6"
       x="0"
       y="0" /><pattern
       id="EMFhbasepattern-9-39"
       patternUnits="userSpaceOnUse"
       width="6"
       height="6"
       x="0"
       y="0" /><pattern
       id="EMFhbasepattern-0-2"
       patternUnits="userSpaceOnUse"
       width="6"
       height="6"
       x="0"
       y="0" /><pattern
       id="EMFhbasepattern-8-1"
       patternUnits="userSpaceOnUse"
       width="6"
       height="6"
       x="0"
       y="0" /><pattern
       id="EMFhbasepattern-4"
       patternUnits="userSpaceOnUse"
       width="6"
       height="6"
       x="0"
       y="0" /><pattern
       id="EMFhbasepattern-2-5"
       patternUnits="userSpaceOnUse"
       width="6"
       height="6"
       x="0"
       y="0" /><pattern
       id="EMFhbasepattern-3-7"
       patternUnits="userSpaceOnUse"
       width="6"
       height="6"
       x="0"
       y="0" /><pattern
       id="EMFhbasepattern-9-9"
       patternUnits="userSpaceOnUse"
       width="6"
       height="6"
       x="0"
       y="0" /><pattern
       id="EMFhbasepattern-0-25"
       patternUnits="userSpaceOnUse"
       width="6"
       height="6"
       x="0"
       y="0" /><pattern
       id="EMFhbasepattern-8-4"
       patternUnits="userSpaceOnUse"
       width="6"
       height="6"
       x="0"
       y="0" /><pattern
       id="EMFhbasepattern-6"
       patternUnits="userSpaceOnUse"
       width="6"
       height="6"
       x="0"
       y="0" /><pattern
       id="EMFhbasepattern-29"
       patternUnits="userSpaceOnUse"
       width="6"
       height="6"
       x="0"
       y="0" /><pattern
       id="EMFhbasepattern-14"
       patternUnits="userSpaceOnUse"
       width="6"
       height="6"
       x="0"
       y="0" /></defs><sodipodi:namedview
     id="namedview1"
     pagecolor="#ffffff"
     bordercolor="#000000"
     borderopacity="0.25"
     inkscape:showpageshadow="2"
     inkscape:pageopacity="0.0"
     inkscape:pagecheckerboard="0"
     inkscape:deskcolor="#d1d1d1"
     showgrid="false"
     showguides="true"
     inkscape:zoom="0.77699996"
     inkscape:cx="176.96269"
     inkscape:cy="780.56632"
     inkscape:window-width="1920"
     inkscape:window-height="991"
     inkscape:window-x="-9"
     inkscape:window-y="-9"
     inkscape:window-maximized="1"
     inkscape:current-layer="svg1"><sodipodi:guide
       position="622.79741,394.86223"
       orientation="0,-1"
       id="guide1"
       inkscape:locked="false" /><sodipodi:guide
       position="999.55699,1095.5987"
       orientation="0,-1"
       id="guide2"
       inkscape:locked="false" /><sodipodi:guide
       position="1430.9361,657.78663"
       orientation="0,-1"
       id="guide3"
       inkscape:locked="false" /><sodipodi:guide
       position="1455.7303,14.236708"
       orientation="0,-1"
       id="guide4"
       inkscape:locked="false" /><sodipodi:guide
       position="740.19414,428.92129"
       orientation="0,-1"
       id="guide5"
       inkscape:locked="false" /></sodipodi:namedview><path
     style="color:#000000;fill:#000000;stroke-linecap:round;stroke-linejoin:round;-inkscape-stroke:none"
     d="M 147.65126,-6.1757812 C 130.03064,-5.5176766 114.95566,7.2157527 102.75869,27.599609 90.561716,47.983466 80.080036,77.347952 71.430556,117.96289 c -22.67622,106.47966 -46.34568,230.4773 -57.73828,332.68555 -4.52434,40.58991 -7.0112,77.45333 -6.77148,108.98047 -76.89777,56.65249 -158.691406,77.95507 -158.691406,77.95507 -7.03967,1.78711 -11.29747,8.94291 -9.50977,15.98243 1.78712,7.03967 8.94291,11.29746 15.98243,9.50976 0,0 76.212456,-19.09278 153.527336,-71.89258 1.27016,14.55587 3.40592,27.46858 6.94336,38.45118 4.17769,12.97037 10.29042,24.04498 20.84961,30.69335 10.44014,6.57343 22.14385,9.06571 32.71484,6.73829 10.571,-2.32742 19.1648,-8.57888 26.65235,-16.12891 14.975094,-15.10006 27.068294,-36.57597 40.755864,-58.1543 13.68756,-21.57833 28.66199,-43.07662 46.09179,-57.52734 17.4298,-14.45072 36.30077,-22.3034 62.23047,-18.63086 12.9872,1.83943 19.985,9.13448 27.71094,23.3418 7.72594,14.20731 14.18003,34.326 23.20898,54.94336 9.02896,20.61736 20.94994,42.10306 41.27344,58.13671 20.3235,16.03366 48.6741,16.13335 87.04492,14.7531 7.25871,-0.26046 12.93157,-6.35657 12.66992,-13.61524 -0.26151,-7.25793 -6.3573,-12.92961 -13.61523,-12.66796 -33.686,1.21173 -54.57657,2.90204 -69.81055,-9.11638 -15.23397,-12.01842 -25.18622,-29.11722 -33.47265,-48.03906 -8.28644,-18.92184 -14.59068,-39.29692 -24.19532,-56.95899 -9.60463,-17.66206 -24.50917,-33.61322 -47.125,-36.8164 -33.34759,-4.72317 -61.25026,6.63605 -82.70507,24.42383 -21.45482,17.78778 -37.47805,41.55542 -51.51563,63.68554 -14.037584,22.13013 -26.396934,42.80856 -37.220704,53.72266 -5.41189,5.45705 -10.05472,8.1751 -13.63281,8.96289 -3.5781,0.78779 -6.93609,0.54017 -13.04883,-3.30859 -2.72417,-1.71522 -6.69963,-6.78704 -9.82813,-16.5 -3.12849,-9.71297 -5.3502,-23.42397 -6.38672,-39.99805 -0.1743,-2.7872 -0.13142,-6.10714 -0.24218,-9.05274 18.07015,-14.23512 35.77051,-30.3176 52.06445,-48.67968 C 218.91816,373.64867 238.89876,192.1812 215.93251,85.892578 210.19095,59.320422 201.82937,37.339734 190.92861,21.107422 180.02785,4.8751096 165.27189,-6.8338859 147.65126,-6.1757812 Z m 0.98047,26.2812502 c 5.0997,-0.190466 12.32033,3.538983 20.46289,15.664062 8.14257,12.125079 15.88976,31.421739 21.13086,55.677735 20.9644,97.023984 2.85599,271.693874 -124.253904,414.937504 -10.25821,11.56025 -21.18428,22.16518 -32.42383,31.98632 0.74283,-25.34642 2.82453,-53.77929 6.2832,-84.80859 11.20707,-100.54368 34.73669,-224.06903 57.32227,-330.12305 8.273854,-38.851156 18.357144,-65.930057 28.173834,-82.335934 9.81669,-16.405878 18.20499,-20.807581 23.30468,-20.998047 z"
     id="path28"
     sodipodi:nodetypes="sssscccccsssssssssscscssssssssssscsssssssscssss" /></svg>
