<?xml version="1.0" encoding="UTF-8" standalone="no"?>
<svg
   version="1.1"
   viewBox="-19 0 290.86231 1065.637"
   id="svg1"
   sodipodi:docname="k.svg"
   width="290.8623"
   height="1065.6371"
   inkscape:version="1.3 (0e150ed6c4, 2023-07-21)"
   xml:space="preserve"
   xmlns:inkscape="http://www.inkscape.org/namespaces/inkscape"
   xmlns:sodipodi="http://sodipodi.sourceforge.net/DTD/sodipodi-0.dtd"
   xmlns="http://www.w3.org/2000/svg"
   xmlns:svg="http://www.w3.org/2000/svg"><defs
     id="defs1"><pattern
       id="EMFhbasepattern"
       patternUnits="userSpaceOnUse"
       width="6"
       height="6"
       x="0"
       y="0" /><pattern
       id="EMFhbasepattern-2"
       patternUnits="userSpaceOnUse"
       width="6"
       height="6"
       x="0"
       y="0" /><pattern
       id="EMFhbasepattern-3"
       patternUnits="userSpaceOnUse"
       width="6"
       height="6"
       x="0"
       y="0" /><pattern
       id="EMFhbasepattern-9"
       patternUnits="userSpaceOnUse"
       width="6"
       height="6"
       x="0"
       y="0" /><pattern
       id="EMFhbasepattern-0"
       patternUnits="userSpaceOnUse"
       width="6"
       height="6"
       x="0"
       y="0" /><pattern
       id="EMFhbasepattern-8"
       patternUnits="userSpaceOnUse"
       width="6"
       height="6"
       x="0"
       y="0" /><pattern
       id="EMFhbasepattern-1"
       patternUnits="userSpaceOnUse"
       width="6"
       height="6"
       x="0"
       y="0" /><pattern
       id="EMFhbasepattern-7"
       patternUnits="userSpaceOnUse"
       width="6"
       height="6"
       x="0"
       y="0" /><pattern
       id="EMFhbasepattern-04"
       patternUnits="userSpaceOnUse"
       width="6"
       height="6"
       x="0"
       y="0" /><pattern
       id="EMFhbasepattern-2-6"
       patternUnits="userSpaceOnUse"
       width="6"
       height="6"
       x="0"
       y="0" /><pattern
       id="EMFhbasepattern-3-6"
       patternUnits="userSpaceOnUse"
       width="6"
       height="6"
       x="0"
       y="0" /><pattern
       id="EMFhbasepattern-9-8"
       patternUnits="userSpaceOnUse"
       width="6"
       height="6"
       x="0"
       y="0" /><pattern
       id="EMFhbasepattern-0-8"
       patternUnits="userSpaceOnUse"
       width="6"
       height="6"
       x="0"
       y="0" /><pattern
       id="EMFhbasepattern-8-7"
       patternUnits="userSpaceOnUse"
       width="6"
       height="6"
       x="0"
       y="0" /><pattern
       id="EMFhbasepattern-5"
       patternUnits="userSpaceOnUse"
       width="6"
       height="6"
       x="0"
       y="0" /><pattern
       id="EMFhbasepattern-2-8"
       patternUnits="userSpaceOnUse"
       width="6"
       height="6"
       x="0"
       y="0" /><pattern
       id="EMFhbasepattern-3-9"
       patternUnits="userSpaceOnUse"
       width="6"
       height="6"
       x="0"
       y="0" /><pattern
       id="EMFhbasepattern-9-3"
       patternUnits="userSpaceOnUse"
       width="6"
       height="6"
       x="0"
       y="0" /><pattern
       id="EMFhbasepattern-0-3"
       patternUnits="userSpaceOnUse"
       width="6"
       height="6"
       x="0"
       y="0" /><pattern
       id="EMFhbasepattern-8-0"
       patternUnits="userSpaceOnUse"
       width="6"
       height="6"
       x="0"
       y="0" /><pattern
       id="EMFhbasepattern-70"
       patternUnits="userSpaceOnUse"
       width="6"
       height="6"
       x="0"
       y="0" /><pattern
       id="EMFhbasepattern-2-4"
       patternUnits="userSpaceOnUse"
       width="6"
       height="6"
       x="0"
       y="0" /><pattern
       id="EMFhbasepattern-3-5"
       patternUnits="userSpaceOnUse"
       width="6"
       height="6"
       x="0"
       y="0" /><pattern
       id="EMFhbasepattern-9-39"
       patternUnits="userSpaceOnUse"
       width="6"
       height="6"
       x="0"
       y="0" /><pattern
       id="EMFhbasepattern-0-2"
       patternUnits="userSpaceOnUse"
       width="6"
       height="6"
       x="0"
       y="0" /><pattern
       id="EMFhbasepattern-8-1"
       patternUnits="userSpaceOnUse"
       width="6"
       height="6"
       x="0"
       y="0" /><pattern
       id="EMFhbasepattern-4"
       patternUnits="userSpaceOnUse"
       width="6"
       height="6"
       x="0"
       y="0" /><pattern
       id="EMFhbasepattern-2-5"
       patternUnits="userSpaceOnUse"
       width="6"
       height="6"
       x="0"
       y="0" /><pattern
       id="EMFhbasepattern-3-7"
       patternUnits="userSpaceOnUse"
       width="6"
       height="6"
       x="0"
       y="0" /><pattern
       id="EMFhbasepattern-9-9"
       patternUnits="userSpaceOnUse"
       width="6"
       height="6"
       x="0"
       y="0" /><pattern
       id="EMFhbasepattern-0-25"
       patternUnits="userSpaceOnUse"
       width="6"
       height="6"
       x="0"
       y="0" /><pattern
       id="EMFhbasepattern-8-4"
       patternUnits="userSpaceOnUse"
       width="6"
       height="6"
       x="0"
       y="0" /><pattern
       id="EMFhbasepattern-6"
       patternUnits="userSpaceOnUse"
       width="6"
       height="6"
       x="0"
       y="0" /></defs><sodipodi:namedview
     id="namedview1"
     pagecolor="#ffffff"
     bordercolor="#000000"
     borderopacity="0.25"
     inkscape:showpageshadow="2"
     inkscape:pageopacity="0.0"
     inkscape:pagecheckerboard="0"
     inkscape:deskcolor="#d1d1d1"
     showgrid="false"
     showguides="true"
     inkscape:zoom="0.54942194"
     inkscape:cx="230.24199"
     inkscape:cy="526.91744"
     inkscape:window-width="1920"
     inkscape:window-height="991"
     inkscape:window-x="-9"
     inkscape:window-y="-9"
     inkscape:window-maximized="1"
     inkscape:current-layer="svg1"><sodipodi:guide
       position="355.82852,394.93215"
       orientation="0,-1"
       id="guide1"
       inkscape:locked="false" /><sodipodi:guide
       position="999.55699,1095.5987"
       orientation="0,-1"
       id="guide2"
       inkscape:locked="false" /><sodipodi:guide
       position="1430.9361,657.78663"
       orientation="0,-1"
       id="guide3"
       inkscape:locked="false" /><sodipodi:guide
       position="1455.7303,14.236708"
       orientation="0,-1"
       id="guide4"
       inkscape:locked="false" /><sodipodi:guide
       position="740.19414,428.92129"
       orientation="0,-1"
       id="guide5"
       inkscape:locked="false" /></sodipodi:namedview><path
     id="path28"
     style="color:#000000;fill:#000000;stroke-linecap:round;stroke-linejoin:round;-inkscape-stroke:none"
     d="m 191.35175,12.496163 c -17.67938,0.6581 -33.89209,13.39157 -47.91023,33.77539 -14.01812,20.38382 -27.12341,49.74842 -39.40159,90.363277 C 71.850376,243.11427 37.102296,367.11233 16.577986,469.32038 8.4271662,509.91021 2.6467262,546.77377 0.0696762,578.30085 -81.889524,634.95322 -154.64708,642.09891 -154.64708,642.09891 c -7.19934,1.78712 -12.09647,8.94291 -10.93771,15.98243 1.15816,7.03966 7.93353,11.29745 15.13277,9.50976 0,0 66.480676,-4.83228 148.2211562,-57.24533 -0.32573,6.4178 -0.43215,13.37348 -0.001,20.43164 0.7348,12.03576 2.68562,24.42009 9.01995,34.88476 6.3343298,10.46468 19.6155598,18.22479 35.0158098,15.89063 17.20538,-2.60776 30.9364,-8.25507 41.14018,-17.30859 3.72734,-3.30717 6.68613,-7.05552 9.31879,-10.95704 18.643044,22.42654 39.785854,22.76387 81.775164,22.25977 171.78397,-2.06233 196.83863,-8.6741 196.83863,-8.6741 7.00315,-2.6375 11.03193,-10.26218 8.99804,-17.0293 -2.03371,-6.76674 -9.35915,-10.11331 -16.36147,-7.47461 0,0 -72.35877,7.61209 -182.89862,7.22488 -44.91239,-0.15732 -61.92844,-2.03708 -74.67421,-24.24218 -0.6089,-1.0608 -1.0515,-2.19357 -1.60349,-3.2793 4.11318,-21.14293 3.84469,-44.01482 8.15899,-68.03906 3.67893,-20.48623 10.18005,-41.48595 24.49164,-62.77735 23.70976,-28.89643 57.18495,-56.60019 98.90083,-78.48437 20.07769,-9.84227 43.30646,-19.43576 70.66162,-28.56641 6.95393,-2.35796 11.23486,-9.66768 9.64222,-16.46416 -1.59264,-6.79647 -8.47638,-10.59401 -15.50468,-8.55342 -0.15927,0.0471 -0.30956,0.10513 -0.46869,0.15235 l -0.002,-0.004 c -0.0339,0.0113 -0.063,0.0238 -0.0969,0.0352 -28.23838,8.38682 -54.40328,19.2266 -78.19991,31.90234 -17.08828,8.57403 -31.98469,17.45972 -45.14541,26.57032 67.59834,-116.86734 84.51428,-235.30326 74.6324,-313.27925 -3.36747,-26.572097 -9.76523,-48.552877 -19.2157,-64.785157 -9.45046,-16.23228 -23.16035,-27.9413 -40.83974,-27.2832 z m -1.36762,26.28125 c 5.1167,-0.19047 12.00416,3.53901 19.06339,15.66406 7.05925,12.12506 13.0824,31.42179 16.15636,55.677737 12.29581,97.02378 -21.41868,271.69415 -161.326354,414.9375 -11.29103,11.56021 -23.16464,22.1652 -35.28163,31.98632 3.00739,-25.34636 7.62944,-53.77935 13.8604,-84.80859 20.19007,-100.54348 54.75611,-224.06923 86.816984,-330.12305 11.74497,-38.85107 24.24766,-65.930087 35.5301,-82.335927 11.28245,-16.40585 20.06405,-20.80759 25.18075,-20.99805 z M 76.479496,547.89655 c -8.56997,27.60502 -9.06642,55.09266 0.1819,79.04492 -2.34383,8.47143 -5.39597,14.03568 -10.2756,18.36524 -4.91133,4.35767 -12.60735,8.1836 -26.25384,10.25195 -6.47366,0.98119 -7.53105,-0.15416 -10.40398,-4.90039 -2.87293,-4.74625 -4.99832,-13.88789 -5.60292,-23.79102 -0.0705,-1.15502 -0.0703,-2.32284 -0.10844,-3.48633 0.44913,-0.41331 0.91764,-0.84241 1.35548,-1.24609 -0.44007,-6.552 -0.57972,-13.86646 -0.36468,-21.88867 0.0318,-1.18644 0.14789,-2.54398 0.24077,-3.85352 0.23254,-2.06321 0.45657,-3.91602 0.66742,-5.45898 17.27606,-12.73576 34.33541,-27.04079 50.56389,-43.03711 z"
     sodipodi:nodetypes="csssccccccssscscscsscscccsccccccssccsssscssssccssssccsccc" /></svg>
