<?xml version="1.0" encoding="UTF-8" standalone="no"?>
<svg
   version="1.1"
   viewBox="-19 0 290.86231 1065.637"
   id="svg1"
   sodipodi:docname="m.svg"
   width="290.8623"
   height="1065.6371"
   inkscape:version="1.3 (0e150ed6c4, 2023-07-21)"
   xml:space="preserve"
   xmlns:inkscape="http://www.inkscape.org/namespaces/inkscape"
   xmlns:sodipodi="http://sodipodi.sourceforge.net/DTD/sodipodi-0.dtd"
   xmlns="http://www.w3.org/2000/svg"
   xmlns:svg="http://www.w3.org/2000/svg"><defs
     id="defs1"><pattern
       id="EMFhbasepattern"
       patternUnits="userSpaceOnUse"
       width="6"
       height="6"
       x="0"
       y="0" /><pattern
       id="EMFhbasepattern-2"
       patternUnits="userSpaceOnUse"
       width="6"
       height="6"
       x="0"
       y="0" /><pattern
       id="EMFhbasepattern-3"
       patternUnits="userSpaceOnUse"
       width="6"
       height="6"
       x="0"
       y="0" /><pattern
       id="EMFhbasepattern-9"
       patternUnits="userSpaceOnUse"
       width="6"
       height="6"
       x="0"
       y="0" /><pattern
       id="EMFhbasepattern-0"
       patternUnits="userSpaceOnUse"
       width="6"
       height="6"
       x="0"
       y="0" /><pattern
       id="EMFhbasepattern-8"
       patternUnits="userSpaceOnUse"
       width="6"
       height="6"
       x="0"
       y="0" /><pattern
       id="EMFhbasepattern-1"
       patternUnits="userSpaceOnUse"
       width="6"
       height="6"
       x="0"
       y="0" /><pattern
       id="EMFhbasepattern-7"
       patternUnits="userSpaceOnUse"
       width="6"
       height="6"
       x="0"
       y="0" /><pattern
       id="EMFhbasepattern-04"
       patternUnits="userSpaceOnUse"
       width="6"
       height="6"
       x="0"
       y="0" /><pattern
       id="EMFhbasepattern-2-6"
       patternUnits="userSpaceOnUse"
       width="6"
       height="6"
       x="0"
       y="0" /><pattern
       id="EMFhbasepattern-3-6"
       patternUnits="userSpaceOnUse"
       width="6"
       height="6"
       x="0"
       y="0" /><pattern
       id="EMFhbasepattern-9-8"
       patternUnits="userSpaceOnUse"
       width="6"
       height="6"
       x="0"
       y="0" /><pattern
       id="EMFhbasepattern-0-8"
       patternUnits="userSpaceOnUse"
       width="6"
       height="6"
       x="0"
       y="0" /><pattern
       id="EMFhbasepattern-8-7"
       patternUnits="userSpaceOnUse"
       width="6"
       height="6"
       x="0"
       y="0" /><pattern
       id="EMFhbasepattern-5"
       patternUnits="userSpaceOnUse"
       width="6"
       height="6"
       x="0"
       y="0" /><pattern
       id="EMFhbasepattern-2-8"
       patternUnits="userSpaceOnUse"
       width="6"
       height="6"
       x="0"
       y="0" /><pattern
       id="EMFhbasepattern-3-9"
       patternUnits="userSpaceOnUse"
       width="6"
       height="6"
       x="0"
       y="0" /><pattern
       id="EMFhbasepattern-9-3"
       patternUnits="userSpaceOnUse"
       width="6"
       height="6"
       x="0"
       y="0" /><pattern
       id="EMFhbasepattern-0-3"
       patternUnits="userSpaceOnUse"
       width="6"
       height="6"
       x="0"
       y="0" /><pattern
       id="EMFhbasepattern-8-0"
       patternUnits="userSpaceOnUse"
       width="6"
       height="6"
       x="0"
       y="0" /><pattern
       id="EMFhbasepattern-70"
       patternUnits="userSpaceOnUse"
       width="6"
       height="6"
       x="0"
       y="0" /><pattern
       id="EMFhbasepattern-2-4"
       patternUnits="userSpaceOnUse"
       width="6"
       height="6"
       x="0"
       y="0" /><pattern
       id="EMFhbasepattern-3-5"
       patternUnits="userSpaceOnUse"
       width="6"
       height="6"
       x="0"
       y="0" /><pattern
       id="EMFhbasepattern-9-39"
       patternUnits="userSpaceOnUse"
       width="6"
       height="6"
       x="0"
       y="0" /><pattern
       id="EMFhbasepattern-0-2"
       patternUnits="userSpaceOnUse"
       width="6"
       height="6"
       x="0"
       y="0" /><pattern
       id="EMFhbasepattern-8-1"
       patternUnits="userSpaceOnUse"
       width="6"
       height="6"
       x="0"
       y="0" /><pattern
       id="EMFhbasepattern-4"
       patternUnits="userSpaceOnUse"
       width="6"
       height="6"
       x="0"
       y="0" /><pattern
       id="EMFhbasepattern-2-5"
       patternUnits="userSpaceOnUse"
       width="6"
       height="6"
       x="0"
       y="0" /><pattern
       id="EMFhbasepattern-3-7"
       patternUnits="userSpaceOnUse"
       width="6"
       height="6"
       x="0"
       y="0" /><pattern
       id="EMFhbasepattern-9-9"
       patternUnits="userSpaceOnUse"
       width="6"
       height="6"
       x="0"
       y="0" /><pattern
       id="EMFhbasepattern-0-25"
       patternUnits="userSpaceOnUse"
       width="6"
       height="6"
       x="0"
       y="0" /><pattern
       id="EMFhbasepattern-8-4"
       patternUnits="userSpaceOnUse"
       width="6"
       height="6"
       x="0"
       y="0" /><pattern
       id="EMFhbasepattern-6"
       patternUnits="userSpaceOnUse"
       width="6"
       height="6"
       x="0"
       y="0" /><pattern
       id="EMFhbasepattern-29"
       patternUnits="userSpaceOnUse"
       width="6"
       height="6"
       x="0"
       y="0" /><pattern
       id="EMFhbasepattern-14"
       patternUnits="userSpaceOnUse"
       width="6"
       height="6"
       x="0"
       y="0" /></defs><sodipodi:namedview
     id="namedview1"
     pagecolor="#ffffff"
     bordercolor="#000000"
     borderopacity="0.25"
     inkscape:showpageshadow="2"
     inkscape:pageopacity="0.0"
     inkscape:pagecheckerboard="0"
     inkscape:deskcolor="#d1d1d1"
     showgrid="false"
     showguides="true"
     inkscape:zoom="1.0988439"
     inkscape:cx="-211.58602"
     inkscape:cy="544.66336"
     inkscape:window-width="1920"
     inkscape:window-height="991"
     inkscape:window-x="-9"
     inkscape:window-y="-9"
     inkscape:window-maximized="1"
     inkscape:current-layer="svg1"><sodipodi:guide
       position="622.79741,394.86223"
       orientation="0,-1"
       id="guide1"
       inkscape:locked="false" /><sodipodi:guide
       position="999.55699,1095.5987"
       orientation="0,-1"
       id="guide2"
       inkscape:locked="false" /><sodipodi:guide
       position="1430.9361,657.78663"
       orientation="0,-1"
       id="guide3"
       inkscape:locked="false" /><sodipodi:guide
       position="1455.7303,14.236708"
       orientation="0,-1"
       id="guide4"
       inkscape:locked="false" /><sodipodi:guide
       position="740.19414,428.92129"
       orientation="0,-1"
       id="guide5"
       inkscape:locked="false" /></sodipodi:namedview><path
     style="color:#000000;fill:#000000;stroke-linecap:round;stroke-linejoin:round;-inkscape-stroke:none"
     d="m -92.918478,476.28705 c -2.68238,-0.0991 -5.41057,0.0567 -8.144532,0.48633 -20.24825,3.18186 -36.15829,16.04123 -48.49024,31.76367 -12.33194,15.72244 -11.28596,21.57492 -19.34891,40.44689 -8.06295,18.87196 -14.39633,35.05712 -20.3345,49.7092 -5.93817,14.65208 -13.13592,25.23612 -13.23242,25.30664 -18.9618,13.8567 -45.60547,12.96094 -45.60547,12.96094 -7.24987,-0.43272 -13.47776,5.09386 -13.91016,12.34375 -0.43272,7.24988 5.09386,13.47777 12.34375,13.91016 0,0 34.32884,2.74459 62.68946,-17.98047 11.7341,-8.57493 15.79926,-21.14046 22.08984,-36.66211 6.29058,-15.52165 12.50969,-31.38492 20.14505,-49.25608 7.63535,-17.87116 5.9494,-21.91726 15.85672,-34.54845 9.90732,-12.63119 20.27552,-20.19028 31.878912,-22.01367 4.98994,-0.78414 7.63723,0.019 10.93555,2.30859 3.29831,2.28962 7.04456,6.76205 10.51171,13.38281 6.93432,13.24153 12.32426,34.22438 16.75,55.96094 4.42575,21.73657 8.04196,44.18717 13.29297,62.34375 2.62551,9.07829 5.53505,17.12414 10.16797,24.07227 4.63292,6.94813 12.75971,13.63476 22.75586,13.63476 9.2477802,0 17.3208202,-5.44625 22.2753902,-11.66015 4.9545798,-6.21391 8.1510898,-13.46163 10.9980498,-21.5254 5.69391,-16.12753 9.62212,-35.86439 14.11914,-55.25781 4.49702,-19.39341 9.61427,-38.37953 16.06836,-51.27539 6.45408,-12.89585 12.06982,-17.92874 19.7832,-18.18164 3.80509,-0.12476 6.22281,0.77036 9.44727,3.35938 3.22445,2.58902 6.85801,7.21912 10.29492,13.60546 6.87381,12.7727 12.770008,32.01347 18.494138,51.90625 5.72413,19.89279 11.31378,40.42672 19.48633,57.41993 4.08627,8.4966 8.82192,16.2198 15.30078,22.46289 6.47885,6.24308 15.2506,10.87991 25.03906,11.40429 9.34171,0.50045 18.45385,-2.71303 24.99024,-8.22265 6.53638,-5.50963 10.76328,-12.65545 13.99414,-20.32031 6.4617,-15.32973 9.28195,-33.62582 12.0332,-51.91016 2.75125,-18.28434 5.30747,-36.52693 9.35547,-49.77149 4.048,-13.24455 8.80623,-19.16695 13.17578,-20.4414 1.78626,-0.52099 3.2113,-0.49367 6.58984,1.30859 3.37854,1.80226 7.99384,5.64685 12.88477,11.16797 9.78187,11.04225 20.63928,28.34939 31.35937,46.33594 10.7201,17.98655 21.36823,36.64507 32.34571,51.4668 5.48874,7.41086 11.02112,13.90871 17.35547,19.01953 6.33434,5.11082 14.0871,9.26042 23.26953,8.8125 7.25423,-0.3536 12.84816,-6.52118 12.49414,-13.77539 -0.3536,-7.25423 -6.52118,-12.84816 -13.77539,-12.49414 -0.14556,0.007 -1.98707,-0.1994 -5.47266,-3.01172 -3.48559,-2.81233 -7.99687,-7.8059 -12.73633,-14.20508 -9.47891,-12.79836 -20.02137,-31.04382 -30.88867,-49.27735 -10.8673,-18.23352 -21.99657,-36.46284 -34.26367,-50.31054 -6.13355,-6.92385 -12.55754,-12.86032 -20.19336,-16.9336 -7.63582,-4.07327 -17.19969,-6.01573 -26.33399,-3.35156 -17.47156,5.09587 -25.90847,21.47093 -30.96093,38.00195 -5.05247,16.53103 -7.50191,35.54311 -10.21094,53.54688 -2.70903,18.00377 -5.80482,35.02926 -10.26367,45.60742 -2.22943,5.28908 -4.71368,8.74391 -6.70899,10.42578 -1.9953,1.68188 -3.23387,2.25045 -6.63281,2.06836 -2.95219,-0.15815 -5.10286,-1.09632 -8.19726,-4.07812 -3.09441,-2.9818 -6.58247,-8.1345 -9.84766,-14.92383 -6.53039,-13.57867 -12.14691,-33.25746 -17.91211,-53.29297 -5.7652,-20.03551 -11.64269,-40.43799 -20.60938,-57.09961 -4.48334,-8.33081 -9.7863,-15.86574 -16.988278,-21.64844 -7.20197,-5.78269 -16.70227,-9.46698 -26.77539,-9.13672 -20.04303,0.65715 -33.99348,15.81755 -42.4414,32.69727 -8.44793,16.87973 -13.56648,37.25118 -18.1699198,57.10352 -4.60344,19.85233 -8.63900995,39.25033 -13.29688,52.44336 -2.32893,6.59651 -4.90517,11.55632 -6.7617202,13.88476 -1.56819,1.96679 -1.41083,1.56339 -1.44726,1.48438 -0.15888,-0.22844 -0.35349,-0.47674 -1.13868,-1.6543 -1.96136,-2.94152 -4.53338,-9.0011 -6.78515,-16.78711 -4.50355,-15.57202 -8.22615,-37.88447 -12.78711,-60.28516 -4.56097,-22.40068 -9.80653,-44.92961 -19.22461,-62.91406 -4.70904,-8.99222 -10.56816,-17.0621 -18.8125,-22.78516 -6.18326,-4.29228 -13.822,-6.87468 -21.86914,-7.17187 z"
     id="path1-2"
     sodipodi:nodetypes="sssssscccssssssssssssssssssssssssssssssssccsssssssssssssssssssssscssssss" /></svg>
