<?xml version="1.0" encoding="UTF-8" standalone="no"?>
<svg
   version="1.1"
   viewBox="-19 0 290.86231 1065.637"
   id="svg1"
   sodipodi:docname="ntilde.svg"
   width="290.8623"
   height="1065.6371"
   inkscape:version="1.3 (0e150ed6c4, 2023-07-21)"
   xml:space="preserve"
   xmlns:inkscape="http://www.inkscape.org/namespaces/inkscape"
   xmlns:sodipodi="http://sodipodi.sourceforge.net/DTD/sodipodi-0.dtd"
   xmlns="http://www.w3.org/2000/svg"
   xmlns:svg="http://www.w3.org/2000/svg"><defs
     id="defs1"><pattern
       id="EMFhbasepattern"
       patternUnits="userSpaceOnUse"
       width="6"
       height="6"
       x="0"
       y="0" /><pattern
       id="EMFhbasepattern-2"
       patternUnits="userSpaceOnUse"
       width="6"
       height="6"
       x="0"
       y="0" /><pattern
       id="EMFhbasepattern-3"
       patternUnits="userSpaceOnUse"
       width="6"
       height="6"
       x="0"
       y="0" /><pattern
       id="EMFhbasepattern-9"
       patternUnits="userSpaceOnUse"
       width="6"
       height="6"
       x="0"
       y="0" /><pattern
       id="EMFhbasepattern-0"
       patternUnits="userSpaceOnUse"
       width="6"
       height="6"
       x="0"
       y="0" /><pattern
       id="EMFhbasepattern-8"
       patternUnits="userSpaceOnUse"
       width="6"
       height="6"
       x="0"
       y="0" /><pattern
       id="EMFhbasepattern-1"
       patternUnits="userSpaceOnUse"
       width="6"
       height="6"
       x="0"
       y="0" /><pattern
       id="EMFhbasepattern-7"
       patternUnits="userSpaceOnUse"
       width="6"
       height="6"
       x="0"
       y="0" /><pattern
       id="EMFhbasepattern-04"
       patternUnits="userSpaceOnUse"
       width="6"
       height="6"
       x="0"
       y="0" /><pattern
       id="EMFhbasepattern-2-6"
       patternUnits="userSpaceOnUse"
       width="6"
       height="6"
       x="0"
       y="0" /><pattern
       id="EMFhbasepattern-3-6"
       patternUnits="userSpaceOnUse"
       width="6"
       height="6"
       x="0"
       y="0" /><pattern
       id="EMFhbasepattern-9-8"
       patternUnits="userSpaceOnUse"
       width="6"
       height="6"
       x="0"
       y="0" /><pattern
       id="EMFhbasepattern-0-8"
       patternUnits="userSpaceOnUse"
       width="6"
       height="6"
       x="0"
       y="0" /><pattern
       id="EMFhbasepattern-8-7"
       patternUnits="userSpaceOnUse"
       width="6"
       height="6"
       x="0"
       y="0" /><pattern
       id="EMFhbasepattern-5"
       patternUnits="userSpaceOnUse"
       width="6"
       height="6"
       x="0"
       y="0" /><pattern
       id="EMFhbasepattern-2-8"
       patternUnits="userSpaceOnUse"
       width="6"
       height="6"
       x="0"
       y="0" /><pattern
       id="EMFhbasepattern-3-9"
       patternUnits="userSpaceOnUse"
       width="6"
       height="6"
       x="0"
       y="0" /><pattern
       id="EMFhbasepattern-9-3"
       patternUnits="userSpaceOnUse"
       width="6"
       height="6"
       x="0"
       y="0" /><pattern
       id="EMFhbasepattern-0-3"
       patternUnits="userSpaceOnUse"
       width="6"
       height="6"
       x="0"
       y="0" /><pattern
       id="EMFhbasepattern-8-0"
       patternUnits="userSpaceOnUse"
       width="6"
       height="6"
       x="0"
       y="0" /><pattern
       id="EMFhbasepattern-70"
       patternUnits="userSpaceOnUse"
       width="6"
       height="6"
       x="0"
       y="0" /><pattern
       id="EMFhbasepattern-2-4"
       patternUnits="userSpaceOnUse"
       width="6"
       height="6"
       x="0"
       y="0" /><pattern
       id="EMFhbasepattern-3-5"
       patternUnits="userSpaceOnUse"
       width="6"
       height="6"
       x="0"
       y="0" /><pattern
       id="EMFhbasepattern-9-39"
       patternUnits="userSpaceOnUse"
       width="6"
       height="6"
       x="0"
       y="0" /><pattern
       id="EMFhbasepattern-0-2"
       patternUnits="userSpaceOnUse"
       width="6"
       height="6"
       x="0"
       y="0" /><pattern
       id="EMFhbasepattern-8-1"
       patternUnits="userSpaceOnUse"
       width="6"
       height="6"
       x="0"
       y="0" /><pattern
       id="EMFhbasepattern-4"
       patternUnits="userSpaceOnUse"
       width="6"
       height="6"
       x="0"
       y="0" /><pattern
       id="EMFhbasepattern-2-5"
       patternUnits="userSpaceOnUse"
       width="6"
       height="6"
       x="0"
       y="0" /><pattern
       id="EMFhbasepattern-3-7"
       patternUnits="userSpaceOnUse"
       width="6"
       height="6"
       x="0"
       y="0" /><pattern
       id="EMFhbasepattern-9-9"
       patternUnits="userSpaceOnUse"
       width="6"
       height="6"
       x="0"
       y="0" /><pattern
       id="EMFhbasepattern-0-25"
       patternUnits="userSpaceOnUse"
       width="6"
       height="6"
       x="0"
       y="0" /><pattern
       id="EMFhbasepattern-8-4"
       patternUnits="userSpaceOnUse"
       width="6"
       height="6"
       x="0"
       y="0" /><pattern
       id="EMFhbasepattern-6"
       patternUnits="userSpaceOnUse"
       width="6"
       height="6"
       x="0"
       y="0" /><pattern
       id="EMFhbasepattern-29"
       patternUnits="userSpaceOnUse"
       width="6"
       height="6"
       x="0"
       y="0" /><pattern
       id="EMFhbasepattern-14"
       patternUnits="userSpaceOnUse"
       width="6"
       height="6"
       x="0"
       y="0" /><pattern
       id="EMFhbasepattern-75"
       patternUnits="userSpaceOnUse"
       width="6"
       height="6"
       x="0"
       y="0" /><pattern
       id="EMFhbasepattern-2-7"
       patternUnits="userSpaceOnUse"
       width="6"
       height="6"
       x="0"
       y="0" /><pattern
       id="EMFhbasepattern-3-8"
       patternUnits="userSpaceOnUse"
       width="6"
       height="6"
       x="0"
       y="0" /><pattern
       id="EMFhbasepattern-9-2"
       patternUnits="userSpaceOnUse"
       width="6"
       height="6"
       x="0"
       y="0" /><pattern
       id="EMFhbasepattern-0-7"
       patternUnits="userSpaceOnUse"
       width="6"
       height="6"
       x="0"
       y="0" /><pattern
       id="EMFhbasepattern-8-6"
       patternUnits="userSpaceOnUse"
       width="6"
       height="6"
       x="0"
       y="0" /></defs><sodipodi:namedview
     id="namedview1"
     pagecolor="#ffffff"
     bordercolor="#000000"
     borderopacity="0.25"
     inkscape:showpageshadow="2"
     inkscape:pageopacity="0.0"
     inkscape:pagecheckerboard="0"
     inkscape:deskcolor="#d1d1d1"
     showgrid="false"
     showguides="true"
     inkscape:zoom="0.54942194"
     inkscape:cx="-10.010521"
     inkscape:cy="374.02948"
     inkscape:window-width="1920"
     inkscape:window-height="991"
     inkscape:window-x="-9"
     inkscape:window-y="-9"
     inkscape:window-maximized="1"
     inkscape:current-layer="svg1"><sodipodi:guide
       position="622.79741,394.86223"
       orientation="0,-1"
       id="guide1"
       inkscape:locked="false" /><sodipodi:guide
       position="999.55699,1095.5987"
       orientation="0,-1"
       id="guide2"
       inkscape:locked="false" /><sodipodi:guide
       position="1430.9361,657.78663"
       orientation="0,-1"
       id="guide3"
       inkscape:locked="false" /><sodipodi:guide
       position="1455.7303,14.236708"
       orientation="0,-1"
       id="guide4"
       inkscape:locked="false" /><sodipodi:guide
       position="740.19414,428.92129"
       orientation="0,-1"
       id="guide5"
       inkscape:locked="false" /></sodipodi:namedview><path
     style="color:#000000;fill:#000000;stroke-linecap:round;stroke-linejoin:round;-inkscape-stroke:none"
     d="m 49.116873,461.63817 c -2.47945,-0.0274 -5.01725,0.15187 -7.60547,0.55859 -20.24824,3.18187 -36.1582905,16.04124 -48.4902405,31.76367 -12.3319395,15.72244 -21.7514995,34.77062 -29.8144495,53.64258 -8.06295,18.87197 -14.71808,37.63308 -20.65625,52.28516 -5.93817,14.65208 -13.13592,25.23612 -13.23242,25.30664 -18.9618,13.8567 -45.605473,12.96094 -45.605473,12.96094 -7.24915,-0.43274 -13.47673,5.09268 -13.91016,12.34179 -0.43272,7.24988 5.09385,13.47777 12.34375,13.91016 0,0 34.328843,2.74655 62.689463,-17.97852 11.7341,-8.57492 15.79926,-21.14241 22.08984,-36.66406 6.29058,-15.52165 12.83144,-33.95892 20.4668,-51.83008 7.6353495,-17.87115 16.4149495,-35.11099 26.32226,-47.74218 9.90732,-12.6312 20.27552,-20.19029 31.87891,-22.01368 11.14586,-1.75149 15.37335,1.52521 21.62891,11.26563 6.25556,9.74042 11.29203,26.08324 15.36718,43.39844 4.07516,17.31519 7.35075,35.46167 12.50782,50.59765 2.57853,7.568 5.539617,14.49569 10.402337,20.51563 4.86272,6.01993 12.95801,11.17578 21.93359,11.17578 8.22722,0 15.90945,-3.81472 21.18946,-8.85938 5.28001,-5.04465 8.86208,-11.10186 11.96484,-17.63281 6.20553,-13.06189 10.45733,-28.54671 15.24219,-43.55273 4.78486,-15.00603 10.11345,-29.41314 16.44531,-38.98633 6.33186,-9.57319 11.89016,-13.82123 20.97656,-14.11914 3.46344,-0.11356 5.6799,0.72737 9.01172,3.68359 3.33182,2.95623 7.15768,8.31559 10.72656,15.56055 7.13777,14.48992 9.03245,20.20435 14.93054,42.26548 5.89809,22.06112 11.65278,44.70045 19.84765,63.22461 4.09744,9.26208 8.77877,17.59813 15.21485,24.38281 6.43607,6.78468 15.35461,12.02032 25.51171,12.56445 7.25265,0.38927 13.44745,-5.17503 13.83594,-12.42773 0.38926,-7.25265 -5.17504,-13.44745 -12.42773,-13.83594 -2.58355,-0.1384 -4.62801,-1.01654 -7.83985,-4.40234 -3.21183,-3.3858 -6.86213,-9.277 -10.24414,-16.92188 -6.76401,-15.28975 -12.55772,-37.18707 -18.49023,-59.37695 -5.93251,-22.18988 -7.78631,-28.90913 -16.74499,-47.09556 -4.47933,-9.09321 -9.69596,-17.24829 -16.86523,-23.60937 -7.16927,-6.36109 -16.91335,-10.6403 -27.32813,-10.29883 -18.67001,0.61213 -32.998,12.21148 -42.05078,25.89844 -9.05277,13.68695 -14.6073,29.95338 -19.5664,45.50586 -4.95911,15.55247 -9.31253,30.51262 -13.94141,40.25586 -2.31444,4.87161 -4.70702,8.30498 -6.37891,9.90234 -1.67188,1.59736 -1.91876,1.57617 -3.01953,1.57617 -0.35239,0 0.1162,0.56703 -1.47461,-1.40234 -1.5908,-1.96938 -3.90935,-6.43212 -5.96679,-12.47071 -4.11488,-12.07717 -7.53468,-30.00777 -11.80274,-48.14257 -4.26805,-18.13481 -9.223677,-36.61583 -18.837887,-51.58594 -8.41243,-13.09885 -22.87821,-23.40229 -40.23437,-23.59375 z"
     id="path1-7-2"
     sodipodi:nodetypes="sssssscccssssssssssssssssssssccsssssssssssssssss" /><g
     id="g1"
     transform="translate(-97.875865,68.894424)"><path
       style="color:#000000;fill:#000000;stroke-linecap:round;stroke-linejoin:round;-inkscape-stroke:none"
       d="m 165.11328,271.07031 c -17.51816,-0.66398 -33.42661,7.45867 -45.8418,15.08203 -14.18878,8.71242 -24.353511,18.16993 -24.353511,18.16993 a 13.15,13.15 0 0 0 -0.707032,18.58203 13.15,13.15 0 0 0 18.583983,0.70703 c 0,0 8.49075,-7.83348 20.23828,-15.04688 11.74754,-7.2134 26.21538,-12.41091 34.83399,-10.79492 13.17072,2.46951 48.49645,11.54736 85.18945,17.13867 36.693,5.59132 74.85998,9.55267 101.79102,-4.81054 a 13.15,13.15 0 0 0 5.41406,-17.79102 13.15,13.15 0 0 0 -17.79102,-5.41406 c -14.02105,7.47789 -50.47802,7.34487 -85.45117,2.01562 -34.97315,-5.32924 -68.35588,-13.99751 -84.30664,-16.98828 -2.56286,-0.48053 -5.09701,-0.75475 -7.59961,-0.84961 z"
       id="path19" /></g></svg>
