<?xml version="1.0" encoding="UTF-8" standalone="no"?>
<svg
   version="1.1"
   viewBox="-19 0 449.56339 1073.7326"
   id="svg1"
   sodipodi:docname="o.svg"
   width="449.56339"
   height="1073.7327"
   inkscape:version="1.3 (0e150ed6c4, 2023-07-21)"
   xmlns:inkscape="http://www.inkscape.org/namespaces/inkscape"
   xmlns:sodipodi="http://sodipodi.sourceforge.net/DTD/sodipodi-0.dtd"
   xmlns="http://www.w3.org/2000/svg"
   xmlns:svg="http://www.w3.org/2000/svg">
  <defs
     id="defs1">
    <pattern
       id="EMFhbasepattern"
       patternUnits="userSpaceOnUse"
       width="6"
       height="6"
       x="0"
       y="0" />
    <pattern
       id="EMFhbasepattern-2"
       patternUnits="userSpaceOnUse"
       width="6"
       height="6"
       x="0"
       y="0" />
    <pattern
       id="EMFhbasepattern-3"
       patternUnits="userSpaceOnUse"
       width="6"
       height="6"
       x="0"
       y="0" />
    <pattern
       id="EMFhbasepattern-9"
       patternUnits="userSpaceOnUse"
       width="6"
       height="6"
       x="0"
       y="0" />
    <pattern
       id="EMFhbasepattern-0"
       patternUnits="userSpaceOnUse"
       width="6"
       height="6"
       x="0"
       y="0" />
    <pattern
       id="EMFhbasepattern-8"
       patternUnits="userSpaceOnUse"
       width="6"
       height="6"
       x="0"
       y="0" />
    <pattern
       id="EMFhbasepattern-89"
       patternUnits="userSpaceOnUse"
       width="6"
       height="6"
       x="0"
       y="0" />
  </defs>
  <sodipodi:namedview
     id="namedview1"
     pagecolor="#ffffff"
     bordercolor="#000000"
     borderopacity="0.25"
     inkscape:showpageshadow="2"
     inkscape:pageopacity="0.0"
     inkscape:pagecheckerboard="0"
     inkscape:deskcolor="#d1d1d1"
     showgrid="false"
     showguides="true"
     inkscape:zoom="0.77699996"
     inkscape:cx="130.63064"
     inkscape:cy="597.81213"
     inkscape:window-width="1920"
     inkscape:window-height="991"
     inkscape:window-x="-9"
     inkscape:window-y="-9"
     inkscape:window-maximized="1"
     inkscape:current-layer="svg1">
    <sodipodi:guide
       position="331.71162,386.07809"
       orientation="0,-1"
       id="guide1"
       inkscape:locked="false" />
    <sodipodi:guide
       position="708.47122,1086.8146"
       orientation="0,-1"
       id="guide2"
       inkscape:locked="false" />
    <sodipodi:guide
       position="1139.8503,649.00249"
       orientation="0,-1"
       id="guide3"
       inkscape:locked="false" />
    <sodipodi:guide
       position="1164.6445,5.4525762"
       orientation="0,-1"
       id="guide4"
       inkscape:locked="false" />
    <sodipodi:guide
       position="449.10835,420.13715"
       orientation="0,-1"
       id="guide5"
       inkscape:locked="false" />
  </sodipodi:namedview>
  <path
     style="color:#000000;fill:#000000;stroke-linecap:round;stroke-linejoin:round;-inkscape-stroke:none"
     d="m 241.42773,396.11719 c -0.20573,0.003 -0.39813,0.0315 -0.60351,0.0351 -84.35328,-0.76975 -155.600121,60.68941 -184.244142,129.55078 -14.996002,25.74708 -26.848736,51.01709 -36.269531,71.11719 -5.343392,11.4006 -9.990533,21.16789 -13.8710939,28.13477 -3.880561,6.96688 -7.9934151,10.9076 -6.91210935,10.24219 -14.77439275,9.09193 -36.22265575,7.76562 -36.22265575,7.76562 a 13.15,13.15 0 0 0 -14.375,11.79688 13.15,13.15 0 0 0 11.798828,14.375 c 0,0 28.065192,3.54822 52.582031,-11.53907 8.085519,-4.9757 11.514071,-11.60419 16.103515,-19.84375 4.589445,-8.23955 9.339745,-18.31573 14.708985,-29.77148 0.237514,-0.50676 0.560914,-1.154 0.800781,-1.66602 2.46787,15.9859 8.021185,31.28392 17.662109,44.90821 22.206013,31.38091 63.752833,52.03887 125.644533,54.96289 95.67569,4.5201 157.3541,-14.21449 193.40234,-46.97266 20.43,4.41718 42.56144,6.5474 66.32031,5.79688 a 13.15,13.15 0 0 0 12.72852,-13.5586 13.15,13.15 0 0 0 -13.55859,-12.72851 c -16.20867,0.51202 -31.48028,-0.41881 -45.81446,-2.5586 21.9841,-33.79333 23.2482,-75.06088 12.52539,-112.36133 -12.64421,-43.98427 -40.92446,-83.99066 -74.17187,-107.14257 -16.6237,-11.57596 -34.76346,-19.05276 -53.33984,-19.28907 -11.05364,-0.14061 -22.11046,2.66358 -32.25391,8.31055 a 13.151315,13.151315 0 0 0 -12.25391,-9.56445 c -0.13032,-0.002 -0.25645,0.0153 -0.38672,0.0137 z m -7.78711,26.75586 c -31.39313,37.9004 -22.99247,99.98179 13.87696,151.11523 22.93076,31.80219 57.71469,59.88721 102.87695,76.21484 -31.05949,20.35667 -82.01444,33.43894 -160.92383,29.71094 -56.71985,-2.67967 -88.94753,-20.61001 -105.416013,-43.88281 -16.468487,-23.2728 -18.432546,-53.97349 -8.414062,-86.10547 1.289807,-4.13676 2.79623,-8.27223 4.478516,-12.39258 1.642259,-2.79827 3.154952,-5.59813 4.875,-8.38672 C 117.74028,476.05763 163.26932,427.38883 233.64062,422.87305 Z m 52.34766,0.79492 c 11.55413,0.14698 25.1021,5.14391 38.64453,14.57422 27.08488,18.86061 53.04913,54.99734 63.92383,92.82617 10.2299,35.58579 7.90229,71.26451 -15.31445,99.05469 -47.31195,-13.40797 -82.2216,-40.76716 -104.39258,-71.51563 -32.46439,-45.02419 -35.4684,-95.68846 -14.11719,-120.08984 9.77698,-11.17369 19.70174,-14.99659 31.25586,-14.84961 z"
     id="path2" />
</svg>
