<?xml version="1.0" encoding="UTF-8" standalone="no"?>
<svg
   version="1.1"
   viewBox="-19 0 449.56339 1073.7326"
   id="svg1"
   sodipodi:docname="o.svg"
   width="449.56339"
   height="1073.7327"
   inkscape:version="1.3 (0e150ed6c4, 2023-07-21)"
   xmlns:inkscape="http://www.inkscape.org/namespaces/inkscape"
   xmlns:sodipodi="http://sodipodi.sourceforge.net/DTD/sodipodi-0.dtd"
   xmlns="http://www.w3.org/2000/svg"
   xmlns:svg="http://www.w3.org/2000/svg">
  <path
     style="color:#000000;fill:#000000;stroke-linecap:round;stroke-linejoin:round;-inkscape-stroke:none"
     d="m 193.68945,479.13281 c -12.90837,-0.32897 -23.90731,5.5918 -37.83203,14.15235 -9.95764,6.12169 -20.53433,14.0656 -30.61719,23.42187 -17.21569,12.68086 -33.823094,29.51043 -42.527339,52.41797 -7.27718,19.15184 -8.296809,42.07417 -0.470704,67.73828 -6.487746,1.57554 -14.786943,3.02936 -24.060546,3.96094 -23.793702,2.3902 -49.5000004,2.39648 -49.5000004,2.39648 a 13.15,13.15 0 0 0 -13.1601562,13.13867 13.15,13.15 0 0 0 13.1386719,13.16211 c 0,0 26.5093247,0.0465 52.1503907,-2.52929 11.231074,-1.12822 22.097637,-2.69992 31.529297,-5.40625 8.275466,14.62765 24.468776,23.92508 45.433596,34.1582 22.14631,10.80982 49.69239,20.4592 77.95312,26.1543 28.26074,5.6951 57.18196,7.58456 82.50586,1.50195 25.32391,-6.08261 47.80976,-21.86607 56.39453,-48.6875 1.68835,-5.27492 3.04661,-10.04623 4.58594,-15.08203 17.40102,4.16239 36.15889,7.35814 56.41406,9.23047 a 13.15,13.15 0 0 0 14.30274,-11.88281 13.15,13.15 0 0 0 -11.88282,-14.30469 c -18.57544,-1.71706 -35.63909,-4.71439 -51.40429,-8.55274 6.89455,-26.03609 10.76904,-48.73301 9.58594,-68.76757 -1.76067,-29.81505 -18.15673,-54.3324 -48.48829,-65.54102 -43.39744,-16.03695 -75.5924,-17.64264 -97.7207,-5.57617 -11.06415,6.03323 -18.96677,16.19438 -21.86133,27.72656 -2.89456,11.53218 -1.25586,23.91282 3.57032,36.07813 14.18582,35.7581 55.5333,72.9939 122.11132,94.48437 -1.43611,4.74511 -2.66263,9.17585 -4.26172,14.17188 -5.64346,17.63188 -18.0033,26.45071 -37.48828,31.13085 -19.48497,4.68015 -45.33867,3.49223 -71.16797,-1.71289 -25.82929,-5.20511 -51.6879,-14.2801 -71.61328,-24.00586 -19.92537,-9.72575 -33.72704,-22.38306 -34.70507,-24.41015 -0.14553,-0.30161 -0.23835,-0.57505 -0.38086,-0.875 0.72218,-1.54294 1.30768,-3.21873 1.56445,-5.05469 0.5956,-4.25869 -0.55791,-8.57065 -2.3125,-11.73047 -8.24466,-14.84766 -8.82334,-28.61823 -4.86328,-42.81836 3.96006,-14.20012 13.03782,-28.53637 24.375,-41.0625 2.99004,-3.30361 6.14195,-6.45557 9.36328,-9.47461 0.55113,-0.39624 1.05167,-0.86158 1.60742,-1.25 15.86586,-11.08858 33.1101,-18.74864 44.83399,-23.71679 5.86194,-2.48408 9.50933,-3.62534 14.00195,-6.38477 1.12315,-0.68986 2.45929,-1.06621 4.80078,-4.36523 1.17075,-1.64952 2.83824,-4.72526 2.49023,-8.98633 -0.348,-4.26107 -3.13014,-7.95529 -5.17578,-9.55078 -4.09127,-3.19099 -5.79803,-2.76828 -7.27539,-2.99024 -1.47735,-0.22195 -2.65138,-0.27371 -3.94336,-0.30664 z m 67.25,34.00781 c 13.60614,-0.62371 32.88581,2.17811 57.6836,11.3418 22.99231,8.4965 30.00637,19.6756 31.34961,42.42188 0.89083,15.08524 -2.59871,35.49755 -8.875,59.83789 -60.26083,-20.33393 -95.2608,-54.04778 -104.92188,-78.40039 -3.30635,-8.33429 -3.7136,-15.17259 -2.50781,-19.97657 1.20579,-4.80398 3.55128,-8.09683 8.94336,-11.03711 4.04406,-2.2052 10.16444,-3.81327 18.32812,-4.1875 z"
     id="path1" />
  <defs
     id="defs1">
    <pattern
       id="EMFhbasepattern"
       patternUnits="userSpaceOnUse"
       width="6"
       height="6"
       x="0"
       y="0" />
    <pattern
       id="EMFhbasepattern-2"
       patternUnits="userSpaceOnUse"
       width="6"
       height="6"
       x="0"
       y="0" />
    <pattern
       id="EMFhbasepattern-3"
       patternUnits="userSpaceOnUse"
       width="6"
       height="6"
       x="0"
       y="0" />
    <pattern
       id="EMFhbasepattern-9"
       patternUnits="userSpaceOnUse"
       width="6"
       height="6"
       x="0"
       y="0" />
    <pattern
       id="EMFhbasepattern-0"
       patternUnits="userSpaceOnUse"
       width="6"
       height="6"
       x="0"
       y="0" />
    <pattern
       id="EMFhbasepattern-8"
       patternUnits="userSpaceOnUse"
       width="6"
       height="6"
       x="0"
       y="0" />
    <pattern
       id="EMFhbasepattern-5"
       patternUnits="userSpaceOnUse"
       width="6"
       height="6"
       x="0"
       y="0" />
  </defs>
  <sodipodi:namedview
     id="namedview1"
     pagecolor="#ffffff"
     bordercolor="#000000"
     borderopacity="0.25"
     inkscape:showpageshadow="2"
     inkscape:pageopacity="0.0"
     inkscape:pagecheckerboard="0"
     inkscape:deskcolor="#d1d1d1"
     showgrid="false"
     showguides="true"
     inkscape:zoom="1.5539999"
     inkscape:cx="210.10297"
     inkscape:cy="592.34237"
     inkscape:window-width="1920"
     inkscape:window-height="991"
     inkscape:window-x="-9"
     inkscape:window-y="-9"
     inkscape:window-maximized="1"
     inkscape:current-layer="svg1">
    <sodipodi:guide
       position="331.71162,386.07809"
       orientation="0,-1"
       id="guide1"
       inkscape:locked="false" />
    <sodipodi:guide
       position="708.47122,1086.8146"
       orientation="0,-1"
       id="guide2"
       inkscape:locked="false" />
    <sodipodi:guide
       position="1139.8503,649.00249"
       orientation="0,-1"
       id="guide3"
       inkscape:locked="false" />
    <sodipodi:guide
       position="1164.6445,5.4525762"
       orientation="0,-1"
       id="guide4"
       inkscape:locked="false" />
    <sodipodi:guide
       position="449.10835,420.13715"
       orientation="0,-1"
       id="guide5"
       inkscape:locked="false" />
  </sodipodi:namedview>
</svg>
