<?xml version="1.0" encoding="UTF-8" standalone="no"?>
<svg
   version="1.1"
   viewBox="-19 0 449.56339 1073.7326"
   id="svg1"
   sodipodi:docname="p.svg"
   width="449.56339"
   height="1073.7327"
   inkscape:version="1.3 (0e150ed6c4, 2023-07-21)"
   xml:space="preserve"
   xmlns:inkscape="http://www.inkscape.org/namespaces/inkscape"
   xmlns:sodipodi="http://sodipodi.sourceforge.net/DTD/sodipodi-0.dtd"
   xmlns="http://www.w3.org/2000/svg"
   xmlns:svg="http://www.w3.org/2000/svg"><defs
     id="defs1"><pattern
       id="EMFhbasepattern"
       patternUnits="userSpaceOnUse"
       width="6"
       height="6"
       x="0"
       y="0" /><pattern
       id="EMFhbasepattern-2"
       patternUnits="userSpaceOnUse"
       width="6"
       height="6"
       x="0"
       y="0" /><pattern
       id="EMFhbasepattern-3"
       patternUnits="userSpaceOnUse"
       width="6"
       height="6"
       x="0"
       y="0" /><pattern
       id="EMFhbasepattern-9"
       patternUnits="userSpaceOnUse"
       width="6"
       height="6"
       x="0"
       y="0" /><pattern
       id="EMFhbasepattern-0"
       patternUnits="userSpaceOnUse"
       width="6"
       height="6"
       x="0"
       y="0" /><pattern
       id="EMFhbasepattern-8"
       patternUnits="userSpaceOnUse"
       width="6"
       height="6"
       x="0"
       y="0" /><pattern
       id="EMFhbasepattern-89"
       patternUnits="userSpaceOnUse"
       width="6"
       height="6"
       x="0"
       y="0" /><pattern
       id="EMFhbasepattern-99"
       patternUnits="userSpaceOnUse"
       width="6"
       height="6"
       x="0"
       y="0" /><pattern
       id="EMFhbasepattern-2-7"
       patternUnits="userSpaceOnUse"
       width="6"
       height="6"
       x="0"
       y="0" /><pattern
       id="EMFhbasepattern-3-5"
       patternUnits="userSpaceOnUse"
       width="6"
       height="6"
       x="0"
       y="0" /><pattern
       id="EMFhbasepattern-9-6"
       patternUnits="userSpaceOnUse"
       width="6"
       height="6"
       x="0"
       y="0" /><pattern
       id="EMFhbasepattern-0-9"
       patternUnits="userSpaceOnUse"
       width="6"
       height="6"
       x="0"
       y="0" /><pattern
       id="EMFhbasepattern-8-2"
       patternUnits="userSpaceOnUse"
       width="6"
       height="6"
       x="0"
       y="0" /><pattern
       id="EMFhbasepattern-5"
       patternUnits="userSpaceOnUse"
       width="6"
       height="6"
       x="0"
       y="0" /><pattern
       id="EMFhbasepattern-2-0"
       patternUnits="userSpaceOnUse"
       width="6"
       height="6"
       x="0"
       y="0" /><pattern
       id="EMFhbasepattern-3-4"
       patternUnits="userSpaceOnUse"
       width="6"
       height="6"
       x="0"
       y="0" /><pattern
       id="EMFhbasepattern-9-0"
       patternUnits="userSpaceOnUse"
       width="6"
       height="6"
       x="0"
       y="0" /><pattern
       id="EMFhbasepattern-0-3"
       patternUnits="userSpaceOnUse"
       width="6"
       height="6"
       x="0"
       y="0" /><pattern
       id="EMFhbasepattern-8-5"
       patternUnits="userSpaceOnUse"
       width="6"
       height="6"
       x="0"
       y="0" /><pattern
       id="EMFhbasepattern-84"
       patternUnits="userSpaceOnUse"
       width="6"
       height="6"
       x="0"
       y="0" /><pattern
       id="EMFhbasepattern-2-5"
       patternUnits="userSpaceOnUse"
       width="6"
       height="6"
       x="0"
       y="0" /><pattern
       id="EMFhbasepattern-3-2"
       patternUnits="userSpaceOnUse"
       width="6"
       height="6"
       x="0"
       y="0" /><pattern
       id="EMFhbasepattern-9-4"
       patternUnits="userSpaceOnUse"
       width="6"
       height="6"
       x="0"
       y="0" /><pattern
       id="EMFhbasepattern-0-2"
       patternUnits="userSpaceOnUse"
       width="6"
       height="6"
       x="0"
       y="0" /><pattern
       id="EMFhbasepattern-8-0"
       patternUnits="userSpaceOnUse"
       width="6"
       height="6"
       x="0"
       y="0" /><pattern
       id="EMFhbasepattern-35"
       patternUnits="userSpaceOnUse"
       width="6"
       height="6"
       x="0"
       y="0" /><pattern
       id="EMFhbasepattern-2-1"
       patternUnits="userSpaceOnUse"
       width="6"
       height="6"
       x="0"
       y="0" /><pattern
       id="EMFhbasepattern-3-3"
       patternUnits="userSpaceOnUse"
       width="6"
       height="6"
       x="0"
       y="0" /><pattern
       id="EMFhbasepattern-9-7"
       patternUnits="userSpaceOnUse"
       width="6"
       height="6"
       x="0"
       y="0" /><pattern
       id="EMFhbasepattern-0-1"
       patternUnits="userSpaceOnUse"
       width="6"
       height="6"
       x="0"
       y="0" /><pattern
       id="EMFhbasepattern-8-9"
       patternUnits="userSpaceOnUse"
       width="6"
       height="6"
       x="0"
       y="0" /><pattern
       id="EMFhbasepattern-893"
       patternUnits="userSpaceOnUse"
       width="6"
       height="6"
       x="0"
       y="0" /><pattern
       id="EMFhbasepattern-2-3"
       patternUnits="userSpaceOnUse"
       width="6"
       height="6"
       x="0"
       y="0" /><pattern
       id="EMFhbasepattern-3-53"
       patternUnits="userSpaceOnUse"
       width="6"
       height="6"
       x="0"
       y="0" /><pattern
       id="EMFhbasepattern-9-60"
       patternUnits="userSpaceOnUse"
       width="6"
       height="6"
       x="0"
       y="0" /><pattern
       id="EMFhbasepattern-0-0"
       patternUnits="userSpaceOnUse"
       width="6"
       height="6"
       x="0"
       y="0" /><pattern
       id="EMFhbasepattern-8-54"
       patternUnits="userSpaceOnUse"
       width="6"
       height="6"
       x="0"
       y="0" /><pattern
       id="EMFhbasepattern-1"
       patternUnits="userSpaceOnUse"
       width="6"
       height="6"
       x="0"
       y="0" /><pattern
       id="EMFhbasepattern-29"
       patternUnits="userSpaceOnUse"
       width="6"
       height="6"
       x="0"
       y="0" /><pattern
       id="EMFhbasepattern-87"
       patternUnits="userSpaceOnUse"
       width="6"
       height="6"
       x="0"
       y="0" /></defs><sodipodi:namedview
     id="namedview1"
     pagecolor="#ffffff"
     bordercolor="#000000"
     borderopacity="0.25"
     inkscape:showpageshadow="2"
     inkscape:pageopacity="0.0"
     inkscape:pagecheckerboard="0"
     inkscape:deskcolor="#d1d1d1"
     showgrid="false"
     showguides="true"
     inkscape:zoom="0.27471097"
     inkscape:cx="773.54028"
     inkscape:cy="875.46558"
     inkscape:window-width="1920"
     inkscape:window-height="991"
     inkscape:window-x="-9"
     inkscape:window-y="-9"
     inkscape:window-maximized="1"
     inkscape:current-layer="svg1"><sodipodi:guide
       position="331.71162,386.07809"
       orientation="0,-1"
       id="guide1"
       inkscape:locked="false" /><sodipodi:guide
       position="708.47122,1086.8146"
       orientation="0,-1"
       id="guide2"
       inkscape:locked="false" /><sodipodi:guide
       position="1139.8503,649.00249"
       orientation="0,-1"
       id="guide3"
       inkscape:locked="false" /><sodipodi:guide
       position="1164.6445,5.4525762"
       orientation="0,-1"
       id="guide4"
       inkscape:locked="false" /><sodipodi:guide
       position="449.10835,420.13715"
       orientation="0,-1"
       id="guide5"
       inkscape:locked="false" /></sodipodi:namedview><path
     style="color:#000000;fill:#000000;stroke-linecap:round;stroke-linejoin:round;-inkscape-stroke:none"
     d="m 351.14814,427.4197 c -23.4061,0.13077 -49.4153,5.25831 -77.2325,17.34766 -60.4308,26.26321 -129.45819,84.49265 -202.558553,194.93945 l 10.7168,-26.43164 c 19.051023,-18.35779 35.821563,-42.20263 47.449223,-73.13867 13.92172,-37.03954 19.39363,-61.7127 21.3164,-77.69532 0.96139,-7.9913 1.03172,-13.81244 0.78907,-17.90429 -0.24265,-4.09186 -1.10352,-7.48047 -1.10352,-7.48047 a 12.750125,12.750125 0 0 0 -24.04101,-1.18164 L 60.329747,599.04275 c -21.15171,19.02966 -45.18318,30.47827 -67.8574196,37.51757 -42.1211704,13.07667 -77.9785204,10.10352 -77.9785204,10.10352 a 12.74885,12.74885 0 0 0 -13.77539,11.63281 12.74885,12.74885 0 0 0 11.63281,13.77344 c 0,0 40.5557,3.47222 87.68164042,-11.1582 C 13.869157,656.61636 28.394157,650.60608 42.706697,642.51345 l -79.37695,195.7832 c -27.30481,59.5241 -54.84802,126.81826 -82.437497,203.35935 a 12.750125,12.750125 0 0 0 23.808587,9.1133 l 81.07422,-199.96874 C 97.434557,607.50538 203.55584,503.14777 284.07974,468.15212 c 49.9044,-21.68844 89.9408,-17.67605 118.1602,-4.88086 28.2193,12.79519 43.6884,35.94472 44.9179,47.62305 5.4621,51.87882 -21.5913,85.99384 -51.5019,109.08984 -29.9107,23.09601 -61.3867,33.01172 -61.3867,33.01172 a 12.750125,12.750125 0 0 0 -0.7657,0.26563 c 0,0 -4.0435,1.30698 -8.5273,2.59179 -27.4509,4.04099 -55.3586,7.02609 -84.0938,5.87696 -15.5965,-1.58418 -32.5897,-4.62712 -50.7793,-10.06641 -0.6509,-0.19465 -1.3559,-0.42824 -2.8574,-0.57813 -1.5014,-0.14988 -4.74473,-1.635 -10.14451,3.36133 -2.69988,2.49817 -4.22231,7.05073 -4.10351,9.94336 0.1188,2.89263 0.92799,4.44419 1.48828,5.50781 1.12058,2.12726 1.82814,2.67602 2.37695,3.23633 2.19526,2.24127 3.0741,2.58524 4.50781,3.51172 2.86744,1.85296 4.4468,3.71902 10.99608,5.04883 18.3075,3.71715 36.1138,5.46429 53.4961,5.98633 31.138,2.23267 56.3552,-1.00401 73.4043,-4.47852 52.9976,-6.96887 101.472,-19.02601 145.6602,-16.27148 a 12.74885,12.74885 0 0 0 13.5175,-11.93164 12.74885,12.74885 0 0 0 -11.9316,-13.51758 c -20.1062,-1.25335 -40.1832,-0.006 -60.3574,2.32617 1.6972,-1.23298 3.3874,-2.33403 5.082,-3.64258 33.973,-26.23278 67.8071,-69.92238 61.2774,-131.9414 -2.743,-26.05308 -24.9244,-52.38694 -59.7461,-68.17578 -17.4109,-7.89443 -38.215,-12.75968 -61.6211,-12.62891 z m -8.5215,249.65234 -0.7676,0.26563 c 0,0 0.6526,-0.23097 0.7129,-0.25 2e-4,-7e-5 0.055,-0.0156 0.055,-0.0156 z"
     id="path2" /></svg>
