<?xml version="1.0" encoding="UTF-8" standalone="no"?>
<svg
   version="1.1"
   viewBox="-19 0 449.56339 1073.7326"
   id="svg1"
   sodipodi:docname="q.svg"
   width="449.56339"
   height="1073.7327"
   inkscape:version="1.3 (0e150ed6c4, 2023-07-21)"
   xml:space="preserve"
   xmlns:inkscape="http://www.inkscape.org/namespaces/inkscape"
   xmlns:sodipodi="http://sodipodi.sourceforge.net/DTD/sodipodi-0.dtd"
   xmlns="http://www.w3.org/2000/svg"
   xmlns:svg="http://www.w3.org/2000/svg"><defs
     id="defs1"><pattern
       id="EMFhbasepattern"
       patternUnits="userSpaceOnUse"
       width="6"
       height="6"
       x="0"
       y="0" /><pattern
       id="EMFhbasepattern-2"
       patternUnits="userSpaceOnUse"
       width="6"
       height="6"
       x="0"
       y="0" /><pattern
       id="EMFhbasepattern-3"
       patternUnits="userSpaceOnUse"
       width="6"
       height="6"
       x="0"
       y="0" /><pattern
       id="EMFhbasepattern-9"
       patternUnits="userSpaceOnUse"
       width="6"
       height="6"
       x="0"
       y="0" /><pattern
       id="EMFhbasepattern-0"
       patternUnits="userSpaceOnUse"
       width="6"
       height="6"
       x="0"
       y="0" /><pattern
       id="EMFhbasepattern-8"
       patternUnits="userSpaceOnUse"
       width="6"
       height="6"
       x="0"
       y="0" /><pattern
       id="EMFhbasepattern-89"
       patternUnits="userSpaceOnUse"
       width="6"
       height="6"
       x="0"
       y="0" /><pattern
       id="EMFhbasepattern-99"
       patternUnits="userSpaceOnUse"
       width="6"
       height="6"
       x="0"
       y="0" /><pattern
       id="EMFhbasepattern-2-7"
       patternUnits="userSpaceOnUse"
       width="6"
       height="6"
       x="0"
       y="0" /><pattern
       id="EMFhbasepattern-3-5"
       patternUnits="userSpaceOnUse"
       width="6"
       height="6"
       x="0"
       y="0" /><pattern
       id="EMFhbasepattern-9-6"
       patternUnits="userSpaceOnUse"
       width="6"
       height="6"
       x="0"
       y="0" /><pattern
       id="EMFhbasepattern-0-9"
       patternUnits="userSpaceOnUse"
       width="6"
       height="6"
       x="0"
       y="0" /><pattern
       id="EMFhbasepattern-8-2"
       patternUnits="userSpaceOnUse"
       width="6"
       height="6"
       x="0"
       y="0" /><pattern
       id="EMFhbasepattern-5"
       patternUnits="userSpaceOnUse"
       width="6"
       height="6"
       x="0"
       y="0" /><pattern
       id="EMFhbasepattern-2-0"
       patternUnits="userSpaceOnUse"
       width="6"
       height="6"
       x="0"
       y="0" /><pattern
       id="EMFhbasepattern-3-4"
       patternUnits="userSpaceOnUse"
       width="6"
       height="6"
       x="0"
       y="0" /><pattern
       id="EMFhbasepattern-9-0"
       patternUnits="userSpaceOnUse"
       width="6"
       height="6"
       x="0"
       y="0" /><pattern
       id="EMFhbasepattern-0-3"
       patternUnits="userSpaceOnUse"
       width="6"
       height="6"
       x="0"
       y="0" /><pattern
       id="EMFhbasepattern-8-5"
       patternUnits="userSpaceOnUse"
       width="6"
       height="6"
       x="0"
       y="0" /><pattern
       id="EMFhbasepattern-84"
       patternUnits="userSpaceOnUse"
       width="6"
       height="6"
       x="0"
       y="0" /><pattern
       id="EMFhbasepattern-2-5"
       patternUnits="userSpaceOnUse"
       width="6"
       height="6"
       x="0"
       y="0" /><pattern
       id="EMFhbasepattern-3-2"
       patternUnits="userSpaceOnUse"
       width="6"
       height="6"
       x="0"
       y="0" /><pattern
       id="EMFhbasepattern-9-4"
       patternUnits="userSpaceOnUse"
       width="6"
       height="6"
       x="0"
       y="0" /><pattern
       id="EMFhbasepattern-0-2"
       patternUnits="userSpaceOnUse"
       width="6"
       height="6"
       x="0"
       y="0" /><pattern
       id="EMFhbasepattern-8-0"
       patternUnits="userSpaceOnUse"
       width="6"
       height="6"
       x="0"
       y="0" /><pattern
       id="EMFhbasepattern-35"
       patternUnits="userSpaceOnUse"
       width="6"
       height="6"
       x="0"
       y="0" /><pattern
       id="EMFhbasepattern-2-1"
       patternUnits="userSpaceOnUse"
       width="6"
       height="6"
       x="0"
       y="0" /><pattern
       id="EMFhbasepattern-3-3"
       patternUnits="userSpaceOnUse"
       width="6"
       height="6"
       x="0"
       y="0" /><pattern
       id="EMFhbasepattern-9-7"
       patternUnits="userSpaceOnUse"
       width="6"
       height="6"
       x="0"
       y="0" /><pattern
       id="EMFhbasepattern-0-1"
       patternUnits="userSpaceOnUse"
       width="6"
       height="6"
       x="0"
       y="0" /><pattern
       id="EMFhbasepattern-8-9"
       patternUnits="userSpaceOnUse"
       width="6"
       height="6"
       x="0"
       y="0" /><pattern
       id="EMFhbasepattern-893"
       patternUnits="userSpaceOnUse"
       width="6"
       height="6"
       x="0"
       y="0" /><pattern
       id="EMFhbasepattern-2-3"
       patternUnits="userSpaceOnUse"
       width="6"
       height="6"
       x="0"
       y="0" /><pattern
       id="EMFhbasepattern-3-53"
       patternUnits="userSpaceOnUse"
       width="6"
       height="6"
       x="0"
       y="0" /><pattern
       id="EMFhbasepattern-9-60"
       patternUnits="userSpaceOnUse"
       width="6"
       height="6"
       x="0"
       y="0" /><pattern
       id="EMFhbasepattern-0-0"
       patternUnits="userSpaceOnUse"
       width="6"
       height="6"
       x="0"
       y="0" /><pattern
       id="EMFhbasepattern-8-54"
       patternUnits="userSpaceOnUse"
       width="6"
       height="6"
       x="0"
       y="0" /><pattern
       id="EMFhbasepattern-1"
       patternUnits="userSpaceOnUse"
       width="6"
       height="6"
       x="0"
       y="0" /><pattern
       id="EMFhbasepattern-29"
       patternUnits="userSpaceOnUse"
       width="6"
       height="6"
       x="0"
       y="0" /><pattern
       id="EMFhbasepattern-87"
       patternUnits="userSpaceOnUse"
       width="6"
       height="6"
       x="0"
       y="0" /></defs><sodipodi:namedview
     id="namedview1"
     pagecolor="#ffffff"
     bordercolor="#000000"
     borderopacity="0.25"
     inkscape:showpageshadow="2"
     inkscape:pageopacity="0.0"
     inkscape:pagecheckerboard="0"
     inkscape:deskcolor="#d1d1d1"
     showgrid="false"
     showguides="true"
     inkscape:zoom="0.27471097"
     inkscape:cx="773.54028"
     inkscape:cy="875.46558"
     inkscape:window-width="1920"
     inkscape:window-height="991"
     inkscape:window-x="-9"
     inkscape:window-y="-9"
     inkscape:window-maximized="1"
     inkscape:current-layer="svg1"><sodipodi:guide
       position="331.71162,386.07809"
       orientation="0,-1"
       id="guide1"
       inkscape:locked="false" /><sodipodi:guide
       position="708.47122,1086.8146"
       orientation="0,-1"
       id="guide2"
       inkscape:locked="false" /><sodipodi:guide
       position="1139.8503,649.00249"
       orientation="0,-1"
       id="guide3"
       inkscape:locked="false" /><sodipodi:guide
       position="1164.6445,5.4525762"
       orientation="0,-1"
       id="guide4"
       inkscape:locked="false" /><sodipodi:guide
       position="449.10835,420.13715"
       orientation="0,-1"
       id="guide5"
       inkscape:locked="false" /></sodipodi:namedview><path
     style="color:#000000;fill:#000000;stroke-linecap:round;stroke-linejoin:round;-inkscape-stroke:none"
     d="m 239.48437,421.88086 c -13.82968,0.19972 -27.77083,1.13027 -41.60156,2.66601 C 85.736056,436.99953 18.298736,499.40966 9.9980469,567.21484 c -2.1759627,17.77462 0.0028,35.73246 6.2656251,52.77539 -0.346624,0.30435 -0.661588,0.6542 -1.013672,0.95118 -15.70146104,13.24384 -37.782594,21.54672 -82.455078,19.08203 a 13.15,13.15 0 0 0 -13.855469,12.40625 13.15,13.15 0 0 0 12.40625,13.85351 c 45.849989,2.52966 75.843816,-6.27013 96.988281,-22.32812 4.362144,6.70475 9.345064,13.18912 15.195313,19.27148 26.396644,27.44394 67.384043,47.82306 122.705073,56.33399 6.30718,0.97033 12.71741,1.33578 19.18946,1.21484 a 13.151315,13.151315 0 0 0 5.34961,23.25195 c 0,0 9.33166,1.52263 17.50195,5.54493 4.08515,2.01114 7.52946,4.58098 9.31641,6.88281 1.78694,2.30183 2.46984,3.81556 1.96289,7.5332 -0.0208,0.15238 -2.16615,7.79923 -5.8125,17.05664 -3.64636,9.25742 -8.75502,21.23426 -14.79883,34.85547 -12.08761,27.24242 -27.92644,61.11094 -43.65039,94.10156 -31.4479,65.98124 -62.435548,128.47465 -62.435548,128.47465 -5e-6,0 -0.01172,0.025 -0.01172,0.025 a 13.151315,13.151315 0 0 0 23.574217,11.6582 c 0,0 0.0117,-0.025 0.0117,-0.025 0,0 0.0915,-0.1831 0.0918,-0.1836 0.14395,-0.2919 42.24347,-85.64649 86.82031,-173.55081 22.23506,-43.84694 45.04488,-88.23656 63.49805,-122.89062 12.20457,2.9165 25.09617,6.62464 38.25976,11.66601 16.49184,6.31602 30.68154,8.632 43.34571,6.87891 12.66416,-1.7531 23.2677,-7.9546 31.00195,-15.99414 15.4685,-16.07909 21.90408,-37.98023 29.99805,-57.28125 13.87923,-33.09667 45.97851,-34.4336 45.97851,-34.4336 a 13.15,13.15 0 0 0 12.28906,-13.95703 13.15,13.15 0 0 0 -13.95507,-12.28906 c 0,0 -48.98368,3.81048 -68.56641,50.50781 -8.63701,20.59598 -15.71275,39.87959 -24.69727,49.21875 -4.49226,4.66958 -8.85257,7.23618 -15.65429,8.17774 -6.80173,0.94156 -16.58132,-0.1217 -30.33399,-5.38868 -11.87491,-4.54783 -23.42854,-7.94756 -34.63867,-10.86328 3.62757,-6.59669 8.0294,-14.88984 10.95703,-19.96679 3.17067,-5.49841 5.89789,-10.03071 8.00781,-13.3086 2.10993,-3.27788 4.07428,-5.60552 3.53711,-5.06836 2.22376,-2.22376 12.06608,-8.62249 24.17774,-15.59765 12.11166,-6.97516 26.88337,-15.31351 41.40039,-25.1875 29.03404,-19.74799 59.05952,-46.3005 60.5293,-83.82813 2.39026,-61.0301 -28.92295,-102.50945 -73.55079,-123.67187 -33.47087,-15.87182 -73.95431,-21.84134 -115.44336,-21.24219 z m 0.32618,26.38672 c 7.11625,-0.0807 14.14761,0.0945 21.10156,0.4375 -59.08939,8.82012 -101.01655,23.41982 -131.71289,41.44336 -37.242074,21.8669 -57.851452,48.74757 -72.972658,72.84179 -7.308558,11.64551 -13.41852,22.36354 -19.59375,31.94336 -1.288478,-8.08577 -1.537631,-16.28478 -0.529296,-24.52148 6.426296,-52.49397 60.87103,-108.19955 164.681644,-119.72656 13.0319,-1.44705 26.12658,-2.27175 39.02539,-2.41797 z m 77.10742,21.0625 c 29.54932,0.0811 43.90492,11.02395 52.50195,26.04883 9.82518,17.17128 10.70364,42.68802 6.03906,64.26171 -1.62179,7.50083 -10.21796,22.69513 -24.0332,38.56836 -13.81524,15.87324 -32.5338,33.06737 -53.41211,48.35743 -41.75661,30.58011 -92.46786,52.43253 -127.7793,47 -51.01199,-7.848 -86.297039,-26.26816 -107.749995,-48.57227 -6.073528,-6.3145 -10.965197,-12.9528 -14.949219,-19.78516 12.086664,-14.92515 20.671909,-31.83122 30.96875,-48.23828 14.158046,-22.55952 31.112284,-44.82548 64.011714,-64.14258 32.89944,-19.31709 82.27224,-35.56852 160.78125,-42.8496 4.86904,-0.45157 9.39977,-0.66003 13.6211,-0.64844 z m 85.34375,89.89453 c 0.004,2.15728 0.0253,4.2984 -0.0625,6.54101 -0.68259,17.42839 -12.9055,33.98812 -30.21485,48.83008 14.93968,-17.28835 25.71312,-33.36356 29.17969,-49.39648 0.42106,-1.94738 0.742,-3.97427 1.09766,-5.97461 z m -133.88867,136.875 c -0.12453,0.21539 -0.20435,0.33079 -0.33008,0.54883 -4.06941,7.05696 -9.70865,17.60163 -14.89063,27.1289 -18.65645,-3.38091 -34.23231,-4.86144 -45.04492,-5.44531 20.18481,-3.7792 40.5599,-11.84271 60.26563,-22.23242 z"
     id="path1" /></svg>
