<?xml version="1.0" encoding="UTF-8" standalone="no"?>
<svg
   version="1.1"
   viewBox="-19 0 449.56339 1073.7326"
   id="svg1"
   sodipodi:docname="s.svg"
   width="449.56339"
   height="1073.7327"
   inkscape:version="1.3 (0e150ed6c4, 2023-07-21)"
   xml:space="preserve"
   xmlns:inkscape="http://www.inkscape.org/namespaces/inkscape"
   xmlns:sodipodi="http://sodipodi.sourceforge.net/DTD/sodipodi-0.dtd"
   xmlns="http://www.w3.org/2000/svg"
   xmlns:svg="http://www.w3.org/2000/svg"><defs
     id="defs1"><pattern
       id="EMFhbasepattern"
       patternUnits="userSpaceOnUse"
       width="6"
       height="6"
       x="0"
       y="0" /><pattern
       id="EMFhbasepattern-2"
       patternUnits="userSpaceOnUse"
       width="6"
       height="6"
       x="0"
       y="0" /><pattern
       id="EMFhbasepattern-3"
       patternUnits="userSpaceOnUse"
       width="6"
       height="6"
       x="0"
       y="0" /><pattern
       id="EMFhbasepattern-9"
       patternUnits="userSpaceOnUse"
       width="6"
       height="6"
       x="0"
       y="0" /><pattern
       id="EMFhbasepattern-0"
       patternUnits="userSpaceOnUse"
       width="6"
       height="6"
       x="0"
       y="0" /><pattern
       id="EMFhbasepattern-8"
       patternUnits="userSpaceOnUse"
       width="6"
       height="6"
       x="0"
       y="0" /><pattern
       id="EMFhbasepattern-89"
       patternUnits="userSpaceOnUse"
       width="6"
       height="6"
       x="0"
       y="0" /><pattern
       id="EMFhbasepattern-99"
       patternUnits="userSpaceOnUse"
       width="6"
       height="6"
       x="0"
       y="0" /><pattern
       id="EMFhbasepattern-2-7"
       patternUnits="userSpaceOnUse"
       width="6"
       height="6"
       x="0"
       y="0" /><pattern
       id="EMFhbasepattern-3-5"
       patternUnits="userSpaceOnUse"
       width="6"
       height="6"
       x="0"
       y="0" /><pattern
       id="EMFhbasepattern-9-6"
       patternUnits="userSpaceOnUse"
       width="6"
       height="6"
       x="0"
       y="0" /><pattern
       id="EMFhbasepattern-0-9"
       patternUnits="userSpaceOnUse"
       width="6"
       height="6"
       x="0"
       y="0" /><pattern
       id="EMFhbasepattern-8-2"
       patternUnits="userSpaceOnUse"
       width="6"
       height="6"
       x="0"
       y="0" /><pattern
       id="EMFhbasepattern-5"
       patternUnits="userSpaceOnUse"
       width="6"
       height="6"
       x="0"
       y="0" /><pattern
       id="EMFhbasepattern-2-0"
       patternUnits="userSpaceOnUse"
       width="6"
       height="6"
       x="0"
       y="0" /><pattern
       id="EMFhbasepattern-3-4"
       patternUnits="userSpaceOnUse"
       width="6"
       height="6"
       x="0"
       y="0" /><pattern
       id="EMFhbasepattern-9-0"
       patternUnits="userSpaceOnUse"
       width="6"
       height="6"
       x="0"
       y="0" /><pattern
       id="EMFhbasepattern-0-3"
       patternUnits="userSpaceOnUse"
       width="6"
       height="6"
       x="0"
       y="0" /><pattern
       id="EMFhbasepattern-8-5"
       patternUnits="userSpaceOnUse"
       width="6"
       height="6"
       x="0"
       y="0" /><pattern
       id="EMFhbasepattern-84"
       patternUnits="userSpaceOnUse"
       width="6"
       height="6"
       x="0"
       y="0" /><pattern
       id="EMFhbasepattern-2-5"
       patternUnits="userSpaceOnUse"
       width="6"
       height="6"
       x="0"
       y="0" /><pattern
       id="EMFhbasepattern-3-2"
       patternUnits="userSpaceOnUse"
       width="6"
       height="6"
       x="0"
       y="0" /><pattern
       id="EMFhbasepattern-9-4"
       patternUnits="userSpaceOnUse"
       width="6"
       height="6"
       x="0"
       y="0" /><pattern
       id="EMFhbasepattern-0-2"
       patternUnits="userSpaceOnUse"
       width="6"
       height="6"
       x="0"
       y="0" /><pattern
       id="EMFhbasepattern-8-0"
       patternUnits="userSpaceOnUse"
       width="6"
       height="6"
       x="0"
       y="0" /><pattern
       id="EMFhbasepattern-35"
       patternUnits="userSpaceOnUse"
       width="6"
       height="6"
       x="0"
       y="0" /><pattern
       id="EMFhbasepattern-2-1"
       patternUnits="userSpaceOnUse"
       width="6"
       height="6"
       x="0"
       y="0" /><pattern
       id="EMFhbasepattern-3-3"
       patternUnits="userSpaceOnUse"
       width="6"
       height="6"
       x="0"
       y="0" /><pattern
       id="EMFhbasepattern-9-7"
       patternUnits="userSpaceOnUse"
       width="6"
       height="6"
       x="0"
       y="0" /><pattern
       id="EMFhbasepattern-0-1"
       patternUnits="userSpaceOnUse"
       width="6"
       height="6"
       x="0"
       y="0" /><pattern
       id="EMFhbasepattern-8-9"
       patternUnits="userSpaceOnUse"
       width="6"
       height="6"
       x="0"
       y="0" /><pattern
       id="EMFhbasepattern-893"
       patternUnits="userSpaceOnUse"
       width="6"
       height="6"
       x="0"
       y="0" /><pattern
       id="EMFhbasepattern-2-3"
       patternUnits="userSpaceOnUse"
       width="6"
       height="6"
       x="0"
       y="0" /><pattern
       id="EMFhbasepattern-3-53"
       patternUnits="userSpaceOnUse"
       width="6"
       height="6"
       x="0"
       y="0" /><pattern
       id="EMFhbasepattern-9-60"
       patternUnits="userSpaceOnUse"
       width="6"
       height="6"
       x="0"
       y="0" /><pattern
       id="EMFhbasepattern-0-0"
       patternUnits="userSpaceOnUse"
       width="6"
       height="6"
       x="0"
       y="0" /><pattern
       id="EMFhbasepattern-8-54"
       patternUnits="userSpaceOnUse"
       width="6"
       height="6"
       x="0"
       y="0" /><pattern
       id="EMFhbasepattern-1"
       patternUnits="userSpaceOnUse"
       width="6"
       height="6"
       x="0"
       y="0" /><pattern
       id="EMFhbasepattern-29"
       patternUnits="userSpaceOnUse"
       width="6"
       height="6"
       x="0"
       y="0" /><pattern
       id="EMFhbasepattern-87"
       patternUnits="userSpaceOnUse"
       width="6"
       height="6"
       x="0"
       y="0" /><pattern
       id="EMFhbasepattern-08"
       patternUnits="userSpaceOnUse"
       width="6"
       height="6"
       x="0"
       y="0" /><pattern
       id="EMFhbasepattern-11"
       patternUnits="userSpaceOnUse"
       width="6"
       height="6"
       x="0"
       y="0" /></defs><sodipodi:namedview
     id="namedview1"
     pagecolor="#ffffff"
     bordercolor="#000000"
     borderopacity="0.25"
     inkscape:showpageshadow="2"
     inkscape:pageopacity="0.0"
     inkscape:pagecheckerboard="0"
     inkscape:deskcolor="#d1d1d1"
     showgrid="false"
     showguides="true"
     inkscape:zoom="0.77699996"
     inkscape:cx="189.8327"
     inkscape:cy="574.64611"
     inkscape:window-width="1920"
     inkscape:window-height="991"
     inkscape:window-x="-9"
     inkscape:window-y="-9"
     inkscape:window-maximized="1"
     inkscape:current-layer="svg1"><sodipodi:guide
       position="331.71162,386.07809"
       orientation="0,-1"
       id="guide1"
       inkscape:locked="false" /><sodipodi:guide
       position="708.47122,1086.8146"
       orientation="0,-1"
       id="guide2"
       inkscape:locked="false" /><sodipodi:guide
       position="1139.8503,649.00249"
       orientation="0,-1"
       id="guide3"
       inkscape:locked="false" /><sodipodi:guide
       position="1164.6445,5.4525762"
       orientation="0,-1"
       id="guide4"
       inkscape:locked="false" /><sodipodi:guide
       position="449.10835,420.13715"
       orientation="0,-1"
       id="guide5"
       inkscape:locked="false" /></sodipodi:namedview><path
     id="path4"
     style="color:#000000;fill:#000000;stroke-linecap:round;stroke-linejoin:round;-inkscape-stroke:none"
     d="M 201.06641 427.02734 C 200.24063 426.97485 199.40173 426.99009 198.55664 427.08398 C 187.45258 428.31777 183.75921 434.20726 178.73633 440.49219 C 173.71343 446.77711 169.17579 454.71092 166.13672 463.82812 C 163.09764 472.94534 161.53821 483.36304 163.79297 494.08008 C 166.04772 504.79711 172.63623 515.50853 183.51367 523.03906 A 13.151315 13.151315 0 0 0 185.60938 523.97656 C 181.53167 537.62909 176.08229 552.54793 168.75195 568.51758 C 157.00896 594.10051 133.44867 611.89787 107.51172 623.40234 C 81.574769 634.90683 53.517488 639.76373 36.703125 640.20898 C 23.070709 640.57 17.082031 640.64844 17.082031 640.64844 A 13.15 13.15 0 0 0 4.1054688 653.96875 A 13.15 13.15 0 0 0 17.425781 666.94531 C 17.425781 666.94531 23.662664 666.86381 37.400391 666.5 C 58.23525 665.94828 88.467735 660.62054 118.17578 647.44336 C 147.88383 634.26618 177.32439 612.88559 192.6543 579.48828 C 200.30883 562.81236 206.10923 547.1308 210.51758 532.57617 C 251.75774 550.39964 271.7105 584.54678 271.37109 613.29492 C 271.17279 630.09112 264.59901 644.96279 250.58594 655.88477 C 236.57285 666.80673 214.2807 673.96952 181.66797 671.57031 C 159.1637 669.91475 148.05585 669.13264 143.67969 668.87109 C 142.58564 668.80569 142.42488 668.75734 141.03125 668.75977 C 140.94744 668.75991 140.75529 668.76943 140.63477 668.77148 A 12.709139 13.191764 0 0 0 140.15039 668.75977 C 139.90421 668.70626 139.93175 668.3371 138.11914 668.93359 A 12.709139 13.191764 0 0 0 127.39648 681.94922 A 12.709139 13.191764 0 0 0 140.10547 695.14062 A 12.709139 13.191764 0 0 0 140.54102 695.10938 C 141.88235 695.25211 143.64432 695.41264 146.29297 695.64258 C 157.88057 696.64855 180.57227 698.46875 180.57227 698.46875 L 179.50391 698.33789 C 179.50391 698.33789 193.43617 700.47388 215.2168 697.68945 C 236.99744 694.90504 267.69542 687.35778 304.29688 668.68945 C 305.70014 667.97372 310.71062 666.95868 317.07617 666.81445 C 323.44173 666.67023 330.98074 667.06069 338.61914 666.62695 A 13.15 13.15 0 0 0 351.00195 652.75195 A 13.15 13.15 0 0 0 337.12891 640.36914 C 331.57468 640.68453 324.17433 640.34714 316.48047 640.52148 C 308.7866 640.6958 300.61645 641.04427 292.34766 645.26172 C 291.73104 645.57622 291.15351 645.82727 290.54102 646.13477 C 295.09938 635.8866 297.53746 624.82489 297.66992 613.60547 C 298.16523 571.65154 269.22241 527.74961 217.12305 506.79883 C 219.28868 496.33244 220.69138 486.67165 221.32617 478.13086 C 222.2817 465.27466 221.79209 454.86385 219.72266 446.37109 C 218.68795 442.12472 217.38529 438.28718 214.51758 434.44727 C 212.00833 431.08733 206.84683 427.39478 201.06641 427.02734 z M 195.30664 462.95898 C 195.46319 466.77028 195.47551 471.1241 195.09961 476.18164 C 194.66974 481.96533 193.81021 488.52754 192.50781 495.69141 C 190.95847 493.48807 190.06203 491.19809 189.5293 488.66602 C 188.52634 483.89884 189.13984 477.98869 191.08789 472.14453 C 192.1726 468.89039 193.68171 465.79742 195.30664 462.95898 z " /></svg>
