<?xml version="1.0" encoding="UTF-8" standalone="no"?>
<svg
   version="1.1"
   viewBox="-19 0 449.56339 1073.7326"
   id="svg1"
   sodipodi:docname="t.svg"
   width="449.56339"
   height="1073.7327"
   inkscape:version="1.3 (0e150ed6c4, 2023-07-21)"
   xml:space="preserve"
   xmlns:inkscape="http://www.inkscape.org/namespaces/inkscape"
   xmlns:sodipodi="http://sodipodi.sourceforge.net/DTD/sodipodi-0.dtd"
   xmlns="http://www.w3.org/2000/svg"
   xmlns:svg="http://www.w3.org/2000/svg"><defs
     id="defs1"><pattern
       id="EMFhbasepattern"
       patternUnits="userSpaceOnUse"
       width="6"
       height="6"
       x="0"
       y="0" /><pattern
       id="EMFhbasepattern-2"
       patternUnits="userSpaceOnUse"
       width="6"
       height="6"
       x="0"
       y="0" /><pattern
       id="EMFhbasepattern-3"
       patternUnits="userSpaceOnUse"
       width="6"
       height="6"
       x="0"
       y="0" /><pattern
       id="EMFhbasepattern-9"
       patternUnits="userSpaceOnUse"
       width="6"
       height="6"
       x="0"
       y="0" /><pattern
       id="EMFhbasepattern-0"
       patternUnits="userSpaceOnUse"
       width="6"
       height="6"
       x="0"
       y="0" /><pattern
       id="EMFhbasepattern-8"
       patternUnits="userSpaceOnUse"
       width="6"
       height="6"
       x="0"
       y="0" /><pattern
       id="EMFhbasepattern-89"
       patternUnits="userSpaceOnUse"
       width="6"
       height="6"
       x="0"
       y="0" /><pattern
       id="EMFhbasepattern-99"
       patternUnits="userSpaceOnUse"
       width="6"
       height="6"
       x="0"
       y="0" /><pattern
       id="EMFhbasepattern-2-7"
       patternUnits="userSpaceOnUse"
       width="6"
       height="6"
       x="0"
       y="0" /><pattern
       id="EMFhbasepattern-3-5"
       patternUnits="userSpaceOnUse"
       width="6"
       height="6"
       x="0"
       y="0" /><pattern
       id="EMFhbasepattern-9-6"
       patternUnits="userSpaceOnUse"
       width="6"
       height="6"
       x="0"
       y="0" /><pattern
       id="EMFhbasepattern-0-9"
       patternUnits="userSpaceOnUse"
       width="6"
       height="6"
       x="0"
       y="0" /><pattern
       id="EMFhbasepattern-8-2"
       patternUnits="userSpaceOnUse"
       width="6"
       height="6"
       x="0"
       y="0" /><pattern
       id="EMFhbasepattern-5"
       patternUnits="userSpaceOnUse"
       width="6"
       height="6"
       x="0"
       y="0" /><pattern
       id="EMFhbasepattern-2-0"
       patternUnits="userSpaceOnUse"
       width="6"
       height="6"
       x="0"
       y="0" /><pattern
       id="EMFhbasepattern-3-4"
       patternUnits="userSpaceOnUse"
       width="6"
       height="6"
       x="0"
       y="0" /><pattern
       id="EMFhbasepattern-9-0"
       patternUnits="userSpaceOnUse"
       width="6"
       height="6"
       x="0"
       y="0" /><pattern
       id="EMFhbasepattern-0-3"
       patternUnits="userSpaceOnUse"
       width="6"
       height="6"
       x="0"
       y="0" /><pattern
       id="EMFhbasepattern-8-5"
       patternUnits="userSpaceOnUse"
       width="6"
       height="6"
       x="0"
       y="0" /><pattern
       id="EMFhbasepattern-84"
       patternUnits="userSpaceOnUse"
       width="6"
       height="6"
       x="0"
       y="0" /><pattern
       id="EMFhbasepattern-2-5"
       patternUnits="userSpaceOnUse"
       width="6"
       height="6"
       x="0"
       y="0" /><pattern
       id="EMFhbasepattern-3-2"
       patternUnits="userSpaceOnUse"
       width="6"
       height="6"
       x="0"
       y="0" /><pattern
       id="EMFhbasepattern-9-4"
       patternUnits="userSpaceOnUse"
       width="6"
       height="6"
       x="0"
       y="0" /><pattern
       id="EMFhbasepattern-0-2"
       patternUnits="userSpaceOnUse"
       width="6"
       height="6"
       x="0"
       y="0" /><pattern
       id="EMFhbasepattern-8-0"
       patternUnits="userSpaceOnUse"
       width="6"
       height="6"
       x="0"
       y="0" /><pattern
       id="EMFhbasepattern-35"
       patternUnits="userSpaceOnUse"
       width="6"
       height="6"
       x="0"
       y="0" /><pattern
       id="EMFhbasepattern-2-1"
       patternUnits="userSpaceOnUse"
       width="6"
       height="6"
       x="0"
       y="0" /><pattern
       id="EMFhbasepattern-3-3"
       patternUnits="userSpaceOnUse"
       width="6"
       height="6"
       x="0"
       y="0" /><pattern
       id="EMFhbasepattern-9-7"
       patternUnits="userSpaceOnUse"
       width="6"
       height="6"
       x="0"
       y="0" /><pattern
       id="EMFhbasepattern-0-1"
       patternUnits="userSpaceOnUse"
       width="6"
       height="6"
       x="0"
       y="0" /><pattern
       id="EMFhbasepattern-8-9"
       patternUnits="userSpaceOnUse"
       width="6"
       height="6"
       x="0"
       y="0" /><pattern
       id="EMFhbasepattern-893"
       patternUnits="userSpaceOnUse"
       width="6"
       height="6"
       x="0"
       y="0" /><pattern
       id="EMFhbasepattern-2-3"
       patternUnits="userSpaceOnUse"
       width="6"
       height="6"
       x="0"
       y="0" /><pattern
       id="EMFhbasepattern-3-53"
       patternUnits="userSpaceOnUse"
       width="6"
       height="6"
       x="0"
       y="0" /><pattern
       id="EMFhbasepattern-9-60"
       patternUnits="userSpaceOnUse"
       width="6"
       height="6"
       x="0"
       y="0" /><pattern
       id="EMFhbasepattern-0-0"
       patternUnits="userSpaceOnUse"
       width="6"
       height="6"
       x="0"
       y="0" /><pattern
       id="EMFhbasepattern-8-54"
       patternUnits="userSpaceOnUse"
       width="6"
       height="6"
       x="0"
       y="0" /><pattern
       id="EMFhbasepattern-1"
       patternUnits="userSpaceOnUse"
       width="6"
       height="6"
       x="0"
       y="0" /><pattern
       id="EMFhbasepattern-29"
       patternUnits="userSpaceOnUse"
       width="6"
       height="6"
       x="0"
       y="0" /><pattern
       id="EMFhbasepattern-87"
       patternUnits="userSpaceOnUse"
       width="6"
       height="6"
       x="0"
       y="0" /><pattern
       id="EMFhbasepattern-08"
       patternUnits="userSpaceOnUse"
       width="6"
       height="6"
       x="0"
       y="0" /><pattern
       id="EMFhbasepattern-11"
       patternUnits="userSpaceOnUse"
       width="6"
       height="6"
       x="0"
       y="0" /><pattern
       id="EMFhbasepattern-4"
       patternUnits="userSpaceOnUse"
       width="6"
       height="6"
       x="0"
       y="0" /><pattern
       id="EMFhbasepattern-6"
       patternUnits="userSpaceOnUse"
       width="6"
       height="6"
       x="0"
       y="0" /></defs><sodipodi:namedview
     id="namedview1"
     pagecolor="#ffffff"
     bordercolor="#000000"
     borderopacity="0.25"
     inkscape:showpageshadow="2"
     inkscape:pageopacity="0.0"
     inkscape:pagecheckerboard="0"
     inkscape:deskcolor="#d1d1d1"
     showgrid="false"
     showguides="true"
     inkscape:zoom="0.54942194"
     inkscape:cx="776.27042"
     inkscape:cy="410.43137"
     inkscape:window-width="1920"
     inkscape:window-height="991"
     inkscape:window-x="-9"
     inkscape:window-y="-9"
     inkscape:window-maximized="1"
     inkscape:current-layer="svg1"><sodipodi:guide
       position="331.71162,386.07809"
       orientation="0,-1"
       id="guide1"
       inkscape:locked="false" /><sodipodi:guide
       position="708.47122,1086.8146"
       orientation="0,-1"
       id="guide2"
       inkscape:locked="false" /><sodipodi:guide
       position="1139.8503,649.00249"
       orientation="0,-1"
       id="guide3"
       inkscape:locked="false" /><sodipodi:guide
       position="1164.6445,5.4525762"
       orientation="0,-1"
       id="guide4"
       inkscape:locked="false" /><sodipodi:guide
       position="449.10835,420.13715"
       orientation="0,-1"
       id="guide5"
       inkscape:locked="false" /></sodipodi:namedview><path
     style="color:#000000;fill:#000000;stroke-linecap:round;stroke-linejoin:round;-inkscape-stroke:none"
     d="m 581.70196,249.41211 c -31.55167,1.40229 -140.685,14.88681 -244.85547,28.57226 -52.08524,6.84273 -102.51231,13.72566 -140.29688,19.14649 -18.89228,2.71041 -34.6134,5.05415 -45.87304,6.85742 -5.62983,0.90164 -10.12669,1.66382 -13.47071,2.29688 -1.67201,0.31652 -3.03632,0.59234 -4.2832,0.89062 -0.62344,0.14914 -1.20101,0.29288 -1.96094,0.5332 -0.75993,0.24033 -1.13241,-0.24883 -4.44336,2.23438 a 13.15,13.15 0 0 0 -2.6289,18.41016 13.15,13.15 0 0 0 18.41015,2.6289 c -1.46506,1.0988 -2.15513,1.46159 -2.60351,1.63672 0.59201,-0.13101 1.26618,-0.27942 2.40039,-0.49414 2.88675,-0.54649 7.24203,-1.28741 12.74023,-2.16797 10.99641,-1.76111 26.63447,-4.09396 45.44727,-6.79297 37.62559,-5.39802 87.98739,-12.27187 139.98828,-19.10351 104.00179,-13.6633 216.23432,-27.2033 242.59766,-28.375 a 13.15,13.15 0 0 0 12.55273,-13.72071 13.15,13.15 0 0 0 -13.7207,-12.55273 z"
     id="path7" /><path
     style="color:#000000;fill:#000000;stroke-linecap:round;stroke-linejoin:round;-inkscape-stroke:none"
     d="m 422.42071,70.992187 c -1.37859,-0.01809 -2.60188,0.14591 -3.49219,0.515625 -3.56126,1.478863 -4.27275,2.804661 -4.9375,3.576172 -1.3295,1.543023 -1.43632,2.001948 -1.66797,2.431641 -0.4633,0.859387 -0.57317,1.168818 -0.72656,1.533203 -0.3068,0.728771 -0.54531,1.367077 -0.84961,2.189453 -0.25531,0.68997 -0.68764,1.941536 -1.00977,2.845703 -2.93559,7.577345 -30.86656,79.728766 -61,161.869136 -15.87238,43.26636 -31.87102,88.0327 -44.19336,125.1211 -4.90485,14.7629 -9.00801,27.52959 -12.53125,39.13867 C 252.42313,504.296 213.68279,572.87621 158.26641,607.93555 101.29858,643.97642 7.7312008,640.22 7.7312008,640.22 c -7.21102607,-0.86526 -13.7580842,4.27917 -14.6230501,11.49023 -0.8653055,7.21035 4.2780071,13.7571 11.4882801,14.62305 0,0 98.5723592,7.58 167.7305292,-36.17312 43.67134,-27.62881 76.25989,-71.1597 105.42773,-126.58985 -0.90524,19.52894 -0.56781,41.41192 3.48047,62.89258 4.23435,22.468 12.63302,44.85108 28.56445,63.15039 15.93144,18.29931 39.37772,31.91061 70.83985,37.1543 7.16348,1.19391 13.93855,-3.64518 15.13281,-10.8086 1.19384,-7.16412 -3.64634,-13.93949 -10.81055,-15.13281 -26.45288,-4.40881 -43.38601,-14.7676 -55.32617,-28.48242 -11.94016,-13.71482 -18.90617,-31.3905 -22.55469,-50.75 -7.29704,-38.71901 -0.72046,-82.45668 1.31055,-107.50586 0.37472,-4.6215 4.01217,-18.89735 9.4668,-37.44336 1.8687,-4.48082 3.73917,-8.74326 5.61132,-13.31836 22.87058,-55.89017 50.84149,-134.88807 73.2754,-199.93945 11.21695,-32.52569 21.04064,-61.54558 28.10156,-82.33984 3.53046,-10.39714 6.37361,-18.74656 8.33594,-24.394536 0.52611,-1.514256 0.80321,-2.267548 1.19531,-3.371094 0.13897,-0.358691 1.86719,-4.869141 1.86719,-4.869141 1.69533,-4.370241 0.93635,-9.312496 -1.99219,-12.972656 -2.16013,-2.700174 -7.69628,-4.392986 -11.83203,-4.447266 z"
     id="path5"
     sodipodi:nodetypes="sssssscsscscccscsssccssscsssscccs" /></svg>
