<?xml version="1.0" encoding="UTF-8" standalone="no"?>
<svg
   version="1.1"
   viewBox="-19 0 449.56339 1073.7326"
   id="svg1"
   sodipodi:docname="uuml.svg"
   width="449.56339"
   height="1073.7327"
   inkscape:version="1.3 (0e150ed6c4, 2023-07-21)"
   xml:space="preserve"
   xmlns:inkscape="http://www.inkscape.org/namespaces/inkscape"
   xmlns:sodipodi="http://sodipodi.sourceforge.net/DTD/sodipodi-0.dtd"
   xmlns="http://www.w3.org/2000/svg"
   xmlns:svg="http://www.w3.org/2000/svg"><defs
     id="defs1"><pattern
       id="EMFhbasepattern"
       patternUnits="userSpaceOnUse"
       width="6"
       height="6"
       x="0"
       y="0" /><pattern
       id="EMFhbasepattern-2"
       patternUnits="userSpaceOnUse"
       width="6"
       height="6"
       x="0"
       y="0" /><pattern
       id="EMFhbasepattern-3"
       patternUnits="userSpaceOnUse"
       width="6"
       height="6"
       x="0"
       y="0" /><pattern
       id="EMFhbasepattern-9"
       patternUnits="userSpaceOnUse"
       width="6"
       height="6"
       x="0"
       y="0" /><pattern
       id="EMFhbasepattern-0"
       patternUnits="userSpaceOnUse"
       width="6"
       height="6"
       x="0"
       y="0" /><pattern
       id="EMFhbasepattern-8"
       patternUnits="userSpaceOnUse"
       width="6"
       height="6"
       x="0"
       y="0" /><pattern
       id="EMFhbasepattern-89"
       patternUnits="userSpaceOnUse"
       width="6"
       height="6"
       x="0"
       y="0" /><pattern
       id="EMFhbasepattern-99"
       patternUnits="userSpaceOnUse"
       width="6"
       height="6"
       x="0"
       y="0" /><pattern
       id="EMFhbasepattern-2-7"
       patternUnits="userSpaceOnUse"
       width="6"
       height="6"
       x="0"
       y="0" /><pattern
       id="EMFhbasepattern-3-5"
       patternUnits="userSpaceOnUse"
       width="6"
       height="6"
       x="0"
       y="0" /><pattern
       id="EMFhbasepattern-9-6"
       patternUnits="userSpaceOnUse"
       width="6"
       height="6"
       x="0"
       y="0" /><pattern
       id="EMFhbasepattern-0-9"
       patternUnits="userSpaceOnUse"
       width="6"
       height="6"
       x="0"
       y="0" /><pattern
       id="EMFhbasepattern-8-2"
       patternUnits="userSpaceOnUse"
       width="6"
       height="6"
       x="0"
       y="0" /><pattern
       id="EMFhbasepattern-5"
       patternUnits="userSpaceOnUse"
       width="6"
       height="6"
       x="0"
       y="0" /><pattern
       id="EMFhbasepattern-2-0"
       patternUnits="userSpaceOnUse"
       width="6"
       height="6"
       x="0"
       y="0" /><pattern
       id="EMFhbasepattern-3-4"
       patternUnits="userSpaceOnUse"
       width="6"
       height="6"
       x="0"
       y="0" /><pattern
       id="EMFhbasepattern-9-0"
       patternUnits="userSpaceOnUse"
       width="6"
       height="6"
       x="0"
       y="0" /><pattern
       id="EMFhbasepattern-0-3"
       patternUnits="userSpaceOnUse"
       width="6"
       height="6"
       x="0"
       y="0" /><pattern
       id="EMFhbasepattern-8-5"
       patternUnits="userSpaceOnUse"
       width="6"
       height="6"
       x="0"
       y="0" /><pattern
       id="EMFhbasepattern-84"
       patternUnits="userSpaceOnUse"
       width="6"
       height="6"
       x="0"
       y="0" /><pattern
       id="EMFhbasepattern-2-5"
       patternUnits="userSpaceOnUse"
       width="6"
       height="6"
       x="0"
       y="0" /><pattern
       id="EMFhbasepattern-3-2"
       patternUnits="userSpaceOnUse"
       width="6"
       height="6"
       x="0"
       y="0" /><pattern
       id="EMFhbasepattern-9-4"
       patternUnits="userSpaceOnUse"
       width="6"
       height="6"
       x="0"
       y="0" /><pattern
       id="EMFhbasepattern-0-2"
       patternUnits="userSpaceOnUse"
       width="6"
       height="6"
       x="0"
       y="0" /><pattern
       id="EMFhbasepattern-8-0"
       patternUnits="userSpaceOnUse"
       width="6"
       height="6"
       x="0"
       y="0" /><pattern
       id="EMFhbasepattern-35"
       patternUnits="userSpaceOnUse"
       width="6"
       height="6"
       x="0"
       y="0" /><pattern
       id="EMFhbasepattern-2-1"
       patternUnits="userSpaceOnUse"
       width="6"
       height="6"
       x="0"
       y="0" /><pattern
       id="EMFhbasepattern-3-3"
       patternUnits="userSpaceOnUse"
       width="6"
       height="6"
       x="0"
       y="0" /><pattern
       id="EMFhbasepattern-9-7"
       patternUnits="userSpaceOnUse"
       width="6"
       height="6"
       x="0"
       y="0" /><pattern
       id="EMFhbasepattern-0-1"
       patternUnits="userSpaceOnUse"
       width="6"
       height="6"
       x="0"
       y="0" /><pattern
       id="EMFhbasepattern-8-9"
       patternUnits="userSpaceOnUse"
       width="6"
       height="6"
       x="0"
       y="0" /><pattern
       id="EMFhbasepattern-893"
       patternUnits="userSpaceOnUse"
       width="6"
       height="6"
       x="0"
       y="0" /><pattern
       id="EMFhbasepattern-2-3"
       patternUnits="userSpaceOnUse"
       width="6"
       height="6"
       x="0"
       y="0" /><pattern
       id="EMFhbasepattern-3-53"
       patternUnits="userSpaceOnUse"
       width="6"
       height="6"
       x="0"
       y="0" /><pattern
       id="EMFhbasepattern-9-60"
       patternUnits="userSpaceOnUse"
       width="6"
       height="6"
       x="0"
       y="0" /><pattern
       id="EMFhbasepattern-0-0"
       patternUnits="userSpaceOnUse"
       width="6"
       height="6"
       x="0"
       y="0" /><pattern
       id="EMFhbasepattern-8-54"
       patternUnits="userSpaceOnUse"
       width="6"
       height="6"
       x="0"
       y="0" /><pattern
       id="EMFhbasepattern-1"
       patternUnits="userSpaceOnUse"
       width="6"
       height="6"
       x="0"
       y="0" /><pattern
       id="EMFhbasepattern-29"
       patternUnits="userSpaceOnUse"
       width="6"
       height="6"
       x="0"
       y="0" /><pattern
       id="EMFhbasepattern-87"
       patternUnits="userSpaceOnUse"
       width="6"
       height="6"
       x="0"
       y="0" /><pattern
       id="EMFhbasepattern-08"
       patternUnits="userSpaceOnUse"
       width="6"
       height="6"
       x="0"
       y="0" /><pattern
       id="EMFhbasepattern-11"
       patternUnits="userSpaceOnUse"
       width="6"
       height="6"
       x="0"
       y="0" /><pattern
       id="EMFhbasepattern-4"
       patternUnits="userSpaceOnUse"
       width="6"
       height="6"
       x="0"
       y="0" /><pattern
       id="EMFhbasepattern-6"
       patternUnits="userSpaceOnUse"
       width="6"
       height="6"
       x="0"
       y="0" /><pattern
       id="EMFhbasepattern-41"
       patternUnits="userSpaceOnUse"
       width="6"
       height="6"
       x="0"
       y="0" /><pattern
       id="EMFhbasepattern-2-78"
       patternUnits="userSpaceOnUse"
       width="6"
       height="6"
       x="0"
       y="0" /><pattern
       id="EMFhbasepattern-3-9"
       patternUnits="userSpaceOnUse"
       width="6"
       height="6"
       x="0"
       y="0" /><pattern
       id="EMFhbasepattern-9-8"
       patternUnits="userSpaceOnUse"
       width="6"
       height="6"
       x="0"
       y="0" /><pattern
       id="EMFhbasepattern-0-32"
       patternUnits="userSpaceOnUse"
       width="6"
       height="6"
       x="0"
       y="0" /><pattern
       id="EMFhbasepattern-8-98"
       patternUnits="userSpaceOnUse"
       width="6"
       height="6"
       x="0"
       y="0" /><pattern
       id="EMFhbasepattern-119"
       patternUnits="userSpaceOnUse"
       width="6"
       height="6"
       x="0"
       y="0" /><pattern
       id="EMFhbasepattern-2-9"
       patternUnits="userSpaceOnUse"
       width="6"
       height="6"
       x="0"
       y="0" /><pattern
       id="EMFhbasepattern-3-48"
       patternUnits="userSpaceOnUse"
       width="6"
       height="6"
       x="0"
       y="0" /><pattern
       id="EMFhbasepattern-9-1"
       patternUnits="userSpaceOnUse"
       width="6"
       height="6"
       x="0"
       y="0" /><pattern
       id="EMFhbasepattern-0-5"
       patternUnits="userSpaceOnUse"
       width="6"
       height="6"
       x="0"
       y="0" /><pattern
       id="EMFhbasepattern-8-3"
       patternUnits="userSpaceOnUse"
       width="6"
       height="6"
       x="0"
       y="0" /></defs><sodipodi:namedview
     id="namedview1"
     pagecolor="#ffffff"
     bordercolor="#000000"
     borderopacity="0.25"
     inkscape:showpageshadow="2"
     inkscape:pageopacity="0.0"
     inkscape:pagecheckerboard="0"
     inkscape:deskcolor="#d1d1d1"
     showgrid="false"
     showguides="true"
     inkscape:zoom="0.77699996"
     inkscape:cx="731.66027"
     inkscape:cy="451.09398"
     inkscape:window-width="1920"
     inkscape:window-height="991"
     inkscape:window-x="-9"
     inkscape:window-y="-9"
     inkscape:window-maximized="1"
     inkscape:current-layer="svg1"><sodipodi:guide
       position="331.71162,386.07809"
       orientation="0,-1"
       id="guide1"
       inkscape:locked="false" /><sodipodi:guide
       position="708.47122,1086.8146"
       orientation="0,-1"
       id="guide2"
       inkscape:locked="false" /><sodipodi:guide
       position="1139.8503,649.00249"
       orientation="0,-1"
       id="guide3"
       inkscape:locked="false" /><sodipodi:guide
       position="1164.6445,5.4525762"
       orientation="0,-1"
       id="guide4"
       inkscape:locked="false" /><sodipodi:guide
       position="449.10835,420.13715"
       orientation="0,-1"
       id="guide5"
       inkscape:locked="false" /></sodipodi:namedview><path
     style="color:#000000;fill:#000000;stroke-linecap:round;stroke-linejoin:round;-inkscape-stroke:none"
     d="m 207.55273,493.30469 a 13.151315,13.151315 0 0 0 -6.73632,4.27148 c 0,0 -21.20332,25.48594 -47.09961,53.52149 -25.89629,28.03554 -58.094585,59.02812 -72.87305,67.12109 -15.620151,8.55389 -46.460479,14.9459 -72.4277344,18.16406 -25.9672556,3.21817 -47.2539066,3.88672 -47.2539066,3.88672 a 13.15,13.15 0 0 0 -12.732421,13.55469 13.15,13.15 0 0 0 13.554687,12.73242 c 0,0 22.395552,-0.69455 49.666016,-4.07422 27.270463,-3.37967 59.224371,-8.81813 81.826171,-21.19531 16.149958,-8.84403 35.264548,-26.42533 54.234378,-45.75781 -4.89004,15.04806 -7.67911,30.25689 -5.45508,44.88867 1.55474,10.22857 6.00973,20.35249 14.0957,27.98242 8.08598,7.62994 19.20736,12.41021 32.6211,14.40234 51.52532,7.65228 105.38129,-16.85115 147.93554,-48.14453 19.51593,-14.35155 36.50268,-30.2737 49.97071,-45.96289 1.82149,18.15653 7.65285,38.08784 22.68554,53.60742 15.19289,15.68496 39.15961,25.42257 72.29102,24.94336 a 13.15,13.15 0 0 0 12.95898,-13.33984 13.15,13.15 0 0 0 -13.33984,-12.95898 c -28.05252,0.40574 -43.40338,-7.01576 -53.01953,-16.94336 -9.61615,-9.92761 -14.08811,-23.79223 -15.48828,-38.40625 -1.40018,-14.61403 0.39452,-29.45722 2.16211,-39.30274 0.88379,-4.92276 1.71234,-8.44658 2.20117,-10.68945 0.1222,-0.56072 0.22174,-0.98003 0.35351,-1.7832 0.0659,-0.40159 0.19583,-0.66342 0.20313,-2.33594 0.004,-0.83626 0.71337,-1.71484 -1.35938,-5.92383 -1.03637,-2.1045 -4.06085,-5.91818 -8.875,-7.01953 -4.81414,-1.10135 -8.43334,0.70396 -10.12109,1.80273 -3.37549,2.19756 -3.38829,3.14327 -3.81641,3.78711 -0.42812,0.64384 -0.60481,0.99098 -0.75586,1.2793 -0.30209,0.57663 -0.4293,0.87639 -0.5625,1.17969 -0.26639,0.6066 -0.47776,1.13168 -0.74804,1.80664 a 13.151315,13.151315 0 0 0 -0.78321,2.85156 c -1.12386,7.16466 -8.30013,21.50069 -20.60546,36.53906 -12.30534,15.03837 -29.37044,31.2968 -48.93165,45.68164 -39.12241,28.76969 -88.1028,49.31483 -128.49218,43.31641 -9.56494,-1.42054 -15.04996,-4.31903 -18.43555,-7.51367 -3.38558,-3.19464 -5.26579,-7.04026 -6.14258,-12.8086 -1.75357,-11.53667 2.51414,-30.04293 10.3125,-48.59765 15.59672,-37.10944 42.89844,-74.02149 42.89844,-74.02149 a 13.151315,13.151315 0 0 0 -13.91602,-20.54101 z"
     id="path8" /><path
     style="color:#000000;fill:#000000;stroke-linecap:round;stroke-linejoin:round;-inkscape-stroke:none"
     d="m 228.35482,399.07683 a 13.15,13.15 0 0 0 -14.28516,11.90625 c 0.42306,-4.65364 0.89814,-2.43312 -1.57812,-0.22851 -2.47627,2.20461 -6.50525,5.09707 -10.67578,7.85937 -4.17053,2.7623 -8.46727,5.42493 -12.09571,7.88086 -1.81422,1.22797 -3.43321,2.34996 -5.14062,3.82032 -0.85371,0.73517 -1.73839,1.5155 -2.85352,2.93359 -1.11512,1.41809 -3.20312,3.52432 -3.20312,8.95703 a 13.15,13.15 0 0 0 13.15039,13.14844 13.15,13.15 0 0 0 10.86719,-6.05274 c -0.0356,0.0424 -0.11252,0.16685 -0.14258,0.20508 -0.60811,0.77333 -0.74992,0.81895 -0.65625,0.73828 0.18734,-0.16132 1.27866,-0.99465 2.7207,-1.9707 2.88408,-1.95211 7.28829,-4.69317 11.87695,-7.73242 4.58867,-3.03925 9.37686,-6.34657 13.64063,-10.14258 4.26376,-3.79601 9.40316,-7.37626 10.28125,-17.03516 a 13.15,13.15 0 0 0 -11.90625,-14.28711 z m -23.53125,43.12891 c 0,3.65854 -0.90058,5.19331 -1.66211,6.20117 a 13.15,13.15 0 0 0 1.66211,-6.20117 z"
     id="path17" /><path
     style="color:#000000;fill:#000000;stroke-linecap:round;stroke-linejoin:round;-inkscape-stroke:none"
     d="m 430.72787,401.14324 a 13.15,13.15 0 0 0 -15.97852,9.51367 c 0.67978,-2.68086 -0.49305,0.67932 -2.96875,3.61328 -2.47569,2.93397 -5.98116,6.54725 -9.53906,9.93946 -3.5579,3.3922 -7.20099,6.60732 -9.99024,8.91797 -1.39462,1.15532 -2.58992,2.09306 -3.33203,2.63867 -0.74211,0.54561 -2.63225,0.95536 1.19336,-0.39649 a 13.15,13.15 0 0 0 -8.01758,16.78125 13.15,13.15 0 0 0 16.78125,8.01758 c 4.59905,-1.62515 4.24908,-2.20417 5.6211,-3.21289 1.37201,-1.00872 2.86371,-2.19119 4.5332,-3.57422 3.33897,-2.76605 7.33336,-6.2982 11.35938,-10.13672 4.02601,-3.83851 8.05195,-7.93893 11.49023,-12.01367 3.43828,-4.07474 6.56315,-7.01786 8.36133,-14.10937 a 13.15,13.15 0 0 0 -9.51367,-15.97852 z"
     id="path18" /></svg>
