<?xml version="1.0" encoding="UTF-8" standalone="no"?>
<svg
   version="1.1"
   viewBox="-19 0 449.56339 1073.7326"
   id="svg1"
   sodipodi:docname="v.svg"
   width="449.56339"
   height="1073.7327"
   inkscape:version="1.3 (0e150ed6c4, 2023-07-21)"
   xml:space="preserve"
   xmlns:inkscape="http://www.inkscape.org/namespaces/inkscape"
   xmlns:sodipodi="http://sodipodi.sourceforge.net/DTD/sodipodi-0.dtd"
   xmlns="http://www.w3.org/2000/svg"
   xmlns:svg="http://www.w3.org/2000/svg"><defs
     id="defs1"><pattern
       id="EMFhbasepattern"
       patternUnits="userSpaceOnUse"
       width="6"
       height="6"
       x="0"
       y="0" /><pattern
       id="EMFhbasepattern-2"
       patternUnits="userSpaceOnUse"
       width="6"
       height="6"
       x="0"
       y="0" /><pattern
       id="EMFhbasepattern-3"
       patternUnits="userSpaceOnUse"
       width="6"
       height="6"
       x="0"
       y="0" /><pattern
       id="EMFhbasepattern-9"
       patternUnits="userSpaceOnUse"
       width="6"
       height="6"
       x="0"
       y="0" /><pattern
       id="EMFhbasepattern-0"
       patternUnits="userSpaceOnUse"
       width="6"
       height="6"
       x="0"
       y="0" /><pattern
       id="EMFhbasepattern-8"
       patternUnits="userSpaceOnUse"
       width="6"
       height="6"
       x="0"
       y="0" /><pattern
       id="EMFhbasepattern-89"
       patternUnits="userSpaceOnUse"
       width="6"
       height="6"
       x="0"
       y="0" /><pattern
       id="EMFhbasepattern-99"
       patternUnits="userSpaceOnUse"
       width="6"
       height="6"
       x="0"
       y="0" /><pattern
       id="EMFhbasepattern-2-7"
       patternUnits="userSpaceOnUse"
       width="6"
       height="6"
       x="0"
       y="0" /><pattern
       id="EMFhbasepattern-3-5"
       patternUnits="userSpaceOnUse"
       width="6"
       height="6"
       x="0"
       y="0" /><pattern
       id="EMFhbasepattern-9-6"
       patternUnits="userSpaceOnUse"
       width="6"
       height="6"
       x="0"
       y="0" /><pattern
       id="EMFhbasepattern-0-9"
       patternUnits="userSpaceOnUse"
       width="6"
       height="6"
       x="0"
       y="0" /><pattern
       id="EMFhbasepattern-8-2"
       patternUnits="userSpaceOnUse"
       width="6"
       height="6"
       x="0"
       y="0" /><pattern
       id="EMFhbasepattern-5"
       patternUnits="userSpaceOnUse"
       width="6"
       height="6"
       x="0"
       y="0" /><pattern
       id="EMFhbasepattern-2-0"
       patternUnits="userSpaceOnUse"
       width="6"
       height="6"
       x="0"
       y="0" /><pattern
       id="EMFhbasepattern-3-4"
       patternUnits="userSpaceOnUse"
       width="6"
       height="6"
       x="0"
       y="0" /><pattern
       id="EMFhbasepattern-9-0"
       patternUnits="userSpaceOnUse"
       width="6"
       height="6"
       x="0"
       y="0" /><pattern
       id="EMFhbasepattern-0-3"
       patternUnits="userSpaceOnUse"
       width="6"
       height="6"
       x="0"
       y="0" /><pattern
       id="EMFhbasepattern-8-5"
       patternUnits="userSpaceOnUse"
       width="6"
       height="6"
       x="0"
       y="0" /><pattern
       id="EMFhbasepattern-84"
       patternUnits="userSpaceOnUse"
       width="6"
       height="6"
       x="0"
       y="0" /><pattern
       id="EMFhbasepattern-2-5"
       patternUnits="userSpaceOnUse"
       width="6"
       height="6"
       x="0"
       y="0" /><pattern
       id="EMFhbasepattern-3-2"
       patternUnits="userSpaceOnUse"
       width="6"
       height="6"
       x="0"
       y="0" /><pattern
       id="EMFhbasepattern-9-4"
       patternUnits="userSpaceOnUse"
       width="6"
       height="6"
       x="0"
       y="0" /><pattern
       id="EMFhbasepattern-0-2"
       patternUnits="userSpaceOnUse"
       width="6"
       height="6"
       x="0"
       y="0" /><pattern
       id="EMFhbasepattern-8-0"
       patternUnits="userSpaceOnUse"
       width="6"
       height="6"
       x="0"
       y="0" /><pattern
       id="EMFhbasepattern-35"
       patternUnits="userSpaceOnUse"
       width="6"
       height="6"
       x="0"
       y="0" /><pattern
       id="EMFhbasepattern-2-1"
       patternUnits="userSpaceOnUse"
       width="6"
       height="6"
       x="0"
       y="0" /><pattern
       id="EMFhbasepattern-3-3"
       patternUnits="userSpaceOnUse"
       width="6"
       height="6"
       x="0"
       y="0" /><pattern
       id="EMFhbasepattern-9-7"
       patternUnits="userSpaceOnUse"
       width="6"
       height="6"
       x="0"
       y="0" /><pattern
       id="EMFhbasepattern-0-1"
       patternUnits="userSpaceOnUse"
       width="6"
       height="6"
       x="0"
       y="0" /><pattern
       id="EMFhbasepattern-8-9"
       patternUnits="userSpaceOnUse"
       width="6"
       height="6"
       x="0"
       y="0" /><pattern
       id="EMFhbasepattern-893"
       patternUnits="userSpaceOnUse"
       width="6"
       height="6"
       x="0"
       y="0" /><pattern
       id="EMFhbasepattern-2-3"
       patternUnits="userSpaceOnUse"
       width="6"
       height="6"
       x="0"
       y="0" /><pattern
       id="EMFhbasepattern-3-53"
       patternUnits="userSpaceOnUse"
       width="6"
       height="6"
       x="0"
       y="0" /><pattern
       id="EMFhbasepattern-9-60"
       patternUnits="userSpaceOnUse"
       width="6"
       height="6"
       x="0"
       y="0" /><pattern
       id="EMFhbasepattern-0-0"
       patternUnits="userSpaceOnUse"
       width="6"
       height="6"
       x="0"
       y="0" /><pattern
       id="EMFhbasepattern-8-54"
       patternUnits="userSpaceOnUse"
       width="6"
       height="6"
       x="0"
       y="0" /><pattern
       id="EMFhbasepattern-1"
       patternUnits="userSpaceOnUse"
       width="6"
       height="6"
       x="0"
       y="0" /><pattern
       id="EMFhbasepattern-29"
       patternUnits="userSpaceOnUse"
       width="6"
       height="6"
       x="0"
       y="0" /><pattern
       id="EMFhbasepattern-87"
       patternUnits="userSpaceOnUse"
       width="6"
       height="6"
       x="0"
       y="0" /><pattern
       id="EMFhbasepattern-08"
       patternUnits="userSpaceOnUse"
       width="6"
       height="6"
       x="0"
       y="0" /><pattern
       id="EMFhbasepattern-11"
       patternUnits="userSpaceOnUse"
       width="6"
       height="6"
       x="0"
       y="0" /><pattern
       id="EMFhbasepattern-4"
       patternUnits="userSpaceOnUse"
       width="6"
       height="6"
       x="0"
       y="0" /><pattern
       id="EMFhbasepattern-6"
       patternUnits="userSpaceOnUse"
       width="6"
       height="6"
       x="0"
       y="0" /><pattern
       id="EMFhbasepattern-41"
       patternUnits="userSpaceOnUse"
       width="6"
       height="6"
       x="0"
       y="0" /><pattern
       id="EMFhbasepattern-2-78"
       patternUnits="userSpaceOnUse"
       width="6"
       height="6"
       x="0"
       y="0" /><pattern
       id="EMFhbasepattern-3-9"
       patternUnits="userSpaceOnUse"
       width="6"
       height="6"
       x="0"
       y="0" /><pattern
       id="EMFhbasepattern-9-8"
       patternUnits="userSpaceOnUse"
       width="6"
       height="6"
       x="0"
       y="0" /><pattern
       id="EMFhbasepattern-0-32"
       patternUnits="userSpaceOnUse"
       width="6"
       height="6"
       x="0"
       y="0" /><pattern
       id="EMFhbasepattern-8-98"
       patternUnits="userSpaceOnUse"
       width="6"
       height="6"
       x="0"
       y="0" /><pattern
       id="EMFhbasepattern-119"
       patternUnits="userSpaceOnUse"
       width="6"
       height="6"
       x="0"
       y="0" /><pattern
       id="EMFhbasepattern-2-9"
       patternUnits="userSpaceOnUse"
       width="6"
       height="6"
       x="0"
       y="0" /><pattern
       id="EMFhbasepattern-3-48"
       patternUnits="userSpaceOnUse"
       width="6"
       height="6"
       x="0"
       y="0" /><pattern
       id="EMFhbasepattern-9-1"
       patternUnits="userSpaceOnUse"
       width="6"
       height="6"
       x="0"
       y="0" /><pattern
       id="EMFhbasepattern-0-5"
       patternUnits="userSpaceOnUse"
       width="6"
       height="6"
       x="0"
       y="0" /><pattern
       id="EMFhbasepattern-8-3"
       patternUnits="userSpaceOnUse"
       width="6"
       height="6"
       x="0"
       y="0" /></defs><sodipodi:namedview
     id="namedview1"
     pagecolor="#ffffff"
     bordercolor="#000000"
     borderopacity="0.25"
     inkscape:showpageshadow="2"
     inkscape:pageopacity="0.0"
     inkscape:pagecheckerboard="0"
     inkscape:deskcolor="#d1d1d1"
     showgrid="false"
     showguides="true"
     inkscape:zoom="1.0988439"
     inkscape:cx="286.2099"
     inkscape:cy="613.82696"
     inkscape:window-width="1920"
     inkscape:window-height="991"
     inkscape:window-x="-9"
     inkscape:window-y="-9"
     inkscape:window-maximized="1"
     inkscape:current-layer="svg1"><sodipodi:guide
       position="331.71162,386.07809"
       orientation="0,-1"
       id="guide1"
       inkscape:locked="false" /><sodipodi:guide
       position="708.47122,1086.8146"
       orientation="0,-1"
       id="guide2"
       inkscape:locked="false" /><sodipodi:guide
       position="1139.8503,649.00249"
       orientation="0,-1"
       id="guide3"
       inkscape:locked="false" /><sodipodi:guide
       position="1164.6445,5.4525762"
       orientation="0,-1"
       id="guide4"
       inkscape:locked="false" /><sodipodi:guide
       position="449.10835,420.13715"
       orientation="0,-1"
       id="guide5"
       inkscape:locked="false" /></sodipodi:namedview><path
     id="path8"
     style="color:#000000;fill:#000000;stroke-linecap:round;stroke-linejoin:round;-inkscape-stroke:none"
     d="M 380.19141 484.19727 C 377.63092 484.27907 375.1072 484.64449 372.67773 485.29883 C 362.95987 487.91617 355.12138 494.28253 349.0918 502.16797 C 337.03262 517.93885 331.01439 540.61921 333.56055 564.84961 C 334.64281 575.14891 337.54053 585.72585 342.27734 595.99219 C 341.47043 596.81958 340.75431 597.55551 339.91406 598.42383 C 334.0177 603.56259 327.89545 608.64125 321.32812 613.4707 C 282.20579 642.24033 233.22524 662.78551 192.83594 656.78711 C 183.27102 655.36657 177.78598 652.46806 174.40039 649.27344 C 171.01481 646.0788 169.1346 642.23318 168.25781 636.46484 C 166.50424 624.92821 170.77197 606.42187 178.57031 587.86719 C 194.16701 550.75781 221.46875 513.8457 221.46875 513.8457 A 13.151315 13.151315 0 0 0 212.14453 492.93164 A 13.151315 13.151315 0 0 0 207.55273 493.30469 A 13.151315 13.151315 0 0 0 200.81641 497.57617 C 200.81641 497.57617 179.61303 523.06215 153.7168 551.09766 C 127.82055 579.13314 95.622185 610.1258 80.84375 618.21875 C 65.223631 626.77262 34.383219 633.16467 8.4160156 636.38281 C -17.551188 639.60098 -38.837891 640.26953 -38.837891 640.26953 A 13.15 13.15 0 0 0 -51.570312 653.82422 A 13.15 13.15 0 0 0 -38.015625 666.55664 C -38.015625 666.55664 -15.620019 665.86209 11.650391 662.48242 C 38.920798 659.10277 70.874808 653.66427 93.476562 641.28711 C 109.62648 632.4431 128.74115 614.86174 147.71094 595.5293 C 142.8209 610.57732 140.03183 625.78621 142.25586 640.41797 C 143.8106 650.64652 148.26561 660.77048 156.35156 668.40039 C 164.43752 676.03031 175.55894 680.81062 188.97266 682.80273 C 240.49786 690.45501 294.35405 665.95152 336.9082 634.6582 C 340.28183 632.17732 343.53012 629.63128 346.72461 627.05859 A 13.15 13.15 0 0 0 355.17578 617.91211 C 354.3514 621.20957 353.72071 621.46739 353.38086 621.97656 C 353.04101 622.48573 352.86376 622.69711 352.73438 622.85742 C 352.47562 623.17805 352.42136 623.22818 352.41211 623.23828 C 352.39361 623.25848 352.60311 623.03411 352.90039 622.73047 C 353.49495 622.12318 354.49108 621.12728 355.74219 619.86914 C 355.98364 619.62633 356.46767 619.1183 356.72852 618.85547 C 361.33983 624.31803 366.67499 629.50734 372.81055 634.29102 C 397.59963 653.61818 434.54115 666.18606 486.39258 666.78906 A 13.15 13.15 0 0 0 499.69531 653.79297 A 13.15 13.15 0 0 0 486.69922 640.49023 C 438.93577 639.93477 408.13604 628.48417 388.98242 613.55078 C 383.34425 609.1549 378.75444 604.41433 374.89258 599.49219 C 381.2879 592.3474 388.00934 584.51272 394.48438 575.71094 C 404.06344 562.68974 412.73887 548.73213 416.5918 534.02148 C 418.51825 526.66616 419.2407 518.8814 417.2168 511.08203 C 415.19288 503.28266 410.02712 495.9031 402.77344 490.95117 C 395.89531 486.25565 387.87286 483.95194 380.19141 484.19727 z M 381.36719 510.33789 C 383.18378 510.1742 385.02243 510.67844 387.94531 512.67383 C 390.60888 514.49218 391.23828 515.6779 391.75977 517.6875 C 392.28125 519.6971 392.29938 522.96502 391.14844 527.35938 C 388.84655 536.14811 381.87145 548.47384 373.29883 560.12695 C 369.72127 564.99007 365.8596 569.64995 362.04297 574.17773 C 360.93423 570.14843 360.1378 566.10802 359.7168 562.10156 C 357.83612 544.2042 363.1108 527.13178 369.98438 518.14258 C 373.42117 513.64797 376.95848 511.38261 379.51758 510.69336 C 380.15735 510.52105 380.76166 510.39245 381.36719 510.33789 z " /></svg>
