<?xml version="1.0" encoding="UTF-8" standalone="no"?>
<svg
   version="1.1"
   viewBox="-19 0 449.56339 1073.7326"
   id="svg1"
   sodipodi:docname="w.svg"
   width="449.56339"
   height="1073.7327"
   inkscape:version="1.3 (0e150ed6c4, 2023-07-21)"
   xml:space="preserve"
   xmlns:inkscape="http://www.inkscape.org/namespaces/inkscape"
   xmlns:sodipodi="http://sodipodi.sourceforge.net/DTD/sodipodi-0.dtd"
   xmlns="http://www.w3.org/2000/svg"
   xmlns:svg="http://www.w3.org/2000/svg"><defs
     id="defs1"><pattern
       id="EMFhbasepattern"
       patternUnits="userSpaceOnUse"
       width="6"
       height="6"
       x="0"
       y="0" /><pattern
       id="EMFhbasepattern-2"
       patternUnits="userSpaceOnUse"
       width="6"
       height="6"
       x="0"
       y="0" /><pattern
       id="EMFhbasepattern-3"
       patternUnits="userSpaceOnUse"
       width="6"
       height="6"
       x="0"
       y="0" /><pattern
       id="EMFhbasepattern-9"
       patternUnits="userSpaceOnUse"
       width="6"
       height="6"
       x="0"
       y="0" /><pattern
       id="EMFhbasepattern-0"
       patternUnits="userSpaceOnUse"
       width="6"
       height="6"
       x="0"
       y="0" /><pattern
       id="EMFhbasepattern-8"
       patternUnits="userSpaceOnUse"
       width="6"
       height="6"
       x="0"
       y="0" /><pattern
       id="EMFhbasepattern-89"
       patternUnits="userSpaceOnUse"
       width="6"
       height="6"
       x="0"
       y="0" /><pattern
       id="EMFhbasepattern-99"
       patternUnits="userSpaceOnUse"
       width="6"
       height="6"
       x="0"
       y="0" /><pattern
       id="EMFhbasepattern-2-7"
       patternUnits="userSpaceOnUse"
       width="6"
       height="6"
       x="0"
       y="0" /><pattern
       id="EMFhbasepattern-3-5"
       patternUnits="userSpaceOnUse"
       width="6"
       height="6"
       x="0"
       y="0" /><pattern
       id="EMFhbasepattern-9-6"
       patternUnits="userSpaceOnUse"
       width="6"
       height="6"
       x="0"
       y="0" /><pattern
       id="EMFhbasepattern-0-9"
       patternUnits="userSpaceOnUse"
       width="6"
       height="6"
       x="0"
       y="0" /><pattern
       id="EMFhbasepattern-8-2"
       patternUnits="userSpaceOnUse"
       width="6"
       height="6"
       x="0"
       y="0" /><pattern
       id="EMFhbasepattern-5"
       patternUnits="userSpaceOnUse"
       width="6"
       height="6"
       x="0"
       y="0" /><pattern
       id="EMFhbasepattern-2-0"
       patternUnits="userSpaceOnUse"
       width="6"
       height="6"
       x="0"
       y="0" /><pattern
       id="EMFhbasepattern-3-4"
       patternUnits="userSpaceOnUse"
       width="6"
       height="6"
       x="0"
       y="0" /><pattern
       id="EMFhbasepattern-9-0"
       patternUnits="userSpaceOnUse"
       width="6"
       height="6"
       x="0"
       y="0" /><pattern
       id="EMFhbasepattern-0-3"
       patternUnits="userSpaceOnUse"
       width="6"
       height="6"
       x="0"
       y="0" /><pattern
       id="EMFhbasepattern-8-5"
       patternUnits="userSpaceOnUse"
       width="6"
       height="6"
       x="0"
       y="0" /><pattern
       id="EMFhbasepattern-84"
       patternUnits="userSpaceOnUse"
       width="6"
       height="6"
       x="0"
       y="0" /><pattern
       id="EMFhbasepattern-2-5"
       patternUnits="userSpaceOnUse"
       width="6"
       height="6"
       x="0"
       y="0" /><pattern
       id="EMFhbasepattern-3-2"
       patternUnits="userSpaceOnUse"
       width="6"
       height="6"
       x="0"
       y="0" /><pattern
       id="EMFhbasepattern-9-4"
       patternUnits="userSpaceOnUse"
       width="6"
       height="6"
       x="0"
       y="0" /><pattern
       id="EMFhbasepattern-0-2"
       patternUnits="userSpaceOnUse"
       width="6"
       height="6"
       x="0"
       y="0" /><pattern
       id="EMFhbasepattern-8-0"
       patternUnits="userSpaceOnUse"
       width="6"
       height="6"
       x="0"
       y="0" /><pattern
       id="EMFhbasepattern-35"
       patternUnits="userSpaceOnUse"
       width="6"
       height="6"
       x="0"
       y="0" /><pattern
       id="EMFhbasepattern-2-1"
       patternUnits="userSpaceOnUse"
       width="6"
       height="6"
       x="0"
       y="0" /><pattern
       id="EMFhbasepattern-3-3"
       patternUnits="userSpaceOnUse"
       width="6"
       height="6"
       x="0"
       y="0" /><pattern
       id="EMFhbasepattern-9-7"
       patternUnits="userSpaceOnUse"
       width="6"
       height="6"
       x="0"
       y="0" /><pattern
       id="EMFhbasepattern-0-1"
       patternUnits="userSpaceOnUse"
       width="6"
       height="6"
       x="0"
       y="0" /><pattern
       id="EMFhbasepattern-8-9"
       patternUnits="userSpaceOnUse"
       width="6"
       height="6"
       x="0"
       y="0" /><pattern
       id="EMFhbasepattern-893"
       patternUnits="userSpaceOnUse"
       width="6"
       height="6"
       x="0"
       y="0" /><pattern
       id="EMFhbasepattern-2-3"
       patternUnits="userSpaceOnUse"
       width="6"
       height="6"
       x="0"
       y="0" /><pattern
       id="EMFhbasepattern-3-53"
       patternUnits="userSpaceOnUse"
       width="6"
       height="6"
       x="0"
       y="0" /><pattern
       id="EMFhbasepattern-9-60"
       patternUnits="userSpaceOnUse"
       width="6"
       height="6"
       x="0"
       y="0" /><pattern
       id="EMFhbasepattern-0-0"
       patternUnits="userSpaceOnUse"
       width="6"
       height="6"
       x="0"
       y="0" /><pattern
       id="EMFhbasepattern-8-54"
       patternUnits="userSpaceOnUse"
       width="6"
       height="6"
       x="0"
       y="0" /><pattern
       id="EMFhbasepattern-1"
       patternUnits="userSpaceOnUse"
       width="6"
       height="6"
       x="0"
       y="0" /><pattern
       id="EMFhbasepattern-29"
       patternUnits="userSpaceOnUse"
       width="6"
       height="6"
       x="0"
       y="0" /><pattern
       id="EMFhbasepattern-87"
       patternUnits="userSpaceOnUse"
       width="6"
       height="6"
       x="0"
       y="0" /><pattern
       id="EMFhbasepattern-08"
       patternUnits="userSpaceOnUse"
       width="6"
       height="6"
       x="0"
       y="0" /><pattern
       id="EMFhbasepattern-11"
       patternUnits="userSpaceOnUse"
       width="6"
       height="6"
       x="0"
       y="0" /><pattern
       id="EMFhbasepattern-4"
       patternUnits="userSpaceOnUse"
       width="6"
       height="6"
       x="0"
       y="0" /><pattern
       id="EMFhbasepattern-6"
       patternUnits="userSpaceOnUse"
       width="6"
       height="6"
       x="0"
       y="0" /><pattern
       id="EMFhbasepattern-41"
       patternUnits="userSpaceOnUse"
       width="6"
       height="6"
       x="0"
       y="0" /><pattern
       id="EMFhbasepattern-2-78"
       patternUnits="userSpaceOnUse"
       width="6"
       height="6"
       x="0"
       y="0" /><pattern
       id="EMFhbasepattern-3-9"
       patternUnits="userSpaceOnUse"
       width="6"
       height="6"
       x="0"
       y="0" /><pattern
       id="EMFhbasepattern-9-8"
       patternUnits="userSpaceOnUse"
       width="6"
       height="6"
       x="0"
       y="0" /><pattern
       id="EMFhbasepattern-0-32"
       patternUnits="userSpaceOnUse"
       width="6"
       height="6"
       x="0"
       y="0" /><pattern
       id="EMFhbasepattern-8-98"
       patternUnits="userSpaceOnUse"
       width="6"
       height="6"
       x="0"
       y="0" /><pattern
       id="EMFhbasepattern-119"
       patternUnits="userSpaceOnUse"
       width="6"
       height="6"
       x="0"
       y="0" /><pattern
       id="EMFhbasepattern-2-9"
       patternUnits="userSpaceOnUse"
       width="6"
       height="6"
       x="0"
       y="0" /><pattern
       id="EMFhbasepattern-3-48"
       patternUnits="userSpaceOnUse"
       width="6"
       height="6"
       x="0"
       y="0" /><pattern
       id="EMFhbasepattern-9-1"
       patternUnits="userSpaceOnUse"
       width="6"
       height="6"
       x="0"
       y="0" /><pattern
       id="EMFhbasepattern-0-5"
       patternUnits="userSpaceOnUse"
       width="6"
       height="6"
       x="0"
       y="0" /><pattern
       id="EMFhbasepattern-8-3"
       patternUnits="userSpaceOnUse"
       width="6"
       height="6"
       x="0"
       y="0" /></defs><sodipodi:namedview
     id="namedview1"
     pagecolor="#ffffff"
     bordercolor="#000000"
     borderopacity="0.25"
     inkscape:showpageshadow="2"
     inkscape:pageopacity="0.0"
     inkscape:pagecheckerboard="0"
     inkscape:deskcolor="#d1d1d1"
     showgrid="false"
     showguides="true"
     inkscape:zoom="0.77699996"
     inkscape:cx="375.1609"
     inkscape:cy="551.48008"
     inkscape:window-width="1920"
     inkscape:window-height="991"
     inkscape:window-x="-9"
     inkscape:window-y="-9"
     inkscape:window-maximized="1"
     inkscape:current-layer="svg1"><sodipodi:guide
       position="331.71162,386.07809"
       orientation="0,-1"
       id="guide1"
       inkscape:locked="false" /><sodipodi:guide
       position="708.47122,1086.8146"
       orientation="0,-1"
       id="guide2"
       inkscape:locked="false" /><sodipodi:guide
       position="1139.8503,649.00249"
       orientation="0,-1"
       id="guide3"
       inkscape:locked="false" /><sodipodi:guide
       position="1164.6445,5.4525762"
       orientation="0,-1"
       id="guide4"
       inkscape:locked="false" /><sodipodi:guide
       position="449.10835,420.13715"
       orientation="0,-1"
       id="guide5"
       inkscape:locked="false" /></sodipodi:namedview><path
     id="path8"
     style="color:#000000;fill:#000000;stroke-linecap:round;stroke-linejoin:round;-inkscape-stroke:none"
     d="M 611.49023 489.79102 C 607.6198 489.97495 603.83614 490.70733 600.28125 491.95703 C 590.80159 495.28954 582.98498 501.7927 576.90039 509.82031 C 564.73121 525.87554 558.7241 548.47323 561.67383 572.26953 C 562.88677 582.05462 565.87215 592.01976 570.56836 601.67383 C 564.52823 606.98183 558.15221 612.20475 551.37109 617.19141 C 530.29466 632.69051 505.18926 640.91023 481.52148 640.95898 A 13.15 13.15 0 0 0 481.47461 640.94727 C 479.91292 640.96985 478.53299 640.88048 477.04883 640.85547 C 472.78372 640.67516 468.57116 640.25644 464.45703 639.52539 L 464.45703 640.04102 C 446.88174 637.83281 435.90541 631.69554 428.45508 624.00391 C 418.83894 614.07631 414.36697 600.21166 412.9668 585.59766 C 411.56662 570.98364 413.36132 556.14043 415.12891 546.29492 C 416.0127 541.37217 416.84125 537.84834 417.33008 535.60547 C 417.45228 535.04475 417.55182 534.62543 417.68359 533.82227 C 417.74949 533.42068 417.87942 533.15885 417.88672 531.48633 C 417.89072 530.65007 418.60009 529.77149 416.52734 525.5625 C 415.49097 523.458 412.46649 519.64432 407.65234 518.54297 C 402.83821 517.44162 399.219 519.24693 397.53125 520.3457 C 394.15576 522.54326 394.14296 523.48897 393.71484 524.13281 C 393.28672 524.77665 393.11003 525.12379 392.95898 525.41211 C 392.65689 525.98874 392.52968 526.2885 392.39648 526.5918 C 392.13009 527.1984 391.91872 527.72348 391.64844 528.39844 A 13.151315 13.151315 0 0 0 390.86523 531.25 C 389.74138 538.41465 382.56508 552.75071 370.25977 567.78906 C 357.95444 582.82742 340.88932 599.08588 321.32812 613.4707 C 282.20575 642.24036 233.22528 662.78552 192.83594 656.78711 C 183.27101 655.36657 177.78598 652.46807 174.40039 649.27344 C 171.01481 646.0788 169.1346 642.23318 168.25781 636.46484 C 166.50424 624.92819 170.77196 606.42189 178.57031 587.86719 C 194.16702 550.75778 221.46875 513.8457 221.46875 513.8457 A 13.151315 13.151315 0 0 0 207.55273 493.30469 A 13.151315 13.151315 0 0 0 200.81641 497.57617 C 200.81641 497.57617 179.61306 523.06213 153.7168 551.09766 C 127.82053 579.13317 95.6222 610.12579 80.84375 618.21875 C 65.223615 626.77263 34.383245 633.16466 8.4160156 636.38281 C -17.551214 639.60098 -38.837891 640.26953 -38.837891 640.26953 A 13.15 13.15 0 0 0 -51.570312 653.82422 A 13.15 13.15 0 0 0 -38.015625 666.55664 C -38.015625 666.55664 -15.620046 665.86209 11.650391 662.48242 C 38.920826 659.10276 70.874785 653.66428 93.476562 641.28711 C 109.6265 632.44309 128.74113 614.86176 147.71094 595.5293 C 142.8209 610.57734 140.03183 625.7862 142.25586 640.41797 C 143.8106 650.64653 148.2656 660.77047 156.35156 668.40039 C 164.43753 676.03032 175.55893 680.81061 188.97266 682.80273 C 240.49792 690.45501 294.354 665.95155 336.9082 634.6582 C 356.42411 620.30667 373.41089 604.38449 386.87891 588.69531 C 388.70039 606.85182 394.53178 626.78317 409.56445 642.30273 C 421.93729 655.0763 440.23512 663.7943 464.45703 666.37305 L 464.45703 666.60352 C 494.07551 671.54815 536.96197 660.43225 566.95117 638.37891 C 573.36908 633.65934 579.36049 628.71891 585.16602 623.71484 C 590.10622 629.34252 595.79992 634.68147 602.42969 639.54297 C 627.61138 658.00825 664.68626 669.90796 716.43555 670.50977 C 723.69783 670.59457 729.65378 664.77595 729.73828 657.51367 C 729.82308 650.25139 724.00447 644.29545 716.74219 644.21094 C 668.8768 643.6543 637.55882 632.68902 617.98242 618.33398 C 612.32519 614.18565 607.68848 609.73074 603.76758 605.10938 C 605.15529 603.43658 606.16603 602.23195 607.66797 600.41016 C 616.1086 590.17192 625.67126 578.42216 631.23047 570.54688 C 642.82251 554.12535 647.82084 538.48097 647.75 524.99609 C 647.6792 511.51123 642.7019 499.02019 630.90234 493.58789 C 625.88589 491.2784 620.60066 490.03802 615.38477 489.79102 C 614.08079 489.72932 612.78038 489.72972 611.49023 489.79102 z M 614.14258 515.91211 C 615.79082 515.98954 617.55172 516.46377 619.57031 517.35547 C 619.23756 517.35195 621.42055 519.30562 621.45117 525.13477 C 621.48647 531.84614 618.82078 542.52074 609.74414 555.37891 C 605.84673 560.90006 597.76676 570.96336 590.16992 580.23633 C 589.06328 576.50152 588.23658 572.75567 587.77539 569.03516 C 585.6459 551.85592 590.60653 535.27594 597.85938 525.70703 C 601.48577 520.92258 605.49307 518.00179 609.00391 516.76758 C 610.75931 516.15048 612.3991 515.83019 614.14258 515.91211 z " /></svg>
