<?xml version="1.0" encoding="UTF-8" standalone="no"?>
<svg
   version="1.1"
   viewBox="-19 0 1304.5326 1081.5014"
   id="svg1"
   sodipodi:docname="altSign.svg"
   width="1304.5326"
   height="1081.5015"
   inkscape:version="1.3 (0e150ed6c4, 2023-07-21)"
   xmlns:inkscape="http://www.inkscape.org/namespaces/inkscape"
   xmlns:sodipodi="http://sodipodi.sourceforge.net/DTD/sodipodi-0.dtd"
   xmlns="http://www.w3.org/2000/svg"
   xmlns:svg="http://www.w3.org/2000/svg">
  <defs
     id="defs1">
    <pattern
       id="EMFhbasepattern"
       patternUnits="userSpaceOnUse"
       width="6"
       height="6"
       x="0"
       y="0" />
    <pattern
       id="EMFhbasepattern-2"
       patternUnits="userSpaceOnUse"
       width="6"
       height="6"
       x="0"
       y="0" />
    <pattern
       id="EMFhbasepattern-3"
       patternUnits="userSpaceOnUse"
       width="6"
       height="6"
       x="0"
       y="0" />
    <pattern
       id="EMFhbasepattern-9"
       patternUnits="userSpaceOnUse"
       width="6"
       height="6"
       x="0"
       y="0" />
  </defs>
  <sodipodi:namedview
     id="namedview1"
     pagecolor="#ffffff"
     bordercolor="#000000"
     borderopacity="0.25"
     inkscape:showpageshadow="2"
     inkscape:pageopacity="0.0"
     inkscape:pagecheckerboard="0"
     inkscape:deskcolor="#d1d1d1"
     showgrid="false"
     showguides="true"
     inkscape:zoom="0.54942197"
     inkscape:cx="330.34718"
     inkscape:cy="505.07627"
     inkscape:window-width="1920"
     inkscape:window-height="991"
     inkscape:window-x="-9"
     inkscape:window-y="-9"
     inkscape:window-maximized="1"
     inkscape:current-layer="svg1">
    <sodipodi:guide
       position="235.55298,383.59537"
       orientation="0,-1"
       id="guide1"
       inkscape:locked="false" />
    <sodipodi:guide
       position="612.31258,1084.3319"
       orientation="0,-1"
       id="guide2"
       inkscape:locked="false" />
    <sodipodi:guide
       position="399.24515,643.89649"
       orientation="0,-1"
       id="guide3"
       inkscape:locked="false" />
    <sodipodi:guide
       position="1068.4858,2.9698537"
       orientation="0,-1"
       id="guide4"
       inkscape:locked="false" />
    <sodipodi:guide
       position="628.33138,489.45634"
       orientation="0,-1"
       id="guide5"
       inkscape:locked="false" />
  </sodipodi:namedview>
  <path
     style="color:#000000;fill:#000000;stroke-linecap:round;stroke-linejoin:round;-inkscape-stroke:none;paint-order:markers fill stroke"
     d="m 754.49359,206.08946 c -10.6989,-0.21876 -21.60575,-0.20785 -32.7168,0.0391 -123.41601,2.74258 -233.29291,12.92245 -322.8496,45.94922 -89.5567,33.02678 -158.84819,90.04983 -196.79883,183.42578 -18.02481,44.34927 -31.53232,99.70227 -26.75586,156.83789 4.77645,57.13563 28.44876,116.09861 83.4375,164.62305 109.97746,97.04889 340.41459,152.99566 794.3848,96.15625 a 13.0965,13.0965 0 0 0 11.3672,-14.62109 13.0965,13.0965 0 0 0 -14.6231,-11.36914 c -450.74989,56.43621 -673.85825,-1.61475 -773.79883,-89.80664 -49.97028,-44.09595 -70.35021,-95.5641 -74.66406,-147.16602 -4.31384,-51.60191 8.05222,-103.29356 24.91797,-144.79101 35.21741,-86.65095 96.97155,-137.50443 181.59766,-168.7129 84.62611,-31.20846 192.0687,-41.62214 314.36523,-44.33984 171.89804,-3.81996 288.47773,51.82509 339.49803,123.33203 25.5102,35.75347 35.1117,75.21418 28.1934,115.1211 -6.9101,39.85902 -30.6111,80.61651 -74.1699,117.62695 -61.94744,48.71691 -136.68379,79.48484 -180.65044,75.51367 -22.00914,-1.98792 -35.03145,-9.94631 -41.71679,-28.75781 -2.59347,-7.29761 -3.93141,-16.74582 -3.64649,-28.3125 10.41978,-23.20952 18.37706,-48.59354 20.63868,-72.18555 1.7993,-18.76937 0.12856,-36.9328 -9.27149,-51.7168 -1.99478,-3.1373 -4.43521,-5.96069 -7.13672,-8.56054 -3.60017,-4.12226 -7.65424,-7.36393 -11.76953,-9.65821 -16.03701,-8.94061 -32.47461,-5.7871 -32.47461,-5.7871 a 13.09781,13.09781 0 0 0 -6.02148,3.56835 13.0965,13.0965 0 0 0 -4.83399,-6.52343 c 0,0 -4.44598,-2.85685 -11.25976,-5.26367 -6.81379,-2.40683 -16.9896,-5.05817 -31.50977,-6.7754 -29.04034,-3.43445 -75.45184,-3.1665 -147.62304,10.4043 -86.08636,16.18736 -132.52434,73.5397 -127.11133,130.13281 5.41301,56.59312 62.23782,105.92849 161.72265,108.36914 26.74054,0.65603 64.30548,0.0714 99.48047,-5.87304 35.175,-5.94446 69.04164,-16.23506 86.51367,-41.67969 a 13.09781,13.09781 0 0 0 0.13868,-0.20898 c 10.29636,27.37864 35.19851,42.35551 63.52539,44.91406 57.4898,5.19261 133.88888,-29.57538 199.4316,-81.18945 a 13.09781,13.09781 0 0 0 0.3711,-0.30274 c 47.3457,-40.17412 75.0504,-86.35611 83.1817,-133.25976 8.1313,-46.90366 -3.6142,-94.07218 -32.6797,-134.8086 -54.4978,-76.38082 -168.20014,-131.0623 -328.68361,-134.34379 z m -98.29492,262.25 c 15.16644,-0.24542 27.34015,0.47078 36.95117,1.60742 12.81469,1.51553 21.07354,3.77171 25.86133,5.46289 4.78779,1.69119 5.10937,2.12305 5.10937,2.12305 a 13.0965,13.0965 0 0 0 16.10938,-1.97851 13.09781,13.09781 0 0 0 11.61523,9.39453 c 11.37342,0.11535 18.01282,2.49892 22.60547,6.52734 1.42728,1.63366 2.73724,3.74362 3.89453,6.67578 2.31896,5.87541 3.75622,15.47127 1.92188,30.17383 -9.8497,27.7257 -15.19722,51.46268 -16.45117,71.91797 -5.06578,10.94839 -10.61117,21.34983 -16.28321,30.31445 -9.6163,13.8696 -36.88862,25.12099 -69.20312,30.58203 -32.3912,5.47401 -68.75322,6.1466 -94.47266,5.51563 -91.39297,-2.24214 -132.38506,-43.83901 -136.29101,-84.67578 -3.90595,-40.83678 28.83778,-87.41228 105.87695,-101.89844 43.88873,-8.25267 77.47846,-11.33315 102.75586,-11.74219 z"
     id="path1" />
</svg>
