<?xml version="1.0" encoding="UTF-8" standalone="no"?>
<svg
   version="1.1"
   viewBox="-19 0 306.30631 1078.5563"
   id="svg1"
   sodipodi:docname="asteisk.svg"
   width="306.3063"
   height="1078.5564"
   inkscape:version="1.3 (0e150ed6c4, 2023-07-21)"
   xmlns:inkscape="http://www.inkscape.org/namespaces/inkscape"
   xmlns:sodipodi="http://sodipodi.sourceforge.net/DTD/sodipodi-0.dtd"
   xmlns="http://www.w3.org/2000/svg"
   xmlns:svg="http://www.w3.org/2000/svg">
  <defs
     id="defs1">
    <pattern
       id="EMFhbasepattern"
       patternUnits="userSpaceOnUse"
       width="6"
       height="6"
       x="0"
       y="0" />
    <pattern
       id="EMFhbasepattern-2"
       patternUnits="userSpaceOnUse"
       width="6"
       height="6"
       x="0"
       y="0" />
    <pattern
       id="EMFhbasepattern-3"
       patternUnits="userSpaceOnUse"
       width="6"
       height="6"
       x="0"
       y="0" />
    <pattern
       id="EMFhbasepattern-9"
       patternUnits="userSpaceOnUse"
       width="6"
       height="6"
       x="0"
       y="0" />
    <pattern
       id="EMFhbasepattern-0"
       patternUnits="userSpaceOnUse"
       width="6"
       height="6"
       x="0"
       y="0" />
  </defs>
  <sodipodi:namedview
     id="namedview1"
     pagecolor="#ffffff"
     bordercolor="#000000"
     borderopacity="0.25"
     inkscape:showpageshadow="2"
     inkscape:pageopacity="0.0"
     inkscape:pagecheckerboard="0"
     inkscape:deskcolor="#d1d1d1"
     showgrid="false"
     showguides="true"
     inkscape:zoom="0.3885"
     inkscape:cx="-521.23552"
     inkscape:cy="626.76963"
     inkscape:window-width="1920"
     inkscape:window-height="991"
     inkscape:window-x="-9"
     inkscape:window-y="-9"
     inkscape:window-maximized="1"
     inkscape:current-layer="svg1">
    <sodipodi:guide
       position="297.58484,381.07281"
       orientation="0,-1"
       id="guide1"
       inkscape:locked="false" />
    <sodipodi:guide
       position="674.34444,1081.8093"
       orientation="0,-1"
       id="guide2"
       inkscape:locked="false" />
    <sodipodi:guide
       position="1105.7235,643.99721"
       orientation="0,-1"
       id="guide3"
       inkscape:locked="false" />
    <sodipodi:guide
       position="1130.5177,0.447293"
       orientation="0,-1"
       id="guide4"
       inkscape:locked="false" />
    <sodipodi:guide
       position="690.36324,486.93378"
       orientation="0,-1"
       id="guide5"
       inkscape:locked="false" />
  </sodipodi:namedview>
  <path
     style="color:#000000;fill:#000000;stroke-linecap:round;stroke-linejoin:round;-inkscape-stroke:none;paint-order:markers fill stroke"
     d="m 126.7274,449.28934 a 13.0965,13.0965 0 0 0 -11.55078,14.47852 c 0,0 16.07438,146.27927 9.97266,219.5 a 13.0965,13.0965 0 0 0 11.96484,14.13867 13.0965,13.0965 0 0 0 14.13867,-11.96289 C 157.89171,605.77658 141.20592,460.84012 141.20592,460.84012 A 13.0965,13.0965 0 0 0 126.7274,449.28934 Z"
     id="path29" />
  <path
     style="color:#000000;fill:#000000;stroke-linecap:round;stroke-linejoin:round;-inkscape-stroke:none;paint-order:markers fill stroke"
     d="m 229.51256,552.13114 c -17.70098,2.05825 -70.8068,4.01449 -118.16211,5.26367 -47.355324,1.24918 -89.845704,1.92969 -89.845704,1.92969 a 13.0965,13.0965 0 0 0 -12.88477,13.30468 13.0965,13.0965 0 0 0 13.30469,12.88477 c 0,0 42.60016,-0.6821 90.117184,-1.93555 47.51703,-1.25344 99.06509,-2.93771 120.4961,-5.42968 a 13.0965,13.0965 0 0 0 11.49609,-14.52149 13.0965,13.0965 0 0 0 -14.52148,-11.49609 z"
     id="path28" />
  <path
     style="color:#000000;fill:#000000;stroke-linecap:round;stroke-linejoin:round;-inkscape-stroke:none;paint-order:markers fill stroke"
     d="m 50.774276,481.19559 a 13.0965,13.0965 0 0 0 -8.61328,5.12695 13.0965,13.0965 0 0 0 2.6621,18.32813 c 0,0 31.10281,23.21936 65.892584,52.83008 34.78978,29.61071 73.46116,66.79779 86.22461,88.84375 a 13.0965,13.0965 0 0 0 17.89649,4.77343 13.0965,13.0965 0 0 0 4.77148,-17.89648 C 202.34018,603.37476 163.20355,567.75832 127.69225,537.53348 92.180936,507.30865 60.491066,483.66043 60.491066,483.66044 a 13.0965,13.0965 0 0 0 -9.71679,-2.46485 z"
     id="path27" />
  <path
     style="color:#000000;fill:#000000;stroke-linecap:round;stroke-linejoin:round;-inkscape-stroke:none;paint-order:markers fill stroke"
     d="m 209.73717,499.48075 a 13.0965,13.0965 0 0 0 -9.91992,1.4375 c -22.70984,13.51014 -56.04333,47.4572 -86.83985,79.69726 -15.398264,16.12004 -29.707334,31.62294 -40.398444,43.32813 -5.34555,5.85259 -9.78743,10.75806 -12.99609,14.30078 -3.20866,3.54271 -6.16318,6.68076 -5.20898,5.72656 a 13.0965,13.0965 0 0 0 0,18.52149 13.0965,13.0965 0 0 0 18.52148,0 c 1.86424,-1.86425 2.89174,-3.12418 6.09961,-6.66602 3.20787,-3.54184 7.61899,-8.40878 12.92383,-14.2168 10.609664,-11.61602 24.795994,-26.98771 39.998044,-42.90234 30.40411,-31.82925 66.68895,-66.59054 81.29102,-75.27734 a 13.0965,13.0965 0 0 0 4.56055,-17.95118 13.0965,13.0965 0 0 0 -8.03125,-5.99804 z"
     id="path26" />
</svg>
