<?xml version="1.0" encoding="UTF-8" standalone="no"?>
<svg
   version="1.1"
   viewBox="-19 0 455.02368 1081.5014"
   id="svg1"
   sodipodi:docname="bracketRight.svg"
   width="455.02368"
   height="1081.5015"
   inkscape:version="1.3 (0e150ed6c4, 2023-07-21)"
   xmlns:inkscape="http://www.inkscape.org/namespaces/inkscape"
   xmlns:sodipodi="http://sodipodi.sourceforge.net/DTD/sodipodi-0.dtd"
   xmlns="http://www.w3.org/2000/svg"
   xmlns:svg="http://www.w3.org/2000/svg">
  <defs
     id="defs1">
    <pattern
       id="EMFhbasepattern"
       patternUnits="userSpaceOnUse"
       width="6"
       height="6"
       x="0"
       y="0" />
    <pattern
       id="EMFhbasepattern-2"
       patternUnits="userSpaceOnUse"
       width="6"
       height="6"
       x="0"
       y="0" />
    <pattern
       id="EMFhbasepattern-3"
       patternUnits="userSpaceOnUse"
       width="6"
       height="6"
       x="0"
       y="0" />
    <pattern
       id="EMFhbasepattern-9"
       patternUnits="userSpaceOnUse"
       width="6"
       height="6"
       x="0"
       y="0" />
  </defs>
  <sodipodi:namedview
     id="namedview1"
     pagecolor="#ffffff"
     bordercolor="#000000"
     borderopacity="0.25"
     inkscape:showpageshadow="2"
     inkscape:pageopacity="0.0"
     inkscape:pagecheckerboard="0"
     inkscape:deskcolor="#d1d1d1"
     showgrid="false"
     showguides="true"
     inkscape:zoom="0.54942197"
     inkscape:cx="-128.31667"
     inkscape:cy="366.74908"
     inkscape:window-width="1920"
     inkscape:window-height="991"
     inkscape:window-x="-9"
     inkscape:window-y="-9"
     inkscape:window-maximized="1"
     inkscape:current-layer="svg1">
    <sodipodi:guide
       position="235.55299,380.76489"
       orientation="0,-1"
       id="guide1"
       inkscape:locked="false" />
    <sodipodi:guide
       position="612.31259,1081.5014"
       orientation="0,-1"
       id="guide2"
       inkscape:locked="false" />
    <sodipodi:guide
       position="399.24516,641.06602"
       orientation="0,-1"
       id="guide3"
       inkscape:locked="false" />
    <sodipodi:guide
       position="1068.4858,0.13936456"
       orientation="0,-1"
       id="guide4"
       inkscape:locked="false" />
    <sodipodi:guide
       position="628.33139,486.62586"
       orientation="0,-1"
       id="guide5"
       inkscape:locked="false" />
  </sodipodi:namedview>
  <path
     style="color:#000000;fill:#000000;stroke-linecap:round;stroke-linejoin:round;-inkscape-stroke:none;paint-order:markers fill stroke"
     d="m 156.71884,0.85624686 c 12.00208,0.77515344 28.3467,2.24438334 45.72117,5.01953584 34.74892,5.5503043 74.70448,14.0056523 95.44029,41.4995563 a 14.962847,14.962847 0 0 1 3.00466,9.610924 C 290.82305,307.03625 276.83684,545.2008 279.22822,798.47256 a 14.962847,14.962847 0 0 1 -0.11828,2.02003 c 0,0 -1.11311,7.44812 -5.31677,15.61622 -4.20366,8.16809 -11.76771,18.35309 -24.48352,27.28179 -25.43162,17.85741 -70.1034,30.27349 -148.81219,19.6678 A 14.96135,14.96135 0 0 1 87.668889,846.2329 14.96135,14.96135 0 0 1 104.49257,833.40228 c 74.17367,9.9946 110.38779,-2.39857 127.62146,-14.49959 8.61684,-6.05052 12.83131,-12.132 15.07198,-16.48584 1.75473,-3.4096 2.03642,-4.64425 2.11821,-5.158 C 246.99009,545.44271 260.70692,309.00648 270.715,62.111801 258.25003,50.742413 227.12128,40.120006 197.71989,35.423842 165.49747,30.277086 136.71457,29.920258 136.71457,29.920258 A 14.96135,14.96135 0 0 1 121.92568,14.788892 14.96135,14.96135 0 0 1 137.05705,0 c 0,0 7.65972,0.08109365 19.66179,0.85624686 z"
     id="path1" />
</svg>
