<?xml version="1.0" encoding="UTF-8" standalone="no"?>
<svg
   version="1.1"
   viewBox="-19 0 388.67439 1077.6618"
   id="svg1"
   sodipodi:docname="brokedbar.svg"
   width="388.67438"
   height="1077.6619"
   inkscape:version="1.3 (0e150ed6c4, 2023-07-21)"
   xmlns:inkscape="http://www.inkscape.org/namespaces/inkscape"
   xmlns:sodipodi="http://sodipodi.sourceforge.net/DTD/sodipodi-0.dtd"
   xmlns="http://www.w3.org/2000/svg"
   xmlns:svg="http://www.w3.org/2000/svg">
  <defs
     id="defs1">
    <pattern
       id="EMFhbasepattern"
       patternUnits="userSpaceOnUse"
       width="6"
       height="6"
       x="0"
       y="0" />
    <pattern
       id="EMFhbasepattern-2"
       patternUnits="userSpaceOnUse"
       width="6"
       height="6"
       x="0"
       y="0" />
    <pattern
       id="EMFhbasepattern-3"
       patternUnits="userSpaceOnUse"
       width="6"
       height="6"
       x="0"
       y="0" />
    <pattern
       id="EMFhbasepattern-9"
       patternUnits="userSpaceOnUse"
       width="6"
       height="6"
       x="0"
       y="0" />
  </defs>
  <sodipodi:namedview
     id="namedview1"
     pagecolor="#ffffff"
     bordercolor="#000000"
     borderopacity="0.25"
     inkscape:showpageshadow="2"
     inkscape:pageopacity="0.0"
     inkscape:pagecheckerboard="0"
     inkscape:deskcolor="#d1d1d1"
     showgrid="false"
     showguides="true"
     inkscape:zoom="0.777"
     inkscape:cx="292.79279"
     inkscape:cy="472.97297"
     inkscape:window-width="1920"
     inkscape:window-height="991"
     inkscape:window-x="-9"
     inkscape:window-y="-9"
     inkscape:window-maximized="1"
     inkscape:current-layer="svg1">
    <sodipodi:guide
       position="297.58484,381.52008"
       orientation="0,-1"
       id="guide1"
       inkscape:locked="false" />
    <sodipodi:guide
       position="674.34445,1082.2566"
       orientation="0,-1"
       id="guide2"
       inkscape:locked="false" />
    <sodipodi:guide
       position="1105.7235,644.44449"
       orientation="0,-1"
       id="guide3"
       inkscape:locked="false" />
    <sodipodi:guide
       position="1130.5177,0.89455862"
       orientation="0,-1"
       id="guide4"
       inkscape:locked="false" />
    <sodipodi:guide
       position="690.36325,487.38105"
       orientation="0,-1"
       id="guide5"
       inkscape:locked="false" />
  </sodipodi:namedview>
  <path
     style="color:#000000;fill:#000000;stroke-linecap:round;stroke-linejoin:round;-inkscape-stroke:none;paint-order:markers fill stroke"
     d="m 172.91992,496.64648 a 13.0965,13.0965 0 0 0 -11.47656,14.53711 c 0,0 2.38948,20.63647 -0.0254,44.78516 -1.56634,15.66343 -0.70694,49.8133 0.26172,82.07031 0.96865,32.25701 2.25976,61.25977 2.25976,61.25977 a 13.0965,13.0965 0 0 0 13.66602,12.5 13.0965,13.0965 0 0 0 12.50195,-13.66602 c 0,0 -1.28425,-28.84887 -2.24609,-60.8789 -0.96184,-32.03004 -1.38852,-68.60312 -0.38086,-78.67969 2.73313,-27.3313 -0.0234,-50.45117 -0.0234,-50.45117 a 13.0965,13.0965 0 0 0 -14.53711,-11.47657 z"
     id="path1" />
  <path
     style="color:#000000;fill:#000000;stroke-linecap:round;stroke-linejoin:round;-inkscape-stroke:none;paint-order:markers fill stroke"
     d="M 175.33789,159.15234 A 13.0965,13.0965 0 0 0 162.24023,172.25 v 130.19531 52.76758 a 13.0965,13.0965 0 0 0 13.09766,13.0957 13.0965,13.0965 0 0 0 13.0957,-13.0957 V 302.44531 172.25 a 13.0965,13.0965 0 0 0 -13.0957,-13.09766 z"
     id="path2" />
</svg>
