<?xml version="1.0" encoding="UTF-8" standalone="no"?>
<svg
   version="1.1"
   viewBox="-19 0 455.02368 1081.5014"
   id="svg1"
   sodipodi:docname="circumflex.svg"
   width="455.02368"
   height="1081.5015"
   inkscape:version="1.3 (0e150ed6c4, 2023-07-21)"
   xmlns:inkscape="http://www.inkscape.org/namespaces/inkscape"
   xmlns:sodipodi="http://sodipodi.sourceforge.net/DTD/sodipodi-0.dtd"
   xmlns="http://www.w3.org/2000/svg"
   xmlns:svg="http://www.w3.org/2000/svg">
  <defs
     id="defs1">
    <pattern
       id="EMFhbasepattern"
       patternUnits="userSpaceOnUse"
       width="6"
       height="6"
       x="0"
       y="0" />
    <pattern
       id="EMFhbasepattern-2"
       patternUnits="userSpaceOnUse"
       width="6"
       height="6"
       x="0"
       y="0" />
    <pattern
       id="EMFhbasepattern-3"
       patternUnits="userSpaceOnUse"
       width="6"
       height="6"
       x="0"
       y="0" />
    <pattern
       id="EMFhbasepattern-9"
       patternUnits="userSpaceOnUse"
       width="6"
       height="6"
       x="0"
       y="0" />
  </defs>
  <sodipodi:namedview
     id="namedview1"
     pagecolor="#ffffff"
     bordercolor="#000000"
     borderopacity="0.25"
     inkscape:showpageshadow="2"
     inkscape:pageopacity="0.0"
     inkscape:pagecheckerboard="0"
     inkscape:deskcolor="#d1d1d1"
     showgrid="false"
     showguides="true"
     inkscape:zoom="0.54942197"
     inkscape:cx="330.34718"
     inkscape:cy="503.25618"
     inkscape:window-width="1920"
     inkscape:window-height="991"
     inkscape:window-x="-9"
     inkscape:window-y="-9"
     inkscape:window-maximized="1"
     inkscape:current-layer="svg1">
    <sodipodi:guide
       position="235.55299,380.76489"
       orientation="0,-1"
       id="guide1"
       inkscape:locked="false" />
    <sodipodi:guide
       position="612.31259,1081.5014"
       orientation="0,-1"
       id="guide2"
       inkscape:locked="false" />
    <sodipodi:guide
       position="399.24516,641.06602"
       orientation="0,-1"
       id="guide3"
       inkscape:locked="false" />
    <sodipodi:guide
       position="1068.4858,0.13936456"
       orientation="0,-1"
       id="guide4"
       inkscape:locked="false" />
    <sodipodi:guide
       position="628.33139,486.62586"
       orientation="0,-1"
       id="guide5"
       inkscape:locked="false" />
  </sodipodi:namedview>
  <path
     style="color:#000000;fill:#000000;stroke-linecap:round;stroke-linejoin:round;-inkscape-stroke:none;paint-order:markers fill stroke"
     d="m 207.67578,176.52344 c -1.615,-0.20442 -3.37358,-0.23795 -5.33398,0.0234 -3.92081,0.52278 -8.78373,2.9662 -11.58789,6.70508 0.28205,-0.37607 -8.05594,7.25914 -18.16993,14.38867 -10.11398,7.12954 -22.84823,15.47356 -35.26171,23.37305 -24.82696,15.79898 -48.363286,29.83008 -48.363286,29.83008 a 13.0965,13.0965 0 0 0 -4.542968,17.95703 13.0965,13.0965 0 0 0 17.957034,4.54297 c 0,0 23.78613,-14.17977 49.01172,-30.23242 12.61279,-8.02633 25.58768,-16.51753 36.29101,-24.0625 8.22544,-5.79826 14.58322,-10.04618 19.70508,-15.16602 1.55905,0.79867 3.48079,1.87978 5.69726,3.35742 8.09659,5.39773 19.1359,14.67975 29.81055,24.46485 21.3493,19.57019 41.61328,41.16601 41.61328,41.16601 a 13.0965,13.0965 0 0 0 18.51172,0.59766 13.0965,13.0965 0 0 0 0.59766,-18.51172 c 0,0 -20.69051,-22.08869 -43.02344,-42.56055 -11.16646,-10.23592 -22.64861,-20.06326 -32.98047,-26.95117 -5.16593,-3.44395 -9.89149,-6.23653 -15.45312,-7.92187 -1.39041,-0.42134 -2.86352,-0.79558 -4.47852,-1 z"
     id="path2" />
</svg>
