<?xml version="1.0" encoding="UTF-8" standalone="no"?>
<svg
   version="1.1"
   viewBox="-19 0 740.7785 1081.362"
   id="svg1"
   sodipodi:docname="currency.svg"
   width="740.7785"
   height="1081.3621"
   inkscape:version="1.3 (0e150ed6c4, 2023-07-21)"
   xmlns:inkscape="http://www.inkscape.org/namespaces/inkscape"
   xmlns:sodipodi="http://sodipodi.sourceforge.net/DTD/sodipodi-0.dtd"
   xmlns="http://www.w3.org/2000/svg"
   xmlns:svg="http://www.w3.org/2000/svg">
  <defs
     id="defs1">
    <pattern
       id="EMFhbasepattern"
       patternUnits="userSpaceOnUse"
       width="6"
       height="6"
       x="0"
       y="0" />
    <pattern
       id="EMFhbasepattern-2"
       patternUnits="userSpaceOnUse"
       width="6"
       height="6"
       x="0"
       y="0" />
    <pattern
       id="EMFhbasepattern-3"
       patternUnits="userSpaceOnUse"
       width="6"
       height="6"
       x="0"
       y="0" />
    <pattern
       id="EMFhbasepattern-0"
       patternUnits="userSpaceOnUse"
       width="6"
       height="6"
       x="0"
       y="0" />
    <pattern
       id="EMFhbasepattern-35"
       patternUnits="userSpaceOnUse"
       width="6"
       height="6"
       x="0"
       y="0" />
  </defs>
  <sodipodi:namedview
     id="namedview1"
     pagecolor="#ffffff"
     bordercolor="#000000"
     borderopacity="0.25"
     inkscape:showpageshadow="2"
     inkscape:pageopacity="0.0"
     inkscape:pagecheckerboard="0"
     inkscape:deskcolor="#d1d1d1"
     showgrid="false"
     showguides="true"
     inkscape:zoom="0.3885"
     inkscape:cx="217.50322"
     inkscape:cy="333.33333"
     inkscape:window-width="1920"
     inkscape:window-height="991"
     inkscape:window-x="-9"
     inkscape:window-y="-9"
     inkscape:window-maximized="1"
     inkscape:current-layer="svg1">
    <sodipodi:guide
       position="12.273985,380.6255"
       orientation="0,-1"
       id="guide1"
       inkscape:locked="false" />
    <sodipodi:guide
       position="389.03358,1081.362"
       orientation="0,-1"
       id="guide2"
       inkscape:locked="false" />
    <sodipodi:guide
       position="175.96615,640.92662"
       orientation="0,-1"
       id="guide3"
       inkscape:locked="false" />
    <sodipodi:guide
       position="845.20682,-1.3392134e-05"
       orientation="0,-1"
       id="guide4"
       inkscape:locked="false" />
    <sodipodi:guide
       position="405.05238,486.48647"
       orientation="0,-1"
       id="guide5"
       inkscape:locked="false" />
  </sodipodi:namedview>
  <path
     style="color:#000000;fill:#000000;stroke-linecap:round;stroke-linejoin:round;-inkscape-stroke:none;paint-order:markers fill stroke"
     d="m 370.79487,355.62995 c -62.7539,-0.38978 -107.92728,13.43357 -137.26368,36.64063 -29.33639,23.20706 -41.63442,56.24981 -37.96289,88.57617 7.34308,64.65272 73.29861,126.22177 170.59377,133.00586 22.6386,1.57852 38.4197,-3.91904 48.2305,-10.88086 1.6331,-1.15888 2.8847,-2.42371 4.2128,-3.66797 40.1506,-8.70724 70.1764,-24.49851 90.2149,-45.05273 24.063,-24.68231 33.1573,-56.2263 28.1562,-86.13867 -10.0021,-59.82475 -73.0745,-111.90412 -166.1816,-112.48243 z m -0.1621,26.19336 c 83.5034,0.51866 133.0978,46.27506 140.5098,90.60743 3.7059,22.16618 -2.3055,44.28137 -21.0762,63.53515 -14.0149,14.37557 -35.6018,27.06505 -66.0293,35.20899 a 13.0965,13.0965 0 0 0 -2.9942,-1.67188 13.0965,13.0965 0 0 0 -15.4863,5.78516 c -5.0204,0.93386 -10.1626,1.7999 -15.5879,2.5 a 13.0965,13.0965 0 0 0 -10.0312,9.93554 c -3.4588,0.27493 -7.3944,0.31787 -11.9531,0 -87.1008,-6.07327 -140.87553,-61.29068 -146.38872,-109.83203 -2.7566,-24.27067 5.23679,-46.92607 28.18554,-65.08007 22.94878,-18.15401 62.05478,-31.35349 120.85158,-30.98829 z"
     id="path5" />
  <path
     style="color:#000000;fill:#000000;stroke-linecap:round;stroke-linejoin:round;-inkscape-stroke:none;paint-order:markers fill stroke"
     d="m 249.11713,553.80574 c -1.79371,0.10026 -2.51409,0.36981 -3.10742,0.54882 -1.18667,0.35804 -1.61748,0.58737 -2.12695,0.82422 -1.01895,0.4737 -2.00149,0.99686 -3.77344,1.99024 -3.5439,1.98676 -10.02336,5.79079 -22.72266,13.57226 -15.17958,9.30127 -37.17009,28.96405 -56.88867,47.05469 -19.71858,18.09064 -36.23047,34.20899 -36.23047,34.20898 a 13.0965,13.0965 0 0 0 -0.22461,18.52149 13.0965,13.0965 0 0 0 18.52149,0.22266 c 0,0 16.26778,-15.87711 35.64258,-33.65235 19.37479,-17.77524 42.79149,-37.84882 52.86523,-44.02148 12.55403,-7.69246 18.88853,-11.40076 21.8457,-13.0586 1.47859,-0.82891 2.1672,-1.16003 2.00782,-1.08593 -0.0797,0.037 -0.28213,0.17987 -1.34961,0.50195 -0.53375,0.16104 -1.22217,0.42613 -2.99805,0.52539 -0.33798,0.0189 -1.05103,-0.1329 -1.49805,-0.14453 a 13.0965,13.0965 0 0 0 9.19336,-2.89649 13.0965,13.0965 0 0 0 1.61914,-18.44921 c 0,0 -3.59933,-2.99204 -3.59961,-2.99219 -2.7e-4,-1.6e-4 -2.29703,-1.05472 -3.22265,-1.28906 -1.85124,-0.46869 -3.05627,-0.43099 -3.95313,-0.38086 z m -9.29492,21.49218 a 13.0965,13.0965 0 0 0 8.5332,4.44532 c -0.58664,-0.0526 -0.90844,0.0376 -1.71289,-0.16602 -0.92414,-0.23397 -3.22098,-1.28922 -3.2207,-1.28906 2.8e-4,1.5e-4 -3.59961,-2.99024 -3.59961,-2.99024 z"
     id="path6" />
  <path
     style="color:#000000;fill:#000000;stroke-linecap:round;stroke-linejoin:round;-inkscape-stroke:none;paint-order:markers fill stroke"
     d="m 541.00777,308.58894 a 13.0965,13.0965 0 0 0 -9.8516,1.84179 c -38.1345,24.83984 -71.6172,78.02149 -71.6172,78.02149 a 13.0965,13.0965 0 0 0 3.7871,18.13086 13.0965,13.0965 0 0 0 18.1309,-3.78906 c 0,0 35.067,-51.57363 63.9941,-70.41602 a 13.0965,13.0965 0 0 0 3.8262,-18.12305 13.0965,13.0965 0 0 0 -8.2695,-5.66601 z"
     id="path7" />
  <path
     style="color:#000000;fill:#000000;stroke-linecap:round;stroke-linejoin:round;-inkscape-stroke:none;paint-order:markers fill stroke"
     d="m 176.3476,315.66706 a 13.0965,13.0965 0 0 0 -8.7832,4.82813 13.0965,13.0965 0 0 0 2.02929,18.4082 c 0,0 35.94913,29.53047 51.05274,51.7461 4.24722,6.24716 6.9754,10.47427 8.58594,13.125 0.80486,1.32469 1.34789,2.4474 1.60742,2.98046 1.3e-4,2.8e-4 -1.3e-4,0.002 0,0.002 a 13.0965,13.0965 0 0 0 2.10742,4.86914 c 0,0 0.40878,0.82095 3.23047,2.48828 0.70542,0.41683 1.57898,0.98672 3.63086,1.51758 2.05187,0.53085 6.69884,1.22522 11.28711,-2.19336 4.58826,-3.41858 5.35419,-8.4909 5.34179,-10.77539 -0.0124,-2.28449 -0.39817,-3.36274 -0.68164,-4.27149 -1.13387,-3.63499 -2.14349,-4.93299 -4.13867,-8.21679 -1.99518,-3.28381 -4.91233,-7.7827 -9.31054,-14.25196 -19.47816,-28.65011 -56.33399,-57.45902 -56.33399,-57.45902 a 13.0965,13.0965 0 0 0 -9.625,-2.79688 z m 67.5332,74.26172 c 1.00812,0.0662 1.90115,0.19185 2.48829,0.34375 1.90276,0.49228 2.60664,0.98011 3.13281,1.29102 2.10468,1.24365 1.67383,1.2539 1.67383,1.2539 a 13.0965,13.0965 0 0 0 -7.29493,-2.88867 z"
     id="path8" />
  <path
     style="color:#000000;fill:#000000;stroke-linecap:round;stroke-linejoin:round;-inkscape-stroke:none;paint-order:markers fill stroke"
     d="m 490.68547,541.003 a 13.0965,13.0965 0 0 0 -8.1875,5.78125 13.0965,13.0965 0 0 0 4.0781,18.06641 c 47.2874,29.86478 69.3872,48.34462 78.879,58.23633 4.7458,4.94585 6.2666,7.7376 6.4238,8.08203 0.079,0.17221 -0.1723,-0.30137 -0.3008,-1.38477 -0.064,-0.5417 -0.093,-1.23094 -0.029,-2.02148 0.064,-0.79055 0.502,-2.59375 0.502,-2.59375 a 13.0965,13.0965 0 0 0 8.6933,16.35351 13.0965,13.0965 0 0 0 16.3535,-8.6914 c 0,0 0.4747,-1.91914 0.5586,-2.95703 0.084,-1.0379 0.06,-2.10754 -0.066,-3.17383 -0.2529,-2.13258 -0.8949,-4.23911 -1.8828,-6.4043 -1.9758,-4.33039 -5.2906,-9.02746 -11.3516,-15.34375 -12.1218,-12.63258 -35.5235,-31.76424 -83.791,-62.24805 a 13.0965,13.0965 0 0 0 -9.8789,-1.70117 z"
     id="path9" />
</svg>
