<?xml version="1.0" encoding="UTF-8" standalone="no"?>
<svg
   version="1.1"
   viewBox="-19 0 455.02368 1081.5014"
   id="svg1"
   sodipodi:docname="diaeresis.svg"
   width="455.02368"
   height="1081.5015"
   inkscape:version="1.3 (0e150ed6c4, 2023-07-21)"
   xmlns:inkscape="http://www.inkscape.org/namespaces/inkscape"
   xmlns:sodipodi="http://sodipodi.sourceforge.net/DTD/sodipodi-0.dtd"
   xmlns="http://www.w3.org/2000/svg"
   xmlns:svg="http://www.w3.org/2000/svg">
  <defs
     id="defs1">
    <pattern
       id="EMFhbasepattern"
       patternUnits="userSpaceOnUse"
       width="6"
       height="6"
       x="0"
       y="0" />
    <pattern
       id="EMFhbasepattern-2"
       patternUnits="userSpaceOnUse"
       width="6"
       height="6"
       x="0"
       y="0" />
    <pattern
       id="EMFhbasepattern-3"
       patternUnits="userSpaceOnUse"
       width="6"
       height="6"
       x="0"
       y="0" />
    <pattern
       id="EMFhbasepattern-9"
       patternUnits="userSpaceOnUse"
       width="6"
       height="6"
       x="0"
       y="0" />
  </defs>
  <sodipodi:namedview
     id="namedview1"
     pagecolor="#ffffff"
     bordercolor="#000000"
     borderopacity="0.25"
     inkscape:showpageshadow="2"
     inkscape:pageopacity="0.0"
     inkscape:pagecheckerboard="0"
     inkscape:deskcolor="#d1d1d1"
     showgrid="false"
     showguides="true"
     inkscape:zoom="0.777"
     inkscape:cx="402.1879"
     inkscape:cy="349.42085"
     inkscape:window-width="1920"
     inkscape:window-height="991"
     inkscape:window-x="-9"
     inkscape:window-y="-9"
     inkscape:window-maximized="1"
     inkscape:current-layer="svg1">
    <sodipodi:guide
       position="235.55299,380.76489"
       orientation="0,-1"
       id="guide1"
       inkscape:locked="false" />
    <sodipodi:guide
       position="612.31259,1081.5014"
       orientation="0,-1"
       id="guide2"
       inkscape:locked="false" />
    <sodipodi:guide
       position="399.24516,641.06602"
       orientation="0,-1"
       id="guide3"
       inkscape:locked="false" />
    <sodipodi:guide
       position="1068.4858,0.13936456"
       orientation="0,-1"
       id="guide4"
       inkscape:locked="false" />
    <sodipodi:guide
       position="628.33139,486.62586"
       orientation="0,-1"
       id="guide5"
       inkscape:locked="false" />
  </sodipodi:namedview>
  <path
     style="color:#000000;fill:#000000;stroke-linecap:round;stroke-linejoin:round;-inkscape-stroke:none;paint-order:markers fill stroke"
     d="m 140.69727,208.45505 a 13.096657,13.096657 0 0 0 -8.02344,6.00781 c -2.01499,3.39676 -11.76518,12.73742 -21.64453,20.26758 -9.87935,7.53017 -19.44704,13.82209 -24.73828,17.9375 a 13.096657,13.096657 0 0 0 -2.29688,18.37891 13.096657,13.096657 0 0 0 18.37891,2.29687 c 2.89916,-2.2549 13.81685,-9.61311 24.5332,-17.78125 10.71635,-8.16813 21.67233,-16.57235 28.29492,-27.73633 a 13.096657,13.096657 0 0 0 -4.58203,-17.94531 13.096657,13.096657 0 0 0 -9.92187,-1.42578 z"
     id="path6" />
  <path
     style="color:#000000;fill:#000000;stroke-linecap:round;stroke-linejoin:round;-inkscape-stroke:none;paint-order:markers fill stroke"
     d="m 260.61351,271.86234 a 13.096657,13.096657 0 0 0 8.24973,-5.6931 c 2.14482,-3.31632 12.24887,-12.273 22.41198,-19.41555 10.16311,-7.14256 19.96692,-13.05984 25.41332,-16.96759 a 13.096657,13.096657 0 0 0 3.00578,-18.27636 13.096657,13.096657 0 0 0 -18.27636,-3.00576 c -2.98418,2.14111 -14.17821,9.07169 -25.20236,16.81938 -11.02416,7.74768 -22.29689,15.72202 -29.34617,26.62158 a 13.096657,13.096657 0 0 0 3.88475,18.10906 13.096657,13.096657 0 0 0 9.85933,1.80834 z"
     id="path6-8" />
</svg>
