<?xml version="1.0" encoding="UTF-8" standalone="no"?>
<svg
   version="1.1"
   viewBox="-19 0 987.44387 1079.0036"
   id="svg1"
   sodipodi:docname="dollarSign.svg"
   width="987.44385"
   height="1079.0037"
   inkscape:version="1.3 (0e150ed6c4, 2023-07-21)"
   xmlns:inkscape="http://www.inkscape.org/namespaces/inkscape"
   xmlns:sodipodi="http://sodipodi.sourceforge.net/DTD/sodipodi-0.dtd"
   xmlns="http://www.w3.org/2000/svg"
   xmlns:svg="http://www.w3.org/2000/svg">
  <defs
     id="defs1">
    <pattern
       id="EMFhbasepattern"
       patternUnits="userSpaceOnUse"
       width="6"
       height="6"
       x="0"
       y="0" />
    <pattern
       id="EMFhbasepattern-2"
       patternUnits="userSpaceOnUse"
       width="6"
       height="6"
       x="0"
       y="0" />
    <pattern
       id="EMFhbasepattern-3"
       patternUnits="userSpaceOnUse"
       width="6"
       height="6"
       x="0"
       y="0" />
    <pattern
       id="EMFhbasepattern-9"
       patternUnits="userSpaceOnUse"
       width="6"
       height="6"
       x="0"
       y="0" />
  </defs>
  <sodipodi:namedview
     id="namedview1"
     pagecolor="#ffffff"
     bordercolor="#000000"
     borderopacity="0.25"
     inkscape:showpageshadow="2"
     inkscape:pageopacity="0.0"
     inkscape:pagecheckerboard="0"
     inkscape:deskcolor="#d1d1d1"
     showgrid="false"
     showguides="true"
     inkscape:zoom="0.3885"
     inkscape:cx="11.583012"
     inkscape:cy="294.72329"
     inkscape:window-width="1920"
     inkscape:window-height="991"
     inkscape:window-x="-9"
     inkscape:window-y="-9"
     inkscape:window-maximized="1"
     inkscape:current-layer="svg1">
    <sodipodi:guide
       position="406.79053,381.07281"
       orientation="0,-1"
       id="guide1"
       inkscape:locked="false" />
    <sodipodi:guide
       position="783.55014,1081.8093"
       orientation="0,-1"
       id="guide2"
       inkscape:locked="false" />
    <sodipodi:guide
       position="1214.9292,643.99722"
       orientation="0,-1"
       id="guide3"
       inkscape:locked="false" />
    <sodipodi:guide
       position="1239.7234,0.447293"
       orientation="0,-1"
       id="guide4"
       inkscape:locked="false" />
    <sodipodi:guide
       position="799.56894,486.93378"
       orientation="0,-1"
       id="guide5"
       inkscape:locked="false" />
  </sodipodi:namedview>
  <path
     style="color:#000000;fill:#000000;stroke-linecap:round;stroke-linejoin:round;-inkscape-stroke:none;paint-order:markers fill stroke"
     d="m 581.12097,50.783203 c -8.48084,-0.119198 -17.44662,0.08181 -26.92383,0.640625 -38.99883,2.29953 -146.99431,2.672669 -274.99609,34.59375 -10.4898,2.615948 -21.1464,8.746282 -32.11328,17.009762 -10.96688,8.26349 -21.8024,18.70344 -30.0957,30.63477 -8.29331,11.93133 -14.45066,25.68488 -13.19336,40.68945 1.2573,15.00458 11.31527,29.35269 28.36523,38.60547 54.15474,29.38905 109.91544,36.02383 169.25977,40.90625 59.34433,4.88242 122.67664,8.04717 194.8125,28.9082 37.46784,10.83536 88.63575,32.98559 129.79297,60.98829 41.15721,28.00269 70.65544,61.73616 72.11718,91.8789 3.53439,72.88271 -38.92067,137.88712 -102.03906,182.26563 -63.11838,44.3785 -146.2692,66.89067 -219.26562,54.85156 C 325.68136,647.82539 203.12811,570.8565 168.61316,503.50977 c -18.3404,-35.78641 -24.18042,-63.53607 -25.63477,-82.01758 -1.45434,-18.48152 1.10743,-26.41992 1.10743,-26.41992 A 13.07285,13.07285 0 0 0 135.1991,378.86133 13.07285,13.07285 0 0 0 118.98816,387.75 c 0,0 -3.80013,13.86048 -2.07422,35.79297 1.72592,21.93249 8.60891,53.21184 28.43164,91.89062 41.81132,81.58368 170.04325,157.19274 327.24219,183.11914 81.18318,13.38934 170.07656,-11.1134 238.55664,-59.26171 C 779.62449,591.1427 828.32222,518.10739 824.2616,434.37305 822.08876,389.56684 784.86606,352.16781 740.73621,322.14258 696.60635,292.11734 643.92152,269.34386 603.49988,257.6543 528.12024,235.85519 462.29271,232.63611 403.56824,227.80469 344.84377,222.97327 293.62681,216.56485 244.6366,189.97852 c -11.74478,-6.37374 -14.27669,-11.76584 -14.78321,-17.81055 -0.50651,-6.04471 2.39752,-14.64998 8.60743,-23.58399 6.2099,-8.934 15.32189,-17.86461 24.36132,-24.67578 9.03944,-6.81116 18.44935,-11.46019 22.70508,-12.52148 124.71492,-31.101407 228.66742,-31.413823 270.20899,-33.863283 71.09546,-4.192077 105.84065,12.761114 123.35742,28.769533 17.51677,16.00842 18.58594,30.45508 18.58594,30.45508 a 13.07285,13.07285 0 0 0 14.43164,11.55468 13.07285,13.07285 0 0 0 11.55664,-14.42968 c 0,0 -3.32724,-25.3035 -26.93555,-46.878909 C 676.07503,68.115654 640.48685,51.61759 581.12097,50.783203 Z"
     id="path16" />
  <path
     style="color:#000000;fill:#000000;stroke-linecap:round;stroke-linejoin:round;-inkscape-stroke:none;paint-order:markers fill stroke"
     d="m 474.49597,0 c -0.003,6.5678107e-4 -7.16619,3.8502143 -8.32617,5.5957031 -2.31995,3.4909777 -1.93609,4.5349009 -2.06055,5.3749999 a 13.0965,13.0965 0 0 0 8.9668,13.636719 c -1.59657,-0.34232 -3.07416,-0.729275 -3.70898,-1.19336 -3.67394,-2.685826 -3.55995,-3.887123 -3.94141,-4.644531 -0.38146,-0.757408 -0.50317,-1.127302 -0.60352,-1.408203 -0.40139,-1.123602 -0.28747,-0.948422 -0.25781,-0.816406 0.0593,0.264033 0.2631,1.284771 0.50586,2.701172 0.48552,2.832801 1.19132,7.458401 2.00195,13.65039 1.62127,12.38398 3.67839,31.109001 5.45899,55.363282 3.5612,48.508564 6.01849,119.161044 1.74805,205.867184 -4.59304,93.25609 -13.26923,201.57534 -20.96094,292.02539 -7.69171,90.45006 -14.38887,161.98321 -15.08594,185.6836 a 13.0965,13.0965 0 0 0 12.70703,13.47461 13.0965,13.0965 0 0 0 13.47461,-12.70508 c 0.58993,-20.05761 7.30355,-93.68262 15.00391,-184.23438 7.70035,-90.55176 16.39974,-199.07854 21.02344,-292.95703 4.32909,-87.89699 1.84559,-159.58971 -1.78711,-209.072263 -1.81636,-24.741275 -3.91942,-43.922099 -5.61133,-56.845703 -0.84596,-6.461803 -1.58515,-11.3417 -2.15625,-14.673828 -0.28555,-1.666064 -0.51276,-2.894175 -0.76563,-4.019532 -0.12643,-0.562678 -0.13761,-0.8657819 -0.63281,-2.2519527 -0.1238,-0.3465428 -0.26717,-0.7686413 -0.66797,-1.5644532 -0.4008,-0.7958118 -0.30506,-2.021851 -3.99414,-4.71875 C 482.98151,0.91912865 474.49923,-6.5678107e-4 474.49597,0 Z m 15.52344,14.808594 c -0.11796,0.796234 0.27393,1.810528 -2.03516,5.285156 -0.3409,0.512979 -1.24434,1.21024 -2.29296,1.9375 a 13.0965,13.0965 0 0 0 4.32812,-7.222656 z m -7.36719,9.154297 c -1.44735,0.849313 -2.97591,1.713153 -2.97461,1.71289 9e-4,-1.81e-4 -1.49296,-0.217615 -2.46875,-0.347656 a 13.0965,13.0965 0 0 0 5.44336,-1.365234 z"
     id="path17" />
</svg>
