<?xml version="1.0" encoding="UTF-8" standalone="no"?>
<svg
   version="1.1"
   viewBox="-19 0 449.56339 1073.7326"
   id="svg1"
   sodipodi:docname="euro.svg"
   width="449.56339"
   height="1073.7327"
   inkscape:version="1.3 (0e150ed6c4, 2023-07-21)"
   xml:space="preserve"
   xmlns:inkscape="http://www.inkscape.org/namespaces/inkscape"
   xmlns:sodipodi="http://sodipodi.sourceforge.net/DTD/sodipodi-0.dtd"
   xmlns="http://www.w3.org/2000/svg"
   xmlns:svg="http://www.w3.org/2000/svg"><defs
     id="defs1"><pattern
       id="EMFhbasepattern"
       patternUnits="userSpaceOnUse"
       width="6"
       height="6"
       x="0"
       y="0" /><pattern
       id="EMFhbasepattern-2"
       patternUnits="userSpaceOnUse"
       width="6"
       height="6"
       x="0"
       y="0" /><pattern
       id="EMFhbasepattern-3"
       patternUnits="userSpaceOnUse"
       width="6"
       height="6"
       x="0"
       y="0" /><pattern
       id="EMFhbasepattern-9"
       patternUnits="userSpaceOnUse"
       width="6"
       height="6"
       x="0"
       y="0" /><pattern
       id="EMFhbasepattern-0"
       patternUnits="userSpaceOnUse"
       width="6"
       height="6"
       x="0"
       y="0" /><pattern
       id="EMFhbasepattern-8"
       patternUnits="userSpaceOnUse"
       width="6"
       height="6"
       x="0"
       y="0" /><pattern
       id="EMFhbasepattern-6"
       patternUnits="userSpaceOnUse"
       width="6"
       height="6"
       x="0"
       y="0" /><pattern
       id="EMFhbasepattern-02"
       patternUnits="userSpaceOnUse"
       width="6"
       height="6"
       x="0"
       y="0" /><pattern
       id="EMFhbasepattern-05"
       patternUnits="userSpaceOnUse"
       width="6"
       height="6"
       x="0"
       y="0" /><pattern
       id="EMFhbasepattern-5"
       patternUnits="userSpaceOnUse"
       width="6"
       height="6"
       x="0"
       y="0" /><pattern
       id="EMFhbasepattern-2-2"
       patternUnits="userSpaceOnUse"
       width="6"
       height="6"
       x="0"
       y="0" /><pattern
       id="EMFhbasepattern-3-1"
       patternUnits="userSpaceOnUse"
       width="6"
       height="6"
       x="0"
       y="0" /><pattern
       id="EMFhbasepattern-9-9"
       patternUnits="userSpaceOnUse"
       width="6"
       height="6"
       x="0"
       y="0" /><pattern
       id="EMFhbasepattern-0-6"
       patternUnits="userSpaceOnUse"
       width="6"
       height="6"
       x="0"
       y="0" /></defs><sodipodi:namedview
     id="namedview1"
     pagecolor="#ffffff"
     bordercolor="#000000"
     borderopacity="0.25"
     inkscape:showpageshadow="2"
     inkscape:pageopacity="0.0"
     inkscape:pagecheckerboard="0"
     inkscape:deskcolor="#d1d1d1"
     showgrid="false"
     showguides="true"
     inkscape:zoom="0.77699996"
     inkscape:cx="420.20594"
     inkscape:cy="278.63579"
     inkscape:window-width="1920"
     inkscape:window-height="991"
     inkscape:window-x="-9"
     inkscape:window-y="-9"
     inkscape:window-maximized="1"
     inkscape:current-layer="svg1"><sodipodi:guide
       position="331.71162,386.07809"
       orientation="0,-1"
       id="guide1"
       inkscape:locked="false" /><sodipodi:guide
       position="708.47122,1086.8146"
       orientation="0,-1"
       id="guide2"
       inkscape:locked="false" /><sodipodi:guide
       position="1139.8503,649.00249"
       orientation="0,-1"
       id="guide3"
       inkscape:locked="false" /><sodipodi:guide
       position="1164.6445,5.4525762"
       orientation="0,-1"
       id="guide4"
       inkscape:locked="false" /><sodipodi:guide
       position="449.10835,420.13715"
       orientation="0,-1"
       id="guide5"
       inkscape:locked="false" /></sodipodi:namedview><path
     style="color:#000000;fill:#000000;stroke-linecap:round;stroke-linejoin:round;-inkscape-stroke:none"
     d="M 231.05639,7.623164 C 216.7062,7.798184 201.8699,9.553053 187.00365,13.539179 147.36031,24.16885 108.05933,51.423653 80.511457,104.10949 c -27.54786,52.68584 -44.0287,130.2434 -41.87304,243.63086 2.22676,117.12768 19.91396,198.94647 47.01953,255.19726 27.105573,56.2508 64.414013,86.93847 103.503913,98.66016 39.08989,11.72169 78.7774,4.77045 111.50585,-9.73828 32.72846,-14.50874 58.89755,-36.12225 72.48438,-58.19727 a 13.15,13.15 0 0 0 -4.30664,-18.09179 13.15,13.15 0 0 0 -18.0918,4.30664 c -9.3946,15.26375 -32.38648,35.3655 -60.74609,47.9375 -28.35961,12.572 -61.68829,18.06698 -93.29297,8.58984 C 165.10991,666.92728 134.04476,642.7707 109.34936,591.5216 84.653947,540.27249 67.113847,461.93516 64.933337,347.24035 62.830827,236.64847 79.213327,163.35412 103.81811,116.29699 c 24.60477,-47.05713 56.7437,-68.436942 89.99804,-77.353514 33.25434,-8.916572 68.17733,-4.610592 95.58594,3.242188 13.70431,3.92639 25.50628,8.713689 34.07031,12.904296 4.28202,2.095304 7.76361,4.050274 10.1543,5.566407 2.39069,1.516133 3.95848,3.20875 2.8457,1.894531 a 13.15,13.15 0 0 0 18.53321,1.539062 13.15,13.15 0 0 0 1.53906,-18.533203 c -2.9604,-3.496293 -5.37754,-4.920549 -8.83203,-7.111328 C 344.25814,36.25465 340.03446,33.913288 335.031,31.46496 325.02406,26.568305 311.9304,21.281493 296.64623,16.90246 277.54102,11.428669 254.97337,7.331463 231.05639,7.623164 Z"
     id="path1" /><g
     id="g2"
     transform="translate(-14.126433,-210.66762)"><path
       style="color:#000000;fill:#000000;stroke-linecap:round;stroke-linejoin:round;-inkscape-stroke:none;paint-order:markers fill stroke"
       d="m 228.22556,591.6226 c -17.70098,2.05825 -70.8068,4.01449 -118.16211,5.26367 -47.355325,1.24918 -89.845705,1.92969 -89.845705,1.92969 A 13.0965,13.0965 0 0 0 7.3329747,612.12064 13.0965,13.0965 0 0 0 20.637665,625.00541 c 0,0 42.60016,-0.6821 90.117185,-1.93555 47.51703,-1.25344 99.06509,-2.93771 120.4961,-5.42968 a 13.0965,13.0965 0 0 0 11.49609,-14.52149 13.0965,13.0965 0 0 0 -14.52148,-11.49609 z"
       id="path28" /><path
       style="color:#000000;fill:#000000;stroke-linecap:round;stroke-linejoin:round;-inkscape-stroke:none;paint-order:markers fill stroke"
       d="m 31.010583,484.96152 c 17.70098,2.05825 70.806797,4.01449 118.162107,5.26367 47.35533,1.24918 89.84571,1.92969 89.84571,1.92969 a 13.0965,13.0965 0 0 1 12.88477,13.30468 13.0965,13.0965 0 0 1 -13.30469,12.88477 c 0,0 -42.60016,-0.6821 -90.11719,-1.93555 -47.51703,-1.25344 -99.065087,-2.93771 -120.496097,-5.42968 a 13.0965,13.0965 0 0 1 -11.49609,-14.52149 13.0965,13.0965 0 0 1 14.52148,-11.49609 z"
       id="path28-9" /></g></svg>
