<?xml version="1.0" encoding="UTF-8" standalone="no"?>
<svg
   version="1.1"
   viewBox="-19 0 213.33519 1084.3318"
   id="svg1"
   sodipodi:docname="exclamationLeft.svg"
   width="213.33519"
   height="1084.3319"
   inkscape:version="1.3 (0e150ed6c4, 2023-07-21)"
   xmlns:inkscape="http://www.inkscape.org/namespaces/inkscape"
   xmlns:sodipodi="http://sodipodi.sourceforge.net/DTD/sodipodi-0.dtd"
   xmlns="http://www.w3.org/2000/svg"
   xmlns:svg="http://www.w3.org/2000/svg">
  <defs
     id="defs1">
    <pattern
       id="EMFhbasepattern"
       patternUnits="userSpaceOnUse"
       width="6"
       height="6"
       x="0"
       y="0" />
    <pattern
       id="EMFhbasepattern-2"
       patternUnits="userSpaceOnUse"
       width="6"
       height="6"
       x="0"
       y="0" />
    <pattern
       id="EMFhbasepattern-3"
       patternUnits="userSpaceOnUse"
       width="6"
       height="6"
       x="0"
       y="0" />
  </defs>
  <sodipodi:namedview
     id="namedview1"
     pagecolor="#ffffff"
     bordercolor="#000000"
     borderopacity="0.25"
     inkscape:showpageshadow="2"
     inkscape:pageopacity="0.0"
     inkscape:pagecheckerboard="0"
     inkscape:deskcolor="#d1d1d1"
     showgrid="false"
     showguides="true"
     inkscape:zoom="0.54942197"
     inkscape:cx="-97.375065"
     inkscape:cy="404.97106"
     inkscape:window-width="1920"
     inkscape:window-height="991"
     inkscape:window-x="-9"
     inkscape:window-y="-9"
     inkscape:window-maximized="1"
     inkscape:current-layer="svg1">
    <sodipodi:guide
       position="-203.37809,380.76491"
       orientation="0,-1"
       id="guide1"
       inkscape:locked="false" />
    <sodipodi:guide
       position="173.38151,1081.5014"
       orientation="0,-1"
       id="guide2"
       inkscape:locked="false" />
    <sodipodi:guide
       position="-39.685921,641.06603"
       orientation="0,-1"
       id="guide3"
       inkscape:locked="false" />
    <sodipodi:guide
       position="629.55474,0.13939851"
       orientation="0,-1"
       id="guide4"
       inkscape:locked="false" />
    <sodipodi:guide
       position="189.40031,486.62588"
       orientation="0,-1"
       id="guide5"
       inkscape:locked="false" />
  </sodipodi:namedview>
  <path
     style="color:#000000;fill:#000000;stroke-linecap:round;stroke-linejoin:round;-inkscape-stroke:none;paint-order:markers fill stroke"
     d="m 57.624062,931.75331 a 13.8129,13.8129 0 0 0 14.02344,-13.59961 c 0,0 0.9217,-60.44454 1.86328,-121.5 0.47079,-30.52773 0.94773,-61.20818 1.31445,-84.56055 0.36672,-23.35237 0.66895,-40.83853 0.65625,-40.41211 3.89949,-130.88833 20.061611,-171.70922 23.029301,-239.375 1.43185,-32.64743 4.063887,-78.07504 6.337887,-115.89258 1.137,-18.90876 2.18522,-35.92133 2.94922,-48.52148 0.38199,-6.30007 0.69307,-11.49369 0.91015,-15.29102 0.21708,-3.79732 0.35742,-5.05456 0.35742,-7.49218 a 13.8129,13.8129 0 0 0 -13.814447,-13.8125 13.8129,13.8129 0 0 0 -13.812501,13.8125 c 0,-1.23785 -0.0993,2.18701 -0.3125,5.91601 -0.21318,3.72901 -0.523,8.90674 -0.9043,15.19531 -0.7626,12.57715 -1.8108,29.6028 -2.94921,48.53516 -2.27684,37.86472 -4.91373,83.33321 -6.36133,116.33984 -2.79123,63.64232 -19.08129,106.7877 -23.04297,239.76368 -0.0856,2.87239 -0.29921,17.44332 -0.66602,40.80078 -0.3668,23.35746 -0.84169,54.0393 -1.3125,84.56836 -0.94162,61.05811 -1.86523,121.50391 -1.86523,121.50391 a 13.8129,13.8129 0 0 0 13.59961,14.02148 z"
     id="path5" />
  <path
     style="color:#000000;fill:#000000;stroke-linecap:round;stroke-linejoin:round;-inkscape-stroke:none;paint-order:markers fill stroke"
     d="m 79.784212,67.647841 a 13.096657,13.096657 0 0 0 8.02344,-6.00781 c 2.01499,-3.39676 11.76518,-12.73742 21.644528,-20.26758 9.87935,-7.53017 19.44704,-13.82209 24.73828,-17.9375 a 13.096657,13.096657 0 0 0 2.29688,-18.3789101 13.096657,13.096657 0 0 0 -18.37891,-2.29687 c -2.89916,2.2549 -13.81685,9.6131101 -24.533198,17.7812501 -10.71635,8.16813 -21.67233,16.57235 -28.29492,27.73633 a 13.096657,13.096657 0 0 0 4.58203,17.94531 13.096657,13.096657 0 0 0 9.92187,1.42578 z"
     id="path6" />
</svg>
