<?xml version="1.0" encoding="UTF-8" standalone="no"?>
<svg
   version="1.1"
   viewBox="-19 0 600.63122 1081.0568"
   id="svg1"
   sodipodi:docname="interrogation.svg"
   width="600.63123"
   height="1081.0569"
   inkscape:version="1.3 (0e150ed6c4, 2023-07-21)"
   xmlns:inkscape="http://www.inkscape.org/namespaces/inkscape"
   xmlns:sodipodi="http://sodipodi.sourceforge.net/DTD/sodipodi-0.dtd"
   xmlns="http://www.w3.org/2000/svg"
   xmlns:svg="http://www.w3.org/2000/svg">
  <defs
     id="defs1">
    <pattern
       id="EMFhbasepattern"
       patternUnits="userSpaceOnUse"
       width="6"
       height="6"
       x="0"
       y="0" />
    <pattern
       id="EMFhbasepattern-2"
       patternUnits="userSpaceOnUse"
       width="6"
       height="6"
       x="0"
       y="0" />
    <pattern
       id="EMFhbasepattern-3"
       patternUnits="userSpaceOnUse"
       width="6"
       height="6"
       x="0"
       y="0" />
  </defs>
  <sodipodi:namedview
     id="namedview1"
     pagecolor="#ffffff"
     bordercolor="#000000"
     borderopacity="0.25"
     inkscape:showpageshadow="2"
     inkscape:pageopacity="0.0"
     inkscape:pagecheckerboard="0"
     inkscape:deskcolor="#d1d1d1"
     showgrid="false"
     showguides="true"
     inkscape:zoom="0.3885"
     inkscape:cx="377.09138"
     inkscape:cy="287.00129"
     inkscape:window-width="1920"
     inkscape:window-height="991"
     inkscape:window-x="-9"
     inkscape:window-y="-9"
     inkscape:window-maximized="1"
     inkscape:current-layer="svg1">
    <sodipodi:guide
       position="-62.349883,383.59538"
       orientation="0,-1"
       id="guide1"
       inkscape:locked="false" />
    <sodipodi:guide
       position="314.40971,1084.3319"
       orientation="0,-1"
       id="guide2"
       inkscape:locked="false" />
    <sodipodi:guide
       position="101.34228,643.8965"
       orientation="0,-1"
       id="guide3"
       inkscape:locked="false" />
    <sodipodi:guide
       position="770.58294,2.9698735"
       orientation="0,-1"
       id="guide4"
       inkscape:locked="false" />
    <sodipodi:guide
       position="330.42851,489.45635"
       orientation="0,-1"
       id="guide5"
       inkscape:locked="false" />
  </sodipodi:namedview>
  <path
     style="color:#000000;fill:#000000;stroke-linecap:round;stroke-linejoin:round;-inkscape-stroke:none;paint-order:markers fill stroke"
     d="m 244.51496,860.83204 a 13.096657,13.096657 0 0 0 -8.02344,6.00781 c -2.01499,3.39676 -11.76518,12.73742 -21.64453,20.26758 -9.87935,7.53017 -19.44704,13.82209 -24.73828,17.9375 a 13.096657,13.096657 0 0 0 -2.29688,18.37891 13.096657,13.096657 0 0 0 18.37891,2.29687 c 2.89916,-2.2549 13.81685,-9.61311 24.5332,-17.78125 10.71635,-8.16813 21.67233,-16.57235 28.29492,-27.73633 a 13.096657,13.096657 0 0 0 -4.58203,-17.94531 13.096657,13.096657 0 0 0 -9.92187,-1.42578 z"
     id="path6" />
  <path
     style="color:#000000;fill:#000000;stroke-linecap:round;stroke-linejoin:round;-inkscape-stroke:none;paint-order:markers fill stroke"
     d="M 269.01758,-0.24414063 C 229.57661,-0.80871071 189.21843,7.8660603 143.17969,22.478516 104.74244,34.678296 82.814139,69.861653 70.117187,100.44336 57.420236,131.02507 53.560547,158.75 53.560547,158.75 a 11.5262,11.5262 0 0 0 9.808594,13.01953 11.5262,11.5262 0 0 0 13.019531,-9.80859 c 0,0 3.576432,-25.11604 15.019531,-52.67774 C 102.8513,81.721508 121.76858,53.460029 150.15234,44.451172 209.95398,25.470445 256.81186,17.663842 304.24219,26.208984 c 47.43032,8.545143 96.50853,33.71157 159.83593,83.326176 36.04393,28.23903 49.24644,58.94086 53.98829,85.11328 4.74184,26.17241 0.62217,46.03639 -0.17774,57.18164 -3.46075,48.21922 -27.16873,95.68217 -53.01562,132.85156 -25.8469,37.16939 -54.58349,64.6217 -63.13086,71.04492 -62.0962,46.66438 -124.51106,58.45142 -168.19141,225.55274 a 11.5262,11.5262 0 0 0 8.23633,14.0664 11.5262,11.5262 0 0 0 14.06641,-8.23633 c 42.46672,-162.45855 93.19961,-162.95176 159.73632,-212.95312 12.98709,-9.7596 40.92319,-37.07388 68.20899,-76.3125 27.2858,-39.23862 53.16994,-89.82818 57.08398,-144.36328 0.42901,-5.97741 5.42462,-32.26935 -0.13281,-62.94336 C 535.19257,159.8631 518.68151,123.02849 478.29687,91.388672 413.39563,40.541031 360.80656,12.975752 308.33008,3.5214844 295.21096,1.1579175 282.16457,-0.0559506 269.01758,-0.24414063 Z"
     id="path7" />
</svg>
