<?xml version="1.0" encoding="UTF-8" standalone="no"?>
<svg
   version="1.1"
   viewBox="-19 0 455.02368 1081.5014"
   id="svg1"
   sodipodi:docname="keyLeft.svg"
   width="455.02368"
   height="1081.5015"
   inkscape:version="1.3 (0e150ed6c4, 2023-07-21)"
   xmlns:inkscape="http://www.inkscape.org/namespaces/inkscape"
   xmlns:sodipodi="http://sodipodi.sourceforge.net/DTD/sodipodi-0.dtd"
   xmlns="http://www.w3.org/2000/svg"
   xmlns:svg="http://www.w3.org/2000/svg">
  <defs
     id="defs1">
    <pattern
       id="EMFhbasepattern"
       patternUnits="userSpaceOnUse"
       width="6"
       height="6"
       x="0"
       y="0" />
    <pattern
       id="EMFhbasepattern-2"
       patternUnits="userSpaceOnUse"
       width="6"
       height="6"
       x="0"
       y="0" />
    <pattern
       id="EMFhbasepattern-3"
       patternUnits="userSpaceOnUse"
       width="6"
       height="6"
       x="0"
       y="0" />
    <pattern
       id="EMFhbasepattern-9"
       patternUnits="userSpaceOnUse"
       width="6"
       height="6"
       x="0"
       y="0" />
  </defs>
  <sodipodi:namedview
     id="namedview1"
     pagecolor="#ffffff"
     bordercolor="#000000"
     borderopacity="0.25"
     inkscape:showpageshadow="2"
     inkscape:pageopacity="0.0"
     inkscape:pagecheckerboard="0"
     inkscape:deskcolor="#d1d1d1"
     showgrid="false"
     showguides="true"
     inkscape:zoom="0.54942197"
     inkscape:cx="40.95213"
     inkscape:cy="182.91951"
     inkscape:window-width="1920"
     inkscape:window-height="991"
     inkscape:window-x="-9"
     inkscape:window-y="-9"
     inkscape:window-maximized="1"
     inkscape:current-layer="svg1">
    <sodipodi:guide
       position="235.55299,380.76489"
       orientation="0,-1"
       id="guide1"
       inkscape:locked="false" />
    <sodipodi:guide
       position="612.31259,1081.5014"
       orientation="0,-1"
       id="guide2"
       inkscape:locked="false" />
    <sodipodi:guide
       position="399.24516,641.06602"
       orientation="0,-1"
       id="guide3"
       inkscape:locked="false" />
    <sodipodi:guide
       position="1068.4858,0.13936456"
       orientation="0,-1"
       id="guide4"
       inkscape:locked="false" />
    <sodipodi:guide
       position="628.33139,486.62586"
       orientation="0,-1"
       id="guide5"
       inkscape:locked="false" />
  </sodipodi:namedview>
  <path
     style="color:#000000;fill:#000000;stroke-linecap:round;stroke-linejoin:round;-inkscape-stroke:none;paint-order:markers fill stroke"
     d="M 238.19922,0.03515625 C 215.6977,0.39921756 189.6999,5.8883431 171.87305,26.568359 150.44211,51.429294 150.60353,89.693473 149.33594,141.49023 c -1.2676,51.79677 -2.07764,118.09537 -16.4336,198.4375 -4.30933,24.1169 -11.23775,37.99243 -18.00195,45.88086 -1.38464,-1.34348 -2.73793,-2.73478 -4.20703,-3.94922 -9.3029,-7.69028 -20.760496,-12.44981 -32.947266,-12.52734 -12.186771,-0.0775 -24.537487,4.31522 -36.515625,12.37109 a 13.09781,13.09781 0 0 0 -0.919922,21.05665 c 0,0 20.947494,18.0608 48.414062,19.94335 6.158448,0.4221 12.796471,-0.23898 19.398441,-2.15625 5.83202,10.61447 11.10405,24.39216 14.9707,40.91407 13.6875,58.48564 11.44169,148.00536 -14.31641,235.58008 a 13.09781,13.09781 0 0 0 -0.41796,1.98046 c 0,0 -5.74564,41.30302 11.5625,83.35743 17.30813,42.0544 60.48732,84.64192 147.82617,84.33984 a 13.0965,13.0965 0 0 0 13.05273,-13.14258 13.0965,13.0965 0 0 0 -13.14258,-13.05078 c -79.30221,0.27428 -109.30335,-33.58301 -123.51562,-68.11523 -13.83528,-33.61624 -10.07644,-67.50782 -9.86524,-69.3125 26.6195,-91.30066 29.39472,-183.19369 14.32032,-247.60547 -4.32653,-18.48691 -10.07289,-34.76173 -17.61719,-48.27149 0.11691,-0.1142 0.24302,-0.20273 0.35937,-0.31836 12.75044,-12.67135 22.02476,-32.57796 27.34766,-62.36718 14.76551,-82.63416 15.57331,-150.89034 16.83398,-202.4043 1.26068,-51.513962 4.86068,-85.31674 16.19141,-98.460938 12.38813,-14.370835 34.30846,-18.197082 54.78125,-17.335938 20.47279,0.861145 37.33984,6.054688 37.33984,6.054688 a 13.0965,13.0965 0 0 0 16.39649,-8.613281 13.0965,13.0965 0 0 0 -8.61524,-16.3964848 c 0,0 -19.71712,-6.1926149 -44.01953,-7.2148437 -3.0378,-0.1277786 -6.18198,-0.18091501 -9.39648,-0.12890625 z"
     id="path1" />
</svg>
