<?xml version="1.0" encoding="UTF-8" standalone="no"?>
<svg
   version="1.1"
   viewBox="-19 0 849.98419 1081.362"
   id="svg1"
   sodipodi:docname="not.svg"
   width="849.98419"
   height="1081.3621"
   inkscape:version="1.3 (0e150ed6c4, 2023-07-21)"
   xmlns:inkscape="http://www.inkscape.org/namespaces/inkscape"
   xmlns:sodipodi="http://sodipodi.sourceforge.net/DTD/sodipodi-0.dtd"
   xmlns="http://www.w3.org/2000/svg"
   xmlns:svg="http://www.w3.org/2000/svg">
  <defs
     id="defs1">
    <pattern
       id="EMFhbasepattern"
       patternUnits="userSpaceOnUse"
       width="6"
       height="6"
       x="0"
       y="0" />
    <pattern
       id="EMFhbasepattern-2"
       patternUnits="userSpaceOnUse"
       width="6"
       height="6"
       x="0"
       y="0" />
    <pattern
       id="EMFhbasepattern-3"
       patternUnits="userSpaceOnUse"
       width="6"
       height="6"
       x="0"
       y="0" />
    <pattern
       id="EMFhbasepattern-9"
       patternUnits="userSpaceOnUse"
       width="6"
       height="6"
       x="0"
       y="0" />
  </defs>
  <sodipodi:namedview
     id="namedview1"
     pagecolor="#ffffff"
     bordercolor="#000000"
     borderopacity="0.25"
     inkscape:showpageshadow="2"
     inkscape:pageopacity="0.0"
     inkscape:pagecheckerboard="0"
     inkscape:deskcolor="#d1d1d1"
     showgrid="false"
     showguides="true"
     inkscape:zoom="0.54942197"
     inkscape:cx="674.34508"
     inkscape:cy="632.4829"
     inkscape:window-width="1920"
     inkscape:window-height="991"
     inkscape:window-x="-9"
     inkscape:window-y="-9"
     inkscape:window-maximized="1"
     inkscape:current-layer="svg1">
    <sodipodi:guide
       position="430.30312,380.76492"
       orientation="0,-1"
       id="guide1"
       inkscape:locked="false" />
    <sodipodi:guide
       position="807.06272,1081.5014"
       orientation="0,-1"
       id="guide2"
       inkscape:locked="false" />
    <sodipodi:guide
       position="593.99529,641.06605"
       orientation="0,-1"
       id="guide3"
       inkscape:locked="false" />
    <sodipodi:guide
       position="1263.2359,0.13939503"
       orientation="0,-1"
       id="guide4"
       inkscape:locked="false" />
    <sodipodi:guide
       position="823.08152,486.62589"
       orientation="0,-1"
       id="guide5"
       inkscape:locked="false" />
  </sodipodi:namedview>
  <path
     style="color:#000000;fill:#000000;stroke-linecap:round;stroke-linejoin:round;-inkscape-stroke:none;paint-order:markers fill stroke"
     d="m 609.43959,438.70505 c -4.88671,0.48867 -36.73607,2.52807 -72.79883,4.13086 -36.06275,1.60279 -77.52591,2.87112 -104.48632,2.24414 -56.39316,-1.31147 -232.15626,1.28515 -232.15626,1.28515 a 13.0965,13.0965 0 0 0 -12.90429,13.28516 13.0965,13.0965 0 0 0 13.28711,12.9043 c 0,0 176.87521,-2.5516 231.16406,-1.28907 28.38059,0.66002 69.92877,-0.647 106.25977,-2.26171 30.31334,-1.34726 53.09429,-2.71396 65.46484,-3.63477 0.18717,1.10715 0.3356,1.28656 0.48047,2.67188 0.8466,8.09562 0.97076,20.2386 0.65625,32.42578 -0.62902,24.37435 -2.84766,49.19922 -2.84766,49.19922 a 13.0965,13.0965 0 0 0 11.875,14.21484 13.0965,13.0965 0 0 0 14.21485,-11.87305 c 0,0 2.28537,-25.36833 2.94336,-50.86523 0.32899,-12.74845 0.29288,-25.46139 -0.79102,-35.82617 -0.54195,-5.18239 -1.20244,-9.68038 -2.9375,-14.29688 -0.86753,-2.30825 -1.93489,-4.78287 -4.5293,-7.47266 -2.5944,-2.68978 -7.93448,-5.3378 -12.89453,-4.84179 z"
     id="path1" />
</svg>
