<?xml version="1.0" encoding="UTF-8" standalone="no"?>
<svg
   version="1.1"
   viewBox="-19 0 353.09837 1078.087"
   id="svg1"
   sodipodi:docname="ordMasc.svg"
   width="353.09836"
   height="1078.087"
   inkscape:version="1.3 (0e150ed6c4, 2023-07-21)"
   xmlns:inkscape="http://www.inkscape.org/namespaces/inkscape"
   xmlns:sodipodi="http://sodipodi.sourceforge.net/DTD/sodipodi-0.dtd"
   xmlns="http://www.w3.org/2000/svg"
   xmlns:svg="http://www.w3.org/2000/svg">
  <defs
     id="defs1">
    <pattern
       id="EMFhbasepattern"
       patternUnits="userSpaceOnUse"
       width="6"
       height="6"
       x="0"
       y="0" />
    <pattern
       id="EMFhbasepattern-2"
       patternUnits="userSpaceOnUse"
       width="6"
       height="6"
       x="0"
       y="0" />
    <pattern
       id="EMFhbasepattern-3"
       patternUnits="userSpaceOnUse"
       width="6"
       height="6"
       x="0"
       y="0" />
    <pattern
       id="EMFhbasepattern-0"
       patternUnits="userSpaceOnUse"
       width="6"
       height="6"
       x="0"
       y="0" />
    <pattern
       id="EMFhbasepattern-4"
       patternUnits="userSpaceOnUse"
       width="6"
       height="6"
       x="0"
       y="0" />
    <pattern
       id="EMFhbasepattern-9"
       patternUnits="userSpaceOnUse"
       width="6"
       height="6"
       x="0"
       y="0" />
  </defs>
  <sodipodi:namedview
     id="namedview1"
     pagecolor="#ffffff"
     bordercolor="#000000"
     borderopacity="0.25"
     inkscape:showpageshadow="2"
     inkscape:pageopacity="0.0"
     inkscape:pagecheckerboard="0"
     inkscape:deskcolor="#d1d1d1"
     showgrid="false"
     showguides="true"
     inkscape:zoom="0.54942197"
     inkscape:cx="605.18148"
     inkscape:cy="448.65334"
     inkscape:window-width="1920"
     inkscape:window-height="991"
     inkscape:window-x="-9"
     inkscape:window-y="-9"
     inkscape:window-maximized="1"
     inkscape:current-layer="svg1">
    <sodipodi:guide
       position="150.60119,383.59539"
       orientation="0,-1"
       id="guide1"
       inkscape:locked="false" />
    <sodipodi:guide
       position="527.36079,1084.3319"
       orientation="0,-1"
       id="guide2"
       inkscape:locked="false" />
    <sodipodi:guide
       position="314.29335,643.89651"
       orientation="0,-1"
       id="guide3"
       inkscape:locked="false" />
    <sodipodi:guide
       position="983.53402,2.9698735"
       orientation="0,-1"
       id="guide4"
       inkscape:locked="false" />
    <sodipodi:guide
       position="543.37959,489.45636"
       orientation="0,-1"
       id="guide5"
       inkscape:locked="false" />
  </sodipodi:namedview>
  <path
     style="color:#000000;fill:#000000;stroke-linecap:round;stroke-linejoin:round;-inkscape-stroke:none;paint-order:markers fill stroke"
     d="m 177.35221,7.7080446 c -4.03941,0.0308 -8.25291,0.51099 -12.57031,1.46094 -13.52129,2.9750604 -21.80347,14.5388904 -25.36914,26.9746104 -3.56568,12.43571 -3.02047,27.07614 2.76172,41.4375 2.95137,7.3304 7.35381,14.43863 13.23046,20.97265 -8.8359,4.285845 -18.34931,6.994135 -27.70507,6.994135 -21.16091,0 -35.26492,-12.077735 -37.845708,-22.718745 -1.290394,-5.3205 -0.63802,-10.60294 4.232422,-17.09375 4.870441,-6.4908 14.607756,-13.94641 31.359376,-19.90625 a 13.0965,13.0965 0 0 0 7.94922,-16.73047 13.0965,13.0965 0 0 0 -16.72852,-7.94726 c -20.161537,7.173 -34.571461,16.92524 -43.529295,28.86328 -8.957834,11.93804 -11.814772,26.30341 -8.738281,38.98828 6.152982,25.369735 32.28562,42.738275 63.300786,42.738275 18.62535,0 35.71359,-6.44788 50.07031,-15.63086 17.12696,9.54372 39.93247,15.63086 68.97656,15.63086 a 13.0965,13.0965 0 0 0 13.0957,-13.09765 13.0965,13.0965 0 0 0 -13.0957,-13.09571 c -19.94593,0 -35.2345,-2.87223 -46.97851,-7.396475 13.23361,-13.35772 22.27919,-27.99527 20.76757,-44.62305 -1.10153,-12.11679 -3.99551,-24.86671 -13.43554,-34.64258 -7.08003,-7.3319 -17.62982,-11.2701004 -29.74805,-11.1777304 z m 0.38672,25.9140604 c 6.01037,-0.38215 8.42968,1.29479 10.51953,3.45899 2.78646,2.88559 5.36243,9.69965 6.19141,18.81836 0.17427,1.91703 -5.43309,16.23201 -17.40235,27.6914 -4.93171,-5.06238 -8.43343,-10.4739 -10.57422,-15.79101 -3.62899,-9.01343 -3.68634,-18.14553 -1.88281,-24.43555 1.80353,-6.29003 4.86286,-8.40457 5.82031,-8.61524 2.92197,-0.64291 5.32467,-0.99956 7.32813,-1.12695 z"
     id="path5" />
</svg>
