<?xml version="1.0" encoding="UTF-8" standalone="no"?>
<svg
   version="1.1"
   viewBox="-19 0 567.86958 1078.5563"
   id="svg1"
   sodipodi:docname="percent.svg"
   width="567.86957"
   height="1078.5564"
   inkscape:version="1.3 (0e150ed6c4, 2023-07-21)"
   xmlns:inkscape="http://www.inkscape.org/namespaces/inkscape"
   xmlns:sodipodi="http://sodipodi.sourceforge.net/DTD/sodipodi-0.dtd"
   xmlns="http://www.w3.org/2000/svg"
   xmlns:svg="http://www.w3.org/2000/svg">
  <defs
     id="defs1">
    <pattern
       id="EMFhbasepattern"
       patternUnits="userSpaceOnUse"
       width="6"
       height="6"
       x="0"
       y="0" />
    <pattern
       id="EMFhbasepattern-2"
       patternUnits="userSpaceOnUse"
       width="6"
       height="6"
       x="0"
       y="0" />
    <pattern
       id="EMFhbasepattern-3"
       patternUnits="userSpaceOnUse"
       width="6"
       height="6"
       x="0"
       y="0" />
    <pattern
       id="EMFhbasepattern-9"
       patternUnits="userSpaceOnUse"
       width="6"
       height="6"
       x="0"
       y="0" />
  </defs>
  <sodipodi:namedview
     id="namedview1"
     pagecolor="#ffffff"
     bordercolor="#000000"
     borderopacity="0.25"
     inkscape:showpageshadow="2"
     inkscape:pageopacity="0.0"
     inkscape:pagecheckerboard="0"
     inkscape:deskcolor="#d1d1d1"
     showgrid="false"
     showguides="true"
     inkscape:zoom="0.54942197"
     inkscape:cx="190.19989"
     inkscape:cy="495.9758"
     inkscape:window-width="1920"
     inkscape:window-height="991"
     inkscape:window-x="-9"
     inkscape:window-y="-9"
     inkscape:window-maximized="1"
     inkscape:current-layer="svg1">
    <sodipodi:guide
       position="297.58484,381.52008"
       orientation="0,-1"
       id="guide1"
       inkscape:locked="false" />
    <sodipodi:guide
       position="674.34445,1082.2566"
       orientation="0,-1"
       id="guide2"
       inkscape:locked="false" />
    <sodipodi:guide
       position="1105.7235,644.44449"
       orientation="0,-1"
       id="guide3"
       inkscape:locked="false" />
    <sodipodi:guide
       position="1130.5177,0.89455862"
       orientation="0,-1"
       id="guide4"
       inkscape:locked="false" />
    <sodipodi:guide
       position="690.36325,487.38105"
       orientation="0,-1"
       id="guide5"
       inkscape:locked="false" />
  </sodipodi:namedview>
  <path
     style="color:#000000;fill:#000000;stroke-linecap:round;stroke-linejoin:round;-inkscape-stroke:none;paint-order:markers fill stroke"
     d="m 388.37829,269.76171 a 13.0965,13.0965 0 0 0 -8.53515,5.25782 c 0,0 -15.17563,20.98614 -31.50391,44.42773 -8.16414,11.7208 -16.61893,24.05743 -23.66601,34.78125 -7.04709,10.72382 -12.48954,19.25575 -15.58399,25.88672 0.43861,-0.93987 -4.49092,7.32622 -11.18555,17.05664 -6.69462,9.73042 -15.85019,22.69988 -26.59375,37.73438 -21.48711,30.06898 -49.34205,68.42294 -76.91796,106.17578 C 139.24013,616.5877 85.200562,689.69921 85.200562,689.69921 a 13.0965,13.0965 0 0 0 2.74805,18.31641 13.0965,13.0965 0 0 0 18.316398,-2.74805 c 0,0 54.06893,-73.15123 109.27735,-148.73437 27.60421,-37.79157 55.49095,-76.18943 77.07812,-106.39844 10.79359,-15.1045 20.00922,-28.15504 26.86328,-38.11719 6.85407,-9.96214 10.65094,-15.06005 13.3418,-20.82617 1.41005,-3.02153 6.90794,-12.1871 13.73633,-22.57812 6.82839,-10.39103 15.18529,-22.58728 23.26953,-34.19336 16.16847,-23.21216 31.23633,-44.05274 31.23633,-44.05274 a 13.0965,13.0965 0 0 0 -2.9375,-18.28711 13.0965,13.0965 0 0 0 -9.75196,-2.31836 z"
     id="path18" />
  <path
     style="color:#000000;fill:#000000;stroke-linecap:round;stroke-linejoin:round;-inkscape-stroke:none;paint-order:markers fill stroke"
     d="m 194.78845,309.60156 c -3.93016,-0.008 -7.66612,0.84493 -10.82812,1.96094 -6.32402,2.232 -11.6393,5.65578 -16.35547,9.13085 -2.33778,1.72258 -4.52832,3.49288 -6.50977,5.1836 a 13.0965,13.0965 0 0 0 -8.65625,1.26953 c 0,0 -9.81461,5.75894 -18.86523,14.30273 -4.52531,4.2719 -9.0885,9.22949 -12.25586,15.85547 -3.16737,6.62599 -4.43102,16.60077 0.42383,24.77735 2.92225,4.92169 8.19254,8.43874 13,9.71875 4.80745,1.28 9.1516,1.00499 13.20117,0.3164 8.09914,-1.37718 15.56296,-4.66634 22.625,-8.24804 14.12407,-7.16341 26.38086,-16.13282 26.38086,-16.13282 a 13.09781,13.09781 0 0 0 1.74609,-1.52148 c 0,0 6.79637,-6.90799 12.20117,-15.89063 2.7024,-4.49131 5.38232,-9.51158 6.14844,-16.27148 0.76612,-6.7599 -2.81151,-16.8214 -10.26172,-21.23633 -3.94052,-2.33513 -8.06398,-3.20645 -11.99414,-3.21484 z m -8.36914,30.02734 c -2.68074,3.80274 -5.10666,6.74747 -5.90039,7.61719 -1.47048,1.04679 -11.00212,7.78684 -21.80078,13.26367 -4.20243,2.13137 -8.1409,3.63758 -11.45899,4.67188 1.17162,-1.48057 2.62437,-3.10854 4.29493,-4.68555 1.77302,-1.67374 3.63501,-3.21099 5.44726,-4.625 a 13.0965,13.0965 0 0 0 13.22461,-2.64063 c 0,0 5.94459,-6.31093 12.91797,-11.44921 1.09803,-0.80908 2.18171,-1.45789 3.27539,-2.15235 z"
     id="path19" />
  <path
     style="color:#000000;fill:#000000;stroke-linecap:round;stroke-linejoin:round;-inkscape-stroke:none;paint-order:markers fill stroke"
     d="m 396.02087,566.93945 c -9.72276,0.66753 -20.85194,4.1249 -32.90429,10.84375 a 13.0965,13.0965 0 0 0 -3.07618,-5.66211 13.0965,13.0965 0 0 0 -18.50976,-0.60742 c 0,0 -14.71109,13.68613 -26.39063,28.19336 -5.83977,7.25361 -11.1905,14.01139 -13.74414,23.14257 -1.27682,4.5656 -1.89957,11.58338 2.7461,17.60743 4.64566,6.02405 11.61518,7.40429 17.21875,7.40429 20.58355,0 45.25637,-11.50172 67.57812,-23.375 11.16088,-5.93663 21.11414,-12.03078 28.50195,-17.76953 3.69391,-2.86937 6.73826,-5.42677 9.47657,-9.19922 1.36915,-1.88622 2.90038,-4.11789 3.52539,-8.125 0.62501,-4.0071 -1.28211,-10.40831 -4.82617,-13.55859 -7.0655,-6.28044 -17.21832,-9.74432 -29.59571,-8.89453 z m -8.81445,28.35742 c -3.36925,2.01009 -6.76191,4.03974 -10.56836,6.06445 -14.16412,7.53411 -31.22486,14.15375 -43.11914,17.64649 0.73057,-1.00199 1.21633,-1.87249 2.02344,-2.875 4.38222,-5.44319 9.4432,-10.8865 13.84765,-15.44922 a 13.0965,13.0965 0 0 0 0.31055,1.45898 13.0965,13.0965 0 0 0 18.21094,3.37305 c 7.67353,-5.27555 13.97351,-8.34269 19.29492,-10.21875 z"
     id="path20" />
</svg>
