<?xml version="1.0" encoding="UTF-8" standalone="no"?>
<svg
   version="1.1"
   viewBox="-19 0 306.30631 1078.5563"
   id="svg1"
   sodipodi:docname="plusMinus.svg"
   width="306.3063"
   height="1078.5564"
   inkscape:version="1.3 (0e150ed6c4, 2023-07-21)"
   xmlns:inkscape="http://www.inkscape.org/namespaces/inkscape"
   xmlns:sodipodi="http://sodipodi.sourceforge.net/DTD/sodipodi-0.dtd"
   xmlns="http://www.w3.org/2000/svg"
   xmlns:svg="http://www.w3.org/2000/svg">
  <defs
     id="defs1">
    <pattern
       id="EMFhbasepattern"
       patternUnits="userSpaceOnUse"
       width="6"
       height="6"
       x="0"
       y="0" />
    <pattern
       id="EMFhbasepattern-2"
       patternUnits="userSpaceOnUse"
       width="6"
       height="6"
       x="0"
       y="0" />
    <pattern
       id="EMFhbasepattern-3"
       patternUnits="userSpaceOnUse"
       width="6"
       height="6"
       x="0"
       y="0" />
    <pattern
       id="EMFhbasepattern-9"
       patternUnits="userSpaceOnUse"
       width="6"
       height="6"
       x="0"
       y="0" />
    <pattern
       id="EMFhbasepattern-0"
       patternUnits="userSpaceOnUse"
       width="6"
       height="6"
       x="0"
       y="0" />
  </defs>
  <sodipodi:namedview
     id="namedview1"
     pagecolor="#ffffff"
     bordercolor="#000000"
     borderopacity="0.25"
     inkscape:showpageshadow="2"
     inkscape:pageopacity="0.0"
     inkscape:pagecheckerboard="0"
     inkscape:deskcolor="#d1d1d1"
     showgrid="false"
     showguides="true"
     inkscape:zoom="0.777"
     inkscape:cx="175.67568"
     inkscape:cy="263.19176"
     inkscape:window-width="1920"
     inkscape:window-height="991"
     inkscape:window-x="-9"
     inkscape:window-y="-9"
     inkscape:window-maximized="1"
     inkscape:current-layer="svg1">
    <sodipodi:guide
       position="297.58484,381.07281"
       orientation="0,-1"
       id="guide1"
       inkscape:locked="false" />
    <sodipodi:guide
       position="674.34444,1081.8093"
       orientation="0,-1"
       id="guide2"
       inkscape:locked="false" />
    <sodipodi:guide
       position="1105.7235,643.99721"
       orientation="0,-1"
       id="guide3"
       inkscape:locked="false" />
    <sodipodi:guide
       position="1130.5177,0.447293"
       orientation="0,-1"
       id="guide4"
       inkscape:locked="false" />
    <sodipodi:guide
       position="690.36324,486.93378"
       orientation="0,-1"
       id="guide5"
       inkscape:locked="false" />
  </sodipodi:namedview>
  <path
     style="color:#000000;fill:#000000;stroke-linecap:round;stroke-linejoin:round;-inkscape-stroke:none;paint-order:markers fill stroke"
     d="m 131.87541,341.18123 a 13.0965,13.0965 0 0 0 -11.55078,14.47852 c 0,0 16.07438,146.27927 9.97266,219.5 a 13.0965,13.0965 0 0 0 11.96484,14.13867 13.0965,13.0965 0 0 0 14.13867,-11.96289 c 6.63892,-79.66706 -10.04687,-224.60352 -10.04687,-224.60352 a 13.0965,13.0965 0 0 0 -14.47852,-11.55078 z"
     id="path29" />
  <path
     style="color:#000000;fill:#000000;stroke-linecap:round;stroke-linejoin:round;-inkscape-stroke:none;paint-order:markers fill stroke"
     d="m 234.66057,444.02303 c -17.70098,2.05825 -70.8068,4.01449 -118.16211,5.26367 -47.355329,1.24918 -89.845709,1.92969 -89.845709,1.92969 a 13.0965,13.0965 0 0 0 -12.88477,13.30468 13.0965,13.0965 0 0 0 13.30469,12.88477 c 0,0 42.60016,-0.6821 90.117189,-1.93555 47.51703,-1.25344 99.06509,-2.93771 120.4961,-5.42968 a 13.0965,13.0965 0 0 0 11.49609,-14.52149 13.0965,13.0965 0 0 0 -14.52148,-11.49609 z"
     id="path28" />
  <path
     style="color:#000000;fill:#000000;stroke-linecap:round;stroke-linejoin:round;-inkscape-stroke:none;paint-order:markers fill stroke"
     d="m 35.959592,656.04775 c 17.70098,2.05825 70.806798,4.01449 118.162108,5.26367 47.35534,1.24918 89.84572,1.92969 89.84572,1.92969 a 13.0965,13.0965 0 0 1 12.88477,13.30468 13.0965,13.0965 0 0 1 -13.30469,12.88477 c 0,0 -42.60016,-0.6821 -90.1172,-1.93555 -47.51703,-1.25344 -99.065088,-2.93771 -120.496098,-5.42968 a 13.0965,13.0965 0 0 1 -11.49609,-14.52149 13.0965,13.0965 0 0 1 14.52148,-11.49609 z"
     id="path28-4" />
</svg>
