<?xml version="1.0" encoding="UTF-8" standalone="no"?>
<svg
   version="1.1"
   viewBox="-19 0 740.7785 1081.362"
   id="svg1"
   sodipodi:docname="pound.svg"
   width="740.7785"
   height="1081.3621"
   inkscape:version="1.3 (0e150ed6c4, 2023-07-21)"
   xmlns:inkscape="http://www.inkscape.org/namespaces/inkscape"
   xmlns:sodipodi="http://sodipodi.sourceforge.net/DTD/sodipodi-0.dtd"
   xmlns="http://www.w3.org/2000/svg"
   xmlns:svg="http://www.w3.org/2000/svg">
  <defs
     id="defs1">
    <pattern
       id="EMFhbasepattern"
       patternUnits="userSpaceOnUse"
       width="6"
       height="6"
       x="0"
       y="0" />
    <pattern
       id="EMFhbasepattern-2"
       patternUnits="userSpaceOnUse"
       width="6"
       height="6"
       x="0"
       y="0" />
    <pattern
       id="EMFhbasepattern-3"
       patternUnits="userSpaceOnUse"
       width="6"
       height="6"
       x="0"
       y="0" />
    <pattern
       id="EMFhbasepattern-0"
       patternUnits="userSpaceOnUse"
       width="6"
       height="6"
       x="0"
       y="0" />
    <pattern
       id="EMFhbasepattern-35"
       patternUnits="userSpaceOnUse"
       width="6"
       height="6"
       x="0"
       y="0" />
  </defs>
  <sodipodi:namedview
     id="namedview1"
     pagecolor="#ffffff"
     bordercolor="#000000"
     borderopacity="0.25"
     inkscape:showpageshadow="2"
     inkscape:pageopacity="0.0"
     inkscape:pagecheckerboard="0"
     inkscape:deskcolor="#d1d1d1"
     showgrid="false"
     showguides="true"
     inkscape:zoom="0.54942197"
     inkscape:cx="776.27038"
     inkscape:cy="392.2304"
     inkscape:window-width="1920"
     inkscape:window-height="991"
     inkscape:window-x="-9"
     inkscape:window-y="-9"
     inkscape:window-maximized="1"
     inkscape:current-layer="svg1">
    <sodipodi:guide
       position="12.273985,380.6255"
       orientation="0,-1"
       id="guide1"
       inkscape:locked="false" />
    <sodipodi:guide
       position="389.03358,1081.362"
       orientation="0,-1"
       id="guide2"
       inkscape:locked="false" />
    <sodipodi:guide
       position="175.96615,640.92662"
       orientation="0,-1"
       id="guide3"
       inkscape:locked="false" />
    <sodipodi:guide
       position="845.20682,-1.3392134e-05"
       orientation="0,-1"
       id="guide4"
       inkscape:locked="false" />
    <sodipodi:guide
       position="405.05238,486.48647"
       orientation="0,-1"
       id="guide5"
       inkscape:locked="false" />
  </sodipodi:namedview>
  <path
     style="color:#000000;fill:#000000;stroke-linecap:round;stroke-linejoin:round;-inkscape-stroke:none;paint-order:markers fill stroke"
     d="m 417.70395,3.2770159 c -17.86641,-0.064211 -37.03502,2.5664245 -57.5,8.2734371 C 245.14787,43.635873 184.06681,112.33168 158.40902,195.3024 c -25.65778,82.97073 -17.46628,179.37503 0.18164,271.21485 14.52792,75.60326 35.5489,148.09736 50.53712,207.0957 -5.44123,4.38202 -10.29106,9.36613 -14.39258,14.83594 -12.26928,16.36235 -18.98903,36.37156 -21.60157,55.9082 -2.61253,19.53664 -1.22427,38.61494 4.38868,54.10156 2.80647,7.74332 6.69452,14.7051 12.43945,20.12696 5.74493,5.42185 13.84571,9.03166 22.38086,8.73242 10.87968,-0.38143 21.02616,-4.75763 27.54492,-12.47461 6.51876,-7.71698 9.40324,-17.53658 10.53516,-28.35352 2.26383,-21.63388 -2.2005,-48.95702 -9.54297,-81.78125 -1.45785,-6.51727 -3.12256,-13.39466 -4.80469,-20.3125 4.6326,-1.94861 9.70236,-3.32219 15.38086,-3.91992 75.82402,-7.98158 150.66113,36.39186 250.31055,31.96289 53.99258,-2.39968 87.63338,-45.99767 97.35351,-87.23437 4.86007,-20.61835 4.36664,-41.22884 -3.87695,-57.80078 -8.24359,-16.57195 -26.55141,-27.78211 -48.57227,-25.19141 -38.75049,4.55881 -61.07531,20.81535 -72.52734,36.7207 -11.45202,15.90535 -12.31055,31.89258 -12.31055,31.89258 a 11.76785,11.76785 0 0 0 11.24414,12.26758 11.76785,11.76785 0 0 0 12.26954,-11.24609 c 0,0 0.2025,-8.47619 7.89648,-19.16211 7.69398,-10.68593 22.59937,-23.14928 56.17773,-27.09961 14.14286,-1.66388 20.03053,2.81331 24.75,12.30078 4.71948,9.48747 5.95611,25.30858 2.04102,41.91797 -7.83018,33.21877 -33.75408,67.2681 -75.49023,69.12304 -91.80807,4.08046 -165.88115,-40.89431 -251.73047,-31.85742 -6.64469,0.69944 -12.83473,2.27396 -18.64258,4.43555 C 215.35367,603.0251 195.46238,533.6747 181.70395,462.07584 164.38599,371.95318 157.19667,278.88469 180.8934,202.25553 204.59013,125.62637 257.60004,64.596365 366.52621,34.220375 c 49.76102,-13.876717 87.03662,-7.770881 117.68555,10.332032 30.64893,18.102913 54.9149,49.193001 74.66406,86.789063 a 11.76785,11.76785 0 0 0 15.89063,4.94531 11.76785,11.76785 0 0 0 4.94531,-15.89063 C 558.77345,80.536336 532.24189,45.585428 496.18246,24.286782 473.64532,10.975128 447.48129,3.3840349 417.70395,3.2770159 Z M 215.63364,700.236 c 0.74371,3.17356 1.59137,6.54472 2.27734,9.61133 7.147,31.95037 10.77957,58.17644 9.10351,74.19335 -0.83802,8.00846 -2.93232,13.04033 -5.10742,15.61524 -2.1751,2.57491 -4.43952,3.93205 -10.38867,4.14062 -2.10807,0.0739 -3.31775,-0.35892 -5.4043,-2.32812 -2.08654,-1.96921 -4.55011,-5.74639 -6.46484,-11.0293 -3.82945,-10.56581 -5.36483,-26.6807 -3.1875,-42.96289 2.17733,-16.28218 7.96248,-32.71768 17.10352,-44.9082 0.63855,-0.85158 1.40234,-1.52091 2.06836,-2.33203 z"
     id="path3" />
  <path
     style="color:#000000;fill:#000000;stroke-linecap:round;stroke-linejoin:round;-inkscape-stroke:none;paint-order:markers fill stroke"
     d="M 284.37582,339.8024 C 163.99829,348.16582 62.627775,396.51725 62.627775,396.51725 a 11.76785,11.76785 0 0 0 -5.57812,15.67968 11.76785,11.76785 0 0 0 15.67969,5.57813 c 0,0 98.259115,-46.50307 213.277335,-54.49414 a 11.76785,11.76785 0 0 0 10.92578,-12.55469 11.76785,11.76785 0 0 0 -12.55664,-10.92383 z"
     id="path4" />
</svg>
