<?xml version="1.0" encoding="UTF-8" standalone="no"?>
<svg
   version="1.1"
   viewBox="-19 0 192.95537 1078.087"
   id="svg1"
   sodipodi:docname="quotDoubleRight.svg"
   width="192.95537"
   height="1078.087"
   inkscape:version="1.3 (0e150ed6c4, 2023-07-21)"
   xmlns:inkscape="http://www.inkscape.org/namespaces/inkscape"
   xmlns:sodipodi="http://sodipodi.sourceforge.net/DTD/sodipodi-0.dtd"
   xmlns="http://www.w3.org/2000/svg"
   xmlns:svg="http://www.w3.org/2000/svg">
  <defs
     id="defs1">
    <pattern
       id="EMFhbasepattern"
       patternUnits="userSpaceOnUse"
       width="6"
       height="6"
       x="0"
       y="0" />
    <pattern
       id="EMFhbasepattern-2"
       patternUnits="userSpaceOnUse"
       width="6"
       height="6"
       x="0"
       y="0" />
    <pattern
       id="EMFhbasepattern-3"
       patternUnits="userSpaceOnUse"
       width="6"
       height="6"
       x="0"
       y="0" />
  </defs>
  <sodipodi:namedview
     id="namedview1"
     pagecolor="#ffffff"
     bordercolor="#000000"
     borderopacity="0.25"
     inkscape:showpageshadow="2"
     inkscape:pageopacity="0.0"
     inkscape:pagecheckerboard="0"
     inkscape:deskcolor="#d1d1d1"
     showgrid="false"
     showguides="true"
     inkscape:zoom="0.777"
     inkscape:cx="-52.123552"
     inkscape:cy="206.56371"
     inkscape:window-width="1920"
     inkscape:window-height="991"
     inkscape:window-x="-9"
     inkscape:window-y="-9"
     inkscape:window-maximized="1"
     inkscape:current-layer="svg1">
    <sodipodi:guide
       position="-273.89969,383.57328"
       orientation="0,-1"
       id="guide1"
       inkscape:locked="false" />
    <sodipodi:guide
       position="102.8599,1084.3098"
       orientation="0,-1"
       id="guide2"
       inkscape:locked="false" />
    <sodipodi:guide
       position="-110.20753,643.8744"
       orientation="0,-1"
       id="guide3"
       inkscape:locked="false" />
    <sodipodi:guide
       position="559.03313,2.9477738"
       orientation="0,-1"
       id="guide4"
       inkscape:locked="false" />
    <sodipodi:guide
       position="118.8787,489.43425"
       orientation="0,-1"
       id="guide5"
       inkscape:locked="false" />
  </sodipodi:namedview>
  <path
     style="color:#000000;fill:#000000;stroke-linecap:round;stroke-linejoin:round;-inkscape-stroke:none;paint-order:markers fill stroke"
     d="M 58.769296,102.77254 A 13.096657,13.096657 0 0 1 53.288512,94.380255 C 52.55865,90.498837 46.596925,78.383884 39.893807,67.925722 33.190697,57.46756 26.356337,48.279486 22.794447,42.600864 a 13.096657,13.096657 0 0 1 4.13619,-18.054135 13.096657,13.096657 0 0 1 18.054135,4.13619 c 1.951622,3.111407 9.689169,13.76361 16.960189,25.107821 7.271011,11.344193 14.686319,22.992278 17.085138,35.749184 a 13.096657,13.096657 0 0 1 -10.45062,15.290956 13.096657,13.096657 0 0 1 -9.810183,-2.05834 z"
     id="path6" />
  <path
     style="color:#000000;fill:#000000;stroke-width:1.00004;stroke-linecap:round;stroke-linejoin:round;-inkscape-stroke:none;paint-order:markers fill stroke"
     d="m 65.258515,13.37292 a 13.097159,13.097159 0 0 0 4.030532,9.177797 c 2.851014,2.73332 9.735723,14.349214 14.827792,25.680039 5.092059,11.330829 9.048874,22.077119 11.856323,28.164438 a 13.097159,13.097159 0 0 0 17.378908,6.407798 13.097159,13.097159 0 0 0 6.40779,-17.378908 C 118.22162,62.088739 113.53266,49.785648 108.00917,37.494843 102.48571,25.204053 96.786663,12.626288 87.416383,3.6427619 A 13.097159,13.097159 0 0 0 68.898737,4.0330683 13.097159,13.097159 0 0 0 65.258515,13.37292 Z"
     id="path6-8" />
</svg>
