<?xml version="1.0" encoding="UTF-8" standalone="no"?>
<svg
   version="1.1"
   viewBox="-19 0 192.95537 1078.087"
   id="svg1"
   sodipodi:docname="quotSingle.svg"
   width="192.95537"
   height="1078.087"
   inkscape:version="1.3 (0e150ed6c4, 2023-07-21)"
   xmlns:inkscape="http://www.inkscape.org/namespaces/inkscape"
   xmlns:sodipodi="http://sodipodi.sourceforge.net/DTD/sodipodi-0.dtd"
   xmlns="http://www.w3.org/2000/svg"
   xmlns:svg="http://www.w3.org/2000/svg">
  <defs
     id="defs1">
    <pattern
       id="EMFhbasepattern"
       patternUnits="userSpaceOnUse"
       width="6"
       height="6"
       x="0"
       y="0" />
    <pattern
       id="EMFhbasepattern-2"
       patternUnits="userSpaceOnUse"
       width="6"
       height="6"
       x="0"
       y="0" />
    <pattern
       id="EMFhbasepattern-3"
       patternUnits="userSpaceOnUse"
       width="6"
       height="6"
       x="0"
       y="0" />
  </defs>
  <sodipodi:namedview
     id="namedview1"
     pagecolor="#ffffff"
     bordercolor="#000000"
     borderopacity="0.25"
     inkscape:showpageshadow="2"
     inkscape:pageopacity="0.0"
     inkscape:pagecheckerboard="0"
     inkscape:deskcolor="#d1d1d1"
     showgrid="false"
     showguides="true"
     inkscape:zoom="1.0988439"
     inkscape:cx="-28.666491"
     inkscape:cy="256.17833"
     inkscape:window-width="1920"
     inkscape:window-height="991"
     inkscape:window-x="-9"
     inkscape:window-y="-9"
     inkscape:window-maximized="1"
     inkscape:current-layer="svg1">
    <sodipodi:guide
       position="-273.89969,383.57328"
       orientation="0,-1"
       id="guide1"
       inkscape:locked="false" />
    <sodipodi:guide
       position="102.8599,1084.3098"
       orientation="0,-1"
       id="guide2"
       inkscape:locked="false" />
    <sodipodi:guide
       position="-110.20753,643.8744"
       orientation="0,-1"
       id="guide3"
       inkscape:locked="false" />
    <sodipodi:guide
       position="559.03313,2.9477738"
       orientation="0,-1"
       id="guide4"
       inkscape:locked="false" />
    <sodipodi:guide
       position="118.8787,489.43425"
       orientation="0,-1"
       id="guide5"
       inkscape:locked="false" />
  </sodipodi:namedview>
  <path
     style="color:#000000;fill:#000000;stroke-linecap:round;stroke-linejoin:round;-inkscape-stroke:none;paint-order:markers fill stroke"
     d="m 65.72032,7.0588317 a 13.096657,13.096657 0 0 0 -0.88393,9.9843903 c 1.18359,3.76792 1.62811,17.26298 0.63849,29.64545 -0.98962,12.38247 -2.69302,23.70623 -3.16173,30.39309 a 13.096657,13.096657 0 0 0 12.14948,13.98034 13.096657,13.096657 0 0 0 13.98034,-12.14949 c 0.25682,-3.66384 2.06768,-16.70454 3.14114,-30.13609 1.07346,-13.43153 2.13114,-27.1991 -1.75891,-39.5829803 A 13.096657,13.096657 0 0 0 73.40596,0.62397168 13.096657,13.096657 0 0 0 65.72032,7.0588317 Z"
     id="path6" />
</svg>
