<?xml version="1.0" encoding="UTF-8" standalone="no"?>
<svg
   version="1.1"
   viewBox="-19 0 388.67439 1077.6618"
   id="svg1"
   sodipodi:docname="slah.svg"
   width="388.67438"
   height="1077.6619"
   inkscape:version="1.3 (0e150ed6c4, 2023-07-21)"
   xmlns:inkscape="http://www.inkscape.org/namespaces/inkscape"
   xmlns:sodipodi="http://sodipodi.sourceforge.net/DTD/sodipodi-0.dtd"
   xmlns="http://www.w3.org/2000/svg"
   xmlns:svg="http://www.w3.org/2000/svg">
  <defs
     id="defs1">
    <pattern
       id="EMFhbasepattern"
       patternUnits="userSpaceOnUse"
       width="6"
       height="6"
       x="0"
       y="0" />
    <pattern
       id="EMFhbasepattern-2"
       patternUnits="userSpaceOnUse"
       width="6"
       height="6"
       x="0"
       y="0" />
    <pattern
       id="EMFhbasepattern-3"
       patternUnits="userSpaceOnUse"
       width="6"
       height="6"
       x="0"
       y="0" />
    <pattern
       id="EMFhbasepattern-9"
       patternUnits="userSpaceOnUse"
       width="6"
       height="6"
       x="0"
       y="0" />
  </defs>
  <sodipodi:namedview
     id="namedview1"
     pagecolor="#ffffff"
     bordercolor="#000000"
     borderopacity="0.25"
     inkscape:showpageshadow="2"
     inkscape:pageopacity="0.0"
     inkscape:pagecheckerboard="0"
     inkscape:deskcolor="#d1d1d1"
     showgrid="false"
     showguides="true"
     inkscape:zoom="0.3885"
     inkscape:cx="168.59717"
     inkscape:cy="217.50322"
     inkscape:window-width="1920"
     inkscape:window-height="991"
     inkscape:window-x="-9"
     inkscape:window-y="-9"
     inkscape:window-maximized="1"
     inkscape:current-layer="svg1">
    <sodipodi:guide
       position="297.58484,381.52008"
       orientation="0,-1"
       id="guide1"
       inkscape:locked="false" />
    <sodipodi:guide
       position="674.34445,1082.2566"
       orientation="0,-1"
       id="guide2"
       inkscape:locked="false" />
    <sodipodi:guide
       position="1105.7235,644.44449"
       orientation="0,-1"
       id="guide3"
       inkscape:locked="false" />
    <sodipodi:guide
       position="1130.5177,0.89455862"
       orientation="0,-1"
       id="guide4"
       inkscape:locked="false" />
    <sodipodi:guide
       position="690.36325,487.38105"
       orientation="0,-1"
       id="guide5"
       inkscape:locked="false" />
  </sodipodi:namedview>
  <path
     style="color:#000000;fill:#000000;stroke-linecap:round;stroke-linejoin:round;-inkscape-stroke:none;paint-order:markers fill stroke"
     d="m 260.05896,193.96418 a 13.0965,13.0965 0 0 0 -6.83691,7.33143 c 0,0 -9.07255,24.25711 -18.60593,51.18729 -4.76669,13.46511 -9.65047,27.60105 -13.60418,39.80882 -3.95374,12.20778 -6.94096,21.87683 -8.16782,29.09072 0.1739,-1.0225 -2.38918,8.25431 -6.26628,19.4108 -3.87707,11.1565 -9.2689,26.08833 -15.64478,43.43215 -12.75177,34.68764 -29.4485,79.05139 -46.03546,122.76158 -33.17394,87.42037 -65.909748,172.23744 -65.909748,172.23744 a 13.0965,13.0965 0 0 0 7.503104,16.93359 13.0965,13.0965 0 0 0 16.933574,-7.50309 c 0,0 32.75359,-84.86316 65.96156,-172.37323 16.60397,-43.75503 33.31974,-88.16955 46.13089,-123.01871 6.40558,-17.42458 11.83383,-32.45051 15.80326,-43.87269 3.96943,-11.42218 6.2798,-17.34392 7.34664,-23.61694 0.55904,-3.28715 3.43184,-13.58188 7.26287,-25.41081 3.83103,-11.82893 8.65761,-25.80356 13.37765,-39.13687 9.44007,-26.66663 18.44726,-50.75481 18.44726,-50.75481 a 13.0965,13.0965 0 0 0 -7.67801,-16.85514 13.0965,13.0965 0 0 0 -10.01769,0.34847 z"
     id="path18" />
</svg>
