<?xml version="1.0" encoding="UTF-8" standalone="no"?>
<svg
   version="1.1"
   viewBox="-19 0 455.02368 1081.5014"
   id="svg1"
   sodipodi:docname="tilde.svg"
   width="455.02368"
   height="1081.5015"
   inkscape:version="1.3 (0e150ed6c4, 2023-07-21)"
   xmlns:inkscape="http://www.inkscape.org/namespaces/inkscape"
   xmlns:sodipodi="http://sodipodi.sourceforge.net/DTD/sodipodi-0.dtd"
   xmlns="http://www.w3.org/2000/svg"
   xmlns:svg="http://www.w3.org/2000/svg">
  <defs
     id="defs1">
    <pattern
       id="EMFhbasepattern"
       patternUnits="userSpaceOnUse"
       width="6"
       height="6"
       x="0"
       y="0" />
    <pattern
       id="EMFhbasepattern-2"
       patternUnits="userSpaceOnUse"
       width="6"
       height="6"
       x="0"
       y="0" />
    <pattern
       id="EMFhbasepattern-3"
       patternUnits="userSpaceOnUse"
       width="6"
       height="6"
       x="0"
       y="0" />
    <pattern
       id="EMFhbasepattern-9"
       patternUnits="userSpaceOnUse"
       width="6"
       height="6"
       x="0"
       y="0" />
  </defs>
  <sodipodi:namedview
     id="namedview1"
     pagecolor="#ffffff"
     bordercolor="#000000"
     borderopacity="0.25"
     inkscape:showpageshadow="2"
     inkscape:pageopacity="0.0"
     inkscape:pagecheckerboard="0"
     inkscape:deskcolor="#d1d1d1"
     showgrid="false"
     showguides="true"
     inkscape:zoom="0.54942197"
     inkscape:cx="-90.094686"
     inkscape:cy="366.74908"
     inkscape:window-width="1920"
     inkscape:window-height="991"
     inkscape:window-x="-9"
     inkscape:window-y="-9"
     inkscape:window-maximized="1"
     inkscape:current-layer="svg1">
    <sodipodi:guide
       position="235.55299,380.76489"
       orientation="0,-1"
       id="guide1"
       inkscape:locked="false" />
    <sodipodi:guide
       position="612.31259,1081.5014"
       orientation="0,-1"
       id="guide2"
       inkscape:locked="false" />
    <sodipodi:guide
       position="399.24516,641.06602"
       orientation="0,-1"
       id="guide3"
       inkscape:locked="false" />
    <sodipodi:guide
       position="1068.4858,0.13936456"
       orientation="0,-1"
       id="guide4"
       inkscape:locked="false" />
    <sodipodi:guide
       position="628.33139,486.62586"
       orientation="0,-1"
       id="guide5"
       inkscape:locked="false" />
  </sodipodi:namedview>
  <path
     style="color:#000000;fill:#000000;stroke-linecap:round;stroke-linejoin:round;-inkscape-stroke:none;paint-order:markers fill stroke"
     d="m 152.79102,235.52734 c -12.30543,0.17576 -21.90865,3.21716 -28.7461,7.10743 -9.11659,5.18702 -13.95898,12.89648 -13.95898,12.89648 a 13.0965,13.0965 0 0 0 4.77344,17.89648 13.0965,13.0965 0 0 0 17.89648,-4.77148 c 0,0 0.16311,-0.93501 4.24219,-3.25586 4.07907,-2.32085 11.43069,-5.01532 25.39257,-3.07617 13.83751,1.92188 30.22204,8.68249 46.45899,14.94531 16.23695,6.26283 32.41624,12.84566 49.73242,9.51563 26.89017,-5.17119 46.89844,-19.42188 46.89844,-19.42188 a 13.0965,13.0965 0 0 0 3.21875,-18.24023 13.0965,13.0965 0 0 0 -18.24024,-3.21875 c 0,0 -16.39197,11.22892 -36.82421,15.1582 -6.34503,1.2202 -19.74471,-2.20767 -35.35938,-8.23047 -15.61467,-6.0228 -33.35708,-13.82281 -52.28125,-16.45117 -4.69994,-0.65277 -9.10132,-0.9121 -13.20312,-0.85352 z"
     id="path2" />
</svg>
