<?xml version="1.0" encoding="UTF-8" standalone="no"?>
<svg
   version="1.1"
   viewBox="-19 0 388.67439 1077.6618"
   id="svg1"
   sodipodi:docname="verticalBar.svg"
   width="388.67438"
   height="1077.6619"
   inkscape:version="1.3 (0e150ed6c4, 2023-07-21)"
   xmlns:inkscape="http://www.inkscape.org/namespaces/inkscape"
   xmlns:sodipodi="http://sodipodi.sourceforge.net/DTD/sodipodi-0.dtd"
   xmlns="http://www.w3.org/2000/svg"
   xmlns:svg="http://www.w3.org/2000/svg">
  <defs
     id="defs1">
    <pattern
       id="EMFhbasepattern"
       patternUnits="userSpaceOnUse"
       width="6"
       height="6"
       x="0"
       y="0" />
    <pattern
       id="EMFhbasepattern-2"
       patternUnits="userSpaceOnUse"
       width="6"
       height="6"
       x="0"
       y="0" />
    <pattern
       id="EMFhbasepattern-3"
       patternUnits="userSpaceOnUse"
       width="6"
       height="6"
       x="0"
       y="0" />
    <pattern
       id="EMFhbasepattern-9"
       patternUnits="userSpaceOnUse"
       width="6"
       height="6"
       x="0"
       y="0" />
  </defs>
  <sodipodi:namedview
     id="namedview1"
     pagecolor="#ffffff"
     bordercolor="#000000"
     borderopacity="0.25"
     inkscape:showpageshadow="2"
     inkscape:pageopacity="0.0"
     inkscape:pagecheckerboard="0"
     inkscape:deskcolor="#d1d1d1"
     showgrid="false"
     showguides="true"
     inkscape:zoom="0.3885"
     inkscape:cx="168.59717"
     inkscape:cy="392.53539"
     inkscape:window-width="1920"
     inkscape:window-height="991"
     inkscape:window-x="-9"
     inkscape:window-y="-9"
     inkscape:window-maximized="1"
     inkscape:current-layer="svg1">
    <sodipodi:guide
       position="297.58484,381.52008"
       orientation="0,-1"
       id="guide1"
       inkscape:locked="false" />
    <sodipodi:guide
       position="674.34445,1082.2566"
       orientation="0,-1"
       id="guide2"
       inkscape:locked="false" />
    <sodipodi:guide
       position="1105.7235,644.44449"
       orientation="0,-1"
       id="guide3"
       inkscape:locked="false" />
    <sodipodi:guide
       position="1130.5177,0.89455862"
       orientation="0,-1"
       id="guide4"
       inkscape:locked="false" />
    <sodipodi:guide
       position="690.36325,487.38105"
       orientation="0,-1"
       id="guide5"
       inkscape:locked="false" />
  </sodipodi:namedview>
  <path
     style="color:#000000;fill:#000000;stroke-linecap:round;stroke-linejoin:round;-inkscape-stroke:none;paint-order:markers fill stroke"
     d="m 171.3897,173.44823 a 13.0965,13.0965 0 0 1 3.89809,9.2357 c 0,0 0.17563,25.89765 -0.13543,54.46377 -0.15553,14.28307 -0.43185,29.23633 -0.91831,42.05915 -0.48641,12.82284 -1.00718,22.92941 -2.33643,30.12515 0.18839,-1.01994 -0.5957,8.57244 -0.79249,20.38179 -0.19682,11.80933 -0.26984,27.68466 -0.24848,46.16328 0.0428,36.95725 0.4616,84.35712 1.00219,131.10555 1.08119,93.49686 2.6464,184.39855 2.6464,184.39855 a 13.0965,13.0965 0 0 1 -12.8697,13.31968 13.0965,13.0965 0 0 1 -13.31967,-12.86969 c 0,0 -1.56605,-90.95108 -2.64834,-184.54387 -0.54113,-46.79639 -0.96041,-94.25048 -1.00335,-131.37982 -0.0215,-18.56467 0.0497,-34.54088 0.25119,-46.63146 0.20147,-12.09057 0.0689,-18.44567 1.22477,-24.70289 0.6057,-3.27888 1.4491,-13.93359 1.92044,-26.3585 0.47134,-12.4249 0.74589,-27.20701 0.89991,-41.35029 0.30802,-28.28655 0.13564,-54.00309 0.13564,-54.00309 a 13.0965,13.0965 0 0 1 13.00696,-13.18585 13.0965,13.0965 0 0 1 9.28661,3.77284 z"
     id="path18" />
</svg>
