<?xml version="1.0" encoding="UTF-8" standalone="no"?>
<svg
   version="1.1"
   viewBox="-19 0 740.7785 1081.362"
   id="svg1"
   sodipodi:docname="yen.svg"
   width="740.7785"
   height="1081.3621"
   inkscape:version="1.3 (0e150ed6c4, 2023-07-21)"
   xmlns:inkscape="http://www.inkscape.org/namespaces/inkscape"
   xmlns:sodipodi="http://sodipodi.sourceforge.net/DTD/sodipodi-0.dtd"
   xmlns="http://www.w3.org/2000/svg"
   xmlns:svg="http://www.w3.org/2000/svg">
  <defs
     id="defs1">
    <pattern
       id="EMFhbasepattern"
       patternUnits="userSpaceOnUse"
       width="6"
       height="6"
       x="0"
       y="0" />
    <pattern
       id="EMFhbasepattern-2"
       patternUnits="userSpaceOnUse"
       width="6"
       height="6"
       x="0"
       y="0" />
    <pattern
       id="EMFhbasepattern-3"
       patternUnits="userSpaceOnUse"
       width="6"
       height="6"
       x="0"
       y="0" />
    <pattern
       id="EMFhbasepattern-0"
       patternUnits="userSpaceOnUse"
       width="6"
       height="6"
       x="0"
       y="0" />
    <pattern
       id="EMFhbasepattern-35"
       patternUnits="userSpaceOnUse"
       width="6"
       height="6"
       x="0"
       y="0" />
  </defs>
  <sodipodi:namedview
     id="namedview1"
     pagecolor="#ffffff"
     bordercolor="#000000"
     borderopacity="0.25"
     inkscape:showpageshadow="2"
     inkscape:pageopacity="0.0"
     inkscape:pagecheckerboard="0"
     inkscape:deskcolor="#d1d1d1"
     showgrid="false"
     showguides="true"
     inkscape:zoom="0.54942197"
     inkscape:cx="177.45923"
     inkscape:cy="381.30983"
     inkscape:window-width="1920"
     inkscape:window-height="991"
     inkscape:window-x="-9"
     inkscape:window-y="-9"
     inkscape:window-maximized="1"
     inkscape:current-layer="svg1">
    <sodipodi:guide
       position="12.273985,380.6255"
       orientation="0,-1"
       id="guide1"
       inkscape:locked="false" />
    <sodipodi:guide
       position="389.03358,1081.362"
       orientation="0,-1"
       id="guide2"
       inkscape:locked="false" />
    <sodipodi:guide
       position="175.96615,640.92662"
       orientation="0,-1"
       id="guide3"
       inkscape:locked="false" />
    <sodipodi:guide
       position="845.20682,-1.3392134e-05"
       orientation="0,-1"
       id="guide4"
       inkscape:locked="false" />
    <sodipodi:guide
       position="405.05238,486.48647"
       orientation="0,-1"
       id="guide5"
       inkscape:locked="false" />
  </sodipodi:namedview>
  <path
     style="fill:none;fill-opacity:1;stroke:#000000;stroke-width:26.193;stroke-linecap:round;stroke-linejoin:round;stroke-dasharray:none;stroke-opacity:1;paint-order:markers fill stroke"
     d="m 105.23747,11.195439 c 0,0 211.43796,80.576946 247.04856,248.264111 35.61061,167.68717 5.56416,430.1067 5.56416,430.1067 l 6.67699,-219.9533 c 0,0 23.36946,-366.95178 113.50879,-432.284447"
     id="path10" />
  <path
     style="color:#000000;fill:#000000;stroke-linecap:round;stroke-linejoin:round;-inkscape-stroke:none;paint-order:markers fill stroke"
     d="m 454.53182,488.32369 c -17.70098,2.05825 -70.8068,4.01449 -118.16211,5.26367 -47.35533,1.24918 -89.84571,1.92969 -89.84571,1.92969 a 13.0965,13.0965 0 0 0 -12.88477,13.30468 13.0965,13.0965 0 0 0 13.30469,12.88477 c 0,0 42.60016,-0.6821 90.11719,-1.93555 47.51703,-1.25344 99.06509,-2.93771 120.4961,-5.42968 a 13.0965,13.0965 0 0 0 11.49609,-14.52149 13.0965,13.0965 0 0 0 -14.52148,-11.49609 z"
     id="path28" />
  <path
     style="color:#000000;fill:#000000;stroke-linecap:round;stroke-linejoin:round;-inkscape-stroke:none;paint-order:markers fill stroke"
     d="m 257.31684,381.66261 c 17.70098,2.05825 70.8068,4.01449 118.16211,5.26367 47.35533,1.24918 89.84571,1.92969 89.84571,1.92969 a 13.0965,13.0965 0 0 1 12.88477,13.30468 13.0965,13.0965 0 0 1 -13.30469,12.88477 c 0,0 -42.60016,-0.6821 -90.11719,-1.93555 -47.51703,-1.25344 -99.06509,-2.93771 -120.4961,-5.42968 a 13.0965,13.0965 0 0 1 -11.49609,-14.52149 13.0965,13.0965 0 0 1 14.52148,-11.49609 z"
     id="path28-9" />
</svg>
